%TF.GenerationSoftware,KiCad,Pcbnew,(6.0.2)*%
%TF.CreationDate,2022-03-16T17:45:16-04:00*%
%TF.ProjectId,cv_sequencer,63765f73-6571-4756-956e-6365722e6b69,0.1*%
%TF.SameCoordinates,Original*%
%TF.FileFunction,Legend,Bot*%
%TF.FilePolarity,Positive*%
%FSLAX46Y46*%
G04 Gerber Fmt 4.6, Leading zero omitted, Abs format (unit mm)*
G04 Created by KiCad (PCBNEW (6.0.2)) date 2022-03-16 17:45:16*
%MOMM*%
%LPD*%
G01*
G04 APERTURE LIST*
%ADD10C,0.152400*%
%ADD11C,0.150000*%
%ADD12C,0.120000*%
%ADD13C,0.100000*%
G04 APERTURE END LIST*
D10*
X216524749Y-84429358D02*
X216627558Y-84477739D01*
X216821082Y-84477739D01*
X216911796Y-84429358D01*
X216954130Y-84380977D01*
X216990415Y-84284215D01*
X216954130Y-83993929D01*
X216893654Y-83897167D01*
X216839225Y-83848786D01*
X216736415Y-83800405D01*
X216542892Y-83800405D01*
X216452177Y-83848786D01*
X216107463Y-83800405D02*
X215950225Y-84477739D01*
X215623654Y-83800405D01*
X215575273Y-84574500D02*
X214801177Y-84574500D01*
X214547177Y-84477739D02*
X214420177Y-83461739D01*
X214468558Y-83848786D02*
X214365749Y-83800405D01*
X214172225Y-83800405D01*
X214081511Y-83848786D01*
X214039177Y-83897167D01*
X214002892Y-83993929D01*
X214039177Y-84284215D01*
X214099654Y-84380977D01*
X214154082Y-84429358D01*
X214256892Y-84477739D01*
X214450415Y-84477739D01*
X214541130Y-84429358D01*
X213627939Y-84477739D02*
X213543273Y-83800405D01*
X213500939Y-83461739D02*
X213555368Y-83510120D01*
X213513035Y-83558500D01*
X213458606Y-83510120D01*
X213500939Y-83461739D01*
X213513035Y-83558500D01*
X213059463Y-83800405D02*
X213144130Y-84477739D01*
X213071558Y-83897167D02*
X213017130Y-83848786D01*
X212914320Y-83800405D01*
X212769177Y-83800405D01*
X212678463Y-83848786D01*
X212642177Y-83945548D01*
X212708701Y-84477739D01*
X211789463Y-84477739D02*
X211722939Y-83945548D01*
X211759225Y-83848786D01*
X211849939Y-83800405D01*
X212043463Y-83800405D01*
X212146273Y-83848786D01*
X211783415Y-84429358D02*
X211886225Y-84477739D01*
X212128130Y-84477739D01*
X212218844Y-84429358D01*
X212255130Y-84332596D01*
X212243035Y-84235834D01*
X212182558Y-84139072D01*
X212079749Y-84090691D01*
X211837844Y-84090691D01*
X211735035Y-84042310D01*
X211305654Y-84477739D02*
X211220987Y-83800405D01*
X211245177Y-83993929D02*
X211184701Y-83897167D01*
X211130273Y-83848786D01*
X211027463Y-83800405D01*
X210930701Y-83800405D01*
X210688796Y-83800405D02*
X210531558Y-84477739D01*
X210204987Y-83800405D02*
X210531558Y-84477739D01*
X210658558Y-84719643D01*
X210712987Y-84768024D01*
X210815796Y-84816405D01*
X210156606Y-84574500D02*
X209382511Y-84574500D01*
X209170844Y-84429358D02*
X209080130Y-84477739D01*
X208886606Y-84477739D01*
X208783796Y-84429358D01*
X208723320Y-84332596D01*
X208717273Y-84284215D01*
X208753558Y-84187453D01*
X208844273Y-84139072D01*
X208989415Y-84139072D01*
X209080130Y-84090691D01*
X209116415Y-83993929D01*
X209110368Y-83945548D01*
X209049892Y-83848786D01*
X208947082Y-83800405D01*
X208801939Y-83800405D01*
X208711225Y-83848786D01*
X207912939Y-84429358D02*
X208015749Y-84477739D01*
X208209273Y-84477739D01*
X208299987Y-84429358D01*
X208336273Y-84332596D01*
X208287892Y-83945548D01*
X208227415Y-83848786D01*
X208124606Y-83800405D01*
X207931082Y-83800405D01*
X207840368Y-83848786D01*
X207804082Y-83945548D01*
X207816177Y-84042310D01*
X208312082Y-84139072D01*
X206915082Y-83800405D02*
X207042082Y-84816405D01*
X206993701Y-84429358D02*
X207096511Y-84477739D01*
X207290035Y-84477739D01*
X207380749Y-84429358D01*
X207423082Y-84380977D01*
X207459368Y-84284215D01*
X207423082Y-83993929D01*
X207362606Y-83897167D01*
X207308177Y-83848786D01*
X207205368Y-83800405D01*
X207011844Y-83800405D01*
X206921130Y-83848786D01*
X205995844Y-83800405D02*
X206080511Y-84477739D01*
X206431273Y-83800405D02*
X206497796Y-84332596D01*
X206461511Y-84429358D01*
X206370796Y-84477739D01*
X206225654Y-84477739D01*
X206122844Y-84429358D01*
X206068415Y-84380977D01*
X205203606Y-84429358D02*
X205306415Y-84477739D01*
X205499939Y-84477739D01*
X205590654Y-84429358D01*
X205626939Y-84332596D01*
X205578558Y-83945548D01*
X205518082Y-83848786D01*
X205415273Y-83800405D01*
X205221749Y-83800405D01*
X205131035Y-83848786D01*
X205094749Y-83945548D01*
X205106844Y-84042310D01*
X205602749Y-84139072D01*
X204641177Y-83800405D02*
X204725844Y-84477739D01*
X204653273Y-83897167D02*
X204598844Y-83848786D01*
X204496035Y-83800405D01*
X204350892Y-83800405D01*
X204260177Y-83848786D01*
X204223892Y-83945548D01*
X204290415Y-84477739D01*
X203365130Y-84429358D02*
X203467939Y-84477739D01*
X203661463Y-84477739D01*
X203752177Y-84429358D01*
X203794511Y-84380977D01*
X203830796Y-84284215D01*
X203794511Y-83993929D01*
X203734035Y-83897167D01*
X203679606Y-83848786D01*
X203576796Y-83800405D01*
X203383273Y-83800405D01*
X203292558Y-83848786D01*
X202542654Y-84429358D02*
X202645463Y-84477739D01*
X202838987Y-84477739D01*
X202929701Y-84429358D01*
X202965987Y-84332596D01*
X202917606Y-83945548D01*
X202857130Y-83848786D01*
X202754320Y-83800405D01*
X202560796Y-83800405D01*
X202470082Y-83848786D01*
X202433796Y-83945548D01*
X202445892Y-84042310D01*
X202941796Y-84139072D01*
X202064892Y-84477739D02*
X201980225Y-83800405D01*
X202004415Y-83993929D02*
X201943939Y-83897167D01*
X201889511Y-83848786D01*
X201786701Y-83800405D01*
X201689939Y-83800405D01*
X211934606Y-86113499D02*
X211849939Y-85436165D01*
X211874130Y-85629689D02*
X211813654Y-85532927D01*
X211759225Y-85484546D01*
X211656415Y-85436165D01*
X211559654Y-85436165D01*
X210912558Y-86065118D02*
X211015368Y-86113499D01*
X211208892Y-86113499D01*
X211299606Y-86065118D01*
X211335892Y-85968356D01*
X211287511Y-85581308D01*
X211227035Y-85484546D01*
X211124225Y-85436165D01*
X210930701Y-85436165D01*
X210839987Y-85484546D01*
X210803701Y-85581308D01*
X210815796Y-85678070D01*
X211311701Y-85774832D01*
X210446892Y-85436165D02*
X210289654Y-86113499D01*
X209963082Y-85436165D01*
X208566082Y-85097499D02*
X208469320Y-85097499D01*
X208378606Y-85145880D01*
X208336273Y-85194260D01*
X208299987Y-85291022D01*
X208275796Y-85484546D01*
X208306035Y-85726451D01*
X208378606Y-85919975D01*
X208439082Y-86016737D01*
X208493511Y-86065118D01*
X208596320Y-86113499D01*
X208693082Y-86113499D01*
X208783796Y-86065118D01*
X208826130Y-86016737D01*
X208862415Y-85919975D01*
X208886606Y-85726451D01*
X208856368Y-85484546D01*
X208783796Y-85291022D01*
X208723320Y-85194260D01*
X208668892Y-85145880D01*
X208566082Y-85097499D01*
X207906892Y-86016737D02*
X207864558Y-86065118D01*
X207918987Y-86113499D01*
X207961320Y-86065118D01*
X207906892Y-86016737D01*
X207918987Y-86113499D01*
X206902987Y-86113499D02*
X207483558Y-86113499D01*
X207193273Y-86113499D02*
X207066273Y-85097499D01*
X207181177Y-85242641D01*
X207290035Y-85339403D01*
X207392844Y-85387784D01*
%TO.C,C21*%
X108682971Y-81555771D02*
X108726514Y-81512228D01*
X108770057Y-81381600D01*
X108770057Y-81294514D01*
X108726514Y-81163885D01*
X108639428Y-81076800D01*
X108552342Y-81033257D01*
X108378171Y-80989714D01*
X108247542Y-80989714D01*
X108073371Y-81033257D01*
X107986285Y-81076800D01*
X107899200Y-81163885D01*
X107855657Y-81294514D01*
X107855657Y-81381600D01*
X107899200Y-81512228D01*
X107942742Y-81555771D01*
X107942742Y-81904114D02*
X107899200Y-81947657D01*
X107855657Y-82034742D01*
X107855657Y-82252457D01*
X107899200Y-82339542D01*
X107942742Y-82383085D01*
X108029828Y-82426628D01*
X108116914Y-82426628D01*
X108247542Y-82383085D01*
X108770057Y-81860571D01*
X108770057Y-82426628D01*
X108770057Y-83297485D02*
X108770057Y-82774971D01*
X108770057Y-83036228D02*
X107855657Y-83036228D01*
X107986285Y-82949142D01*
X108073371Y-82862057D01*
X108116914Y-82774971D01*
%TO.C,J4*%
X140716000Y-77934457D02*
X140716000Y-78587600D01*
X140759542Y-78718228D01*
X140846628Y-78805314D01*
X140977257Y-78848857D01*
X141064342Y-78848857D01*
X139888685Y-78239257D02*
X139888685Y-78848857D01*
X140106400Y-77890914D02*
X140324114Y-78544057D01*
X139758057Y-78544057D01*
%TO.C,TP27*%
X175056800Y-84843257D02*
X175492228Y-84843257D01*
X175535771Y-85278685D01*
X175492228Y-85235142D01*
X175405142Y-85191600D01*
X175187428Y-85191600D01*
X175100342Y-85235142D01*
X175056800Y-85278685D01*
X175013257Y-85365771D01*
X175013257Y-85583485D01*
X175056800Y-85670571D01*
X175100342Y-85714114D01*
X175187428Y-85757657D01*
X175405142Y-85757657D01*
X175492228Y-85714114D01*
X175535771Y-85670571D01*
X174752000Y-84843257D02*
X174447200Y-85757657D01*
X174142400Y-84843257D01*
X173663428Y-84843257D02*
X173576342Y-84843257D01*
X173489257Y-84886800D01*
X173445714Y-84930342D01*
X173402171Y-85017428D01*
X173358628Y-85191600D01*
X173358628Y-85409314D01*
X173402171Y-85583485D01*
X173445714Y-85670571D01*
X173489257Y-85714114D01*
X173576342Y-85757657D01*
X173663428Y-85757657D01*
X173750514Y-85714114D01*
X173794057Y-85670571D01*
X173837600Y-85583485D01*
X173881142Y-85409314D01*
X173881142Y-85191600D01*
X173837600Y-85017428D01*
X173794057Y-84930342D01*
X173750514Y-84886800D01*
X173663428Y-84843257D01*
%TO.C,C3*%
X163728400Y-70633771D02*
X163771942Y-70677314D01*
X163902571Y-70720857D01*
X163989657Y-70720857D01*
X164120285Y-70677314D01*
X164207371Y-70590228D01*
X164250914Y-70503142D01*
X164294457Y-70328971D01*
X164294457Y-70198342D01*
X164250914Y-70024171D01*
X164207371Y-69937085D01*
X164120285Y-69850000D01*
X163989657Y-69806457D01*
X163902571Y-69806457D01*
X163771942Y-69850000D01*
X163728400Y-69893542D01*
X163423600Y-69806457D02*
X162857542Y-69806457D01*
X163162342Y-70154800D01*
X163031714Y-70154800D01*
X162944628Y-70198342D01*
X162901085Y-70241885D01*
X162857542Y-70328971D01*
X162857542Y-70546685D01*
X162901085Y-70633771D01*
X162944628Y-70677314D01*
X163031714Y-70720857D01*
X163292971Y-70720857D01*
X163380057Y-70677314D01*
X163423600Y-70633771D01*
%TO.C,J1*%
X141071200Y-65082057D02*
X141071200Y-65735200D01*
X141114742Y-65865828D01*
X141201828Y-65952914D01*
X141332457Y-65996457D01*
X141419542Y-65996457D01*
X140156800Y-65996457D02*
X140679314Y-65996457D01*
X140418057Y-65996457D02*
X140418057Y-65082057D01*
X140505142Y-65212685D01*
X140592228Y-65299771D01*
X140679314Y-65343314D01*
X139772571Y-65909371D02*
X139729028Y-65952914D01*
X139772571Y-65996457D01*
X139816114Y-65952914D01*
X139772571Y-65909371D01*
X139772571Y-65996457D01*
X139772571Y-65430400D02*
X139729028Y-65473942D01*
X139772571Y-65517485D01*
X139816114Y-65473942D01*
X139772571Y-65430400D01*
X139772571Y-65517485D01*
X139337142Y-65996457D02*
X139337142Y-65082057D01*
X139032342Y-65735200D01*
X138727542Y-65082057D01*
X138727542Y-65996457D01*
X138292114Y-65996457D02*
X138292114Y-65082057D01*
X137856685Y-65996457D02*
X137856685Y-65082057D01*
X137638971Y-65082057D01*
X137508342Y-65125600D01*
X137421257Y-65212685D01*
X137377714Y-65299771D01*
X137334171Y-65473942D01*
X137334171Y-65604571D01*
X137377714Y-65778742D01*
X137421257Y-65865828D01*
X137508342Y-65952914D01*
X137638971Y-65996457D01*
X137856685Y-65996457D01*
X136942285Y-65996457D02*
X136942285Y-65082057D01*
X136724571Y-66083542D02*
X136027885Y-66083542D01*
X135810171Y-65996457D02*
X135810171Y-65082057D01*
X135200571Y-65082057D02*
X135026400Y-65082057D01*
X134939314Y-65125600D01*
X134852228Y-65212685D01*
X134808685Y-65386857D01*
X134808685Y-65691657D01*
X134852228Y-65865828D01*
X134939314Y-65952914D01*
X135026400Y-65996457D01*
X135200571Y-65996457D01*
X135287657Y-65952914D01*
X135374742Y-65865828D01*
X135418285Y-65691657D01*
X135418285Y-65386857D01*
X135374742Y-65212685D01*
X135287657Y-65125600D01*
X135200571Y-65082057D01*
%TO.C,J5*%
X202586608Y-73436145D02*
X202586608Y-74089288D01*
X202630150Y-74219916D01*
X202717236Y-74307002D01*
X202847865Y-74350545D01*
X202934950Y-74350545D01*
X201715750Y-73436145D02*
X202151179Y-73436145D01*
X202194722Y-73871573D01*
X202151179Y-73828030D01*
X202064093Y-73784488D01*
X201846379Y-73784488D01*
X201759293Y-73828030D01*
X201715750Y-73871573D01*
X201672208Y-73958659D01*
X201672208Y-74176373D01*
X201715750Y-74263459D01*
X201759293Y-74307002D01*
X201846379Y-74350545D01*
X202064093Y-74350545D01*
X202151179Y-74307002D01*
X202194722Y-74263459D01*
X205914171Y-78456971D02*
X205957714Y-78500514D01*
X206088342Y-78544057D01*
X206175428Y-78544057D01*
X206306057Y-78500514D01*
X206393142Y-78413428D01*
X206436685Y-78326342D01*
X206480228Y-78152171D01*
X206480228Y-78021542D01*
X206436685Y-77847371D01*
X206393142Y-77760285D01*
X206306057Y-77673200D01*
X206175428Y-77629657D01*
X206088342Y-77629657D01*
X205957714Y-77673200D01*
X205914171Y-77716742D01*
X205652914Y-77629657D02*
X205348114Y-78544057D01*
X205043314Y-77629657D01*
X204956228Y-78631142D02*
X204259542Y-78631142D01*
X203867657Y-77629657D02*
X203693485Y-77629657D01*
X203606400Y-77673200D01*
X203519314Y-77760285D01*
X203475771Y-77934457D01*
X203475771Y-78239257D01*
X203519314Y-78413428D01*
X203606400Y-78500514D01*
X203693485Y-78544057D01*
X203867657Y-78544057D01*
X203954742Y-78500514D01*
X204041828Y-78413428D01*
X204085371Y-78239257D01*
X204085371Y-77934457D01*
X204041828Y-77760285D01*
X203954742Y-77673200D01*
X203867657Y-77629657D01*
X202779085Y-78065085D02*
X203083885Y-78065085D01*
X203083885Y-78544057D02*
X203083885Y-77629657D01*
X202648457Y-77629657D01*
X201995314Y-78065085D02*
X202300114Y-78065085D01*
X202300114Y-78544057D02*
X202300114Y-77629657D01*
X201864685Y-77629657D01*
X201559885Y-78500514D02*
X201429257Y-78544057D01*
X201211542Y-78544057D01*
X201124457Y-78500514D01*
X201080914Y-78456971D01*
X201037371Y-78369885D01*
X201037371Y-78282800D01*
X201080914Y-78195714D01*
X201124457Y-78152171D01*
X201211542Y-78108628D01*
X201385714Y-78065085D01*
X201472800Y-78021542D01*
X201516342Y-77978000D01*
X201559885Y-77890914D01*
X201559885Y-77803828D01*
X201516342Y-77716742D01*
X201472800Y-77673200D01*
X201385714Y-77629657D01*
X201168000Y-77629657D01*
X201037371Y-77673200D01*
X200645485Y-78065085D02*
X200340685Y-78065085D01*
X200210057Y-78544057D02*
X200645485Y-78544057D01*
X200645485Y-77629657D01*
X200210057Y-77629657D01*
X199948800Y-77629657D02*
X199426285Y-77629657D01*
X199687542Y-78544057D02*
X199687542Y-77629657D01*
%TO.C,R16*%
X187074628Y-66707657D02*
X187379428Y-66272228D01*
X187597142Y-66707657D02*
X187597142Y-65793257D01*
X187248800Y-65793257D01*
X187161714Y-65836800D01*
X187118171Y-65880342D01*
X187074628Y-65967428D01*
X187074628Y-66098057D01*
X187118171Y-66185142D01*
X187161714Y-66228685D01*
X187248800Y-66272228D01*
X187597142Y-66272228D01*
X186203771Y-66707657D02*
X186726285Y-66707657D01*
X186465028Y-66707657D02*
X186465028Y-65793257D01*
X186552114Y-65923885D01*
X186639200Y-66010971D01*
X186726285Y-66054514D01*
X185420000Y-65793257D02*
X185594171Y-65793257D01*
X185681257Y-65836800D01*
X185724800Y-65880342D01*
X185811885Y-66010971D01*
X185855428Y-66185142D01*
X185855428Y-66533485D01*
X185811885Y-66620571D01*
X185768342Y-66664114D01*
X185681257Y-66707657D01*
X185507085Y-66707657D01*
X185420000Y-66664114D01*
X185376457Y-66620571D01*
X185332914Y-66533485D01*
X185332914Y-66315771D01*
X185376457Y-66228685D01*
X185420000Y-66185142D01*
X185507085Y-66141600D01*
X185681257Y-66141600D01*
X185768342Y-66185142D01*
X185811885Y-66228685D01*
X185855428Y-66315771D01*
%TO.C,C10*%
X156739771Y-70328971D02*
X156783314Y-70285428D01*
X156826857Y-70154800D01*
X156826857Y-70067714D01*
X156783314Y-69937085D01*
X156696228Y-69850000D01*
X156609142Y-69806457D01*
X156434971Y-69762914D01*
X156304342Y-69762914D01*
X156130171Y-69806457D01*
X156043085Y-69850000D01*
X155956000Y-69937085D01*
X155912457Y-70067714D01*
X155912457Y-70154800D01*
X155956000Y-70285428D01*
X155999542Y-70328971D01*
X156826857Y-71199828D02*
X156826857Y-70677314D01*
X156826857Y-70938571D02*
X155912457Y-70938571D01*
X156043085Y-70851485D01*
X156130171Y-70764400D01*
X156173714Y-70677314D01*
X155912457Y-71765885D02*
X155912457Y-71852971D01*
X155956000Y-71940057D01*
X155999542Y-71983600D01*
X156086628Y-72027142D01*
X156260800Y-72070685D01*
X156478514Y-72070685D01*
X156652685Y-72027142D01*
X156739771Y-71983600D01*
X156783314Y-71940057D01*
X156826857Y-71852971D01*
X156826857Y-71765885D01*
X156783314Y-71678800D01*
X156739771Y-71635257D01*
X156652685Y-71591714D01*
X156478514Y-71548171D01*
X156260800Y-71548171D01*
X156086628Y-71591714D01*
X155999542Y-71635257D01*
X155956000Y-71678800D01*
X155912457Y-71765885D01*
%TO.C,U3*%
X134193885Y-82934057D02*
X134193885Y-83674285D01*
X134150342Y-83761371D01*
X134106800Y-83804914D01*
X134019714Y-83848457D01*
X133845542Y-83848457D01*
X133758457Y-83804914D01*
X133714914Y-83761371D01*
X133671371Y-83674285D01*
X133671371Y-82934057D01*
X133323028Y-82934057D02*
X132756971Y-82934057D01*
X133061771Y-83282400D01*
X132931142Y-83282400D01*
X132844057Y-83325942D01*
X132800514Y-83369485D01*
X132756971Y-83456571D01*
X132756971Y-83674285D01*
X132800514Y-83761371D01*
X132844057Y-83804914D01*
X132931142Y-83848457D01*
X133192400Y-83848457D01*
X133279485Y-83804914D01*
X133323028Y-83761371D01*
%TO.C,R19*%
X187125428Y-85757657D02*
X187430228Y-85322228D01*
X187647942Y-85757657D02*
X187647942Y-84843257D01*
X187299600Y-84843257D01*
X187212514Y-84886800D01*
X187168971Y-84930342D01*
X187125428Y-85017428D01*
X187125428Y-85148057D01*
X187168971Y-85235142D01*
X187212514Y-85278685D01*
X187299600Y-85322228D01*
X187647942Y-85322228D01*
X186254571Y-85757657D02*
X186777085Y-85757657D01*
X186515828Y-85757657D02*
X186515828Y-84843257D01*
X186602914Y-84973885D01*
X186690000Y-85060971D01*
X186777085Y-85104514D01*
X185819142Y-85757657D02*
X185644971Y-85757657D01*
X185557885Y-85714114D01*
X185514342Y-85670571D01*
X185427257Y-85539942D01*
X185383714Y-85365771D01*
X185383714Y-85017428D01*
X185427257Y-84930342D01*
X185470800Y-84886800D01*
X185557885Y-84843257D01*
X185732057Y-84843257D01*
X185819142Y-84886800D01*
X185862685Y-84930342D01*
X185906228Y-85017428D01*
X185906228Y-85235142D01*
X185862685Y-85322228D01*
X185819142Y-85365771D01*
X185732057Y-85409314D01*
X185557885Y-85409314D01*
X185470800Y-85365771D01*
X185427257Y-85322228D01*
X185383714Y-85235142D01*
%TO.C,TP22*%
X168939028Y-68391314D02*
X168808400Y-68434857D01*
X168590685Y-68434857D01*
X168503600Y-68391314D01*
X168460057Y-68347771D01*
X168416514Y-68260685D01*
X168416514Y-68173600D01*
X168460057Y-68086514D01*
X168503600Y-68042971D01*
X168590685Y-67999428D01*
X168764857Y-67955885D01*
X168851942Y-67912342D01*
X168895485Y-67868800D01*
X168939028Y-67781714D01*
X168939028Y-67694628D01*
X168895485Y-67607542D01*
X168851942Y-67564000D01*
X168764857Y-67520457D01*
X168547142Y-67520457D01*
X168416514Y-67564000D01*
X168024628Y-68434857D02*
X168024628Y-67520457D01*
X167806914Y-67520457D01*
X167676285Y-67564000D01*
X167589200Y-67651085D01*
X167545657Y-67738171D01*
X167502114Y-67912342D01*
X167502114Y-68042971D01*
X167545657Y-68217142D01*
X167589200Y-68304228D01*
X167676285Y-68391314D01*
X167806914Y-68434857D01*
X168024628Y-68434857D01*
X166936057Y-67520457D02*
X166761885Y-67520457D01*
X166674800Y-67564000D01*
X166587714Y-67651085D01*
X166544171Y-67825257D01*
X166544171Y-68130057D01*
X166587714Y-68304228D01*
X166674800Y-68391314D01*
X166761885Y-68434857D01*
X166936057Y-68434857D01*
X167023142Y-68391314D01*
X167110228Y-68304228D01*
X167153771Y-68130057D01*
X167153771Y-67825257D01*
X167110228Y-67651085D01*
X167023142Y-67564000D01*
X166936057Y-67520457D01*
%TO.C,R22*%
X195659828Y-71533657D02*
X195964628Y-71098228D01*
X196182342Y-71533657D02*
X196182342Y-70619257D01*
X195834000Y-70619257D01*
X195746914Y-70662800D01*
X195703371Y-70706342D01*
X195659828Y-70793428D01*
X195659828Y-70924057D01*
X195703371Y-71011142D01*
X195746914Y-71054685D01*
X195834000Y-71098228D01*
X196182342Y-71098228D01*
X195311485Y-70706342D02*
X195267942Y-70662800D01*
X195180857Y-70619257D01*
X194963142Y-70619257D01*
X194876057Y-70662800D01*
X194832514Y-70706342D01*
X194788971Y-70793428D01*
X194788971Y-70880514D01*
X194832514Y-71011142D01*
X195355028Y-71533657D01*
X194788971Y-71533657D01*
X194440628Y-70706342D02*
X194397085Y-70662800D01*
X194310000Y-70619257D01*
X194092285Y-70619257D01*
X194005200Y-70662800D01*
X193961657Y-70706342D01*
X193918114Y-70793428D01*
X193918114Y-70880514D01*
X193961657Y-71011142D01*
X194484171Y-71533657D01*
X193918114Y-71533657D01*
%TO.C,R21*%
X194542228Y-82201657D02*
X194847028Y-81766228D01*
X195064742Y-82201657D02*
X195064742Y-81287257D01*
X194716400Y-81287257D01*
X194629314Y-81330800D01*
X194585771Y-81374342D01*
X194542228Y-81461428D01*
X194542228Y-81592057D01*
X194585771Y-81679142D01*
X194629314Y-81722685D01*
X194716400Y-81766228D01*
X195064742Y-81766228D01*
X194193885Y-81374342D02*
X194150342Y-81330800D01*
X194063257Y-81287257D01*
X193845542Y-81287257D01*
X193758457Y-81330800D01*
X193714914Y-81374342D01*
X193671371Y-81461428D01*
X193671371Y-81548514D01*
X193714914Y-81679142D01*
X194237428Y-82201657D01*
X193671371Y-82201657D01*
X192800514Y-82201657D02*
X193323028Y-82201657D01*
X193061771Y-82201657D02*
X193061771Y-81287257D01*
X193148857Y-81417885D01*
X193235942Y-81504971D01*
X193323028Y-81548514D01*
%TO.C,C24*%
X192865828Y-71446571D02*
X192909371Y-71490114D01*
X193040000Y-71533657D01*
X193127085Y-71533657D01*
X193257714Y-71490114D01*
X193344800Y-71403028D01*
X193388342Y-71315942D01*
X193431885Y-71141771D01*
X193431885Y-71011142D01*
X193388342Y-70836971D01*
X193344800Y-70749885D01*
X193257714Y-70662800D01*
X193127085Y-70619257D01*
X193040000Y-70619257D01*
X192909371Y-70662800D01*
X192865828Y-70706342D01*
X192517485Y-70706342D02*
X192473942Y-70662800D01*
X192386857Y-70619257D01*
X192169142Y-70619257D01*
X192082057Y-70662800D01*
X192038514Y-70706342D01*
X191994971Y-70793428D01*
X191994971Y-70880514D01*
X192038514Y-71011142D01*
X192561028Y-71533657D01*
X191994971Y-71533657D01*
X191211200Y-70924057D02*
X191211200Y-71533657D01*
X191428914Y-70575714D02*
X191646628Y-71228857D01*
X191080571Y-71228857D01*
%TO.C,J3*%
X122232057Y-65481200D02*
X122885200Y-65481200D01*
X123015828Y-65437657D01*
X123102914Y-65350571D01*
X123146457Y-65219942D01*
X123146457Y-65132857D01*
X122232057Y-65829542D02*
X122232057Y-66395600D01*
X122580400Y-66090800D01*
X122580400Y-66221428D01*
X122623942Y-66308514D01*
X122667485Y-66352057D01*
X122754571Y-66395600D01*
X122972285Y-66395600D01*
X123059371Y-66352057D01*
X123102914Y-66308514D01*
X123146457Y-66221428D01*
X123146457Y-65960171D01*
X123102914Y-65873085D01*
X123059371Y-65829542D01*
D11*
X108202980Y-68715047D02*
X107726790Y-68381714D01*
X108202980Y-68143619D02*
X107202980Y-68143619D01*
X107202980Y-68524571D01*
X107250600Y-68619809D01*
X107298219Y-68667428D01*
X107393457Y-68715047D01*
X107536314Y-68715047D01*
X107631552Y-68667428D01*
X107679171Y-68619809D01*
X107726790Y-68524571D01*
X107726790Y-68143619D01*
X107679171Y-69143619D02*
X107679171Y-69476952D01*
X108202980Y-69619809D02*
X108202980Y-69143619D01*
X107202980Y-69143619D01*
X107202980Y-69619809D01*
X108202980Y-70048380D02*
X107202980Y-70048380D01*
X107202980Y-70286476D01*
X107250600Y-70429333D01*
X107345838Y-70524571D01*
X107441076Y-70572190D01*
X107631552Y-70619809D01*
X107774409Y-70619809D01*
X107964885Y-70572190D01*
X108060123Y-70524571D01*
X108155361Y-70429333D01*
X108202980Y-70286476D01*
X108202980Y-70048380D01*
X108107742Y-71048380D02*
X108155361Y-71096000D01*
X108202980Y-71048380D01*
X108155361Y-71000761D01*
X108107742Y-71048380D01*
X108202980Y-71048380D01*
X107822028Y-71048380D02*
X107250600Y-71000761D01*
X107202980Y-71048380D01*
X107250600Y-71096000D01*
X107822028Y-71048380D01*
X107202980Y-71048380D01*
D10*
%TO.C,TP19*%
X172487771Y-68442114D02*
X172357142Y-68485657D01*
X172139428Y-68485657D01*
X172052342Y-68442114D01*
X172008800Y-68398571D01*
X171965257Y-68311485D01*
X171965257Y-68224400D01*
X172008800Y-68137314D01*
X172052342Y-68093771D01*
X172139428Y-68050228D01*
X172313600Y-68006685D01*
X172400685Y-67963142D01*
X172444228Y-67919600D01*
X172487771Y-67832514D01*
X172487771Y-67745428D01*
X172444228Y-67658342D01*
X172400685Y-67614800D01*
X172313600Y-67571257D01*
X172095885Y-67571257D01*
X171965257Y-67614800D01*
X171573371Y-68485657D02*
X171573371Y-67571257D01*
X171355657Y-67571257D01*
X171225028Y-67614800D01*
X171137942Y-67701885D01*
X171094400Y-67788971D01*
X171050857Y-67963142D01*
X171050857Y-68093771D01*
X171094400Y-68267942D01*
X171137942Y-68355028D01*
X171225028Y-68442114D01*
X171355657Y-68485657D01*
X171573371Y-68485657D01*
X170658971Y-68485657D02*
X170658971Y-67571257D01*
%TO.C,SW2*%
X145933885Y-83595028D02*
X145977428Y-83725657D01*
X146020971Y-83769200D01*
X146108057Y-83812742D01*
X146238685Y-83812742D01*
X146325771Y-83769200D01*
X146369314Y-83725657D01*
X146412857Y-83638571D01*
X146412857Y-83290228D01*
X145498457Y-83290228D01*
X145498457Y-83595028D01*
X145542000Y-83682114D01*
X145585542Y-83725657D01*
X145672628Y-83769200D01*
X145759714Y-83769200D01*
X145846800Y-83725657D01*
X145890342Y-83682114D01*
X145933885Y-83595028D01*
X145933885Y-83290228D01*
X145498457Y-84378800D02*
X145498457Y-84552971D01*
X145542000Y-84640057D01*
X145629085Y-84727142D01*
X145803257Y-84770685D01*
X146108057Y-84770685D01*
X146282228Y-84727142D01*
X146369314Y-84640057D01*
X146412857Y-84552971D01*
X146412857Y-84378800D01*
X146369314Y-84291714D01*
X146282228Y-84204628D01*
X146108057Y-84161085D01*
X145803257Y-84161085D01*
X145629085Y-84204628D01*
X145542000Y-84291714D01*
X145498457Y-84378800D01*
X145498457Y-85336742D02*
X145498457Y-85510914D01*
X145542000Y-85598000D01*
X145629085Y-85685085D01*
X145803257Y-85728628D01*
X146108057Y-85728628D01*
X146282228Y-85685085D01*
X146369314Y-85598000D01*
X146412857Y-85510914D01*
X146412857Y-85336742D01*
X146369314Y-85249657D01*
X146282228Y-85162571D01*
X146108057Y-85119028D01*
X145803257Y-85119028D01*
X145629085Y-85162571D01*
X145542000Y-85249657D01*
X145498457Y-85336742D01*
X145498457Y-85989885D02*
X145498457Y-86512400D01*
X146412857Y-86251142D02*
X145498457Y-86251142D01*
%TO.C,U7*%
X175969005Y-78757937D02*
X175969005Y-79498165D01*
X175925462Y-79585251D01*
X175881920Y-79628794D01*
X175794834Y-79672337D01*
X175620662Y-79672337D01*
X175533577Y-79628794D01*
X175490034Y-79585251D01*
X175446491Y-79498165D01*
X175446491Y-78757937D01*
X175098148Y-78757937D02*
X174488548Y-78757937D01*
X174880434Y-79672337D01*
%TO.C,R18*%
X199723828Y-72702057D02*
X200028628Y-72266628D01*
X200246342Y-72702057D02*
X200246342Y-71787657D01*
X199898000Y-71787657D01*
X199810914Y-71831200D01*
X199767371Y-71874742D01*
X199723828Y-71961828D01*
X199723828Y-72092457D01*
X199767371Y-72179542D01*
X199810914Y-72223085D01*
X199898000Y-72266628D01*
X200246342Y-72266628D01*
X198852971Y-72702057D02*
X199375485Y-72702057D01*
X199114228Y-72702057D02*
X199114228Y-71787657D01*
X199201314Y-71918285D01*
X199288400Y-72005371D01*
X199375485Y-72048914D01*
X198330457Y-72179542D02*
X198417542Y-72136000D01*
X198461085Y-72092457D01*
X198504628Y-72005371D01*
X198504628Y-71961828D01*
X198461085Y-71874742D01*
X198417542Y-71831200D01*
X198330457Y-71787657D01*
X198156285Y-71787657D01*
X198069200Y-71831200D01*
X198025657Y-71874742D01*
X197982114Y-71961828D01*
X197982114Y-72005371D01*
X198025657Y-72092457D01*
X198069200Y-72136000D01*
X198156285Y-72179542D01*
X198330457Y-72179542D01*
X198417542Y-72223085D01*
X198461085Y-72266628D01*
X198504628Y-72353714D01*
X198504628Y-72527885D01*
X198461085Y-72614971D01*
X198417542Y-72658514D01*
X198330457Y-72702057D01*
X198156285Y-72702057D01*
X198069200Y-72658514D01*
X198025657Y-72614971D01*
X197982114Y-72527885D01*
X197982114Y-72353714D01*
X198025657Y-72266628D01*
X198069200Y-72223085D01*
X198156285Y-72179542D01*
%TO.C,R28*%
X175898628Y-72549657D02*
X176203428Y-72114228D01*
X176421142Y-72549657D02*
X176421142Y-71635257D01*
X176072800Y-71635257D01*
X175985714Y-71678800D01*
X175942171Y-71722342D01*
X175898628Y-71809428D01*
X175898628Y-71940057D01*
X175942171Y-72027142D01*
X175985714Y-72070685D01*
X176072800Y-72114228D01*
X176421142Y-72114228D01*
X175550285Y-71722342D02*
X175506742Y-71678800D01*
X175419657Y-71635257D01*
X175201942Y-71635257D01*
X175114857Y-71678800D01*
X175071314Y-71722342D01*
X175027771Y-71809428D01*
X175027771Y-71896514D01*
X175071314Y-72027142D01*
X175593828Y-72549657D01*
X175027771Y-72549657D01*
X174505257Y-72027142D02*
X174592342Y-71983600D01*
X174635885Y-71940057D01*
X174679428Y-71852971D01*
X174679428Y-71809428D01*
X174635885Y-71722342D01*
X174592342Y-71678800D01*
X174505257Y-71635257D01*
X174331085Y-71635257D01*
X174244000Y-71678800D01*
X174200457Y-71722342D01*
X174156914Y-71809428D01*
X174156914Y-71852971D01*
X174200457Y-71940057D01*
X174244000Y-71983600D01*
X174331085Y-72027142D01*
X174505257Y-72027142D01*
X174592342Y-72070685D01*
X174635885Y-72114228D01*
X174679428Y-72201314D01*
X174679428Y-72375485D01*
X174635885Y-72462571D01*
X174592342Y-72506114D01*
X174505257Y-72549657D01*
X174331085Y-72549657D01*
X174244000Y-72506114D01*
X174200457Y-72462571D01*
X174156914Y-72375485D01*
X174156914Y-72201314D01*
X174200457Y-72114228D01*
X174244000Y-72070685D01*
X174331085Y-72027142D01*
%TO.C,TP13*%
X126172685Y-84748914D02*
X125476000Y-84748914D01*
X125824342Y-85097257D02*
X125824342Y-84400571D01*
X124561600Y-85097257D02*
X125084114Y-85097257D01*
X124822857Y-85097257D02*
X124822857Y-84182857D01*
X124909942Y-84313485D01*
X124997028Y-84400571D01*
X125084114Y-84444114D01*
X124213257Y-84269942D02*
X124169714Y-84226400D01*
X124082628Y-84182857D01*
X123864914Y-84182857D01*
X123777828Y-84226400D01*
X123734285Y-84269942D01*
X123690742Y-84357028D01*
X123690742Y-84444114D01*
X123734285Y-84574742D01*
X124256800Y-85097257D01*
X123690742Y-85097257D01*
X123429485Y-84182857D02*
X123124685Y-85097257D01*
X122819885Y-84182857D01*
%TO.C,R24*%
X173206228Y-72956057D02*
X173511028Y-72520628D01*
X173728742Y-72956057D02*
X173728742Y-72041657D01*
X173380400Y-72041657D01*
X173293314Y-72085200D01*
X173249771Y-72128742D01*
X173206228Y-72215828D01*
X173206228Y-72346457D01*
X173249771Y-72433542D01*
X173293314Y-72477085D01*
X173380400Y-72520628D01*
X173728742Y-72520628D01*
X172857885Y-72128742D02*
X172814342Y-72085200D01*
X172727257Y-72041657D01*
X172509542Y-72041657D01*
X172422457Y-72085200D01*
X172378914Y-72128742D01*
X172335371Y-72215828D01*
X172335371Y-72302914D01*
X172378914Y-72433542D01*
X172901428Y-72956057D01*
X172335371Y-72956057D01*
X171551600Y-72346457D02*
X171551600Y-72956057D01*
X171769314Y-71998114D02*
X171987028Y-72651257D01*
X171420971Y-72651257D01*
%TO.C,TP23*%
X160506228Y-65230248D02*
X159591828Y-65230248D01*
X159766000Y-66315771D02*
X159809542Y-66359314D01*
X159940171Y-66402857D01*
X160027257Y-66402857D01*
X160157885Y-66359314D01*
X160244971Y-66272228D01*
X160288514Y-66185142D01*
X160332057Y-66010971D01*
X160332057Y-65880342D01*
X160288514Y-65706171D01*
X160244971Y-65619085D01*
X160157885Y-65532000D01*
X160027257Y-65488457D01*
X159940171Y-65488457D01*
X159809542Y-65532000D01*
X159766000Y-65575542D01*
X159591828Y-65230248D02*
X158720971Y-65230248D01*
X159417657Y-66359314D02*
X159287028Y-66402857D01*
X159069314Y-66402857D01*
X158982228Y-66359314D01*
X158938685Y-66315771D01*
X158895142Y-66228685D01*
X158895142Y-66141600D01*
X158938685Y-66054514D01*
X158982228Y-66010971D01*
X159069314Y-65967428D01*
X159243485Y-65923885D01*
X159330571Y-65880342D01*
X159374114Y-65836800D01*
X159417657Y-65749714D01*
X159417657Y-65662628D01*
X159374114Y-65575542D01*
X159330571Y-65532000D01*
X159243485Y-65488457D01*
X159025771Y-65488457D01*
X158895142Y-65532000D01*
%TO.C,C8*%
X153517600Y-65909371D02*
X153561142Y-65952914D01*
X153691771Y-65996457D01*
X153778857Y-65996457D01*
X153909485Y-65952914D01*
X153996571Y-65865828D01*
X154040114Y-65778742D01*
X154083657Y-65604571D01*
X154083657Y-65473942D01*
X154040114Y-65299771D01*
X153996571Y-65212685D01*
X153909485Y-65125600D01*
X153778857Y-65082057D01*
X153691771Y-65082057D01*
X153561142Y-65125600D01*
X153517600Y-65169142D01*
X152995085Y-65473942D02*
X153082171Y-65430400D01*
X153125714Y-65386857D01*
X153169257Y-65299771D01*
X153169257Y-65256228D01*
X153125714Y-65169142D01*
X153082171Y-65125600D01*
X152995085Y-65082057D01*
X152820914Y-65082057D01*
X152733828Y-65125600D01*
X152690285Y-65169142D01*
X152646742Y-65256228D01*
X152646742Y-65299771D01*
X152690285Y-65386857D01*
X152733828Y-65430400D01*
X152820914Y-65473942D01*
X152995085Y-65473942D01*
X153082171Y-65517485D01*
X153125714Y-65561028D01*
X153169257Y-65648114D01*
X153169257Y-65822285D01*
X153125714Y-65909371D01*
X153082171Y-65952914D01*
X152995085Y-65996457D01*
X152820914Y-65996457D01*
X152733828Y-65952914D01*
X152690285Y-65909371D01*
X152646742Y-65822285D01*
X152646742Y-65648114D01*
X152690285Y-65561028D01*
X152733828Y-65517485D01*
X152820914Y-65473942D01*
%TO.C,C1*%
X157835600Y-79320571D02*
X157879142Y-79364114D01*
X158009771Y-79407657D01*
X158096857Y-79407657D01*
X158227485Y-79364114D01*
X158314571Y-79277028D01*
X158358114Y-79189942D01*
X158401657Y-79015771D01*
X158401657Y-78885142D01*
X158358114Y-78710971D01*
X158314571Y-78623885D01*
X158227485Y-78536800D01*
X158096857Y-78493257D01*
X158009771Y-78493257D01*
X157879142Y-78536800D01*
X157835600Y-78580342D01*
X156964742Y-79407657D02*
X157487257Y-79407657D01*
X157226000Y-79407657D02*
X157226000Y-78493257D01*
X157313085Y-78623885D01*
X157400171Y-78710971D01*
X157487257Y-78754514D01*
%TO.C,R8*%
X158198457Y-72898000D02*
X157763028Y-72593200D01*
X158198457Y-72375485D02*
X157284057Y-72375485D01*
X157284057Y-72723828D01*
X157327600Y-72810914D01*
X157371142Y-72854457D01*
X157458228Y-72898000D01*
X157588857Y-72898000D01*
X157675942Y-72854457D01*
X157719485Y-72810914D01*
X157763028Y-72723828D01*
X157763028Y-72375485D01*
X157675942Y-73420514D02*
X157632400Y-73333428D01*
X157588857Y-73289885D01*
X157501771Y-73246342D01*
X157458228Y-73246342D01*
X157371142Y-73289885D01*
X157327600Y-73333428D01*
X157284057Y-73420514D01*
X157284057Y-73594685D01*
X157327600Y-73681771D01*
X157371142Y-73725314D01*
X157458228Y-73768857D01*
X157501771Y-73768857D01*
X157588857Y-73725314D01*
X157632400Y-73681771D01*
X157675942Y-73594685D01*
X157675942Y-73420514D01*
X157719485Y-73333428D01*
X157763028Y-73289885D01*
X157850114Y-73246342D01*
X158024285Y-73246342D01*
X158111371Y-73289885D01*
X158154914Y-73333428D01*
X158198457Y-73420514D01*
X158198457Y-73594685D01*
X158154914Y-73681771D01*
X158111371Y-73725314D01*
X158024285Y-73768857D01*
X157850114Y-73768857D01*
X157763028Y-73725314D01*
X157719485Y-73681771D01*
X157675942Y-73594685D01*
%TO.C,U6*%
X163002685Y-79407657D02*
X163002685Y-80147885D01*
X162959142Y-80234971D01*
X162915600Y-80278514D01*
X162828514Y-80322057D01*
X162654342Y-80322057D01*
X162567257Y-80278514D01*
X162523714Y-80234971D01*
X162480171Y-80147885D01*
X162480171Y-79407657D01*
X161652857Y-79407657D02*
X161827028Y-79407657D01*
X161914114Y-79451200D01*
X161957657Y-79494742D01*
X162044742Y-79625371D01*
X162088285Y-79799542D01*
X162088285Y-80147885D01*
X162044742Y-80234971D01*
X162001200Y-80278514D01*
X161914114Y-80322057D01*
X161739942Y-80322057D01*
X161652857Y-80278514D01*
X161609314Y-80234971D01*
X161565771Y-80147885D01*
X161565771Y-79930171D01*
X161609314Y-79843085D01*
X161652857Y-79799542D01*
X161739942Y-79756000D01*
X161914114Y-79756000D01*
X162001200Y-79799542D01*
X162044742Y-79843085D01*
X162088285Y-79930171D01*
%TO.C,U4*%
X123115857Y-80299714D02*
X123856085Y-80299714D01*
X123943171Y-80343257D01*
X123986714Y-80386800D01*
X124030257Y-80473885D01*
X124030257Y-80648057D01*
X123986714Y-80735142D01*
X123943171Y-80778685D01*
X123856085Y-80822228D01*
X123115857Y-80822228D01*
X123420657Y-81649542D02*
X124030257Y-81649542D01*
X123072314Y-81431828D02*
X123725457Y-81214114D01*
X123725457Y-81780171D01*
%TO.C,C20*%
X117776171Y-81555771D02*
X117819714Y-81512228D01*
X117863257Y-81381600D01*
X117863257Y-81294514D01*
X117819714Y-81163885D01*
X117732628Y-81076800D01*
X117645542Y-81033257D01*
X117471371Y-80989714D01*
X117340742Y-80989714D01*
X117166571Y-81033257D01*
X117079485Y-81076800D01*
X116992400Y-81163885D01*
X116948857Y-81294514D01*
X116948857Y-81381600D01*
X116992400Y-81512228D01*
X117035942Y-81555771D01*
X117035942Y-81904114D02*
X116992400Y-81947657D01*
X116948857Y-82034742D01*
X116948857Y-82252457D01*
X116992400Y-82339542D01*
X117035942Y-82383085D01*
X117123028Y-82426628D01*
X117210114Y-82426628D01*
X117340742Y-82383085D01*
X117863257Y-81860571D01*
X117863257Y-82426628D01*
X116948857Y-82992685D02*
X116948857Y-83079771D01*
X116992400Y-83166857D01*
X117035942Y-83210400D01*
X117123028Y-83253942D01*
X117297200Y-83297485D01*
X117514914Y-83297485D01*
X117689085Y-83253942D01*
X117776171Y-83210400D01*
X117819714Y-83166857D01*
X117863257Y-83079771D01*
X117863257Y-82992685D01*
X117819714Y-82905600D01*
X117776171Y-82862057D01*
X117689085Y-82818514D01*
X117514914Y-82774971D01*
X117297200Y-82774971D01*
X117123028Y-82818514D01*
X117035942Y-82862057D01*
X116992400Y-82905600D01*
X116948857Y-82992685D01*
%TO.C,TP9*%
X134685314Y-85554457D02*
X134119257Y-85554457D01*
X134424057Y-85902800D01*
X134293428Y-85902800D01*
X134206342Y-85946342D01*
X134162800Y-85989885D01*
X134119257Y-86076971D01*
X134119257Y-86294685D01*
X134162800Y-86381771D01*
X134206342Y-86425314D01*
X134293428Y-86468857D01*
X134554685Y-86468857D01*
X134641771Y-86425314D01*
X134685314Y-86381771D01*
X133858000Y-85554457D02*
X133553200Y-86468857D01*
X133248400Y-85554457D01*
X132464628Y-86468857D02*
X132987142Y-86468857D01*
X132725885Y-86468857D02*
X132725885Y-85554457D01*
X132812971Y-85685085D01*
X132900057Y-85772171D01*
X132987142Y-85815714D01*
%TO.C,U2*%
X156220884Y-76740656D02*
X156220884Y-77480884D01*
X156177341Y-77567970D01*
X156133799Y-77611513D01*
X156046713Y-77655056D01*
X155872541Y-77655056D01*
X155785456Y-77611513D01*
X155741913Y-77567970D01*
X155698370Y-77480884D01*
X155698370Y-76740656D01*
X155306484Y-76827741D02*
X155262941Y-76784199D01*
X155175856Y-76740656D01*
X154958141Y-76740656D01*
X154871056Y-76784199D01*
X154827513Y-76827741D01*
X154783970Y-76914827D01*
X154783970Y-77001913D01*
X154827513Y-77132541D01*
X155350027Y-77655056D01*
X154783970Y-77655056D01*
%TO.C,C18*%
X121136228Y-83130571D02*
X121179771Y-83174114D01*
X121310400Y-83217657D01*
X121397485Y-83217657D01*
X121528114Y-83174114D01*
X121615200Y-83087028D01*
X121658742Y-82999942D01*
X121702285Y-82825771D01*
X121702285Y-82695142D01*
X121658742Y-82520971D01*
X121615200Y-82433885D01*
X121528114Y-82346800D01*
X121397485Y-82303257D01*
X121310400Y-82303257D01*
X121179771Y-82346800D01*
X121136228Y-82390342D01*
X120265371Y-83217657D02*
X120787885Y-83217657D01*
X120526628Y-83217657D02*
X120526628Y-82303257D01*
X120613714Y-82433885D01*
X120700800Y-82520971D01*
X120787885Y-82564514D01*
X119742857Y-82695142D02*
X119829942Y-82651600D01*
X119873485Y-82608057D01*
X119917028Y-82520971D01*
X119917028Y-82477428D01*
X119873485Y-82390342D01*
X119829942Y-82346800D01*
X119742857Y-82303257D01*
X119568685Y-82303257D01*
X119481600Y-82346800D01*
X119438057Y-82390342D01*
X119394514Y-82477428D01*
X119394514Y-82520971D01*
X119438057Y-82608057D01*
X119481600Y-82651600D01*
X119568685Y-82695142D01*
X119742857Y-82695142D01*
X119829942Y-82738685D01*
X119873485Y-82782228D01*
X119917028Y-82869314D01*
X119917028Y-83043485D01*
X119873485Y-83130571D01*
X119829942Y-83174114D01*
X119742857Y-83217657D01*
X119568685Y-83217657D01*
X119481600Y-83174114D01*
X119438057Y-83130571D01*
X119394514Y-83043485D01*
X119394514Y-82869314D01*
X119438057Y-82782228D01*
X119481600Y-82738685D01*
X119568685Y-82695142D01*
%TO.C,U5*%
X170825885Y-77578857D02*
X170825885Y-78319085D01*
X170782342Y-78406171D01*
X170738800Y-78449714D01*
X170651714Y-78493257D01*
X170477542Y-78493257D01*
X170390457Y-78449714D01*
X170346914Y-78406171D01*
X170303371Y-78319085D01*
X170303371Y-77578857D01*
X169432514Y-77578857D02*
X169867942Y-77578857D01*
X169911485Y-78014285D01*
X169867942Y-77970742D01*
X169780857Y-77927200D01*
X169563142Y-77927200D01*
X169476057Y-77970742D01*
X169432514Y-78014285D01*
X169388971Y-78101371D01*
X169388971Y-78319085D01*
X169432514Y-78406171D01*
X169476057Y-78449714D01*
X169563142Y-78493257D01*
X169780857Y-78493257D01*
X169867942Y-78449714D01*
X169911485Y-78406171D01*
%TO.C,R3*%
X157022800Y-68333257D02*
X157327600Y-67897828D01*
X157545314Y-68333257D02*
X157545314Y-67418857D01*
X157196971Y-67418857D01*
X157109885Y-67462400D01*
X157066342Y-67505942D01*
X157022800Y-67593028D01*
X157022800Y-67723657D01*
X157066342Y-67810742D01*
X157109885Y-67854285D01*
X157196971Y-67897828D01*
X157545314Y-67897828D01*
X156718000Y-67418857D02*
X156151942Y-67418857D01*
X156456742Y-67767200D01*
X156326114Y-67767200D01*
X156239028Y-67810742D01*
X156195485Y-67854285D01*
X156151942Y-67941371D01*
X156151942Y-68159085D01*
X156195485Y-68246171D01*
X156239028Y-68289714D01*
X156326114Y-68333257D01*
X156587371Y-68333257D01*
X156674457Y-68289714D01*
X156718000Y-68246171D01*
%TO.C,TP24*%
X179120800Y-66453657D02*
X179120800Y-65539257D01*
X178903085Y-65539257D01*
X178772457Y-65582800D01*
X178685371Y-65669885D01*
X178641828Y-65756971D01*
X178598285Y-65931142D01*
X178598285Y-66061771D01*
X178641828Y-66235942D01*
X178685371Y-66323028D01*
X178772457Y-66410114D01*
X178903085Y-66453657D01*
X179120800Y-66453657D01*
X178249942Y-66192400D02*
X177814514Y-66192400D01*
X178337028Y-66453657D02*
X178032228Y-65539257D01*
X177727428Y-66453657D01*
X176900114Y-66366571D02*
X176943657Y-66410114D01*
X177074285Y-66453657D01*
X177161371Y-66453657D01*
X177292000Y-66410114D01*
X177379085Y-66323028D01*
X177422628Y-66235942D01*
X177466171Y-66061771D01*
X177466171Y-65931142D01*
X177422628Y-65756971D01*
X177379085Y-65669885D01*
X177292000Y-65582800D01*
X177161371Y-65539257D01*
X177074285Y-65539257D01*
X176943657Y-65582800D01*
X176900114Y-65626342D01*
X176029257Y-66453657D02*
X176551771Y-66453657D01*
X176290514Y-66453657D02*
X176290514Y-65539257D01*
X176377600Y-65669885D01*
X176464685Y-65756971D01*
X176551771Y-65800514D01*
%TO.C,R17*%
X194542228Y-83674857D02*
X194847028Y-83239428D01*
X195064742Y-83674857D02*
X195064742Y-82760457D01*
X194716400Y-82760457D01*
X194629314Y-82804000D01*
X194585771Y-82847542D01*
X194542228Y-82934628D01*
X194542228Y-83065257D01*
X194585771Y-83152342D01*
X194629314Y-83195885D01*
X194716400Y-83239428D01*
X195064742Y-83239428D01*
X193671371Y-83674857D02*
X194193885Y-83674857D01*
X193932628Y-83674857D02*
X193932628Y-82760457D01*
X194019714Y-82891085D01*
X194106800Y-82978171D01*
X194193885Y-83021714D01*
X193366571Y-82760457D02*
X192756971Y-82760457D01*
X193148857Y-83674857D01*
%TO.C,R2*%
X157022800Y-66961657D02*
X157327600Y-66526228D01*
X157545314Y-66961657D02*
X157545314Y-66047257D01*
X157196971Y-66047257D01*
X157109885Y-66090800D01*
X157066342Y-66134342D01*
X157022800Y-66221428D01*
X157022800Y-66352057D01*
X157066342Y-66439142D01*
X157109885Y-66482685D01*
X157196971Y-66526228D01*
X157545314Y-66526228D01*
X156674457Y-66134342D02*
X156630914Y-66090800D01*
X156543828Y-66047257D01*
X156326114Y-66047257D01*
X156239028Y-66090800D01*
X156195485Y-66134342D01*
X156151942Y-66221428D01*
X156151942Y-66308514D01*
X156195485Y-66439142D01*
X156718000Y-66961657D01*
X156151942Y-66961657D01*
%TO.C,R29*%
X183620228Y-66707657D02*
X183925028Y-66272228D01*
X184142742Y-66707657D02*
X184142742Y-65793257D01*
X183794400Y-65793257D01*
X183707314Y-65836800D01*
X183663771Y-65880342D01*
X183620228Y-65967428D01*
X183620228Y-66098057D01*
X183663771Y-66185142D01*
X183707314Y-66228685D01*
X183794400Y-66272228D01*
X184142742Y-66272228D01*
X183271885Y-65880342D02*
X183228342Y-65836800D01*
X183141257Y-65793257D01*
X182923542Y-65793257D01*
X182836457Y-65836800D01*
X182792914Y-65880342D01*
X182749371Y-65967428D01*
X182749371Y-66054514D01*
X182792914Y-66185142D01*
X183315428Y-66707657D01*
X182749371Y-66707657D01*
X182313942Y-66707657D02*
X182139771Y-66707657D01*
X182052685Y-66664114D01*
X182009142Y-66620571D01*
X181922057Y-66489942D01*
X181878514Y-66315771D01*
X181878514Y-65967428D01*
X181922057Y-65880342D01*
X181965600Y-65836800D01*
X182052685Y-65793257D01*
X182226857Y-65793257D01*
X182313942Y-65836800D01*
X182357485Y-65880342D01*
X182401028Y-65967428D01*
X182401028Y-66185142D01*
X182357485Y-66272228D01*
X182313942Y-66315771D01*
X182226857Y-66359314D01*
X182052685Y-66359314D01*
X181965600Y-66315771D01*
X181922057Y-66272228D01*
X181878514Y-66185142D01*
%TO.C,R27*%
X173409428Y-83928857D02*
X173714228Y-83493428D01*
X173931942Y-83928857D02*
X173931942Y-83014457D01*
X173583600Y-83014457D01*
X173496514Y-83058000D01*
X173452971Y-83101542D01*
X173409428Y-83188628D01*
X173409428Y-83319257D01*
X173452971Y-83406342D01*
X173496514Y-83449885D01*
X173583600Y-83493428D01*
X173931942Y-83493428D01*
X173061085Y-83101542D02*
X173017542Y-83058000D01*
X172930457Y-83014457D01*
X172712742Y-83014457D01*
X172625657Y-83058000D01*
X172582114Y-83101542D01*
X172538571Y-83188628D01*
X172538571Y-83275714D01*
X172582114Y-83406342D01*
X173104628Y-83928857D01*
X172538571Y-83928857D01*
X172233771Y-83014457D02*
X171624171Y-83014457D01*
X172016057Y-83928857D01*
%TO.C,C23*%
X178489428Y-80844571D02*
X178532971Y-80888114D01*
X178663600Y-80931657D01*
X178750685Y-80931657D01*
X178881314Y-80888114D01*
X178968400Y-80801028D01*
X179011942Y-80713942D01*
X179055485Y-80539771D01*
X179055485Y-80409142D01*
X179011942Y-80234971D01*
X178968400Y-80147885D01*
X178881314Y-80060800D01*
X178750685Y-80017257D01*
X178663600Y-80017257D01*
X178532971Y-80060800D01*
X178489428Y-80104342D01*
X178141085Y-80104342D02*
X178097542Y-80060800D01*
X178010457Y-80017257D01*
X177792742Y-80017257D01*
X177705657Y-80060800D01*
X177662114Y-80104342D01*
X177618571Y-80191428D01*
X177618571Y-80278514D01*
X177662114Y-80409142D01*
X178184628Y-80931657D01*
X177618571Y-80931657D01*
X177313771Y-80017257D02*
X176747714Y-80017257D01*
X177052514Y-80365600D01*
X176921885Y-80365600D01*
X176834800Y-80409142D01*
X176791257Y-80452685D01*
X176747714Y-80539771D01*
X176747714Y-80757485D01*
X176791257Y-80844571D01*
X176834800Y-80888114D01*
X176921885Y-80931657D01*
X177183142Y-80931657D01*
X177270228Y-80888114D01*
X177313771Y-80844571D01*
%TO.C,R25*%
X183620228Y-67977657D02*
X183925028Y-67542228D01*
X184142742Y-67977657D02*
X184142742Y-67063257D01*
X183794400Y-67063257D01*
X183707314Y-67106800D01*
X183663771Y-67150342D01*
X183620228Y-67237428D01*
X183620228Y-67368057D01*
X183663771Y-67455142D01*
X183707314Y-67498685D01*
X183794400Y-67542228D01*
X184142742Y-67542228D01*
X183271885Y-67150342D02*
X183228342Y-67106800D01*
X183141257Y-67063257D01*
X182923542Y-67063257D01*
X182836457Y-67106800D01*
X182792914Y-67150342D01*
X182749371Y-67237428D01*
X182749371Y-67324514D01*
X182792914Y-67455142D01*
X183315428Y-67977657D01*
X182749371Y-67977657D01*
X181922057Y-67063257D02*
X182357485Y-67063257D01*
X182401028Y-67498685D01*
X182357485Y-67455142D01*
X182270400Y-67411600D01*
X182052685Y-67411600D01*
X181965600Y-67455142D01*
X181922057Y-67498685D01*
X181878514Y-67585771D01*
X181878514Y-67803485D01*
X181922057Y-67890571D01*
X181965600Y-67934114D01*
X182052685Y-67977657D01*
X182270400Y-67977657D01*
X182357485Y-67934114D01*
X182401028Y-67890571D01*
%TO.C,J2*%
X129743200Y-65082057D02*
X129743200Y-65735200D01*
X129786742Y-65865828D01*
X129873828Y-65952914D01*
X130004457Y-65996457D01*
X130091542Y-65996457D01*
X129351314Y-65169142D02*
X129307771Y-65125600D01*
X129220685Y-65082057D01*
X129002971Y-65082057D01*
X128915885Y-65125600D01*
X128872342Y-65169142D01*
X128828800Y-65256228D01*
X128828800Y-65343314D01*
X128872342Y-65473942D01*
X129394857Y-65996457D01*
X128828800Y-65996457D01*
X124169714Y-70895028D02*
X124213257Y-71025657D01*
X124213257Y-71243371D01*
X124169714Y-71330457D01*
X124126171Y-71374000D01*
X124039085Y-71417542D01*
X123952000Y-71417542D01*
X123864914Y-71374000D01*
X123821371Y-71330457D01*
X123777828Y-71243371D01*
X123734285Y-71069200D01*
X123690742Y-70982114D01*
X123647200Y-70938571D01*
X123560114Y-70895028D01*
X123473028Y-70895028D01*
X123385942Y-70938571D01*
X123342400Y-70982114D01*
X123298857Y-71069200D01*
X123298857Y-71286914D01*
X123342400Y-71417542D01*
X123298857Y-71722342D02*
X124213257Y-71940057D01*
X123560114Y-72114228D01*
X124213257Y-72288400D01*
X123298857Y-72506114D01*
X124213257Y-72854457D02*
X123298857Y-72854457D01*
X123298857Y-73072171D01*
X123342400Y-73202800D01*
X123429485Y-73289885D01*
X123516571Y-73333428D01*
X123690742Y-73376971D01*
X123821371Y-73376971D01*
X123995542Y-73333428D01*
X124082628Y-73289885D01*
X124169714Y-73202800D01*
X124213257Y-73072171D01*
X124213257Y-72854457D01*
%TO.C,TP28*%
X166979600Y-82963657D02*
X166457085Y-82963657D01*
X166718342Y-83878057D02*
X166718342Y-82963657D01*
X165629771Y-83878057D02*
X165934571Y-83442628D01*
X166152285Y-83878057D02*
X166152285Y-82963657D01*
X165803942Y-82963657D01*
X165716857Y-83007200D01*
X165673314Y-83050742D01*
X165629771Y-83137828D01*
X165629771Y-83268457D01*
X165673314Y-83355542D01*
X165716857Y-83399085D01*
X165803942Y-83442628D01*
X166152285Y-83442628D01*
X165237885Y-83878057D02*
X165237885Y-82963657D01*
X164323485Y-83007200D02*
X164410571Y-82963657D01*
X164541200Y-82963657D01*
X164671828Y-83007200D01*
X164758914Y-83094285D01*
X164802457Y-83181371D01*
X164846000Y-83355542D01*
X164846000Y-83486171D01*
X164802457Y-83660342D01*
X164758914Y-83747428D01*
X164671828Y-83834514D01*
X164541200Y-83878057D01*
X164454114Y-83878057D01*
X164323485Y-83834514D01*
X164279942Y-83790971D01*
X164279942Y-83486171D01*
X164454114Y-83486171D01*
X163713885Y-82963657D02*
X163626800Y-82963657D01*
X163539714Y-83007200D01*
X163496171Y-83050742D01*
X163452628Y-83137828D01*
X163409085Y-83312000D01*
X163409085Y-83529714D01*
X163452628Y-83703885D01*
X163496171Y-83790971D01*
X163539714Y-83834514D01*
X163626800Y-83878057D01*
X163713885Y-83878057D01*
X163800971Y-83834514D01*
X163844514Y-83790971D01*
X163888057Y-83703885D01*
X163931600Y-83529714D01*
X163931600Y-83312000D01*
X163888057Y-83137828D01*
X163844514Y-83050742D01*
X163800971Y-83007200D01*
X163713885Y-82963657D01*
%TO.C,TP17*%
X117923741Y-84782079D02*
X117954531Y-84689711D01*
X118046899Y-84597342D01*
X118170057Y-84535763D01*
X118293215Y-84535763D01*
X118385583Y-84566553D01*
X118539530Y-84658921D01*
X118631899Y-84751290D01*
X118724267Y-84905237D01*
X118755057Y-84997605D01*
X118755057Y-85120763D01*
X118693478Y-85243921D01*
X118631899Y-85305500D01*
X118508741Y-85367079D01*
X118447162Y-85367079D01*
X118231636Y-85151552D01*
X118354794Y-85028395D01*
X118231636Y-85705763D02*
X117585058Y-85059184D01*
X117862163Y-86075236D01*
X117215584Y-85428658D01*
X117554268Y-86383130D02*
X116907690Y-85736552D01*
X116753742Y-85890499D01*
X116692163Y-86013657D01*
X116692163Y-86136815D01*
X116722953Y-86229183D01*
X116815321Y-86383130D01*
X116907690Y-86475499D01*
X117061637Y-86567867D01*
X117154005Y-86598657D01*
X117277163Y-86598657D01*
X117400321Y-86537078D01*
X117554268Y-86383130D01*
%TO.C,SW1*%
X159860342Y-85285942D02*
X160295771Y-85590742D01*
X159860342Y-85808457D02*
X160774742Y-85808457D01*
X160774742Y-85460114D01*
X160731200Y-85373028D01*
X160687657Y-85329485D01*
X160600571Y-85285942D01*
X160469942Y-85285942D01*
X160382857Y-85329485D01*
X160339314Y-85373028D01*
X160295771Y-85460114D01*
X160295771Y-85808457D01*
X159903885Y-84937600D02*
X159860342Y-84806971D01*
X159860342Y-84589257D01*
X159903885Y-84502171D01*
X159947428Y-84458628D01*
X160034514Y-84415085D01*
X160121600Y-84415085D01*
X160208685Y-84458628D01*
X160252228Y-84502171D01*
X160295771Y-84589257D01*
X160339314Y-84763428D01*
X160382857Y-84850514D01*
X160426400Y-84894057D01*
X160513485Y-84937600D01*
X160600571Y-84937600D01*
X160687657Y-84894057D01*
X160731200Y-84850514D01*
X160774742Y-84763428D01*
X160774742Y-84545714D01*
X160731200Y-84415085D01*
X160774742Y-84153828D02*
X160774742Y-83631314D01*
X159860342Y-83892571D02*
X160774742Y-83892571D01*
%TO.C,R30*%
X183569428Y-85757657D02*
X183874228Y-85322228D01*
X184091942Y-85757657D02*
X184091942Y-84843257D01*
X183743600Y-84843257D01*
X183656514Y-84886800D01*
X183612971Y-84930342D01*
X183569428Y-85017428D01*
X183569428Y-85148057D01*
X183612971Y-85235142D01*
X183656514Y-85278685D01*
X183743600Y-85322228D01*
X184091942Y-85322228D01*
X183264628Y-84843257D02*
X182698571Y-84843257D01*
X183003371Y-85191600D01*
X182872742Y-85191600D01*
X182785657Y-85235142D01*
X182742114Y-85278685D01*
X182698571Y-85365771D01*
X182698571Y-85583485D01*
X182742114Y-85670571D01*
X182785657Y-85714114D01*
X182872742Y-85757657D01*
X183134000Y-85757657D01*
X183221085Y-85714114D01*
X183264628Y-85670571D01*
X182132514Y-84843257D02*
X182045428Y-84843257D01*
X181958342Y-84886800D01*
X181914800Y-84930342D01*
X181871257Y-85017428D01*
X181827714Y-85191600D01*
X181827714Y-85409314D01*
X181871257Y-85583485D01*
X181914800Y-85670571D01*
X181958342Y-85714114D01*
X182045428Y-85757657D01*
X182132514Y-85757657D01*
X182219600Y-85714114D01*
X182263142Y-85670571D01*
X182306685Y-85583485D01*
X182350228Y-85409314D01*
X182350228Y-85191600D01*
X182306685Y-85017428D01*
X182263142Y-84930342D01*
X182219600Y-84886800D01*
X182132514Y-84843257D01*
%TO.C,R32*%
X145012228Y-65996457D02*
X145317028Y-65561028D01*
X145534742Y-65996457D02*
X145534742Y-65082057D01*
X145186400Y-65082057D01*
X145099314Y-65125600D01*
X145055771Y-65169142D01*
X145012228Y-65256228D01*
X145012228Y-65386857D01*
X145055771Y-65473942D01*
X145099314Y-65517485D01*
X145186400Y-65561028D01*
X145534742Y-65561028D01*
X144707428Y-65082057D02*
X144141371Y-65082057D01*
X144446171Y-65430400D01*
X144315542Y-65430400D01*
X144228457Y-65473942D01*
X144184914Y-65517485D01*
X144141371Y-65604571D01*
X144141371Y-65822285D01*
X144184914Y-65909371D01*
X144228457Y-65952914D01*
X144315542Y-65996457D01*
X144576800Y-65996457D01*
X144663885Y-65952914D01*
X144707428Y-65909371D01*
X143793028Y-65169142D02*
X143749485Y-65125600D01*
X143662400Y-65082057D01*
X143444685Y-65082057D01*
X143357600Y-65125600D01*
X143314057Y-65169142D01*
X143270514Y-65256228D01*
X143270514Y-65343314D01*
X143314057Y-65473942D01*
X143836571Y-65996457D01*
X143270514Y-65996457D01*
%TO.C,TP10*%
X126136400Y-85554457D02*
X126571828Y-85554457D01*
X126615371Y-85989885D01*
X126571828Y-85946342D01*
X126484742Y-85902800D01*
X126267028Y-85902800D01*
X126179942Y-85946342D01*
X126136400Y-85989885D01*
X126092857Y-86076971D01*
X126092857Y-86294685D01*
X126136400Y-86381771D01*
X126179942Y-86425314D01*
X126267028Y-86468857D01*
X126484742Y-86468857D01*
X126571828Y-86425314D01*
X126615371Y-86381771D01*
X125831600Y-85554457D02*
X125526800Y-86468857D01*
X125222000Y-85554457D01*
X125004285Y-85554457D02*
X124438228Y-85554457D01*
X124743028Y-85902800D01*
X124612400Y-85902800D01*
X124525314Y-85946342D01*
X124481771Y-85989885D01*
X124438228Y-86076971D01*
X124438228Y-86294685D01*
X124481771Y-86381771D01*
X124525314Y-86425314D01*
X124612400Y-86468857D01*
X124873657Y-86468857D01*
X124960742Y-86425314D01*
X125004285Y-86381771D01*
%TO.C,R23*%
X173358628Y-79712457D02*
X173663428Y-79277028D01*
X173881142Y-79712457D02*
X173881142Y-78798057D01*
X173532800Y-78798057D01*
X173445714Y-78841600D01*
X173402171Y-78885142D01*
X173358628Y-78972228D01*
X173358628Y-79102857D01*
X173402171Y-79189942D01*
X173445714Y-79233485D01*
X173532800Y-79277028D01*
X173881142Y-79277028D01*
X173010285Y-78885142D02*
X172966742Y-78841600D01*
X172879657Y-78798057D01*
X172661942Y-78798057D01*
X172574857Y-78841600D01*
X172531314Y-78885142D01*
X172487771Y-78972228D01*
X172487771Y-79059314D01*
X172531314Y-79189942D01*
X173053828Y-79712457D01*
X172487771Y-79712457D01*
X172182971Y-78798057D02*
X171616914Y-78798057D01*
X171921714Y-79146400D01*
X171791085Y-79146400D01*
X171704000Y-79189942D01*
X171660457Y-79233485D01*
X171616914Y-79320571D01*
X171616914Y-79538285D01*
X171660457Y-79625371D01*
X171704000Y-79668914D01*
X171791085Y-79712457D01*
X172052342Y-79712457D01*
X172139428Y-79668914D01*
X172182971Y-79625371D01*
%TO.C,TP14*%
X112792993Y-84149374D02*
X112300362Y-84642005D01*
X111900099Y-85534899D02*
X112269573Y-85165426D01*
X112084836Y-85350163D02*
X111438258Y-84703584D01*
X111592205Y-84734374D01*
X111715363Y-84734374D01*
X111807731Y-84703584D01*
X111068784Y-85196215D02*
X111007205Y-85196215D01*
X110914837Y-85227005D01*
X110760890Y-85380952D01*
X110730100Y-85473320D01*
X110730100Y-85534899D01*
X110760890Y-85627268D01*
X110822469Y-85688847D01*
X110945626Y-85750425D01*
X111684573Y-85750425D01*
X111284310Y-86150688D01*
X110452995Y-85688847D02*
X110884047Y-86550951D01*
X110021943Y-86119899D01*
%TO.C,R26*%
X183569428Y-84335257D02*
X183874228Y-83899828D01*
X184091942Y-84335257D02*
X184091942Y-83420857D01*
X183743600Y-83420857D01*
X183656514Y-83464400D01*
X183612971Y-83507942D01*
X183569428Y-83595028D01*
X183569428Y-83725657D01*
X183612971Y-83812742D01*
X183656514Y-83856285D01*
X183743600Y-83899828D01*
X184091942Y-83899828D01*
X183221085Y-83507942D02*
X183177542Y-83464400D01*
X183090457Y-83420857D01*
X182872742Y-83420857D01*
X182785657Y-83464400D01*
X182742114Y-83507942D01*
X182698571Y-83595028D01*
X182698571Y-83682114D01*
X182742114Y-83812742D01*
X183264628Y-84335257D01*
X182698571Y-84335257D01*
X181914800Y-83420857D02*
X182088971Y-83420857D01*
X182176057Y-83464400D01*
X182219600Y-83507942D01*
X182306685Y-83638571D01*
X182350228Y-83812742D01*
X182350228Y-84161085D01*
X182306685Y-84248171D01*
X182263142Y-84291714D01*
X182176057Y-84335257D01*
X182001885Y-84335257D01*
X181914800Y-84291714D01*
X181871257Y-84248171D01*
X181827714Y-84161085D01*
X181827714Y-83943371D01*
X181871257Y-83856285D01*
X181914800Y-83812742D01*
X182001885Y-83769200D01*
X182176057Y-83769200D01*
X182263142Y-83812742D01*
X182306685Y-83856285D01*
X182350228Y-83943371D01*
%TO.C,C5*%
X158212971Y-75387200D02*
X158256514Y-75343657D01*
X158300057Y-75213028D01*
X158300057Y-75125942D01*
X158256514Y-74995314D01*
X158169428Y-74908228D01*
X158082342Y-74864685D01*
X157908171Y-74821142D01*
X157777542Y-74821142D01*
X157603371Y-74864685D01*
X157516285Y-74908228D01*
X157429200Y-74995314D01*
X157385657Y-75125942D01*
X157385657Y-75213028D01*
X157429200Y-75343657D01*
X157472742Y-75387200D01*
X157385657Y-76214514D02*
X157385657Y-75779085D01*
X157821085Y-75735542D01*
X157777542Y-75779085D01*
X157734000Y-75866171D01*
X157734000Y-76083885D01*
X157777542Y-76170971D01*
X157821085Y-76214514D01*
X157908171Y-76258057D01*
X158125885Y-76258057D01*
X158212971Y-76214514D01*
X158256514Y-76170971D01*
X158300057Y-76083885D01*
X158300057Y-75866171D01*
X158256514Y-75779085D01*
X158212971Y-75735542D01*
%TO.C,R15*%
X187125428Y-84335257D02*
X187430228Y-83899828D01*
X187647942Y-84335257D02*
X187647942Y-83420857D01*
X187299600Y-83420857D01*
X187212514Y-83464400D01*
X187168971Y-83507942D01*
X187125428Y-83595028D01*
X187125428Y-83725657D01*
X187168971Y-83812742D01*
X187212514Y-83856285D01*
X187299600Y-83899828D01*
X187647942Y-83899828D01*
X186254571Y-84335257D02*
X186777085Y-84335257D01*
X186515828Y-84335257D02*
X186515828Y-83420857D01*
X186602914Y-83551485D01*
X186690000Y-83638571D01*
X186777085Y-83682114D01*
X185427257Y-83420857D02*
X185862685Y-83420857D01*
X185906228Y-83856285D01*
X185862685Y-83812742D01*
X185775600Y-83769200D01*
X185557885Y-83769200D01*
X185470800Y-83812742D01*
X185427257Y-83856285D01*
X185383714Y-83943371D01*
X185383714Y-84161085D01*
X185427257Y-84248171D01*
X185470800Y-84291714D01*
X185557885Y-84335257D01*
X185775600Y-84335257D01*
X185862685Y-84291714D01*
X185906228Y-84248171D01*
%TO.C,U8*%
X189520285Y-78696457D02*
X189520285Y-79436685D01*
X189476742Y-79523771D01*
X189433200Y-79567314D01*
X189346114Y-79610857D01*
X189171942Y-79610857D01*
X189084857Y-79567314D01*
X189041314Y-79523771D01*
X188997771Y-79436685D01*
X188997771Y-78696457D01*
X188431714Y-79088342D02*
X188518800Y-79044800D01*
X188562342Y-79001257D01*
X188605885Y-78914171D01*
X188605885Y-78870628D01*
X188562342Y-78783542D01*
X188518800Y-78740000D01*
X188431714Y-78696457D01*
X188257542Y-78696457D01*
X188170457Y-78740000D01*
X188126914Y-78783542D01*
X188083371Y-78870628D01*
X188083371Y-78914171D01*
X188126914Y-79001257D01*
X188170457Y-79044800D01*
X188257542Y-79088342D01*
X188431714Y-79088342D01*
X188518800Y-79131885D01*
X188562342Y-79175428D01*
X188605885Y-79262514D01*
X188605885Y-79436685D01*
X188562342Y-79523771D01*
X188518800Y-79567314D01*
X188431714Y-79610857D01*
X188257542Y-79610857D01*
X188170457Y-79567314D01*
X188126914Y-79523771D01*
X188083371Y-79436685D01*
X188083371Y-79262514D01*
X188126914Y-79175428D01*
X188170457Y-79131885D01*
X188257542Y-79088342D01*
%TO.C,TP20*%
X165716857Y-68391314D02*
X165586228Y-68434857D01*
X165368514Y-68434857D01*
X165281428Y-68391314D01*
X165237885Y-68347771D01*
X165194342Y-68260685D01*
X165194342Y-68173600D01*
X165237885Y-68086514D01*
X165281428Y-68042971D01*
X165368514Y-67999428D01*
X165542685Y-67955885D01*
X165629771Y-67912342D01*
X165673314Y-67868800D01*
X165716857Y-67781714D01*
X165716857Y-67694628D01*
X165673314Y-67607542D01*
X165629771Y-67564000D01*
X165542685Y-67520457D01*
X165324971Y-67520457D01*
X165194342Y-67564000D01*
X164279942Y-68347771D02*
X164323485Y-68391314D01*
X164454114Y-68434857D01*
X164541200Y-68434857D01*
X164671828Y-68391314D01*
X164758914Y-68304228D01*
X164802457Y-68217142D01*
X164846000Y-68042971D01*
X164846000Y-67912342D01*
X164802457Y-67738171D01*
X164758914Y-67651085D01*
X164671828Y-67564000D01*
X164541200Y-67520457D01*
X164454114Y-67520457D01*
X164323485Y-67564000D01*
X164279942Y-67607542D01*
X163888057Y-68434857D02*
X163888057Y-67520457D01*
X163365542Y-68434857D02*
X163757428Y-67912342D01*
X163365542Y-67520457D02*
X163888057Y-68042971D01*
%TO.C,C6*%
X149047200Y-65909371D02*
X149090742Y-65952914D01*
X149221371Y-65996457D01*
X149308457Y-65996457D01*
X149439085Y-65952914D01*
X149526171Y-65865828D01*
X149569714Y-65778742D01*
X149613257Y-65604571D01*
X149613257Y-65473942D01*
X149569714Y-65299771D01*
X149526171Y-65212685D01*
X149439085Y-65125600D01*
X149308457Y-65082057D01*
X149221371Y-65082057D01*
X149090742Y-65125600D01*
X149047200Y-65169142D01*
X148263428Y-65082057D02*
X148437600Y-65082057D01*
X148524685Y-65125600D01*
X148568228Y-65169142D01*
X148655314Y-65299771D01*
X148698857Y-65473942D01*
X148698857Y-65822285D01*
X148655314Y-65909371D01*
X148611771Y-65952914D01*
X148524685Y-65996457D01*
X148350514Y-65996457D01*
X148263428Y-65952914D01*
X148219885Y-65909371D01*
X148176342Y-65822285D01*
X148176342Y-65604571D01*
X148219885Y-65517485D01*
X148263428Y-65473942D01*
X148350514Y-65430400D01*
X148524685Y-65430400D01*
X148611771Y-65473942D01*
X148655314Y-65517485D01*
X148698857Y-65604571D01*
%TO.C,R1*%
X146964400Y-65996457D02*
X147269200Y-65561028D01*
X147486914Y-65996457D02*
X147486914Y-65082057D01*
X147138571Y-65082057D01*
X147051485Y-65125600D01*
X147007942Y-65169142D01*
X146964400Y-65256228D01*
X146964400Y-65386857D01*
X147007942Y-65473942D01*
X147051485Y-65517485D01*
X147138571Y-65561028D01*
X147486914Y-65561028D01*
X146093542Y-65996457D02*
X146616057Y-65996457D01*
X146354800Y-65996457D02*
X146354800Y-65082057D01*
X146441885Y-65212685D01*
X146528971Y-65299771D01*
X146616057Y-65343314D01*
%TO.C,R20*%
X187074628Y-67977657D02*
X187379428Y-67542228D01*
X187597142Y-67977657D02*
X187597142Y-67063257D01*
X187248800Y-67063257D01*
X187161714Y-67106800D01*
X187118171Y-67150342D01*
X187074628Y-67237428D01*
X187074628Y-67368057D01*
X187118171Y-67455142D01*
X187161714Y-67498685D01*
X187248800Y-67542228D01*
X187597142Y-67542228D01*
X186726285Y-67150342D02*
X186682742Y-67106800D01*
X186595657Y-67063257D01*
X186377942Y-67063257D01*
X186290857Y-67106800D01*
X186247314Y-67150342D01*
X186203771Y-67237428D01*
X186203771Y-67324514D01*
X186247314Y-67455142D01*
X186769828Y-67977657D01*
X186203771Y-67977657D01*
X185637714Y-67063257D02*
X185550628Y-67063257D01*
X185463542Y-67106800D01*
X185420000Y-67150342D01*
X185376457Y-67237428D01*
X185332914Y-67411600D01*
X185332914Y-67629314D01*
X185376457Y-67803485D01*
X185420000Y-67890571D01*
X185463542Y-67934114D01*
X185550628Y-67977657D01*
X185637714Y-67977657D01*
X185724800Y-67934114D01*
X185768342Y-67890571D01*
X185811885Y-67803485D01*
X185855428Y-67629314D01*
X185855428Y-67411600D01*
X185811885Y-67237428D01*
X185768342Y-67150342D01*
X185724800Y-67106800D01*
X185637714Y-67063257D01*
%TO.C,C19*%
X112297028Y-83079771D02*
X112340571Y-83123314D01*
X112471200Y-83166857D01*
X112558285Y-83166857D01*
X112688914Y-83123314D01*
X112776000Y-83036228D01*
X112819542Y-82949142D01*
X112863085Y-82774971D01*
X112863085Y-82644342D01*
X112819542Y-82470171D01*
X112776000Y-82383085D01*
X112688914Y-82296000D01*
X112558285Y-82252457D01*
X112471200Y-82252457D01*
X112340571Y-82296000D01*
X112297028Y-82339542D01*
X111426171Y-83166857D02*
X111948685Y-83166857D01*
X111687428Y-83166857D02*
X111687428Y-82252457D01*
X111774514Y-82383085D01*
X111861600Y-82470171D01*
X111948685Y-82513714D01*
X110990742Y-83166857D02*
X110816571Y-83166857D01*
X110729485Y-83123314D01*
X110685942Y-83079771D01*
X110598857Y-82949142D01*
X110555314Y-82774971D01*
X110555314Y-82426628D01*
X110598857Y-82339542D01*
X110642400Y-82296000D01*
X110729485Y-82252457D01*
X110903657Y-82252457D01*
X110990742Y-82296000D01*
X111034285Y-82339542D01*
X111077828Y-82426628D01*
X111077828Y-82644342D01*
X111034285Y-82731428D01*
X110990742Y-82774971D01*
X110903657Y-82818514D01*
X110729485Y-82818514D01*
X110642400Y-82774971D01*
X110598857Y-82731428D01*
X110555314Y-82644342D01*
D12*
%TO.C,C21*%
X113504000Y-79622763D02*
X113504000Y-78987200D01*
X112439563Y-75167200D02*
X107984000Y-75167200D01*
X107984000Y-80687200D02*
X107984000Y-78987200D01*
X112439563Y-80687200D02*
X107984000Y-80687200D01*
X113504000Y-76231637D02*
X113504000Y-76867200D01*
X114056500Y-76114700D02*
X114056500Y-76739700D01*
X107984000Y-75167200D02*
X107984000Y-76867200D01*
X113504000Y-79622763D02*
X112439563Y-80687200D01*
X114369000Y-76427200D02*
X113744000Y-76427200D01*
X113504000Y-76231637D02*
X112439563Y-75167200D01*
%TO.C,J4*%
X135458200Y-83137469D02*
X135458200Y-81713852D01*
X135458200Y-86655460D02*
X135458200Y-85917053D01*
X144653000Y-81713852D02*
X144653000Y-83137469D01*
X144653000Y-85917053D02*
X144653000Y-86655460D01*
%TO.C,TP27*%
X172954800Y-85344000D02*
G75*
G03*
X172954800Y-85344000I-1200000J0D01*
G01*
%TO.C,C22*%
X170346635Y-72648400D02*
X170114965Y-72648400D01*
X170346635Y-71928400D02*
X170114965Y-71928400D01*
%TO.C,C3*%
X163691835Y-71064800D02*
X163460165Y-71064800D01*
X163691835Y-71784800D02*
X163460165Y-71784800D01*
%TO.C,U11*%
X153460400Y-84650400D02*
X152660400Y-84650400D01*
%TO.C,U10*%
X134805600Y-85083600D02*
X134805600Y-84283600D01*
%TO.C,L1*%
G36*
X211496708Y-66999156D02*
G01*
X212089375Y-66999156D01*
X212089375Y-65390489D01*
X212851375Y-65390489D01*
X212851375Y-66206823D01*
X212851323Y-66304657D01*
X212847333Y-66652001D01*
X212829892Y-66880470D01*
X212789127Y-67031316D01*
X212715169Y-67145794D01*
X212598146Y-67265156D01*
X212459027Y-67385092D01*
X212303855Y-67464339D01*
X212095998Y-67499310D01*
X211777279Y-67507156D01*
X211511165Y-67502266D01*
X211284042Y-67473576D01*
X211123404Y-67404747D01*
X210972175Y-67279649D01*
X210947922Y-67256252D01*
X210847038Y-67145965D01*
X210784322Y-67027652D01*
X210750727Y-66860989D01*
X210737205Y-66605651D01*
X210734708Y-66221315D01*
X210734708Y-65390489D01*
X211496708Y-65390489D01*
X211496708Y-66999156D01*
G37*
G36*
X192862836Y-65390492D02*
G01*
X193240614Y-65393767D01*
X193492120Y-65409265D01*
X193658711Y-65445876D01*
X193781744Y-65512489D01*
X193902576Y-65617996D01*
X193936994Y-65652870D01*
X194081437Y-65851272D01*
X194140042Y-66025489D01*
X194137536Y-66053977D01*
X194058352Y-66239320D01*
X193902576Y-66432982D01*
X193726798Y-66571630D01*
X193522382Y-66642435D01*
X193225242Y-66660489D01*
X193101237Y-66661600D01*
X192898408Y-66678952D01*
X192806796Y-66729762D01*
X192785375Y-66829823D01*
X192787868Y-66874469D01*
X192821873Y-66941792D01*
X192922974Y-66979338D01*
X193125232Y-66995621D01*
X193462708Y-66999156D01*
X194140042Y-66999156D01*
X194140042Y-67507156D01*
X193309216Y-67507156D01*
X193224319Y-67507110D01*
X192867620Y-67503213D01*
X192632251Y-67486570D01*
X192477888Y-67448134D01*
X192364206Y-67378856D01*
X192250882Y-67269690D01*
X192184400Y-67195600D01*
X192045359Y-66946781D01*
X192069240Y-66713146D01*
X192256208Y-66469801D01*
X192341627Y-66396097D01*
X192581903Y-66272606D01*
X192911614Y-66221127D01*
X193133408Y-66198357D01*
X193299594Y-66143415D01*
X193362322Y-66046656D01*
X193366110Y-66018204D01*
X193344312Y-65955087D01*
X193248299Y-65918870D01*
X193046392Y-65902391D01*
X192706917Y-65898489D01*
X192023375Y-65898489D01*
X192023375Y-65390489D01*
X192844242Y-65390489D01*
X192862836Y-65390492D01*
G37*
G36*
X206247375Y-65644489D02*
G01*
X206246841Y-65699031D01*
X206222399Y-65834104D01*
X206125864Y-65888459D01*
X205908708Y-65898489D01*
X205570042Y-65898489D01*
X205570042Y-67507156D01*
X204808042Y-67507156D01*
X204808042Y-65898489D01*
X204469375Y-65898489D01*
X204396653Y-65898088D01*
X204216555Y-65879757D01*
X204144082Y-65807356D01*
X204130708Y-65644489D01*
X204130708Y-65390489D01*
X206247375Y-65390489D01*
X206247375Y-65644489D01*
G37*
G36*
X208448708Y-67507156D02*
G01*
X206332042Y-67507156D01*
X206332042Y-66999156D01*
X207686708Y-66999156D01*
X207686708Y-65390489D01*
X208448708Y-65390489D01*
X208448708Y-67507156D01*
G37*
G36*
X198288708Y-66188457D02*
G01*
X198693783Y-65789473D01*
X198723731Y-65760169D01*
X198976731Y-65537538D01*
X199177881Y-65422938D01*
X199371117Y-65390489D01*
X199643375Y-65390489D01*
X199643375Y-67507156D01*
X198881375Y-67507156D01*
X198881375Y-66203938D01*
X198585042Y-66491156D01*
X198404759Y-66689539D01*
X198311641Y-66886266D01*
X198288708Y-67142765D01*
X198288708Y-67507156D01*
X197526708Y-67507156D01*
X197526708Y-65390489D01*
X198288708Y-65390489D01*
X198288708Y-66188457D01*
G37*
G36*
X215976836Y-65390492D02*
G01*
X216354614Y-65393767D01*
X216606120Y-65409265D01*
X216772711Y-65445876D01*
X216895744Y-65512489D01*
X217016576Y-65617996D01*
X217088490Y-65692415D01*
X217231589Y-65939660D01*
X217207617Y-66180919D01*
X217016576Y-66432982D01*
X216840798Y-66571630D01*
X216636382Y-66642435D01*
X216339242Y-66660489D01*
X216215237Y-66661600D01*
X216012408Y-66678952D01*
X215920796Y-66729762D01*
X215899375Y-66829823D01*
X215901868Y-66874469D01*
X215935873Y-66941792D01*
X216036974Y-66979338D01*
X216239232Y-66995621D01*
X216576708Y-66999156D01*
X217254042Y-66999156D01*
X217254042Y-67507156D01*
X216423216Y-67507156D01*
X216338319Y-67507110D01*
X215981620Y-67503213D01*
X215746251Y-67486570D01*
X215591888Y-67448134D01*
X215478206Y-67378856D01*
X215364882Y-67269690D01*
X215298400Y-67195600D01*
X215159359Y-66946781D01*
X215183240Y-66713146D01*
X215370208Y-66469801D01*
X215455627Y-66396097D01*
X215695903Y-66272606D01*
X216025614Y-66221127D01*
X216247408Y-66198357D01*
X216413594Y-66143415D01*
X216476322Y-66046656D01*
X216480110Y-66018204D01*
X216458312Y-65955087D01*
X216362299Y-65918870D01*
X216160392Y-65902391D01*
X215820917Y-65898489D01*
X215137375Y-65898489D01*
X215137375Y-65390489D01*
X215958242Y-65390489D01*
X215976836Y-65390492D01*
G37*
G36*
X203665042Y-67507156D02*
G01*
X203521306Y-67505720D01*
X203358856Y-67483320D01*
X203295086Y-67409344D01*
X203284042Y-67253156D01*
X203283272Y-67209770D01*
X203243649Y-67045549D01*
X203127266Y-66999156D01*
X203083598Y-67006109D01*
X202904697Y-67094887D01*
X202704703Y-67253156D01*
X202477212Y-67424357D01*
X202184146Y-67507156D01*
X202062896Y-67501011D01*
X201954005Y-67441808D01*
X201929375Y-67280989D01*
X201960700Y-67104257D01*
X202069497Y-66899989D01*
X202133414Y-66824496D01*
X202163148Y-66719339D01*
X202069497Y-66590322D01*
X202001484Y-66494340D01*
X201929039Y-66212494D01*
X201932114Y-66194823D01*
X202691375Y-66194823D01*
X202691412Y-66217378D01*
X202707644Y-66404103D01*
X202789097Y-66478049D01*
X202987708Y-66491156D01*
X203010264Y-66491119D01*
X203196989Y-66474887D01*
X203270935Y-66393434D01*
X203284042Y-66194823D01*
X203284005Y-66172267D01*
X203267773Y-65985542D01*
X203186320Y-65911596D01*
X202987708Y-65898489D01*
X202965153Y-65898526D01*
X202778428Y-65914758D01*
X202704482Y-65996211D01*
X202691375Y-66194823D01*
X201932114Y-66194823D01*
X201982532Y-65905056D01*
X202156882Y-65627955D01*
X202180279Y-65603703D01*
X202290566Y-65502819D01*
X202408879Y-65440103D01*
X202575542Y-65406508D01*
X202830880Y-65392986D01*
X203215216Y-65390489D01*
X204046042Y-65390489D01*
X204046042Y-67507156D01*
X203665042Y-67507156D01*
G37*
G36*
X201591479Y-67265156D02*
G01*
X201452360Y-67385092D01*
X201297188Y-67464339D01*
X201089331Y-67499310D01*
X200770612Y-67507156D01*
X200504498Y-67502266D01*
X200277375Y-67473576D01*
X200116738Y-67404747D01*
X199965508Y-67279649D01*
X199947598Y-67262353D01*
X199828949Y-67128288D01*
X199770141Y-66999156D01*
X200490042Y-66999156D01*
X201082708Y-66999156D01*
X201082708Y-65898489D01*
X200490042Y-65898489D01*
X200490042Y-66999156D01*
X199770141Y-66999156D01*
X199762848Y-66983143D01*
X199734233Y-66774221D01*
X199728042Y-66448823D01*
X199728096Y-66403267D01*
X199736122Y-66094132D01*
X199768325Y-65895341D01*
X199839766Y-65754194D01*
X199965508Y-65617996D01*
X200104089Y-65501078D01*
X200256978Y-65429650D01*
X200469486Y-65397782D01*
X200796334Y-65390489D01*
X200820770Y-65390505D01*
X201134866Y-65397994D01*
X201336636Y-65429747D01*
X201479580Y-65501242D01*
X201617201Y-65627955D01*
X201727442Y-65757071D01*
X201802998Y-65910493D01*
X201836883Y-66120894D01*
X201844708Y-66444289D01*
X201844691Y-66470488D01*
X201837031Y-66778377D01*
X201803702Y-66976412D01*
X201791655Y-66999156D01*
X201727564Y-67120153D01*
X201591479Y-67265156D01*
G37*
G36*
X195140431Y-65390535D02*
G01*
X195497130Y-65394432D01*
X195732499Y-65411075D01*
X195886863Y-65449511D01*
X196000544Y-65518789D01*
X196113868Y-65627955D01*
X196224109Y-65757071D01*
X196299664Y-65910493D01*
X196333549Y-66120894D01*
X196341375Y-66444289D01*
X196341357Y-66470488D01*
X196333698Y-66778377D01*
X196300368Y-66976412D01*
X196224231Y-67120153D01*
X196088146Y-67265156D01*
X196078755Y-67274112D01*
X195952713Y-67383911D01*
X195827279Y-67452401D01*
X195659971Y-67489296D01*
X195408309Y-67504310D01*
X195029812Y-67507156D01*
X194224708Y-67507156D01*
X194224708Y-66999156D01*
X195579375Y-66999156D01*
X195579375Y-65898489D01*
X194224708Y-65898489D01*
X194224708Y-65390489D01*
X195055535Y-65390489D01*
X195140431Y-65390535D01*
G37*
G36*
X213698042Y-66247885D02*
G01*
X213973208Y-66221354D01*
X214086932Y-66207269D01*
X214199653Y-66158555D01*
X214250872Y-66036300D01*
X214274181Y-65792656D01*
X214299986Y-65390489D01*
X215052708Y-65390489D01*
X215052708Y-67507156D01*
X214290708Y-67507156D01*
X214290708Y-66660489D01*
X213698042Y-66660489D01*
X213698042Y-67507156D01*
X212936042Y-67507156D01*
X212936042Y-65390489D01*
X213698042Y-65390489D01*
X213698042Y-66247885D01*
G37*
G36*
X197442042Y-67507156D02*
G01*
X196426042Y-67507156D01*
X196426042Y-65390489D01*
X197442042Y-65390489D01*
X197442042Y-67507156D01*
G37*
G36*
X210650042Y-67507156D02*
G01*
X208533375Y-67507156D01*
X208533375Y-66999156D01*
X209888042Y-66999156D01*
X209888042Y-65390489D01*
X210650042Y-65390489D01*
X210650042Y-67507156D01*
G37*
%TO.C,J1*%
X144256400Y-69264800D02*
X144256400Y-72684800D01*
X140771400Y-72224800D02*
X143746400Y-72224800D01*
X143946400Y-71424800D02*
X143946400Y-70624800D01*
X143746400Y-69774800D02*
X140771400Y-69774800D01*
X143746400Y-70624800D02*
X143746400Y-69774800D01*
X143946400Y-70624800D02*
X143746400Y-70624800D01*
X137796400Y-72224800D02*
X137796400Y-71424800D01*
X137596400Y-71424800D02*
X137596400Y-70624800D01*
X144256400Y-72684800D02*
X137286400Y-72684800D01*
X137796400Y-71424800D02*
X137596400Y-71424800D01*
X144546400Y-72974800D02*
X143546400Y-72974800D01*
X143746400Y-72224800D02*
X143746400Y-71424800D01*
X143746400Y-71424800D02*
X143946400Y-71424800D01*
X137796400Y-70624800D02*
X137796400Y-69774800D01*
X137796400Y-69774800D02*
X140771400Y-69774800D01*
X140771400Y-72224800D02*
X137796400Y-72224800D01*
X137596400Y-70624800D02*
X137796400Y-70624800D01*
X137286400Y-69264800D02*
X144256400Y-69264800D01*
X144546400Y-72974800D02*
X144546400Y-71974800D01*
X137286400Y-72684800D02*
X137286400Y-69264800D01*
%TO.C,J5*%
X200256808Y-76661888D02*
X205756808Y-76661888D01*
X200256808Y-74711888D02*
X200256808Y-76661888D01*
X204106808Y-77211888D02*
X204406808Y-76911888D01*
X204406808Y-76911888D02*
X204706808Y-77211888D01*
X205756808Y-74711888D02*
X200256808Y-74711888D01*
X205756808Y-76661888D02*
X205756808Y-74711888D01*
X204706808Y-77211888D02*
X204106808Y-77211888D01*
%TO.C,C2*%
X155868635Y-80522400D02*
X155636965Y-80522400D01*
X155868635Y-79802400D02*
X155636965Y-79802400D01*
%TO.C,C16*%
X125913765Y-83134400D02*
X126145435Y-83134400D01*
X125913765Y-82414400D02*
X126145435Y-82414400D01*
%TO.C,C14*%
X128260400Y-78899365D02*
X128260400Y-79131035D01*
X128980400Y-78899365D02*
X128980400Y-79131035D01*
%TO.C,C17*%
X131247765Y-83134400D02*
X131479435Y-83134400D01*
X131247765Y-82414400D02*
X131479435Y-82414400D01*
%TO.C,C10*%
X155655600Y-71235835D02*
X155655600Y-71004165D01*
X154935600Y-71235835D02*
X154935600Y-71004165D01*
%TO.C,U3*%
X129803599Y-79980400D02*
X129803599Y-80780400D01*
X132923599Y-79980400D02*
X132923599Y-81780400D01*
X132923599Y-79980400D02*
X132923599Y-79180400D01*
X129803599Y-79980400D02*
X129803599Y-79180400D01*
%TO.C,TP22*%
X169500400Y-66014270D02*
G75*
G03*
X169500400Y-66014270I-1200000J0D01*
G01*
%TO.C,C4*%
X153665600Y-71004165D02*
X153665600Y-71235835D01*
X154385600Y-71004165D02*
X154385600Y-71235835D01*
%TO.C,C24*%
X192038235Y-71928400D02*
X191806565Y-71928400D01*
X192038235Y-72648400D02*
X191806565Y-72648400D01*
%TO.C,J3*%
X122288600Y-66996000D02*
X121718600Y-66996000D01*
X120198600Y-72196000D02*
X119178600Y-72196000D01*
X109468600Y-72196000D02*
X109468600Y-66996000D01*
X121718600Y-73636000D02*
X121718600Y-72196000D01*
X112578600Y-72196000D02*
X111558600Y-72196000D01*
X122288600Y-72196000D02*
X122288600Y-66996000D01*
X117658600Y-72196000D02*
X116638600Y-72196000D01*
X115118600Y-66996000D02*
X114098600Y-66996000D01*
X112578600Y-66996000D02*
X111558600Y-66996000D01*
X120198600Y-66996000D02*
X119178600Y-66996000D01*
X122288600Y-72196000D02*
X121718600Y-72196000D01*
X117658600Y-66996000D02*
X116638600Y-66996000D01*
X115118600Y-72196000D02*
X114098600Y-72196000D01*
X110038600Y-72196000D02*
X109468600Y-72196000D01*
X110038600Y-66996000D02*
X109468600Y-66996000D01*
D13*
X108639600Y-67056000D02*
X108639600Y-72136000D01*
X108639600Y-72136000D02*
X109147600Y-72136000D01*
X109147600Y-72136000D02*
X109147600Y-67056000D01*
X109147600Y-67056000D02*
X108639600Y-67056000D01*
G36*
X109147600Y-72136000D02*
G01*
X108639600Y-72136000D01*
X108639600Y-67056000D01*
X109147600Y-67056000D01*
X109147600Y-72136000D01*
G37*
X109147600Y-72136000D02*
X108639600Y-72136000D01*
X108639600Y-67056000D01*
X109147600Y-67056000D01*
X109147600Y-72136000D01*
D12*
%TO.C,TP19*%
X172599200Y-66014270D02*
G75*
G03*
X172599200Y-66014270I-1200000J0D01*
G01*
%TO.C,SW2*%
X151608000Y-86586009D02*
X147208000Y-86586009D01*
X147208000Y-83086009D02*
X151608000Y-83086009D01*
X147208000Y-84786009D02*
X147208000Y-84886009D01*
X151608000Y-84786009D02*
X151608000Y-84886009D01*
%TO.C,U7*%
X177913920Y-78312680D02*
X180113920Y-78312680D01*
X177913920Y-73092680D02*
X180113920Y-73092680D01*
X177913920Y-73092680D02*
X175713920Y-73092680D01*
X177913920Y-78312680D02*
X174313920Y-78312680D01*
%TO.C,C12*%
X153046165Y-80970800D02*
X153277835Y-80970800D01*
X153046165Y-81690800D02*
X153277835Y-81690800D01*
%TO.C,TP13*%
X122764400Y-85344000D02*
G75*
G03*
X122764400Y-85344000I-1200000J0D01*
G01*
%TO.C,TP23*%
X163302800Y-66014270D02*
G75*
G03*
X163302800Y-66014270I-1200000J0D01*
G01*
%TO.C,C8*%
X153481035Y-68982000D02*
X153249365Y-68982000D01*
X153481035Y-69702000D02*
X153249365Y-69702000D01*
%TO.C,C1*%
X155868635Y-78634000D02*
X155636965Y-78634000D01*
X155868635Y-79354000D02*
X155636965Y-79354000D01*
%TO.C,U6*%
X162306000Y-72307000D02*
X160106000Y-72307000D01*
X162306000Y-72307000D02*
X165906000Y-72307000D01*
X162306000Y-79077000D02*
X160106000Y-79077000D01*
X162306000Y-79077000D02*
X164506000Y-79077000D01*
%TO.C,U4*%
X124469600Y-79929600D02*
X124469600Y-80729600D01*
X127589600Y-79929600D02*
X127589600Y-81729600D01*
X127589600Y-79929600D02*
X127589600Y-79129600D01*
X124469600Y-79929600D02*
X124469600Y-79129600D01*
%TO.C,C15*%
X128980401Y-81671035D02*
X128980401Y-81439365D01*
X128260401Y-81671035D02*
X128260401Y-81439365D01*
%TO.C,C20*%
X122648000Y-79622763D02*
X122648000Y-78987200D01*
X121583563Y-75167200D02*
X117128000Y-75167200D01*
X117128000Y-80687200D02*
X117128000Y-78987200D01*
X121583563Y-80687200D02*
X117128000Y-80687200D01*
X122648000Y-76231637D02*
X122648000Y-76867200D01*
X123200500Y-75929700D02*
X123200500Y-76554700D01*
X117128000Y-75167200D02*
X117128000Y-76867200D01*
X122648000Y-79622763D02*
X121583563Y-80687200D01*
X123513000Y-76242200D02*
X122888000Y-76242200D01*
X122648000Y-76231637D02*
X121583563Y-75167200D01*
%TO.C,TP9*%
X132365600Y-85344000D02*
G75*
G03*
X132365600Y-85344000I-1200000J0D01*
G01*
%TO.C,U2*%
X153851000Y-72920200D02*
X153851000Y-73570200D01*
X153201000Y-72920200D02*
X153851000Y-72920200D01*
X147281000Y-80140200D02*
X146631000Y-80140200D01*
X147281000Y-72920200D02*
X146631000Y-72920200D01*
X146631000Y-72920200D02*
X146631000Y-73570200D01*
X153201000Y-80140200D02*
X153851000Y-80140200D01*
X153851000Y-80140200D02*
X153851000Y-79490200D01*
%TO.C,C18*%
X119314965Y-81944800D02*
X119546635Y-81944800D01*
X119314965Y-81224800D02*
X119546635Y-81224800D01*
%TO.C,U5*%
X169113200Y-77252000D02*
X169913200Y-77252000D01*
X169113200Y-74132000D02*
X170913200Y-74132000D01*
X169113200Y-74132000D02*
X168313200Y-74132000D01*
X169113200Y-77252000D02*
X168313200Y-77252000D01*
%TO.C,C13*%
X133492800Y-78950165D02*
X133492800Y-79181835D01*
X134212800Y-78950165D02*
X134212800Y-79181835D01*
%TO.C,TP24*%
X175698000Y-66040000D02*
G75*
G03*
X175698000Y-66040000I-1200000J0D01*
G01*
%TO.C,C11*%
X134212800Y-81671035D02*
X134212800Y-81439365D01*
X133492800Y-81671035D02*
X133492800Y-81439365D01*
%TO.C,C23*%
X178029755Y-78896475D02*
X177798085Y-78896475D01*
X178029755Y-79616475D02*
X177798085Y-79616475D01*
%TO.C,U9*%
X143082000Y-73520000D02*
X143082000Y-73735000D01*
X140772000Y-73520000D02*
X143082000Y-73520000D01*
X138462000Y-76125000D02*
X136772000Y-76125000D01*
X138462000Y-76340000D02*
X138462000Y-76125000D01*
X138462000Y-73520000D02*
X138462000Y-73735000D01*
X140772000Y-76340000D02*
X138462000Y-76340000D01*
X143082000Y-76340000D02*
X143082000Y-76125000D01*
X140772000Y-73520000D02*
X138462000Y-73520000D01*
X140772000Y-76340000D02*
X143082000Y-76340000D01*
%TO.C,J2*%
X122923400Y-74736000D02*
X122923400Y-69536000D01*
X126288400Y-74736000D02*
X122923400Y-74736000D01*
X135938400Y-74736000D02*
X135938400Y-69536000D01*
X132573400Y-69536000D02*
X135938400Y-69536000D01*
X126288400Y-69536000D02*
X122923400Y-69536000D01*
X132573400Y-74736000D02*
X135938400Y-74736000D01*
%TO.C,C9*%
X144308565Y-78744400D02*
X144540235Y-78744400D01*
X144308565Y-78024400D02*
X144540235Y-78024400D01*
%TO.C,TP28*%
X166401600Y-85344000D02*
G75*
G03*
X166401600Y-85344000I-1200000J0D01*
G01*
%TO.C,TP17*%
X116516000Y-85344000D02*
G75*
G03*
X116516000Y-85344000I-1200000J0D01*
G01*
%TO.C,SW1*%
X154568800Y-83085991D02*
X158968800Y-83085991D01*
X158968800Y-86585991D02*
X154568800Y-86585991D01*
X158968800Y-84885991D02*
X158968800Y-84785991D01*
X154568800Y-84885991D02*
X154568800Y-84785991D01*
%TO.C,TP10*%
X129266800Y-85344000D02*
G75*
G03*
X129266800Y-85344000I-1200000J0D01*
G01*
%TO.C,C7*%
X144308565Y-77626800D02*
X144540235Y-77626800D01*
X144308565Y-76906800D02*
X144540235Y-76906800D01*
%TO.C,TP14*%
X110013600Y-85344000D02*
G75*
G03*
X110013600Y-85344000I-1200000J0D01*
G01*
%TO.C,C5*%
X156224235Y-75179600D02*
X155992565Y-75179600D01*
X156224235Y-75899600D02*
X155992565Y-75899600D01*
%TO.C,U8*%
X191592200Y-78352800D02*
X193792200Y-78352800D01*
X191592200Y-73132800D02*
X193792200Y-73132800D01*
X191592200Y-73132800D02*
X189392200Y-73132800D01*
X191592200Y-78352800D02*
X187992200Y-78352800D01*
%TO.C,TP20*%
X166401600Y-66014270D02*
G75*
G03*
X166401600Y-66014270I-1200000J0D01*
G01*
%TO.C,Y1*%
X148616400Y-69110400D02*
X151916400Y-69110400D01*
X148616400Y-71910400D02*
X148616400Y-69110400D01*
%TO.C,C6*%
X148137200Y-70626235D02*
X148137200Y-70394565D01*
X147417200Y-70626235D02*
X147417200Y-70394565D01*
%TO.C,C19*%
X111136165Y-81944800D02*
X111367835Y-81944800D01*
X111136165Y-81224800D02*
X111367835Y-81224800D01*
%TD*%
M02*
