%TF.GenerationSoftware,KiCad,Pcbnew,(6.0.2)*%
%TF.CreationDate,2022-03-16T17:45:16-04:00*%
%TF.ProjectId,cv_sequencer,63765f73-6571-4756-956e-6365722e6b69,0.1*%
%TF.SameCoordinates,Original*%
%TF.FileFunction,Copper,L4,Bot*%
%TF.FilePolarity,Positive*%
%FSLAX46Y46*%
G04 Gerber Fmt 4.6, Leading zero omitted, Abs format (unit mm)*
G04 Created by KiCad (PCBNEW (6.0.2)) date 2022-03-16 17:45:16*
%MOMM*%
%LPD*%
G01*
G04 APERTURE LIST*
G04 Aperture macros list*
%AMRoundRect*
0 Rectangle with rounded corners*
0 $1 Rounding radius*
0 $2 $3 $4 $5 $6 $7 $8 $9 X,Y pos of 4 corners*
0 Add a 4 corners polygon primitive as box body*
4,1,4,$2,$3,$4,$5,$6,$7,$8,$9,$2,$3,0*
0 Add four circle primitives for the rounded corners*
1,1,$1+$1,$2,$3*
1,1,$1+$1,$4,$5*
1,1,$1+$1,$6,$7*
1,1,$1+$1,$8,$9*
0 Add four rect primitives between the rounded corners*
20,1,$1+$1,$2,$3,$4,$5,0*
20,1,$1+$1,$4,$5,$6,$7,0*
20,1,$1+$1,$6,$7,$8,$9,0*
20,1,$1+$1,$8,$9,$2,$3,0*%
%AMFreePoly0*
4,1,6,1.000000,0.000000,0.500000,-0.750000,-0.500000,-0.750000,-0.500000,0.750000,0.500000,0.750000,1.000000,0.000000,1.000000,0.000000,$1*%
%AMFreePoly1*
4,1,7,0.700000,0.000000,1.200000,-0.750000,-1.200000,-0.750000,-0.700000,0.000000,-1.200000,0.750000,1.200000,0.750000,0.700000,0.000000,0.700000,0.000000,$1*%
G04 Aperture macros list end*
%TA.AperFunction,SMDPad,CuDef*%
%ADD10RoundRect,0.250000X1.250000X0.550000X-1.250000X0.550000X-1.250000X-0.550000X1.250000X-0.550000X0*%
%TD*%
%TA.AperFunction,SMDPad,CuDef*%
%ADD11R,0.304800X1.143000*%
%TD*%
%TA.AperFunction,SMDPad,CuDef*%
%ADD12R,0.609600X1.143000*%
%TD*%
%TA.AperFunction,ComponentPad*%
%ADD13O,0.990600X2.209800*%
%TD*%
%TA.AperFunction,ComponentPad*%
%ADD14O,0.990600X1.803400*%
%TD*%
%TA.AperFunction,SMDPad,CuDef*%
%ADD15C,2.000000*%
%TD*%
%TA.AperFunction,SMDPad,CuDef*%
%ADD16RoundRect,0.155000X0.212500X0.155000X-0.212500X0.155000X-0.212500X-0.155000X0.212500X-0.155000X0*%
%TD*%
%TA.AperFunction,SMDPad,CuDef*%
%ADD17RoundRect,0.147500X-0.147500X-0.172500X0.147500X-0.172500X0.147500X0.172500X-0.147500X0.172500X0*%
%TD*%
%TA.AperFunction,SMDPad,CuDef*%
%ADD18RoundRect,0.147500X0.147500X0.172500X-0.147500X0.172500X-0.147500X-0.172500X0.147500X-0.172500X0*%
%TD*%
%TA.AperFunction,SMDPad,CuDef*%
%ADD19RoundRect,0.147500X0.172500X-0.147500X0.172500X0.147500X-0.172500X0.147500X-0.172500X-0.147500X0*%
%TD*%
%TA.AperFunction,ComponentPad*%
%ADD20O,0.800000X1.300000*%
%TD*%
%TA.AperFunction,ComponentPad*%
%ADD21RoundRect,0.200000X0.200000X0.450000X-0.200000X0.450000X-0.200000X-0.450000X0.200000X-0.450000X0*%
%TD*%
%TA.AperFunction,SMDPad,CuDef*%
%ADD22FreePoly0,0.000000*%
%TD*%
%TA.AperFunction,SMDPad,CuDef*%
%ADD23FreePoly1,180.000000*%
%TD*%
%TA.AperFunction,SMDPad,CuDef*%
%ADD24FreePoly0,180.000000*%
%TD*%
%TA.AperFunction,ComponentPad*%
%ADD25O,2.300000X3.100000*%
%TD*%
%TA.AperFunction,ComponentPad*%
%ADD26RoundRect,0.650000X0.650000X-0.650000X0.650000X0.650000X-0.650000X0.650000X-0.650000X-0.650000X0*%
%TD*%
%TA.AperFunction,ComponentPad*%
%ADD27C,2.032000*%
%TD*%
%TA.AperFunction,SMDPad,CuDef*%
%ADD28RoundRect,0.155000X-0.212500X-0.155000X0.212500X-0.155000X0.212500X0.155000X-0.212500X0.155000X0*%
%TD*%
%TA.AperFunction,SMDPad,CuDef*%
%ADD29RoundRect,0.155000X-0.155000X0.212500X-0.155000X-0.212500X0.155000X-0.212500X0.155000X0.212500X0*%
%TD*%
%TA.AperFunction,SMDPad,CuDef*%
%ADD30RoundRect,0.155000X0.155000X-0.212500X0.155000X0.212500X-0.155000X0.212500X-0.155000X-0.212500X0*%
%TD*%
%TA.AperFunction,SMDPad,CuDef*%
%ADD31RoundRect,0.150000X0.150000X-0.512500X0.150000X0.512500X-0.150000X0.512500X-0.150000X-0.512500X0*%
%TD*%
%TA.AperFunction,SMDPad,CuDef*%
%ADD32R,1.000000X3.150000*%
%TD*%
%TA.AperFunction,SMDPad,CuDef*%
%ADD33R,1.050000X0.650000*%
%TD*%
%TA.AperFunction,SMDPad,CuDef*%
%ADD34RoundRect,0.100000X-0.637500X-0.100000X0.637500X-0.100000X0.637500X0.100000X-0.637500X0.100000X0*%
%TD*%
%TA.AperFunction,SMDPad,CuDef*%
%ADD35RoundRect,0.147500X-0.172500X0.147500X-0.172500X-0.147500X0.172500X-0.147500X0.172500X0.147500X0*%
%TD*%
%TA.AperFunction,SMDPad,CuDef*%
%ADD36RoundRect,0.100000X0.637500X0.100000X-0.637500X0.100000X-0.637500X-0.100000X0.637500X-0.100000X0*%
%TD*%
%TA.AperFunction,SMDPad,CuDef*%
%ADD37RoundRect,0.050000X-0.050000X-0.387500X0.050000X-0.387500X0.050000X0.387500X-0.050000X0.387500X0*%
%TD*%
%TA.AperFunction,SMDPad,CuDef*%
%ADD38RoundRect,0.050000X-0.387500X-0.050000X0.387500X-0.050000X0.387500X0.050000X-0.387500X0.050000X0*%
%TD*%
%TA.AperFunction,ComponentPad*%
%ADD39C,0.508000*%
%TD*%
%TA.AperFunction,SMDPad,CuDef*%
%ADD40R,3.200000X3.200000*%
%TD*%
%TA.AperFunction,SMDPad,CuDef*%
%ADD41RoundRect,0.150000X0.512500X0.150000X-0.512500X0.150000X-0.512500X-0.150000X0.512500X-0.150000X0*%
%TD*%
%TA.AperFunction,SMDPad,CuDef*%
%ADD42RoundRect,0.150000X-0.662500X-0.150000X0.662500X-0.150000X0.662500X0.150000X-0.662500X0.150000X0*%
%TD*%
%TA.AperFunction,SMDPad,CuDef*%
%ADD43R,0.740000X2.400000*%
%TD*%
%TA.AperFunction,SMDPad,CuDef*%
%ADD44R,1.150000X1.000000*%
%TD*%
%TA.AperFunction,ViaPad*%
%ADD45C,0.508000*%
%TD*%
%TA.AperFunction,Conductor*%
%ADD46C,0.152400*%
%TD*%
%TA.AperFunction,Conductor*%
%ADD47C,0.254000*%
%TD*%
%TA.AperFunction,Conductor*%
%ADD48C,0.406400*%
%TD*%
%TA.AperFunction,Conductor*%
%ADD49C,0.314960*%
%TD*%
G04 APERTURE END LIST*
D10*
%TO.P,C21,1*%
%TO.N,GND*%
X112944000Y-77927200D03*
%TO.P,C21,2*%
%TO.N,VSS*%
X108544000Y-77927200D03*
%TD*%
D11*
%TO.P,J4,B8,SBU2*%
%TO.N,unconnected-(J4-PadB8)*%
X141805541Y-79952261D03*
%TO.P,J4,B7,DN2*%
%TO.N,unconnected-(J4-PadB7)*%
X140805540Y-79952261D03*
%TO.P,J4,B6,DP2*%
%TO.N,unconnected-(J4-PadB6)*%
X139305541Y-79952261D03*
%TO.P,J4,B5,CC2*%
%TO.N,/USB_CC2*%
X138305540Y-79952261D03*
D12*
%TO.P,J4,B4/A9,VBUS*%
%TO.N,unconnected-(J4-PadB4/A9)*%
X137655600Y-79952261D03*
%TO.P,J4,B1/A12,GND*%
%TO.N,GND*%
X136855601Y-79952261D03*
D11*
%TO.P,J4,A8,SBU1*%
%TO.N,unconnected-(J4-PadA8)*%
X138805600Y-79952261D03*
%TO.P,J4,A7,DN1*%
%TO.N,/USB_D-*%
X139805600Y-79952261D03*
%TO.P,J4,A6,DP1*%
%TO.N,/USB_D+*%
X140305600Y-79952261D03*
%TO.P,J4,A5,CC1*%
%TO.N,/USB_CC1*%
X141305600Y-79952261D03*
D12*
%TO.P,J4,A4/B9,VBUS*%
%TO.N,unconnected-(J4-PadA4/B9)*%
X142455600Y-79952261D03*
%TO.P,J4,A1/B12,GND*%
%TO.N,GND*%
X143255601Y-79952261D03*
D13*
%TO.P,J4,*%
%TO.N,*%
X135735600Y-84527261D03*
X144375600Y-84527261D03*
D14*
X135735600Y-80527260D03*
X144375600Y-80527260D03*
%TD*%
D15*
%TO.P,TP27,1,1*%
%TO.N,/IO Jacks/VREF_5V0*%
X171754800Y-85344000D03*
%TD*%
D16*
%TO.P,C22,1*%
%TO.N,GND*%
X170798300Y-72288400D03*
%TO.P,C22,2*%
%TO.N,/5V3*%
X169663300Y-72288400D03*
%TD*%
%TO.P,C3,2*%
%TO.N,/IO Jacks/DAC_VDD*%
X163008500Y-71424800D03*
%TO.P,C3,1*%
%TO.N,GND*%
X164143500Y-71424800D03*
%TD*%
D17*
%TO.P,R38,2*%
%TO.N,/IO Jacks/DAC_VDD*%
X168480600Y-73355200D03*
%TO.P,R38,1*%
%TO.N,VCC*%
X167510600Y-73355200D03*
%TD*%
D18*
%TO.P,R37,1*%
%TO.N,/IO Jacks/VREF_5V0*%
X168480600Y-78130400D03*
%TO.P,R37,2*%
%TO.N,Net-(U6-Pad16)*%
X167510600Y-78130400D03*
%TD*%
D17*
%TO.P,R36,2*%
%TO.N,/IO Jacks/DAC_VDD*%
X168480600Y-72288400D03*
%TO.P,R36,1*%
%TO.N,/5V3*%
X167510600Y-72288400D03*
%TD*%
D19*
%TO.P,U11,1,A*%
%TO.N,/STAT_LED*%
X153060400Y-86235400D03*
%TO.P,U11,2,K*%
%TO.N,Net-(R35-Pad1)*%
X153060400Y-85265400D03*
%TD*%
D17*
%TO.P,U10,1,A*%
%TO.N,VCC*%
X133220600Y-84683600D03*
%TO.P,U10,2,K*%
%TO.N,Net-(R34-Pad1)*%
X134190600Y-84683600D03*
%TD*%
D19*
%TO.P,R35,2*%
%TO.N,GND*%
X154990800Y-81353800D03*
%TO.P,R35,1*%
%TO.N,Net-(R35-Pad1)*%
X154990800Y-82323800D03*
%TD*%
%TO.P,R34,2*%
%TO.N,GND*%
X135128000Y-77442200D03*
%TO.P,R34,1*%
%TO.N,Net-(R34-Pad1)*%
X135128000Y-78412200D03*
%TD*%
D20*
%TO.P,J1,4*%
%TO.N,/MIDI_OUT_SRC*%
X138896400Y-71424800D03*
%TO.P,J1,3*%
%TO.N,/UART_TX*%
X140146400Y-71424800D03*
%TO.P,J1,2*%
%TO.N,/MIDI_SRC*%
X141396400Y-71424800D03*
D21*
%TO.P,J1,1*%
%TO.N,/MIDI_SNK*%
X142646400Y-71424800D03*
%TD*%
D22*
%TO.P,J5,3*%
%TO.N,/IO Jacks/VREF_5V0*%
X201006808Y-75711888D03*
D23*
%TO.P,J5,2*%
%TO.N,/IO Jacks/CVx_REF*%
X203006808Y-75711888D03*
D24*
%TO.P,J5,1*%
%TO.N,GND*%
X205006808Y-75711888D03*
%TD*%
D25*
%TO.P,J12,S,S*%
%TO.N,GND*%
X200942400Y-69977000D03*
D26*
%TO.P,J12,T,T*%
%TO.N,/IO Jacks/CV2_OUT*%
X189542400Y-69977000D03*
%TO.P,J12,TN,TN*%
%TO.N,unconnected-(J12-PadTN)*%
X197842400Y-69977000D03*
%TD*%
D25*
%TO.P,J8,S,S*%
%TO.N,GND*%
X200942400Y-81407000D03*
D26*
%TO.P,J8,T,T*%
%TO.N,/IO Jacks/TRIG2*%
X189542400Y-81407000D03*
%TO.P,J8,TN,TN*%
%TO.N,unconnected-(J8-PadTN)*%
X197842400Y-81407000D03*
%TD*%
D25*
%TO.P,J6,S,S*%
%TO.N,GND*%
X169751200Y-81407000D03*
D26*
%TO.P,J6,T,T*%
%TO.N,/IO Jacks/TRIG0*%
X158351200Y-81407000D03*
%TO.P,J6,TN,TN*%
%TO.N,unconnected-(J6-PadTN)*%
X166651200Y-81407000D03*
%TD*%
D25*
%TO.P,J10,S,S*%
%TO.N,GND*%
X169751200Y-69977000D03*
D26*
%TO.P,J10,T,T*%
%TO.N,/IO Jacks/CV0_OUT*%
X158351200Y-69977000D03*
%TO.P,J10,TN,TN*%
%TO.N,unconnected-(J10-PadTN)*%
X166651200Y-69977000D03*
%TD*%
D25*
%TO.P,J13,S,S*%
%TO.N,GND*%
X216489000Y-69977000D03*
D26*
%TO.P,J13,T,T*%
%TO.N,/IO Jacks/CV3_OUT*%
X205089000Y-69977000D03*
%TO.P,J13,TN,TN*%
%TO.N,unconnected-(J13-PadTN)*%
X213389000Y-69977000D03*
%TD*%
D25*
%TO.P,J9,S,S*%
%TO.N,GND*%
X216538000Y-81407000D03*
D26*
%TO.P,J9,T,T*%
%TO.N,/IO Jacks/TRIG3*%
X205138000Y-81407000D03*
%TO.P,J9,TN,TN*%
%TO.N,unconnected-(J9-PadTN)*%
X213438000Y-81407000D03*
%TD*%
D25*
%TO.P,J11,S,S*%
%TO.N,GND*%
X185346800Y-69977000D03*
D26*
%TO.P,J11,T,T*%
%TO.N,/IO Jacks/CV1_OUT*%
X173946800Y-69977000D03*
%TO.P,J11,TN,TN*%
%TO.N,unconnected-(J11-PadTN)*%
X182246800Y-69977000D03*
%TD*%
D27*
%TO.P,U1,1,VIN*%
%TO.N,/LCD_VIN*%
X152463500Y-67437000D03*
%TO.P,U1,2,3V3*%
%TO.N,unconnected-(U1-Pad2)*%
X149923500Y-67437000D03*
%TO.P,U1,3,GND*%
%TO.N,GND*%
X147383500Y-67437000D03*
%TO.P,U1,4,SCK*%
%TO.N,/LCD{slash}SD_SCK*%
X144843500Y-67437000D03*
%TO.P,U1,5,MISO*%
%TO.N,/SD_SDO*%
X142303500Y-67437000D03*
%TO.P,U1,6,MOSI*%
%TO.N,/LCD{slash}SD_SDI*%
X139763500Y-67437000D03*
%TO.P,U1,7,TFT_CS*%
%TO.N,/LCD_CS*%
X137223500Y-67437000D03*
%TO.P,U1,8,RST*%
%TO.N,/LCD_RST*%
X134683500Y-67437000D03*
%TO.P,U1,9,DC*%
%TO.N,/LCD_DC*%
X132143500Y-67437000D03*
%TO.P,U1,10,SD_CS*%
%TO.N,/SD_CS*%
X129603500Y-67437000D03*
%TO.P,U1,11,BL*%
%TO.N,unconnected-(U1-Pad11)*%
X127063500Y-67437000D03*
%TD*%
D25*
%TO.P,J7,S,S*%
%TO.N,GND*%
X185346800Y-81407000D03*
D26*
%TO.P,J7,T,T*%
%TO.N,/IO Jacks/TRIG1*%
X173946800Y-81407000D03*
%TO.P,J7,TN,TN*%
%TO.N,unconnected-(J7-PadTN)*%
X182246800Y-81407000D03*
%TD*%
D16*
%TO.P,C2,1*%
%TO.N,GND*%
X156320300Y-80162400D03*
%TO.P,C2,2*%
%TO.N,VCC*%
X155185300Y-80162400D03*
%TD*%
D28*
%TO.P,C16,2*%
%TO.N,VDD*%
X126597100Y-82774400D03*
%TO.P,C16,1*%
%TO.N,GND*%
X125462100Y-82774400D03*
%TD*%
D17*
%TO.P,R16,2*%
%TO.N,GND*%
X186971800Y-73456800D03*
%TO.P,R16,1*%
%TO.N,/IO_TRIG1*%
X186001800Y-73456800D03*
%TD*%
D29*
%TO.P,C14,2*%
%TO.N,/5V3*%
X128620400Y-79582700D03*
%TO.P,C14,1*%
%TO.N,GND*%
X128620400Y-78447700D03*
%TD*%
D28*
%TO.P,C17,2*%
%TO.N,VDD*%
X131931100Y-82774400D03*
%TO.P,C17,1*%
%TO.N,GND*%
X130796100Y-82774400D03*
%TD*%
D30*
%TO.P,C10,2*%
%TO.N,GND*%
X155295600Y-70552500D03*
%TO.P,C10,1*%
%TO.N,/VREG_1V2*%
X155295600Y-71687500D03*
%TD*%
D31*
%TO.P,U3,1,IN*%
%TO.N,VDD*%
X132313599Y-81117900D03*
%TO.P,U3,2,GND*%
%TO.N,GND*%
X131363599Y-81117900D03*
%TO.P,U3,3,EN*%
%TO.N,VDD*%
X130413599Y-81117900D03*
%TO.P,U3,4,ADJ*%
%TO.N,Net-(R10-Pad1)*%
X130413599Y-78842900D03*
%TO.P,U3,5,OUT*%
%TO.N,VCC*%
X132313599Y-78842900D03*
%TD*%
D17*
%TO.P,R19,2*%
%TO.N,/IO Jacks/TRIG0_FB*%
X186971800Y-78028800D03*
%TO.P,R19,1*%
%TO.N,/IO_TRIG0*%
X186001800Y-78028800D03*
%TD*%
%TO.P,R6,2*%
%TO.N,/D+*%
X147144600Y-81280000D03*
%TO.P,R6,1*%
%TO.N,/USB_D+*%
X146174600Y-81280000D03*
%TD*%
D15*
%TO.P,TP22,1,1*%
%TO.N,/IO_SDO*%
X168300400Y-66014270D03*
%TD*%
D17*
%TO.P,R22,2*%
%TO.N,/IO Jacks/TRIG3_FB*%
X194795000Y-72288400D03*
%TO.P,R22,1*%
%TO.N,/IO_TRIG3*%
X193825000Y-72288400D03*
%TD*%
D29*
%TO.P,C4,2*%
%TO.N,VCC*%
X154025600Y-71687500D03*
%TO.P,C4,1*%
%TO.N,GND*%
X154025600Y-70552500D03*
%TD*%
D17*
%TO.P,R21,2*%
%TO.N,/IO Jacks/TRIG2_FB*%
X194416400Y-79197200D03*
%TO.P,R21,1*%
%TO.N,/IO_TRIG2*%
X193446400Y-79197200D03*
%TD*%
D16*
%TO.P,C24,2*%
%TO.N,VDD*%
X191354900Y-72288400D03*
%TO.P,C24,1*%
%TO.N,VSS*%
X192489900Y-72288400D03*
%TD*%
D18*
%TO.P,R10,2*%
%TO.N,GND*%
X129512200Y-77084800D03*
%TO.P,R10,1*%
%TO.N,Net-(R10-Pad1)*%
X130482200Y-77084800D03*
%TD*%
%TO.P,R9,2*%
%TO.N,Net-(R10-Pad1)*%
X131645800Y-77084800D03*
%TO.P,R9,1*%
%TO.N,VCC*%
X132615800Y-77084800D03*
%TD*%
D32*
%TO.P,J3,1,Pin_1*%
%TO.N,VDD*%
X120958600Y-72121000D03*
%TO.P,J3,2,Pin_2*%
X120958600Y-67071000D03*
%TO.P,J3,3,Pin_3*%
%TO.N,GND*%
X118418600Y-72121000D03*
%TO.P,J3,4,Pin_4*%
X118418600Y-67071000D03*
%TO.P,J3,5,Pin_5*%
X115878600Y-72121000D03*
%TO.P,J3,6,Pin_6*%
X115878600Y-67071000D03*
%TO.P,J3,7,Pin_7*%
X113338600Y-72121000D03*
%TO.P,J3,8,Pin_8*%
X113338600Y-67071000D03*
%TO.P,J3,9,Pin_9*%
%TO.N,VSS*%
X110798600Y-72121000D03*
%TO.P,J3,10,Pin_10*%
X110798600Y-67071000D03*
%TD*%
D15*
%TO.P,TP19,1,1*%
%TO.N,/IO_SDI*%
X171399200Y-66014270D03*
%TD*%
D33*
%TO.P,SW2,1,1*%
%TO.N,GND*%
X151483000Y-85911009D03*
X147333000Y-85911009D03*
%TO.P,SW2,2,2*%
%TO.N,/BOOTSEL*%
X151458000Y-83761009D03*
X147333000Y-83761009D03*
%TD*%
D34*
%TO.P,U7,1,1OUT*%
%TO.N,/IO Jacks/CV0_OUT*%
X175051420Y-77652680D03*
%TO.P,U7,2,1IN-*%
%TO.N,/IO Jacks/CV0_FB*%
X175051420Y-77002680D03*
%TO.P,U7,3,1IN+*%
%TO.N,/IO Jacks/DAC_VOUT0*%
X175051420Y-76352680D03*
%TO.P,U7,4,VCC*%
%TO.N,VDD*%
X175051420Y-75702680D03*
%TO.P,U7,5,2IN+*%
%TO.N,/IO Jacks/DAC_VOUT1*%
X175051420Y-75052680D03*
%TO.P,U7,6,2IN-*%
%TO.N,/IO Jacks/CV1_FB*%
X175051420Y-74402680D03*
%TO.P,U7,7,2OUT*%
%TO.N,/IO Jacks/CV1_OUT*%
X175051420Y-73752680D03*
%TO.P,U7,8,3OUT*%
%TO.N,/IO Jacks/CV2_OUT*%
X180776420Y-73752680D03*
%TO.P,U7,9,3IN-*%
%TO.N,/IO Jacks/CV2_FB*%
X180776420Y-74402680D03*
%TO.P,U7,10,3IN+*%
%TO.N,/IO Jacks/DAC_VOUT2*%
X180776420Y-75052680D03*
%TO.P,U7,11,VEE*%
%TO.N,VSS*%
X180776420Y-75702680D03*
%TO.P,U7,12,4IN+*%
%TO.N,/IO Jacks/DAC_VOUT3*%
X180776420Y-76352680D03*
%TO.P,U7,13,4IN-*%
%TO.N,/IO Jacks/CV3_FB*%
X180776420Y-77002680D03*
%TO.P,U7,14,4OUT*%
%TO.N,/IO Jacks/CV3_OUT*%
X180776420Y-77652680D03*
%TD*%
D17*
%TO.P,R18,2*%
%TO.N,GND*%
X196979400Y-72288400D03*
%TO.P,R18,1*%
%TO.N,/IO_TRIG3*%
X196009400Y-72288400D03*
%TD*%
D35*
%TO.P,R31,2*%
%TO.N,/MIDI_SNK*%
X137566400Y-78412200D03*
%TO.P,R31,1*%
%TO.N,/MIDI_R*%
X137566400Y-77442200D03*
%TD*%
D18*
%TO.P,R11,2*%
%TO.N,Net-(R11-Pad2)*%
X126870600Y-77084800D03*
%TO.P,R11,1*%
%TO.N,/5V3*%
X127840600Y-77084800D03*
%TD*%
D17*
%TO.P,R28,2*%
%TO.N,/IO Jacks/CV1_OUT*%
X173268120Y-73772280D03*
%TO.P,R28,1*%
%TO.N,/IO Jacks/CV1_FB*%
X172298120Y-73772280D03*
%TD*%
D19*
%TO.P,R13,2*%
%TO.N,GND*%
X142189200Y-77442200D03*
%TO.P,R13,1*%
%TO.N,/USB_CC1*%
X142189200Y-78412200D03*
%TD*%
D28*
%TO.P,C12,1*%
%TO.N,/VREG_1V2*%
X152594500Y-81330800D03*
%TO.P,C12,2*%
%TO.N,GND*%
X153729500Y-81330800D03*
%TD*%
D15*
%TO.P,TP13,1,1*%
%TO.N,VDD*%
X121564400Y-85344000D03*
%TD*%
D18*
%TO.P,R24,2*%
%TO.N,/IO Jacks/CV1_FB*%
X172298120Y-75059213D03*
%TO.P,R24,1*%
%TO.N,/IO Jacks/CVx_REF*%
X173268120Y-75059213D03*
%TD*%
D15*
%TO.P,TP23,1,1*%
%TO.N,/IO_CS*%
X162102800Y-66014270D03*
%TD*%
D16*
%TO.P,C8,2*%
%TO.N,Net-(C8-Pad2)*%
X152797700Y-69342000D03*
%TO.P,C8,1*%
%TO.N,GND*%
X153932700Y-69342000D03*
%TD*%
%TO.P,C1,2*%
%TO.N,VCC*%
X155185300Y-78994000D03*
%TO.P,C1,1*%
%TO.N,GND*%
X156320300Y-78994000D03*
%TD*%
D17*
%TO.P,R8,2*%
%TO.N,VCC*%
X156593400Y-73101200D03*
%TO.P,R8,1*%
%TO.N,/~{RESET}*%
X155623400Y-73101200D03*
%TD*%
D36*
%TO.P,U6,1,~{LAT1}*%
%TO.N,GND*%
X165168500Y-72767000D03*
%TO.P,U6,2,VDD*%
%TO.N,/IO Jacks/DAC_VDD*%
X165168500Y-73417000D03*
%TO.P,U6,3,~{CS}*%
%TO.N,/IO_CS*%
X165168500Y-74067000D03*
%TO.P,U6,4,VREF0*%
%TO.N,Net-(U6-Pad16)*%
X165168500Y-74717000D03*
%TO.P,U6,5,VOUT0*%
%TO.N,/IO Jacks/DAC_VOUT0*%
X165168500Y-75367000D03*
%TO.P,U6,6,VOUT2*%
%TO.N,/IO Jacks/DAC_VOUT2*%
X165168500Y-76017000D03*
%TO.P,U6,7*%
%TO.N,unconnected-(U6-Pad7)*%
X165168500Y-76667000D03*
%TO.P,U6,8*%
%TO.N,unconnected-(U6-Pad8)*%
X165168500Y-77317000D03*
%TO.P,U6,9,VSS*%
%TO.N,GND*%
X165168500Y-77967000D03*
%TO.P,U6,10*%
%TO.N,unconnected-(U6-Pad10)*%
X165168500Y-78617000D03*
%TO.P,U6,11*%
%TO.N,unconnected-(U6-Pad11)*%
X159443500Y-78617000D03*
%TO.P,U6,12*%
%TO.N,unconnected-(U6-Pad12)*%
X159443500Y-77967000D03*
%TO.P,U6,13*%
%TO.N,unconnected-(U6-Pad13)*%
X159443500Y-77317000D03*
%TO.P,U6,14,VOUT3*%
%TO.N,/IO Jacks/DAC_VOUT3*%
X159443500Y-76667000D03*
%TO.P,U6,15,VOUT1*%
%TO.N,/IO Jacks/DAC_VOUT1*%
X159443500Y-76017000D03*
%TO.P,U6,16,VREF1*%
%TO.N,Net-(U6-Pad16)*%
X159443500Y-75367000D03*
%TO.P,U6,17,SDO*%
%TO.N,/IO_SDO*%
X159443500Y-74717000D03*
%TO.P,U6,18,SCK*%
%TO.N,/IO_SCK*%
X159443500Y-74067000D03*
%TO.P,U6,19,SDI*%
%TO.N,/IO_SDI*%
X159443500Y-73417000D03*
%TO.P,U6,20,~{LAT0}*%
%TO.N,GND*%
X159443500Y-72767000D03*
%TD*%
D31*
%TO.P,U4,1,IN*%
%TO.N,VDD*%
X126979600Y-81067100D03*
%TO.P,U4,2,GND*%
%TO.N,GND*%
X126029600Y-81067100D03*
%TO.P,U4,3,EN*%
%TO.N,VDD*%
X125079600Y-81067100D03*
%TO.P,U4,4,ADJ*%
%TO.N,Net-(R11-Pad2)*%
X125079600Y-78792100D03*
%TO.P,U4,5,OUT*%
%TO.N,/5V3*%
X126979600Y-78792100D03*
%TD*%
D30*
%TO.P,C15,2*%
%TO.N,/5V3*%
X128620401Y-80987700D03*
%TO.P,C15,1*%
%TO.N,GND*%
X128620401Y-82122700D03*
%TD*%
D10*
%TO.P,C20,1*%
%TO.N,VDD*%
X122088000Y-77927200D03*
%TO.P,C20,2*%
%TO.N,GND*%
X117688000Y-77927200D03*
%TD*%
D15*
%TO.P,TP9,1,1*%
%TO.N,VCC*%
X131165600Y-85344000D03*
%TD*%
D37*
%TO.P,U2,56,~{QSPI_SS}*%
%TO.N,Net-(R5-Pad1)*%
X147641000Y-79967700D03*
%TO.P,U2,55,QSPI_SD1*%
%TO.N,unconnected-(U2-Pad55)*%
X148041000Y-79967700D03*
%TO.P,U2,54,QSPI_SD2*%
%TO.N,unconnected-(U2-Pad54)*%
X148441000Y-79967700D03*
%TO.P,U2,53,QSPI_SD0*%
%TO.N,unconnected-(U2-Pad53)*%
X148841000Y-79967700D03*
%TO.P,U2,52,QSPI_SCLK*%
%TO.N,unconnected-(U2-Pad52)*%
X149241000Y-79967700D03*
%TO.P,U2,51,QSPI_SD3*%
%TO.N,unconnected-(U2-Pad51)*%
X149641000Y-79967700D03*
%TO.P,U2,50,DVDD*%
%TO.N,/VREG_1V2*%
X150041000Y-79967700D03*
%TO.P,U2,49,IOVDD*%
%TO.N,VCC*%
X150441000Y-79967700D03*
%TO.P,U2,48,USB_VDD*%
X150841000Y-79967700D03*
%TO.P,U2,47,USB_DP*%
%TO.N,/D+*%
X151241000Y-79967700D03*
%TO.P,U2,46,USB_DM*%
%TO.N,/D-*%
X151641000Y-79967700D03*
%TO.P,U2,45,VREG_VOUT*%
%TO.N,/VREG_1V2*%
X152041000Y-79967700D03*
%TO.P,U2,44,VREG_VIN*%
%TO.N,VCC*%
X152441000Y-79967700D03*
%TO.P,U2,43,ADC_AVDD*%
X152841000Y-79967700D03*
D38*
%TO.P,U2,42,IOVDD*%
X153678500Y-79130200D03*
%TO.P,U2,41,GPIO29/ADC3*%
%TO.N,/IO_TRIG0*%
X153678500Y-78730200D03*
%TO.P,U2,40,GPIO28/ADC2*%
%TO.N,/IO_TRIG2*%
X153678500Y-78330200D03*
%TO.P,U2,39,GPIO27/ADC1*%
%TO.N,/IO_TRIG1*%
X153678500Y-77930200D03*
%TO.P,U2,38,GPIO26/ADC0*%
%TO.N,/IO_TRIG3*%
X153678500Y-77530200D03*
%TO.P,U2,37,GPIO25*%
%TO.N,/STAT_LED*%
X153678500Y-77130200D03*
%TO.P,U2,36,GPIO24*%
%TO.N,unconnected-(U2-Pad36)*%
X153678500Y-76730200D03*
%TO.P,U2,35,GPIO23*%
%TO.N,unconnected-(U2-Pad35)*%
X153678500Y-76330200D03*
%TO.P,U2,34,GPIO22*%
%TO.N,unconnected-(U2-Pad34)*%
X153678500Y-75930200D03*
%TO.P,U2,33,IOVDD*%
%TO.N,VCC*%
X153678500Y-75530200D03*
%TO.P,U2,32,GPIO21*%
%TO.N,unconnected-(U2-Pad32)*%
X153678500Y-75130200D03*
%TO.P,U2,31,GPIO20*%
%TO.N,/IO_SDO*%
X153678500Y-74730200D03*
%TO.P,U2,30,GPIO19*%
%TO.N,/IO_SDI*%
X153678500Y-74330200D03*
%TO.P,U2,29,GPIO18*%
%TO.N,/IO_SCK*%
X153678500Y-73930200D03*
D37*
%TO.P,U2,28,GPIO17*%
%TO.N,/IO_CS*%
X152841000Y-73092700D03*
%TO.P,U2,27,GPIO16*%
%TO.N,unconnected-(U2-Pad27)*%
X152441000Y-73092700D03*
%TO.P,U2,26,RUN*%
%TO.N,/~{RESET}*%
X152041000Y-73092700D03*
%TO.P,U2,25,SWDIO*%
%TO.N,/SWDIO*%
X151641000Y-73092700D03*
%TO.P,U2,24,SWCLK*%
%TO.N,/SWCLK*%
X151241000Y-73092700D03*
%TO.P,U2,23,DVDD*%
%TO.N,/VREG_1V2*%
X150841000Y-73092700D03*
%TO.P,U2,22,IOVDD*%
%TO.N,VCC*%
X150441000Y-73092700D03*
%TO.P,U2,21,XOUT*%
%TO.N,/XOUT*%
X150041000Y-73092700D03*
%TO.P,U2,20,XIN*%
%TO.N,/XIN*%
X149641000Y-73092700D03*
%TO.P,U2,19,TESTEN*%
%TO.N,GND*%
X149241000Y-73092700D03*
%TO.P,U2,18,GPIO15*%
%TO.N,unconnected-(U2-Pad18)*%
X148841000Y-73092700D03*
%TO.P,U2,17,GPIO14*%
%TO.N,/LCD_DC*%
X148441000Y-73092700D03*
%TO.P,U2,16,GPIO13*%
%TO.N,/LCD_RST*%
X148041000Y-73092700D03*
%TO.P,U2,15,GPIO12*%
%TO.N,/SD_SDO*%
X147641000Y-73092700D03*
D38*
%TO.P,U2,14,GPIO11*%
%TO.N,/LCD{slash}SD_SDI*%
X146803500Y-73930200D03*
%TO.P,U2,13,GPIO10*%
%TO.N,/LCD{slash}SD_SCK*%
X146803500Y-74330200D03*
%TO.P,U2,12,GPIO9*%
%TO.N,/LCD_CS*%
X146803500Y-74730200D03*
%TO.P,U2,11,GPIO8*%
%TO.N,/SD_CS*%
X146803500Y-75130200D03*
%TO.P,U2,10,IOVDD*%
%TO.N,VCC*%
X146803500Y-75530200D03*
%TO.P,U2,9,GPIO7*%
%TO.N,/ENC_BTN*%
X146803500Y-75930200D03*
%TO.P,U2,8,GPIO6*%
%TO.N,/ENC_2*%
X146803500Y-76330200D03*
%TO.P,U2,7,GPIO5*%
%TO.N,/ENC_1*%
X146803500Y-76730200D03*
%TO.P,U2,6,GPIO4*%
%TO.N,/ENC_0*%
X146803500Y-77130200D03*
%TO.P,U2,5,GPIO3*%
%TO.N,/I2C_SCL*%
X146803500Y-77530200D03*
%TO.P,U2,4,GPIO2*%
%TO.N,/I2C_SDA*%
X146803500Y-77930200D03*
%TO.P,U2,3,GPIO1*%
%TO.N,/UART_RX*%
X146803500Y-78330200D03*
%TO.P,U2,2,GPIO0*%
%TO.N,/UART_TX*%
X146803500Y-78730200D03*
%TO.P,U2,1,IOVDD*%
%TO.N,VCC*%
X146803500Y-79130200D03*
D39*
%TO.P,U2,0,GND*%
%TO.N,GND*%
X151441000Y-75330200D03*
X149041000Y-75330200D03*
D40*
X150241000Y-76530200D03*
D39*
X151441000Y-76130200D03*
X150641000Y-76930200D03*
X149041000Y-76930200D03*
X151441000Y-77730200D03*
X149841000Y-76930200D03*
X149841000Y-76130200D03*
X149841000Y-75330200D03*
X151441000Y-76930200D03*
X150638519Y-77730200D03*
X149841000Y-77730200D03*
X150641000Y-76130200D03*
X149041000Y-76130200D03*
X150641000Y-75330200D03*
X149041000Y-77730200D03*
%TD*%
D28*
%TO.P,C18,2*%
%TO.N,VDD*%
X119998300Y-81584800D03*
%TO.P,C18,1*%
%TO.N,GND*%
X118863300Y-81584800D03*
%TD*%
D41*
%TO.P,U5,1*%
%TO.N,unconnected-(U5-Pad1)*%
X170250700Y-74742000D03*
%TO.P,U5,2,GND*%
%TO.N,GND*%
X170250700Y-75692000D03*
%TO.P,U5,3,VIN*%
%TO.N,/5V3*%
X170250700Y-76642000D03*
%TO.P,U5,4,VOUT*%
%TO.N,/IO Jacks/VREF_5V0*%
X167975700Y-76642000D03*
%TO.P,U5,5*%
%TO.N,unconnected-(U5-Pad5)*%
X167975700Y-74742000D03*
%TD*%
D29*
%TO.P,C13,2*%
%TO.N,VCC*%
X133852800Y-79633500D03*
%TO.P,C13,1*%
%TO.N,GND*%
X133852800Y-78498500D03*
%TD*%
D18*
%TO.P,R3,2*%
%TO.N,/LCD_VIN*%
X154404200Y-68173600D03*
%TO.P,R3,1*%
%TO.N,VCC*%
X155374200Y-68173600D03*
%TD*%
D15*
%TO.P,TP24,1,1*%
%TO.N,/IO Jacks/DAC_VOUT1*%
X174498000Y-66040000D03*
%TD*%
D19*
%TO.P,R14,2*%
%TO.N,GND*%
X138734800Y-77442200D03*
%TO.P,R14,1*%
%TO.N,/USB_CC2*%
X138734800Y-78412200D03*
%TD*%
D18*
%TO.P,R17,2*%
%TO.N,GND*%
X193446400Y-80467200D03*
%TO.P,R17,1*%
%TO.N,/IO_TRIG2*%
X194416400Y-80467200D03*
%TD*%
%TO.P,R2,2*%
%TO.N,/LCD_VIN*%
X154404200Y-66802000D03*
%TO.P,R2,1*%
%TO.N,/5V3*%
X155374200Y-66802000D03*
%TD*%
%TO.P,R29,2*%
%TO.N,/IO Jacks/CV2_OUT*%
X182508920Y-73772280D03*
%TO.P,R29,1*%
%TO.N,/IO Jacks/CV2_FB*%
X183478920Y-73772280D03*
%TD*%
D30*
%TO.P,C11,2*%
%TO.N,VCC*%
X133852800Y-80987700D03*
%TO.P,C11,1*%
%TO.N,GND*%
X133852800Y-82122700D03*
%TD*%
D18*
%TO.P,R27,2*%
%TO.N,/IO Jacks/CV0_OUT*%
X172298120Y-77633080D03*
%TO.P,R27,1*%
%TO.N,/IO Jacks/CV0_FB*%
X173268120Y-77633080D03*
%TD*%
D16*
%TO.P,C23,2*%
%TO.N,VDD*%
X177346420Y-79256475D03*
%TO.P,C23,1*%
%TO.N,VSS*%
X178481420Y-79256475D03*
%TD*%
D42*
%TO.P,U9,1*%
%TO.N,/MIDI_SRC*%
X137584500Y-75565000D03*
%TO.P,U9,2*%
%TO.N,/MIDI_R*%
X137584500Y-74295000D03*
%TO.P,U9,3*%
%TO.N,GND*%
X143959500Y-74295000D03*
%TO.P,U9,4*%
%TO.N,/UART_RX*%
X143959500Y-75565000D03*
%TD*%
D18*
%TO.P,R25,2*%
%TO.N,/IO Jacks/CV2_FB*%
X182508920Y-75059213D03*
%TO.P,R25,1*%
%TO.N,/IO Jacks/CVx_REF*%
X183478920Y-75059213D03*
%TD*%
%TO.P,R12,2*%
%TO.N,GND*%
X124737000Y-77084800D03*
%TO.P,R12,1*%
%TO.N,Net-(R11-Pad2)*%
X125707000Y-77084800D03*
%TD*%
D43*
%TO.P,J2,10,RESET*%
%TO.N,/~{RESET}*%
X126898400Y-70186000D03*
%TO.P,J2,9,GND*%
%TO.N,GND*%
X126898400Y-74086000D03*
%TO.P,J2,8,NC*%
%TO.N,unconnected-(J2-Pad8)*%
X128168400Y-70186000D03*
%TO.P,J2,7,KEY*%
%TO.N,GND*%
X128168400Y-74086000D03*
%TO.P,J2,6,SWO*%
%TO.N,unconnected-(J2-Pad6)*%
X129438400Y-70186000D03*
%TO.P,J2,5,GND*%
%TO.N,GND*%
X129438400Y-74086000D03*
%TO.P,J2,4,SWCLK*%
%TO.N,/SWCLK*%
X130708400Y-70186000D03*
%TO.P,J2,3,GND*%
%TO.N,GND*%
X130708400Y-74086000D03*
%TO.P,J2,2,SWDIO*%
%TO.N,/SWDIO*%
X131978400Y-70186000D03*
%TO.P,J2,1,VCC*%
%TO.N,VCC*%
X131978400Y-74086000D03*
%TD*%
D28*
%TO.P,C9,2*%
%TO.N,VCC*%
X144991900Y-78384400D03*
%TO.P,C9,1*%
%TO.N,GND*%
X143856900Y-78384400D03*
%TD*%
D15*
%TO.P,TP28,1,1*%
%TO.N,/IO_TRIG0*%
X165201600Y-85344000D03*
%TD*%
%TO.P,TP17,1,1*%
%TO.N,GND*%
X115316000Y-85344000D03*
%TD*%
D33*
%TO.P,SW1,1,1*%
%TO.N,/~{RESET}*%
X154693800Y-83760991D03*
X158843800Y-83760991D03*
%TO.P,SW1,2,2*%
%TO.N,GND*%
X154718800Y-85910991D03*
X158843800Y-85910991D03*
%TD*%
D17*
%TO.P,R30,2*%
%TO.N,/IO Jacks/CV3_OUT*%
X183478920Y-77683880D03*
%TO.P,R30,1*%
%TO.N,/IO Jacks/CV3_FB*%
X182508920Y-77683880D03*
%TD*%
D35*
%TO.P,R32,2*%
%TO.N,/UART_RX*%
X145338800Y-70995400D03*
%TO.P,R32,1*%
%TO.N,VCC*%
X145338800Y-70025400D03*
%TD*%
D15*
%TO.P,TP10,1,1*%
%TO.N,/5V3*%
X128066800Y-85344000D03*
%TD*%
D35*
%TO.P,R4,2*%
%TO.N,/XOUT*%
X152689921Y-71611783D03*
%TO.P,R4,1*%
%TO.N,Net-(C8-Pad2)*%
X152689921Y-70641783D03*
%TD*%
D17*
%TO.P,R7,2*%
%TO.N,/D-*%
X147144600Y-82346800D03*
%TO.P,R7,1*%
%TO.N,/USB_D-*%
X146174600Y-82346800D03*
%TD*%
D35*
%TO.P,R33,2*%
%TO.N,VCC*%
X136398000Y-78412200D03*
%TO.P,R33,1*%
%TO.N,/MIDI_OUT_SRC*%
X136398000Y-77442200D03*
%TD*%
D28*
%TO.P,C7,2*%
%TO.N,VCC*%
X144991900Y-77266800D03*
%TO.P,C7,1*%
%TO.N,GND*%
X143856900Y-77266800D03*
%TD*%
D17*
%TO.P,R23,1*%
%TO.N,/IO Jacks/CVx_REF*%
X172298120Y-76363080D03*
%TO.P,R23,2*%
%TO.N,/IO Jacks/CV0_FB*%
X173268120Y-76363080D03*
%TD*%
D15*
%TO.P,TP14,1,1*%
%TO.N,VSS*%
X108813600Y-85344000D03*
%TD*%
D18*
%TO.P,R26,2*%
%TO.N,/IO Jacks/CV3_FB*%
X182508920Y-76413880D03*
%TO.P,R26,1*%
%TO.N,/IO Jacks/CVx_REF*%
X183478920Y-76413880D03*
%TD*%
D16*
%TO.P,C5,2*%
%TO.N,VCC*%
X155540900Y-75539600D03*
%TO.P,C5,1*%
%TO.N,GND*%
X156675900Y-75539600D03*
%TD*%
D17*
%TO.P,R15,2*%
%TO.N,GND*%
X186971800Y-76860400D03*
%TO.P,R15,1*%
%TO.N,/IO_TRIG0*%
X186001800Y-76860400D03*
%TD*%
%TO.P,R5,2*%
%TO.N,/BOOTSEL*%
X152580200Y-82397600D03*
%TO.P,R5,1*%
%TO.N,Net-(R5-Pad1)*%
X151610200Y-82397600D03*
%TD*%
D34*
%TO.P,U8,1,1OUT*%
%TO.N,/IO Jacks/TRIG0_FB*%
X188729700Y-77692800D03*
%TO.P,U8,2,1IN-*%
X188729700Y-77042800D03*
%TO.P,U8,3,1IN+*%
%TO.N,/IO Jacks/TRIG0*%
X188729700Y-76392800D03*
%TO.P,U8,4,VCC*%
%TO.N,VDD*%
X188729700Y-75742800D03*
%TO.P,U8,5,2IN+*%
%TO.N,/IO Jacks/TRIG1*%
X188729700Y-75092800D03*
%TO.P,U8,6,2IN-*%
%TO.N,/IO Jacks/TRIG1_FB*%
X188729700Y-74442800D03*
%TO.P,U8,7,2OUT*%
X188729700Y-73792800D03*
%TO.P,U8,8,3OUT*%
%TO.N,/IO Jacks/TRIG3_FB*%
X194454700Y-73792800D03*
%TO.P,U8,9,3IN-*%
X194454700Y-74442800D03*
%TO.P,U8,10,3IN+*%
%TO.N,/IO Jacks/TRIG3*%
X194454700Y-75092800D03*
%TO.P,U8,11,VEE*%
%TO.N,VSS*%
X194454700Y-75742800D03*
%TO.P,U8,12,4IN+*%
%TO.N,/IO Jacks/TRIG2*%
X194454700Y-76392800D03*
%TO.P,U8,13,4IN-*%
%TO.N,/IO Jacks/TRIG2_FB*%
X194454700Y-77042800D03*
%TO.P,U8,14,4OUT*%
X194454700Y-77692800D03*
%TD*%
D15*
%TO.P,TP20,1,1*%
%TO.N,/IO_SCK*%
X165201600Y-66014270D03*
%TD*%
D44*
%TO.P,Y1,1,1*%
%TO.N,/XIN*%
X149391400Y-69810400D03*
%TO.P,Y1,2,2*%
%TO.N,GND*%
X151141400Y-69810400D03*
%TO.P,Y1,3,3*%
%TO.N,Net-(C8-Pad2)*%
X151141400Y-71210400D03*
%TO.P,Y1,4,4*%
%TO.N,GND*%
X149391400Y-71210400D03*
%TD*%
D30*
%TO.P,C6,2*%
%TO.N,/XIN*%
X147777200Y-69942900D03*
%TO.P,C6,1*%
%TO.N,GND*%
X147777200Y-71077900D03*
%TD*%
D35*
%TO.P,R1,2*%
%TO.N,/ENC_BTN*%
X146558000Y-70995400D03*
%TO.P,R1,1*%
%TO.N,GND*%
X146558000Y-70025400D03*
%TD*%
D17*
%TO.P,R20,2*%
%TO.N,/IO Jacks/TRIG1_FB*%
X186971800Y-74676000D03*
%TO.P,R20,1*%
%TO.N,/IO_TRIG1*%
X186001800Y-74676000D03*
%TD*%
D28*
%TO.P,C19,2*%
%TO.N,GND*%
X111819500Y-81584800D03*
%TO.P,C19,1*%
%TO.N,VSS*%
X110684500Y-81584800D03*
%TD*%
D45*
%TO.N,VCC*%
X167030400Y-73152000D03*
%TO.N,GND*%
X170789600Y-72796400D03*
X164693600Y-71424800D03*
X166065200Y-72745600D03*
X135128000Y-77012800D03*
%TO.N,/STAT_LED*%
X154635200Y-76098400D03*
X153670000Y-82245200D03*
%TO.N,GND*%
X154990800Y-80924400D03*
%TO.N,Net-(R5-Pad1)*%
X147980400Y-80924400D03*
X151079200Y-82397600D03*
%TO.N,/IO Jacks/CVx_REF*%
X171881300Y-76352400D03*
%TO.N,VDD*%
X126238000Y-79959200D03*
X131253215Y-79959200D03*
%TO.N,VCC*%
X132943600Y-70459600D03*
%TO.N,GND*%
X205689200Y-76098400D03*
X205689200Y-75336400D03*
%TO.N,/IO Jacks/VREF_5V0*%
X179425600Y-85140800D03*
X201320400Y-78028800D03*
%TO.N,/IO Jacks/CVx_REF*%
X183489600Y-75692000D03*
X190804800Y-75895200D03*
X193090800Y-75844400D03*
X202133200Y-77470000D03*
%TO.N,/VREG_1V2*%
X155752800Y-71678800D03*
X150469600Y-73964800D03*
%TO.N,GND*%
X128168400Y-82245200D03*
X156819600Y-80162400D03*
X151130000Y-69138800D03*
X160324800Y-72796400D03*
X197408800Y-72288400D03*
X126898400Y-72339200D03*
X143256000Y-79197200D03*
X154736800Y-85445600D03*
X154228800Y-81330800D03*
X124409200Y-77063600D03*
X157022800Y-75539600D03*
X154025600Y-69900800D03*
X158851600Y-85445600D03*
X143967200Y-74015600D03*
X156819600Y-78994000D03*
X186994800Y-72948800D03*
X115316000Y-81838800D03*
X147320000Y-85445600D03*
X155295600Y-70053200D03*
X186944000Y-76352400D03*
X138734800Y-76962000D03*
X129438400Y-72339200D03*
X128625600Y-77927200D03*
X143002000Y-77266800D03*
X150114000Y-71221600D03*
X129082800Y-77063600D03*
X192989200Y-80467200D03*
X131352722Y-82194262D03*
X147777200Y-71577200D03*
X128168400Y-72339200D03*
X130708400Y-72339200D03*
X164338000Y-77978000D03*
X136855200Y-79197200D03*
X125526800Y-82143600D03*
X149478500Y-73964800D03*
X133858000Y-77978000D03*
X134315200Y-82143600D03*
X151485600Y-85445600D03*
%TO.N,VCC*%
X132740400Y-78841600D03*
X135890000Y-78435200D03*
X134315200Y-80975200D03*
X156565600Y-72770500D03*
X145338800Y-69545200D03*
X133045200Y-77114400D03*
X131978400Y-75387200D03*
X155854400Y-69392800D03*
X155549600Y-75895200D03*
X134315200Y-79654400D03*
X155194000Y-79603600D03*
X145717084Y-79326916D03*
X154432000Y-71678800D03*
X145724041Y-76178841D03*
%TO.N,VSS*%
X192532000Y-72745600D03*
X110083600Y-86106000D03*
X178511200Y-79756000D03*
%TO.N,/VREG_1V2*%
X152146000Y-81381600D03*
X150160107Y-81011647D03*
%TO.N,/5V3*%
X155803600Y-66802000D03*
X160731200Y-69443600D03*
%TO.N,VDD*%
X123240800Y-85445600D03*
X177342800Y-79756000D03*
X191363600Y-72745600D03*
%TO.N,/ENC_1*%
X113487200Y-83159600D03*
X148640800Y-78790800D03*
%TO.N,/ENC_0*%
X147878800Y-78841600D03*
X117144800Y-82651600D03*
%TO.N,/ENC_BTN*%
X146558000Y-71729600D03*
X147675600Y-75895200D03*
X113639600Y-69342000D03*
%TO.N,/SWDIO*%
X151820843Y-73985157D03*
X132842000Y-72898000D03*
%TO.N,/SWCLK*%
X130708400Y-69748400D03*
X151130000Y-73990700D03*
%TO.N,/~{RESET}*%
X138125200Y-82271100D03*
X152476202Y-74244213D03*
X126847600Y-69748400D03*
X154482793Y-83007200D03*
X138125200Y-83641700D03*
X154686000Y-73101200D03*
%TO.N,/IO Jacks/VREF_5V0*%
X171754800Y-80060800D03*
X171754800Y-83820000D03*
%TO.N,/IO_TRIG0*%
X155854400Y-78130400D03*
X156057600Y-81330800D03*
X185572400Y-78028800D03*
%TO.N,/IO_TRIG1*%
X155702000Y-76911200D03*
X185572400Y-73456800D03*
%TO.N,/IO_TRIG2*%
X156182731Y-77472290D03*
X190398400Y-77419200D03*
%TO.N,/IO_TRIG3*%
X155092400Y-76606400D03*
X193852800Y-71780400D03*
%TO.N,/LCD{slash}SD_SCK*%
X148031200Y-74472800D03*
%TO.N,/LCD_RST*%
X143510000Y-68986400D03*
%TO.N,/LCD_DC*%
X148437600Y-73914000D03*
%TO.N,/SD_CS*%
X145846800Y-75234800D03*
X134315200Y-70561200D03*
%TO.N,/IO_SDI*%
X162584900Y-73456800D03*
X154660549Y-74334886D03*
X158394400Y-73406000D03*
X170637200Y-66802000D03*
%TO.N,/IO_SCK*%
X161290000Y-73812400D03*
X164439600Y-66852800D03*
%TO.N,/IO Jacks/DAC_VOUT0*%
X168960800Y-77317600D03*
X176733200Y-77317600D03*
%TO.N,/IO_SDO*%
X162001200Y-73812400D03*
X167487600Y-66802000D03*
%TO.N,/IO Jacks/DAC_VOUT1*%
X176326800Y-75082400D03*
X160578800Y-75946000D03*
%TO.N,/IO Jacks/DAC_VOUT2*%
X179628800Y-75031600D03*
X166573200Y-75996800D03*
%TO.N,/IO Jacks/DAC_VOUT3*%
X160578800Y-76657200D03*
X179527200Y-76352400D03*
%TO.N,/UART_TX*%
X145846800Y-78536800D03*
%TO.N,/UART_RX*%
X145338800Y-71729600D03*
X144932400Y-75590400D03*
X145846800Y-77724000D03*
%TD*%
D46*
%TO.N,/BOOTSEL*%
X147333000Y-83761009D02*
X151458000Y-83761009D01*
%TO.N,GND*%
X171145200Y-75044742D02*
X171145200Y-73152000D01*
X170497942Y-75692000D02*
X171145200Y-75044742D01*
X171145200Y-73152000D02*
X170789600Y-72796400D01*
X170250700Y-75692000D02*
X170497942Y-75692000D01*
%TO.N,/IO Jacks/CV0_OUT*%
X159545000Y-68783200D02*
X158351200Y-69977000D01*
X170688000Y-67818000D02*
X164744400Y-67818000D01*
X163779200Y-68783200D02*
X159545000Y-68783200D01*
X171653200Y-75898691D02*
X171653200Y-68783200D01*
X171399189Y-76152702D02*
X171653200Y-75898691D01*
X171399189Y-76734149D02*
X171399189Y-76152702D01*
X171653200Y-68783200D02*
X170688000Y-67818000D01*
X172298120Y-77633080D02*
X171399189Y-76734149D01*
X164744400Y-67818000D02*
X163779200Y-68783200D01*
%TO.N,VCC*%
X167233600Y-73355200D02*
X167030400Y-73152000D01*
X167510600Y-73355200D02*
X167233600Y-73355200D01*
%TO.N,/IO_SDO*%
X162001200Y-73812400D02*
X161096600Y-74717000D01*
X161096600Y-74717000D02*
X159443500Y-74717000D01*
D47*
%TO.N,/5V3*%
X169113200Y-75946000D02*
X169113200Y-72838500D01*
X169809200Y-76642000D02*
X169113200Y-75946000D01*
X170250700Y-76642000D02*
X169809200Y-76642000D01*
X169113200Y-72838500D02*
X169663300Y-72288400D01*
X168120200Y-71678800D02*
X167510600Y-72288400D01*
X169418000Y-72288400D02*
X168808400Y-71678800D01*
X169663300Y-72288400D02*
X169418000Y-72288400D01*
X168808400Y-71678800D02*
X168120200Y-71678800D01*
X164736051Y-70713600D02*
X162001200Y-70713600D01*
X166006051Y-71983600D02*
X164736051Y-70713600D01*
X162001200Y-70713600D02*
X160731200Y-69443600D01*
X166420800Y-71983600D02*
X166006051Y-71983600D01*
X166725600Y-72288400D02*
X166420800Y-71983600D01*
X167510600Y-72288400D02*
X166725600Y-72288400D01*
%TO.N,/IO Jacks/DAC_VDD*%
X168480600Y-72288400D02*
X168480600Y-73355200D01*
D46*
%TO.N,/IO Jacks/DAC_VOUT0*%
X167897942Y-75367000D02*
X165168500Y-75367000D01*
X168960800Y-77317600D02*
X168960800Y-76429858D01*
X168960800Y-76429858D02*
X167897942Y-75367000D01*
D47*
%TO.N,/IO Jacks/DAC_VDD*%
X168097200Y-74015600D02*
X166979600Y-74015600D01*
X168480600Y-73632200D02*
X168097200Y-74015600D01*
X166979600Y-74015600D02*
X166381000Y-73417000D01*
X168480600Y-73355200D02*
X168480600Y-73632200D01*
X166381000Y-73417000D02*
X165168500Y-73417000D01*
D46*
%TO.N,/IO Jacks/VREF_5V0*%
X169824400Y-78130400D02*
X171754800Y-80060800D01*
X168480600Y-78130400D02*
X169824400Y-78130400D01*
D47*
%TO.N,/IO Jacks/DAC_VDD*%
X163008500Y-72228900D02*
X163008500Y-71424800D01*
X164196600Y-73417000D02*
X163008500Y-72228900D01*
X165168500Y-73417000D02*
X164196600Y-73417000D01*
D46*
%TO.N,Net-(U6-Pad16)*%
X163454200Y-78618200D02*
X163454200Y-75367000D01*
X167510600Y-78130400D02*
X167487600Y-78130400D01*
X167487600Y-78130400D02*
X166319200Y-79298800D01*
X166319200Y-79298800D02*
X164134800Y-79298800D01*
X163454200Y-75367000D02*
X163966969Y-75367000D01*
X159443500Y-75367000D02*
X163454200Y-75367000D01*
X164134800Y-79298800D02*
X163454200Y-78618200D01*
%TO.N,/IO Jacks/VREF_5V0*%
X167975700Y-77625500D02*
X167975700Y-76642000D01*
X168480600Y-78130400D02*
X167975700Y-77625500D01*
%TO.N,VCC*%
X131826000Y-84683600D02*
X131165600Y-85344000D01*
X133220600Y-84683600D02*
X131826000Y-84683600D01*
%TO.N,Net-(R34-Pad1)*%
X134874000Y-78666200D02*
X135128000Y-78412200D01*
X134874000Y-82651600D02*
X134874000Y-78666200D01*
X134190600Y-83335000D02*
X134874000Y-82651600D01*
X134190600Y-84683600D02*
X134190600Y-83335000D01*
%TO.N,/STAT_LED*%
X154138226Y-77130200D02*
X153678500Y-77130200D01*
X154610289Y-76123311D02*
X154610289Y-76658137D01*
X154635200Y-76098400D02*
X154610289Y-76123311D01*
X154610289Y-76658137D02*
X154138226Y-77130200D01*
X153670000Y-82448400D02*
X153670000Y-82245200D01*
X152908000Y-83210400D02*
X153670000Y-82448400D01*
X152450800Y-83667600D02*
X152908000Y-83210400D01*
X152450800Y-85750400D02*
X152450800Y-83667600D01*
X152935800Y-86235400D02*
X152450800Y-85750400D01*
X153060400Y-86235400D02*
X152935800Y-86235400D01*
%TO.N,Net-(R35-Pad1)*%
X154404200Y-82323800D02*
X154990800Y-82323800D01*
X153060400Y-83667600D02*
X154404200Y-82323800D01*
X153060400Y-85265400D02*
X153060400Y-83667600D01*
%TO.N,Net-(R5-Pad1)*%
X147641000Y-80585000D02*
X147641000Y-79967700D01*
X147980400Y-80924400D02*
X147641000Y-80585000D01*
X151610200Y-82397600D02*
X151079200Y-82397600D01*
%TO.N,/BOOTSEL*%
X152580200Y-82638809D02*
X152580200Y-82397600D01*
X151458000Y-83761009D02*
X152580200Y-82638809D01*
%TO.N,/IO Jacks/CVx_REF*%
X171891980Y-76363080D02*
X171881300Y-76352400D01*
X172298120Y-76363080D02*
X171891980Y-76363080D01*
%TO.N,/IO Jacks/DAC_VOUT0*%
X175768280Y-76352680D02*
X175051420Y-76352680D01*
X176733200Y-77317600D02*
X175768280Y-76352680D01*
%TO.N,/IO Jacks/CVx_REF*%
X173268120Y-75393080D02*
X172298120Y-76363080D01*
X173268120Y-75059213D02*
X173268120Y-75393080D01*
D47*
%TO.N,VDD*%
X126979600Y-80748016D02*
X126979600Y-81067100D01*
X126190784Y-79959200D02*
X126979600Y-80748016D01*
X125425200Y-79959200D02*
X126190784Y-79959200D01*
X125079600Y-80304800D02*
X125425200Y-79959200D01*
X125079600Y-81067100D02*
X125079600Y-80304800D01*
D46*
%TO.N,/IO Jacks/VREF_5V0*%
X179222400Y-85344000D02*
X171754800Y-85344000D01*
X179425600Y-85140800D02*
X179222400Y-85344000D01*
X201006800Y-77715200D02*
X201320400Y-78028800D01*
X201006800Y-75711900D02*
X201006800Y-77715200D01*
%TO.N,/IO Jacks/CVx_REF*%
X183489600Y-76403200D02*
X183478920Y-76413880D01*
X183489600Y-75692000D02*
X183489600Y-76403200D01*
X183489600Y-75069893D02*
X183478920Y-75059213D01*
X183489600Y-75692000D02*
X183489600Y-75069893D01*
X190855600Y-75844400D02*
X190804800Y-75895200D01*
X193090800Y-75844400D02*
X190855600Y-75844400D01*
X203006800Y-76596400D02*
X202133200Y-77470000D01*
X203006800Y-75711900D02*
X203006800Y-76596400D01*
%TO.N,/IO Jacks/TRIG3*%
X203784200Y-81407000D02*
X205138000Y-81407000D01*
X197470000Y-75092800D02*
X203784200Y-81407000D01*
X194454700Y-75092800D02*
X197470000Y-75092800D01*
%TO.N,/IO_TRIG1*%
X186001800Y-73456800D02*
X185572400Y-73456800D01*
%TO.N,/IO_CS*%
X156718000Y-72288400D02*
X156006800Y-72288400D01*
X156718000Y-68224400D02*
X156718000Y-72288400D01*
X162102800Y-66014278D02*
X158928122Y-66014278D01*
X158928122Y-66014278D02*
X156718000Y-68224400D01*
X155803600Y-72491600D02*
X156006800Y-72288400D01*
X153720800Y-72491600D02*
X155803600Y-72491600D01*
X153119699Y-73092701D02*
X153720800Y-72491600D01*
X152841001Y-73092701D02*
X153119699Y-73092701D01*
%TO.N,/VREG_1V2*%
X150469600Y-73964800D02*
X150469600Y-73914000D01*
X150469600Y-73914000D02*
X150841000Y-73542600D01*
X150469600Y-74320400D02*
X150469600Y-73964800D01*
X150841000Y-73542600D02*
X150841000Y-73092700D01*
X152298400Y-78079600D02*
X152298400Y-74879200D01*
X150723600Y-74574400D02*
X150469600Y-74320400D01*
X151739600Y-78638400D02*
X152298400Y-78079600D01*
X150672800Y-78638400D02*
X151739600Y-78638400D01*
X152298400Y-74879200D02*
X151993600Y-74574400D01*
X150041000Y-79270200D02*
X150672800Y-78638400D01*
X151993600Y-74574400D02*
X150723600Y-74574400D01*
X150041000Y-79967700D02*
X150041000Y-79270200D01*
%TO.N,/XIN*%
X148742400Y-72186800D02*
X149352000Y-72186800D01*
%TO.N,/XOUT*%
X150418800Y-72034400D02*
X150041001Y-72412199D01*
X152267304Y-72034400D02*
X150418800Y-72034400D01*
X152689921Y-71611783D02*
X152267304Y-72034400D01*
X150041001Y-72412199D02*
X150041001Y-73092701D01*
%TO.N,VCC*%
X150441001Y-73092701D02*
X150441001Y-72469399D01*
X150441001Y-72469399D02*
X150571680Y-72338720D01*
X150571680Y-72338720D02*
X153374380Y-72338720D01*
X153374380Y-72338720D02*
X154025600Y-71687500D01*
%TO.N,Net-(C8-Pad2)*%
X151141400Y-71210400D02*
X152121304Y-71210400D01*
X152121304Y-71210400D02*
X152689921Y-70641783D01*
X152797700Y-70534004D02*
X152689921Y-70641783D01*
X152797700Y-69342000D02*
X152797700Y-70534004D01*
%TO.N,GND*%
X146558000Y-70025400D02*
X146724700Y-70025400D01*
X126029600Y-81640800D02*
X125526800Y-82143600D01*
X129438400Y-74086000D02*
X129438400Y-72339200D01*
X143255601Y-79952251D02*
X143255601Y-79299199D01*
X130708400Y-74086000D02*
X130708400Y-72339200D01*
X136855601Y-79952251D02*
X136855601Y-79299201D01*
X125462100Y-82208300D02*
X125526800Y-82143600D01*
X149241000Y-73092700D02*
X149241000Y-73727300D01*
X131363599Y-81117900D02*
X131363599Y-82206901D01*
X143002000Y-77266800D02*
X142364600Y-77266800D01*
X138734800Y-77442200D02*
X138734800Y-76911200D01*
X136855601Y-79299201D02*
X136855200Y-79298800D01*
X130796100Y-82750884D02*
X131352722Y-82194262D01*
X142364600Y-77266800D02*
X142189200Y-77442200D01*
X143856900Y-77266800D02*
X143002000Y-77266800D01*
X143856900Y-77266800D02*
X143856900Y-78384400D01*
X130708400Y-74086000D02*
X126898400Y-74086000D01*
X153932700Y-69342000D02*
X153932700Y-69807900D01*
X131363599Y-82206901D02*
X130796100Y-82774400D01*
X153932700Y-69807900D02*
X154025600Y-69900800D01*
X126029600Y-81067100D02*
X126029600Y-81640800D01*
X128168400Y-74086000D02*
X128168400Y-72339200D01*
X149241000Y-73727300D02*
X149478500Y-73964800D01*
X130796100Y-82774400D02*
X130796100Y-82750884D01*
X125462100Y-82774400D02*
X125462100Y-82208300D01*
X154025600Y-69900800D02*
X154025600Y-70552500D01*
X143256000Y-78985300D02*
X143856900Y-78384400D01*
X126898400Y-74086000D02*
X126898400Y-72339200D01*
X143256000Y-79298800D02*
X143256000Y-78985300D01*
X143255601Y-79299199D02*
X143256000Y-79298800D01*
X146724700Y-70025400D02*
X147777200Y-71077900D01*
%TO.N,VCC*%
X150926800Y-79146400D02*
X152298400Y-79146400D01*
X144991900Y-78601732D02*
X145717084Y-79326916D01*
X156593400Y-73101200D02*
X156593400Y-72798300D01*
X150441001Y-79967701D02*
X150841001Y-79967701D01*
X152441000Y-79289000D02*
X152441000Y-79967700D01*
X155185300Y-75539600D02*
X153687900Y-75539600D01*
X152841001Y-79967701D02*
X154990601Y-79967701D01*
X150841000Y-79967700D02*
X150841000Y-79232200D01*
X155185300Y-80162400D02*
X155185300Y-78994000D01*
X144991900Y-77266800D02*
X144991900Y-76910981D01*
X153678501Y-79130201D02*
X155049099Y-79130201D01*
X145717084Y-79326916D02*
X146606784Y-79326916D01*
X145724041Y-76178841D02*
X146372680Y-75530201D01*
X146606784Y-79326916D02*
X146803500Y-79130200D01*
X150841000Y-79232200D02*
X150926800Y-79146400D01*
X153687900Y-75539600D02*
X153678501Y-75530201D01*
X146372680Y-75530201D02*
X146803501Y-75530201D01*
X154990601Y-79967701D02*
X155185300Y-80162400D01*
D48*
X155374200Y-68173600D02*
X155374200Y-68912600D01*
D46*
X144991900Y-76910981D02*
X145724041Y-76178841D01*
X132994400Y-81737200D02*
X132994400Y-83515200D01*
X132994400Y-83515200D02*
X131165600Y-85344000D01*
X155049099Y-79130201D02*
X155185300Y-78994000D01*
X144991900Y-78384400D02*
X144991900Y-78601732D01*
X133852800Y-80987700D02*
X133743900Y-80987700D01*
X152441001Y-79967701D02*
X152841001Y-79967701D01*
X133743900Y-80987700D02*
X132994400Y-81737200D01*
X156593400Y-72798300D02*
X156565600Y-72770500D01*
D48*
X155374200Y-68912600D02*
X155854400Y-69392800D01*
D46*
X152298400Y-79146400D02*
X152441000Y-79289000D01*
D47*
%TO.N,VSS*%
X180776420Y-75702680D02*
X179211720Y-75702680D01*
X178481420Y-76432980D02*
X178481420Y-79256475D01*
X192532000Y-74443473D02*
X193831327Y-75742800D01*
X193831327Y-75742800D02*
X194454700Y-75742800D01*
X192532000Y-72330500D02*
X192489900Y-72288400D01*
X192532000Y-72644000D02*
X192532000Y-72330500D01*
X178481420Y-79726220D02*
X178511200Y-79756000D01*
X110083600Y-86106000D02*
X109575600Y-86106000D01*
X109575600Y-86106000D02*
X108813600Y-85344000D01*
X192532000Y-72644000D02*
X192532000Y-74443473D01*
X178481420Y-79256475D02*
X178481420Y-79726220D01*
X179211720Y-75702680D02*
X178481420Y-76432980D01*
D46*
%TO.N,/XIN*%
X147777200Y-69942900D02*
X148437600Y-70603300D01*
X148437600Y-70603300D02*
X148437600Y-71882000D01*
X149352000Y-72186800D02*
X149641001Y-72475801D01*
X148437600Y-71882000D02*
X148742400Y-72186800D01*
X149258900Y-69942900D02*
X147777200Y-69942900D01*
X149641001Y-72475801D02*
X149641001Y-73092701D01*
X149391400Y-69810400D02*
X149258900Y-69942900D01*
%TO.N,/VREG_1V2*%
X152041000Y-79967700D02*
X152041000Y-80463800D01*
X150041000Y-80892540D02*
X150160107Y-81011647D01*
X152041000Y-80463800D02*
X152594500Y-81017300D01*
X152594500Y-81017300D02*
X152594500Y-81330800D01*
X150041000Y-79967700D02*
X150041000Y-80892540D01*
D47*
%TO.N,/5V3*%
X127770200Y-79582700D02*
X128620400Y-79582700D01*
X128620400Y-79582700D02*
X128620401Y-80987700D01*
D48*
X126441200Y-76098400D02*
X127406400Y-76098400D01*
X127840600Y-77084800D02*
X127840600Y-77931100D01*
X124866400Y-74523600D02*
X126441200Y-76098400D01*
D47*
X155374200Y-66802000D02*
X155752800Y-66802000D01*
X129489200Y-83921600D02*
X129489200Y-81856499D01*
X128066800Y-85344000D02*
X129489200Y-83921600D01*
X126979600Y-78792100D02*
X127770200Y-79582700D01*
D48*
X154686000Y-65430400D02*
X126288800Y-65430400D01*
X124866400Y-66852800D02*
X124866400Y-74523600D01*
X155374200Y-66118600D02*
X154686000Y-65430400D01*
D47*
X129489200Y-81856499D02*
X128620401Y-80987700D01*
D48*
X127406400Y-76098400D02*
X127840600Y-76532600D01*
X126288800Y-65430400D02*
X124866400Y-66852800D01*
X127840600Y-77931100D02*
X126979600Y-78792100D01*
X127840600Y-76532600D02*
X127840600Y-77084800D01*
X155374200Y-66802000D02*
X155374200Y-66118600D01*
D47*
%TO.N,VDD*%
X191363600Y-72644000D02*
X191363600Y-74574400D01*
X132313599Y-80548399D02*
X131724400Y-79959200D01*
X132313599Y-82391901D02*
X132313599Y-81117900D01*
X131253215Y-79959200D02*
X130413599Y-80798816D01*
X177346420Y-79256475D02*
X177346420Y-76559220D01*
X131724400Y-79959200D02*
X131253215Y-79959200D01*
X191354900Y-72635300D02*
X191363600Y-72644000D01*
X126979600Y-82391900D02*
X126979600Y-81067100D01*
X122793300Y-81067100D02*
X121564400Y-82296000D01*
X191363600Y-74574400D02*
X190195200Y-75742800D01*
X176489880Y-75702680D02*
X175051420Y-75702680D01*
X130413599Y-80798816D02*
X130413599Y-81117900D01*
X121564400Y-85344000D02*
X123139200Y-85344000D01*
X132313599Y-81117900D02*
X132313599Y-80548399D01*
X121564400Y-82296000D02*
X121564400Y-85344000D01*
X177342800Y-79260095D02*
X177346420Y-79256475D01*
X126597100Y-82774400D02*
X126979600Y-82391900D01*
X190195200Y-75742800D02*
X188729700Y-75742800D01*
X177342800Y-79756000D02*
X177342800Y-79260095D01*
X177346420Y-76559220D02*
X176489880Y-75702680D01*
X125079600Y-81067100D02*
X122793300Y-81067100D01*
X131931100Y-82774400D02*
X132313599Y-82391901D01*
X123139200Y-85344000D02*
X123240800Y-85445600D01*
X191354900Y-72288400D02*
X191354900Y-72635300D01*
D46*
%TO.N,/ENC_1*%
X147828000Y-76708000D02*
X146825700Y-76708000D01*
X148082000Y-78232000D02*
X148082000Y-76962000D01*
X148082000Y-76962000D02*
X147828000Y-76708000D01*
X146825700Y-76708000D02*
X146803500Y-76730200D01*
X148640800Y-78790800D02*
X148082000Y-78232000D01*
%TO.N,/ENC_0*%
X147675600Y-77266800D02*
X147675600Y-78079600D01*
X146803500Y-77130200D02*
X147539000Y-77130200D01*
X147675600Y-78638400D02*
X147878800Y-78841600D01*
X147675600Y-78079600D02*
X147675600Y-78638400D01*
X147539000Y-77130200D02*
X147675600Y-77266800D01*
%TO.N,/ENC_BTN*%
X146558000Y-70995400D02*
X146558000Y-71729600D01*
X147675600Y-75895200D02*
X146838502Y-75895200D01*
X146838502Y-75895200D02*
X146803501Y-75930201D01*
%TO.N,/SWDIO*%
X131978400Y-70186000D02*
X131978400Y-72034400D01*
X151641000Y-73805314D02*
X151820843Y-73985157D01*
X131978400Y-72034400D02*
X132842000Y-72898000D01*
X151641000Y-73092700D02*
X151641000Y-73805314D01*
%TO.N,/SWCLK*%
X151241000Y-73879700D02*
X151130000Y-73990700D01*
X151241000Y-73092700D02*
X151241000Y-73879700D01*
X130708400Y-69748400D02*
X130708400Y-70186000D01*
%TO.N,/~{RESET}*%
X154686000Y-73101200D02*
X155623400Y-73101200D01*
X154693793Y-83761000D02*
X154693793Y-83218200D01*
X152041001Y-73523506D02*
X152041001Y-73092701D01*
X126847600Y-69748400D02*
X126847600Y-70135200D01*
X154693793Y-83218200D02*
X154482793Y-83007200D01*
X158843793Y-83761000D02*
X154693793Y-83761000D01*
X152476202Y-74244213D02*
X152476202Y-73958707D01*
X126847600Y-70135200D02*
X126898400Y-70186000D01*
X152476202Y-73958707D02*
X152041001Y-73523506D01*
X138125200Y-83641700D02*
X138125200Y-82271100D01*
%TO.N,/USB_CC1*%
X141305600Y-79295800D02*
X142189200Y-78412200D01*
X141305600Y-79952251D02*
X141305600Y-79295800D01*
D49*
%TO.N,/USB_D+*%
X140289280Y-80825832D02*
X140305600Y-80809512D01*
X142765930Y-81846570D02*
X142686480Y-81846570D01*
X142165930Y-82367120D02*
X142086480Y-82367120D01*
X146174600Y-81280000D02*
X145087480Y-82367120D01*
X140914394Y-82367120D02*
X140289280Y-81742006D01*
X145087480Y-82367120D02*
X143286480Y-82367120D01*
X140305600Y-80809512D02*
X140305600Y-79952261D01*
X142086480Y-82367120D02*
X140914394Y-82367120D01*
X140289280Y-81742006D02*
X140289280Y-80825832D01*
X142765930Y-81846570D02*
G75*
G02*
X143026205Y-82106845I-1J-260276D01*
G01*
X143026205Y-82106845D02*
G75*
G03*
X143286480Y-82367120I260276J1D01*
G01*
X142426205Y-82106845D02*
G75*
G02*
X142686480Y-81846570I260276J-1D01*
G01*
X142165930Y-82367120D02*
G75*
G03*
X142426205Y-82106845I-1J260276D01*
G01*
%TO.N,/USB_D-*%
X145281067Y-82834480D02*
X145768747Y-82346800D01*
X139821920Y-81935594D02*
X140720806Y-82834480D01*
X145768747Y-82346800D02*
X146174600Y-82346800D01*
X139805600Y-80809512D02*
X139821920Y-80825832D01*
X140720806Y-82834480D02*
X145281067Y-82834480D01*
X139805600Y-79952261D02*
X139805600Y-80809512D01*
X139821920Y-80825832D02*
X139821920Y-81935594D01*
D46*
%TO.N,/USB_CC2*%
X138305540Y-79952251D02*
X138305540Y-78841460D01*
X138305540Y-78841460D02*
X138734800Y-78412200D01*
%TO.N,/IO Jacks/VREF_5V0*%
X171754800Y-85344000D02*
X171754800Y-83820000D01*
%TO.N,Net-(U6-Pad16)*%
X163966969Y-75367000D02*
X164616969Y-74717000D01*
X164616969Y-74717000D02*
X165168500Y-74717000D01*
%TO.N,/IO Jacks/CV0_OUT*%
X174522900Y-78181200D02*
X172846240Y-78181200D01*
X172846240Y-78181200D02*
X172298120Y-77633080D01*
X175051420Y-77652680D02*
X174522900Y-78181200D01*
%TO.N,/IO Jacks/CV1_OUT*%
X173946800Y-69977000D02*
X175051420Y-71081620D01*
X173268120Y-73772280D02*
X175031820Y-73772280D01*
X175031820Y-73772280D02*
X175051420Y-73752680D01*
X175051420Y-71081620D02*
X175051420Y-73752680D01*
%TO.N,/IO Jacks/CV2_OUT*%
X184450000Y-71831200D02*
X182508920Y-73772280D01*
X189542400Y-69977000D02*
X188036200Y-69977000D01*
X186182000Y-71831200D02*
X184450000Y-71831200D01*
X180796020Y-73772280D02*
X180776420Y-73752680D01*
X188036200Y-69977000D02*
X186182000Y-71831200D01*
X182508920Y-73772280D02*
X180796020Y-73772280D01*
%TO.N,/IO Jacks/CV3_OUT*%
X181355740Y-78232000D02*
X180776420Y-77652680D01*
X183478920Y-77683880D02*
X182930800Y-78232000D01*
X190246000Y-72237600D02*
X191617600Y-70866000D01*
X184759600Y-72237600D02*
X190246000Y-72237600D01*
X191617600Y-70866000D02*
X191617600Y-69494400D01*
X193395600Y-67716400D02*
X202828400Y-67716400D01*
X191617600Y-69494400D02*
X193395600Y-67716400D01*
X182930800Y-78232000D02*
X181355740Y-78232000D01*
X184251600Y-76911200D02*
X184251600Y-72745600D01*
X183478920Y-77683880D02*
X184251600Y-76911200D01*
X184251600Y-72745600D02*
X184759600Y-72237600D01*
X202828400Y-67716400D02*
X205089000Y-69977000D01*
%TO.N,/LCD_VIN*%
X154404200Y-66903599D02*
X154404200Y-68173600D01*
X153200100Y-68173600D02*
X152463500Y-67437000D01*
X154404200Y-68173600D02*
X153200100Y-68173600D01*
%TO.N,/MIDI_SNK*%
X138734800Y-76200000D02*
X139090400Y-76200000D01*
X138176000Y-76758800D02*
X138734800Y-76200000D01*
X137566400Y-78333600D02*
X138176000Y-77724000D01*
X138176000Y-77724000D02*
X138176000Y-76758800D01*
X137566400Y-78412200D02*
X137566400Y-78333600D01*
X142646400Y-72644000D02*
X142646400Y-71424800D01*
X139090400Y-76200000D02*
X142646400Y-72644000D01*
D49*
%TO.N,/D+*%
X147144600Y-81280000D02*
X147444320Y-81579720D01*
X149444280Y-81228306D02*
X149444280Y-81279720D01*
D46*
X151241001Y-80727493D02*
X151224014Y-80744480D01*
D49*
X148844280Y-81279720D02*
X148844280Y-81228306D01*
X150388774Y-81579720D02*
X151224014Y-80744480D01*
X149744280Y-81579720D02*
X149794280Y-81579720D01*
D46*
X151241001Y-79967701D02*
X151241001Y-80727493D01*
D49*
X147444320Y-81579720D02*
X148544280Y-81579720D01*
X149794280Y-81579720D02*
X150388774Y-81579720D01*
X149744280Y-81579720D02*
G75*
G02*
X149444280Y-81279720I0J300000D01*
G01*
X148844280Y-81279720D02*
G75*
G02*
X148544280Y-81579720I-300000J0D01*
G01*
X149144280Y-80928306D02*
G75*
G03*
X148844280Y-81228306I0J-300000D01*
G01*
X149444280Y-81228306D02*
G75*
G03*
X149144280Y-80928306I-300000J0D01*
G01*
%TO.N,/D-*%
X147144600Y-82346800D02*
X147444320Y-82047080D01*
X150582362Y-82047080D02*
X151554488Y-81074954D01*
X151690894Y-80938548D02*
X151690894Y-80721200D01*
D46*
X151641001Y-79967701D02*
X151641001Y-80671307D01*
D49*
X151554488Y-81074954D02*
X151690894Y-80938548D01*
D46*
X151641001Y-80671307D02*
X151690894Y-80721200D01*
D49*
X147444320Y-82047080D02*
X150582362Y-82047080D01*
D46*
%TO.N,Net-(R10-Pad1)*%
X130413599Y-78842900D02*
X130413599Y-77153401D01*
X131645800Y-77084800D02*
X130482200Y-77084800D01*
X130413599Y-77153401D02*
X130482200Y-77084800D01*
%TO.N,Net-(R11-Pad2)*%
X125707000Y-77084800D02*
X125707000Y-78164700D01*
X126870600Y-77084800D02*
X125707000Y-77084800D01*
X125707000Y-78164700D02*
X125079600Y-78792100D01*
%TO.N,/IO_TRIG0*%
X162560000Y-85344000D02*
X165201600Y-85344000D01*
X186001800Y-78028800D02*
X185572400Y-78028800D01*
X155020191Y-78130400D02*
X155346400Y-78130400D01*
X154420390Y-78730201D02*
X154878496Y-78272095D01*
X186001800Y-76860400D02*
X186001800Y-78028800D01*
X154878496Y-78272095D02*
X155020191Y-78130400D01*
X155346400Y-78130400D02*
X155854400Y-78130400D01*
X156057600Y-81330800D02*
X156057600Y-82346800D01*
X160172400Y-82956400D02*
X162560000Y-85344000D01*
X156057600Y-82346800D02*
X156667200Y-82956400D01*
X156667200Y-82956400D02*
X160172400Y-82956400D01*
X153678501Y-78730201D02*
X154420390Y-78730201D01*
%TO.N,/IO_TRIG1*%
X155469409Y-76911200D02*
X155292098Y-77088511D01*
X155702000Y-76911200D02*
X155469409Y-76911200D01*
X186001800Y-74676000D02*
X186001800Y-73456800D01*
X155040663Y-77088511D02*
X154198973Y-77930201D01*
X155292098Y-77088511D02*
X155040663Y-77088511D01*
X154198973Y-77930201D02*
X153678501Y-77930201D01*
%TO.N,/IO_TRIG2*%
X193446400Y-79197200D02*
X193446400Y-79497200D01*
X193141600Y-79197200D02*
X191363600Y-77419200D01*
X191363600Y-77419200D02*
X190398400Y-77419200D01*
X193446400Y-79497200D02*
X194416400Y-80467200D01*
X154787600Y-77825600D02*
X155140910Y-77472290D01*
X193446400Y-79197200D02*
X193141600Y-79197200D01*
X153678501Y-78330201D02*
X154282999Y-78330201D01*
X154282999Y-78330201D02*
X154787600Y-77825600D01*
X155140910Y-77472290D02*
X156182731Y-77472290D01*
%TO.N,/IO_TRIG3*%
X193852800Y-71780400D02*
X194106800Y-71526400D01*
X193825000Y-72011400D02*
X193825000Y-72288400D01*
X194106800Y-71526400D02*
X195247400Y-71526400D01*
X153678501Y-77530201D02*
X154168599Y-77530201D01*
X154168599Y-77530201D02*
X155092400Y-76606400D01*
X195247400Y-71526400D02*
X196009400Y-72288400D01*
%TO.N,/IO Jacks/TRIG0_FB*%
X188393700Y-78028800D02*
X188729700Y-77692800D01*
X188729700Y-77042800D02*
X188729700Y-77692800D01*
X186971800Y-78028800D02*
X188393700Y-78028800D01*
%TO.N,/IO Jacks/TRIG1_FB*%
X187205000Y-74442800D02*
X188729700Y-74442800D01*
X186971800Y-74676000D02*
X187205000Y-74442800D01*
X188729700Y-73792800D02*
X188729700Y-74442800D01*
%TO.N,/IO Jacks/TRIG2_FB*%
X194454700Y-79158900D02*
X194416400Y-79197200D01*
X194454700Y-77692800D02*
X194454700Y-77042800D01*
X194454700Y-77692800D02*
X194454700Y-79158900D01*
%TO.N,/IO Jacks/TRIG3_FB*%
X194454700Y-72628700D02*
X194795000Y-72288400D01*
X194454700Y-73792800D02*
X194454700Y-72628700D01*
X194454700Y-74442800D02*
X194454700Y-73792800D01*
%TO.N,/IO Jacks/CV0_FB*%
X173268120Y-76363080D02*
X173268120Y-77633080D01*
X173898520Y-77002680D02*
X175051420Y-77002680D01*
X173268120Y-77633080D02*
X173898520Y-77002680D01*
%TO.N,/IO Jacks/CV1_FB*%
X172298120Y-75059213D02*
X172954653Y-74402680D01*
X172298120Y-73772280D02*
X172324253Y-73772280D01*
X172954653Y-74402680D02*
X175051420Y-74402680D01*
X172324253Y-73772280D02*
X172954653Y-74402680D01*
%TO.N,/IO Jacks/CV2_FB*%
X182508920Y-74742280D02*
X183478920Y-73772280D01*
X181852387Y-74402680D02*
X180776420Y-74402680D01*
X182508920Y-75059213D02*
X182508920Y-74742280D01*
X182508920Y-75059213D02*
X181852387Y-74402680D01*
%TO.N,/IO Jacks/CV3_FB*%
X182416520Y-76413880D02*
X181827720Y-77002680D01*
X182508920Y-76413880D02*
X182416520Y-76413880D01*
X182508920Y-77683880D02*
X181827720Y-77002680D01*
X181827720Y-77002680D02*
X180776420Y-77002680D01*
%TO.N,/LCD{slash}SD_SCK*%
X147878800Y-74472800D02*
X147736201Y-74330201D01*
X148031200Y-74472800D02*
X147878800Y-74472800D01*
X147736201Y-74330201D02*
X146803501Y-74330201D01*
%TO.N,/SD_SDO*%
X145482701Y-73092701D02*
X144373600Y-71983600D01*
X144373600Y-71983600D02*
X144373600Y-70531809D01*
X144373600Y-70531809D02*
X142303500Y-68461709D01*
X147641001Y-73092701D02*
X145482701Y-73092701D01*
X142303500Y-68461709D02*
X142303500Y-67437000D01*
%TO.N,/LCD{slash}SD_SDI*%
X145609001Y-73930201D02*
X144018000Y-72339200D01*
X144018000Y-70916800D02*
X140538200Y-67437000D01*
X144018000Y-72339200D02*
X144018000Y-70916800D01*
X140538200Y-67437000D02*
X139763500Y-67437000D01*
X146803501Y-73930201D02*
X145609001Y-73930201D01*
%TO.N,/LCD_CS*%
X146803501Y-74730201D02*
X145799401Y-74730201D01*
X139433300Y-69646800D02*
X137223500Y-67437000D01*
X143611600Y-72542400D02*
X143611600Y-71069200D01*
X142189200Y-69646800D02*
X139433300Y-69646800D01*
X145799401Y-74730201D02*
X143611600Y-72542400D01*
X143611600Y-71069200D02*
X142189200Y-69646800D01*
%TO.N,/LCD_RST*%
X147421600Y-72288400D02*
X147066000Y-72644000D01*
X147878800Y-72288400D02*
X147421600Y-72288400D01*
X144678400Y-71780400D02*
X144678400Y-70154800D01*
X148041001Y-73092701D02*
X148041001Y-72450601D01*
X148041001Y-72450601D02*
X147878800Y-72288400D01*
X144678400Y-70154800D02*
X143510000Y-68986400D01*
X147066000Y-72644000D02*
X145542000Y-72644000D01*
X145542000Y-72644000D02*
X144678400Y-71780400D01*
%TO.N,/LCD_DC*%
X148441001Y-73092701D02*
X148441001Y-73910599D01*
X148441001Y-73910599D02*
X148437600Y-73914000D01*
%TO.N,/SD_CS*%
X134315200Y-70459600D02*
X134315200Y-70561200D01*
X129985622Y-67437000D02*
X131306511Y-68757889D01*
X146803501Y-75130201D02*
X145951399Y-75130201D01*
X132689600Y-68834000D02*
X134315200Y-70459600D01*
X132613489Y-68757889D02*
X132689600Y-68834000D01*
X131306511Y-68757889D02*
X132613489Y-68757889D01*
X129603500Y-67437000D02*
X129985622Y-67437000D01*
X145951399Y-75130201D02*
X145846800Y-75234800D01*
%TO.N,/IO_SDI*%
X153678501Y-74330201D02*
X154655864Y-74330201D01*
X170637200Y-66802000D02*
X170637200Y-66776278D01*
X170637200Y-66776278D02*
X171399200Y-66014278D01*
X159530211Y-73330289D02*
X162458389Y-73330289D01*
X158394400Y-73406000D02*
X159432500Y-73406000D01*
X154655864Y-74330201D02*
X154660549Y-74334886D01*
X159432500Y-73406000D02*
X159443500Y-73417000D01*
X159443500Y-73417000D02*
X159530211Y-73330289D01*
X162458389Y-73330289D02*
X162584900Y-73456800D01*
%TO.N,/IO_SCK*%
X158373591Y-74067000D02*
X158068191Y-73761600D01*
X164439600Y-66852800D02*
X164439600Y-66776278D01*
X159443500Y-74067000D02*
X158373591Y-74067000D01*
X161035400Y-74067000D02*
X159443500Y-74067000D01*
X164439600Y-66776278D02*
X165201600Y-66014278D01*
X158068191Y-73761600D02*
X153847102Y-73761600D01*
X153847102Y-73761600D02*
X153678501Y-73930201D01*
X161290000Y-73812400D02*
X161035400Y-74067000D01*
%TO.N,/IO_SDO*%
X153678501Y-74730201D02*
X154384601Y-74730201D01*
X154584400Y-74930000D02*
X157937200Y-74930000D01*
X158150200Y-74717000D02*
X159443500Y-74717000D01*
X157937200Y-74930000D02*
X158150200Y-74717000D01*
X167487600Y-66802000D02*
X167512678Y-66802000D01*
X167512678Y-66802000D02*
X168300400Y-66014278D01*
X154384601Y-74730201D02*
X154584400Y-74930000D01*
%TO.N,/IO_CS*%
X156006800Y-72288400D02*
X162255200Y-72288400D01*
X164033800Y-74067000D02*
X165168500Y-74067000D01*
X162255200Y-72288400D02*
X164033800Y-74067000D01*
%TO.N,/IO Jacks/DAC_VOUT1*%
X160578800Y-75946000D02*
X159514500Y-75946000D01*
X159514500Y-75946000D02*
X159443500Y-76017000D01*
X176326800Y-67868800D02*
X176326800Y-75082400D01*
X176297080Y-75052680D02*
X176326800Y-75082400D01*
X175051420Y-75052680D02*
X176297080Y-75052680D01*
X174498000Y-66040000D02*
X176326800Y-67868800D01*
%TO.N,/IO Jacks/DAC_VOUT2*%
X166553000Y-76017000D02*
X166573200Y-75996800D01*
X165168500Y-76017000D02*
X166553000Y-76017000D01*
X179628800Y-75031600D02*
X180755340Y-75031600D01*
X180755340Y-75031600D02*
X180776420Y-75052680D01*
%TO.N,/IO Jacks/DAC_VOUT3*%
X159453300Y-76657200D02*
X159443500Y-76667000D01*
X179527480Y-76352680D02*
X179527200Y-76352400D01*
X160578800Y-76657200D02*
X159453300Y-76657200D01*
X180776420Y-76352680D02*
X179527480Y-76352680D01*
%TO.N,/UART_TX*%
X146040201Y-78730201D02*
X145846800Y-78536800D01*
X146803501Y-78730201D02*
X146040201Y-78730201D01*
%TO.N,/UART_RX*%
X145338800Y-70995400D02*
X145338800Y-71729600D01*
X145846800Y-77724000D02*
X145846800Y-77804321D01*
X144907000Y-75565000D02*
X144932400Y-75590400D01*
X143959500Y-75565000D02*
X144907000Y-75565000D01*
X145846800Y-77804321D02*
X146372680Y-78330201D01*
X146372680Y-78330201D02*
X146803501Y-78330201D01*
%TO.N,/IO Jacks/TRIG0*%
X177393600Y-83261200D02*
X180898800Y-79756000D01*
X184912000Y-77012800D02*
X186131200Y-75793600D01*
X182880000Y-79756000D02*
X184912000Y-77724000D01*
X161696400Y-83261200D02*
X177393600Y-83261200D01*
X184912000Y-77724000D02*
X184912000Y-77012800D01*
X158351200Y-81407000D02*
X159842200Y-81407000D01*
X186131200Y-75793600D02*
X187248800Y-75793600D01*
X159842200Y-81407000D02*
X161696400Y-83261200D01*
X187848000Y-76392800D02*
X188729700Y-76392800D01*
X187248800Y-75793600D02*
X187848000Y-76392800D01*
X180898800Y-79756000D02*
X182880000Y-79756000D01*
%TO.N,/IO Jacks/TRIG1*%
X188729700Y-75092800D02*
X187848000Y-75092800D01*
X174023000Y-81330800D02*
X173946800Y-81407000D01*
X187502800Y-75438000D02*
X185674000Y-75438000D01*
X187848000Y-75092800D02*
X187502800Y-75438000D01*
X180441600Y-79298800D02*
X178409600Y-81330800D01*
X184555920Y-76556080D02*
X184555920Y-77521280D01*
X184555920Y-77521280D02*
X182778400Y-79298800D01*
X182778400Y-79298800D02*
X180441600Y-79298800D01*
X185674000Y-75438000D02*
X184555920Y-76556080D01*
X178409600Y-81330800D02*
X174023000Y-81330800D01*
%TO.N,/IO Jacks/TRIG2*%
X190408800Y-76392800D02*
X189916289Y-76885311D01*
X189941200Y-81008200D02*
X189542400Y-81407000D01*
X194454700Y-76392800D02*
X190408800Y-76392800D01*
X189941200Y-78079600D02*
X189941200Y-81008200D01*
X189916289Y-78054689D02*
X189941200Y-78079600D01*
X189916289Y-76885311D02*
X189916289Y-78054689D01*
%TO.N,/MIDI_R*%
X136931400Y-74295000D02*
X135991600Y-75234800D01*
X137335400Y-77442200D02*
X137566400Y-77442200D01*
X135991600Y-76098400D02*
X137335400Y-77442200D01*
X135991600Y-75234800D02*
X135991600Y-76098400D01*
X137584500Y-74295000D02*
X136931400Y-74295000D01*
%TO.N,/MIDI_SRC*%
X141396400Y-73284400D02*
X141396400Y-71424800D01*
X139115800Y-75565000D02*
X141396400Y-73284400D01*
X137584500Y-75565000D02*
X139115800Y-75565000D01*
%TO.N,/MIDI_OUT_SRC*%
X135382000Y-73609200D02*
X137566400Y-71424800D01*
X136319400Y-77442200D02*
X135382000Y-76504800D01*
X136398000Y-77442200D02*
X136319400Y-77442200D01*
X135382000Y-76504800D02*
X135382000Y-73609200D01*
X137566400Y-71424800D02*
X138896400Y-71424800D01*
%TD*%
%TA.AperFunction,Conductor*%
%TO.N,GND*%
G36*
X119271321Y-64739202D02*
G01*
X119317814Y-64792858D01*
X119329200Y-64845200D01*
X119329200Y-64925562D01*
X119309198Y-64993683D01*
X119255542Y-65040176D01*
X119185268Y-65050280D01*
X119158970Y-65043544D01*
X119036206Y-64997522D01*
X119020951Y-64993895D01*
X118970086Y-64988369D01*
X118963272Y-64988000D01*
X118690715Y-64988000D01*
X118675476Y-64992475D01*
X118674271Y-64993865D01*
X118672600Y-65001548D01*
X118672600Y-69135884D01*
X118677075Y-69151123D01*
X118678465Y-69152328D01*
X118686148Y-69153999D01*
X118963269Y-69153999D01*
X118970090Y-69153629D01*
X119020952Y-69148105D01*
X119036204Y-69144479D01*
X119158970Y-69098456D01*
X119229778Y-69093273D01*
X119292147Y-69127194D01*
X119326276Y-69189449D01*
X119329200Y-69216438D01*
X119329200Y-69975562D01*
X119309198Y-70043683D01*
X119255542Y-70090176D01*
X119185268Y-70100280D01*
X119158970Y-70093544D01*
X119036206Y-70047522D01*
X119020951Y-70043895D01*
X118970086Y-70038369D01*
X118963272Y-70038000D01*
X118690715Y-70038000D01*
X118675476Y-70042475D01*
X118674271Y-70043865D01*
X118672600Y-70051548D01*
X118672600Y-74185884D01*
X118677075Y-74201123D01*
X118678465Y-74202328D01*
X118686148Y-74203999D01*
X118963269Y-74203999D01*
X118970090Y-74203629D01*
X119020952Y-74198105D01*
X119036204Y-74194479D01*
X119158970Y-74148456D01*
X119229778Y-74143273D01*
X119292147Y-74177194D01*
X119326276Y-74239449D01*
X119329200Y-74266438D01*
X119329200Y-76533778D01*
X119309198Y-76601899D01*
X119255542Y-76648392D01*
X119185268Y-76658496D01*
X119163532Y-76653371D01*
X119099290Y-76632062D01*
X119085914Y-76629195D01*
X118991562Y-76619528D01*
X118985145Y-76619200D01*
X117960115Y-76619200D01*
X117944876Y-76623675D01*
X117943671Y-76625065D01*
X117942000Y-76632748D01*
X117942000Y-79217084D01*
X117946475Y-79232323D01*
X117947865Y-79233528D01*
X117955548Y-79235199D01*
X118985095Y-79235199D01*
X118991614Y-79234862D01*
X119087206Y-79224943D01*
X119100600Y-79222051D01*
X119163324Y-79201125D01*
X119234274Y-79198541D01*
X119295358Y-79234725D01*
X119327182Y-79298189D01*
X119329200Y-79320649D01*
X119329200Y-80647106D01*
X119309198Y-80715227D01*
X119255542Y-80761720D01*
X119191671Y-80772577D01*
X119133838Y-80767263D01*
X119120176Y-80771275D01*
X119118971Y-80772665D01*
X119117300Y-80780348D01*
X119117300Y-82384685D01*
X119121775Y-82399924D01*
X119123165Y-82401129D01*
X119129986Y-82402613D01*
X119131690Y-82402534D01*
X119191671Y-82397023D01*
X119261336Y-82410708D01*
X119312544Y-82459884D01*
X119329200Y-82522494D01*
X119329200Y-86538800D01*
X119309198Y-86606921D01*
X119255542Y-86653414D01*
X119203200Y-86664800D01*
X116305032Y-86664800D01*
X116236911Y-86644798D01*
X116189324Y-86588677D01*
X116180124Y-86567334D01*
X115328812Y-85716022D01*
X115314868Y-85708408D01*
X115313035Y-85708539D01*
X115306420Y-85712790D01*
X114454920Y-86564290D01*
X114435864Y-86599187D01*
X114385661Y-86649388D01*
X114325277Y-86664800D01*
X111529652Y-86664800D01*
X111461531Y-86644798D01*
X111415038Y-86591142D01*
X111403652Y-86539086D01*
X111403652Y-86538800D01*
X111400948Y-85348930D01*
X113803725Y-85348930D01*
X113821572Y-85575699D01*
X113823115Y-85585446D01*
X113876217Y-85806627D01*
X113879266Y-85816012D01*
X113966313Y-86026163D01*
X113970795Y-86034958D01*
X114073432Y-86202445D01*
X114083890Y-86211907D01*
X114092666Y-86208124D01*
X114943978Y-85356812D01*
X114950356Y-85345132D01*
X115680408Y-85345132D01*
X115680539Y-85346965D01*
X115684790Y-85353580D01*
X116536290Y-86205080D01*
X116548670Y-86211840D01*
X116556320Y-86206113D01*
X116661205Y-86034958D01*
X116665687Y-86026163D01*
X116752734Y-85816012D01*
X116755783Y-85806627D01*
X116808885Y-85585446D01*
X116810428Y-85575699D01*
X116828275Y-85348930D01*
X116828275Y-85339070D01*
X116810428Y-85112301D01*
X116808885Y-85102554D01*
X116755783Y-84881373D01*
X116752734Y-84871988D01*
X116665687Y-84661837D01*
X116661205Y-84653042D01*
X116558568Y-84485555D01*
X116548110Y-84476093D01*
X116539334Y-84479876D01*
X115688022Y-85331188D01*
X115680408Y-85345132D01*
X114950356Y-85345132D01*
X114951592Y-85342868D01*
X114951461Y-85341035D01*
X114947210Y-85334420D01*
X114095710Y-84482920D01*
X114083330Y-84476160D01*
X114075680Y-84481887D01*
X113970795Y-84653042D01*
X113966313Y-84661837D01*
X113879266Y-84871988D01*
X113876217Y-84881373D01*
X113823115Y-85102554D01*
X113821572Y-85112301D01*
X113803725Y-85339070D01*
X113803725Y-85348930D01*
X111400948Y-85348930D01*
X111398136Y-84111890D01*
X114448093Y-84111890D01*
X114451876Y-84120666D01*
X115303188Y-84971978D01*
X115317132Y-84979592D01*
X115318965Y-84979461D01*
X115325580Y-84975210D01*
X116177080Y-84123710D01*
X116183840Y-84111330D01*
X116178113Y-84103680D01*
X116006958Y-83998795D01*
X115998163Y-83994313D01*
X115788012Y-83907266D01*
X115778627Y-83904217D01*
X115557446Y-83851115D01*
X115547699Y-83849572D01*
X115320930Y-83831725D01*
X115311070Y-83831725D01*
X115084301Y-83849572D01*
X115074554Y-83851115D01*
X114853373Y-83904217D01*
X114843988Y-83907266D01*
X114633837Y-83994313D01*
X114625042Y-83998795D01*
X114457555Y-84101432D01*
X114448093Y-84111890D01*
X111398136Y-84111890D01*
X111395959Y-83153951D01*
X113024828Y-83153951D01*
X113025992Y-83162853D01*
X113025992Y-83162856D01*
X113027044Y-83170898D01*
X113041827Y-83283950D01*
X113094630Y-83403954D01*
X113178991Y-83504313D01*
X113186462Y-83509286D01*
X113186463Y-83509287D01*
X113202670Y-83520075D01*
X113288129Y-83576962D01*
X113377572Y-83604906D01*
X113404701Y-83613382D01*
X113404702Y-83613382D01*
X113413270Y-83616059D01*
X113477705Y-83617240D01*
X113535378Y-83618297D01*
X113535381Y-83618297D01*
X113544354Y-83618461D01*
X113585747Y-83607176D01*
X113662182Y-83586338D01*
X113662185Y-83586337D01*
X113670844Y-83583976D01*
X113682268Y-83576962D01*
X113774919Y-83520075D01*
X113774922Y-83520072D01*
X113782571Y-83515376D01*
X113870553Y-83418175D01*
X113881425Y-83395736D01*
X113923804Y-83308264D01*
X113923804Y-83308263D01*
X113927717Y-83300187D01*
X113949469Y-83170898D01*
X113949607Y-83159600D01*
X113942226Y-83108059D01*
X113932294Y-83038704D01*
X113932293Y-83038701D01*
X113931021Y-83029818D01*
X113918049Y-83001287D01*
X113880473Y-82918643D01*
X113880471Y-82918640D01*
X113876756Y-82910469D01*
X113791175Y-82811147D01*
X113736873Y-82775950D01*
X113688689Y-82744718D01*
X113688687Y-82744717D01*
X113681158Y-82739837D01*
X113555548Y-82702272D01*
X113546572Y-82702217D01*
X113546571Y-82702217D01*
X113492159Y-82701885D01*
X113424444Y-82701471D01*
X113298385Y-82737499D01*
X113290798Y-82742286D01*
X113290796Y-82742287D01*
X113251557Y-82767045D01*
X113187505Y-82807459D01*
X113100717Y-82905728D01*
X113044998Y-83024405D01*
X113043617Y-83033277D01*
X113026209Y-83145078D01*
X113026209Y-83145082D01*
X113024828Y-83153951D01*
X111395959Y-83153951D01*
X111394804Y-82645951D01*
X116682428Y-82645951D01*
X116683592Y-82654853D01*
X116683592Y-82654856D01*
X116690129Y-82704845D01*
X116699427Y-82775950D01*
X116752230Y-82895954D01*
X116836591Y-82996313D01*
X116844062Y-83001286D01*
X116844063Y-83001287D01*
X116860270Y-83012075D01*
X116945729Y-83068962D01*
X117035172Y-83096906D01*
X117062301Y-83105382D01*
X117062302Y-83105382D01*
X117070870Y-83108059D01*
X117135305Y-83109240D01*
X117192978Y-83110297D01*
X117192981Y-83110297D01*
X117201954Y-83110461D01*
X117243347Y-83099176D01*
X117319782Y-83078338D01*
X117319785Y-83078337D01*
X117328444Y-83075976D01*
X117339868Y-83068962D01*
X117432519Y-83012075D01*
X117432522Y-83012072D01*
X117440171Y-83007376D01*
X117528153Y-82910175D01*
X117539025Y-82887736D01*
X117581404Y-82800264D01*
X117581404Y-82800263D01*
X117585317Y-82792187D01*
X117607069Y-82662898D01*
X117607207Y-82651600D01*
X117588621Y-82521818D01*
X117582465Y-82508278D01*
X117538073Y-82410643D01*
X117538071Y-82410640D01*
X117534356Y-82402469D01*
X117448775Y-82303147D01*
X117396562Y-82269304D01*
X117346289Y-82236718D01*
X117346287Y-82236717D01*
X117338758Y-82231837D01*
X117213148Y-82194272D01*
X117204172Y-82194217D01*
X117204171Y-82194217D01*
X117149759Y-82193885D01*
X117082044Y-82193471D01*
X116955985Y-82229499D01*
X116948398Y-82234286D01*
X116948396Y-82234287D01*
X116892898Y-82269304D01*
X116845105Y-82299459D01*
X116758317Y-82397728D01*
X116702598Y-82516405D01*
X116701217Y-82525277D01*
X116683809Y-82637078D01*
X116683809Y-82637082D01*
X116682428Y-82645951D01*
X111394804Y-82645951D01*
X111394533Y-82526541D01*
X111414381Y-82458375D01*
X111467930Y-82411761D01*
X111532063Y-82400784D01*
X111548962Y-82402337D01*
X111562624Y-82398325D01*
X111563829Y-82396935D01*
X111565500Y-82389252D01*
X111565500Y-82384685D01*
X112073500Y-82384685D01*
X112077975Y-82399924D01*
X112079365Y-82401129D01*
X112086186Y-82402613D01*
X112087888Y-82402534D01*
X112147046Y-82397098D01*
X112160096Y-82394485D01*
X112299589Y-82350771D01*
X112313334Y-82344565D01*
X112437604Y-82269304D01*
X112449473Y-82259997D01*
X112552197Y-82157273D01*
X112561504Y-82145404D01*
X112636765Y-82021134D01*
X112642971Y-82007389D01*
X112686687Y-81867888D01*
X112689009Y-81856297D01*
X112688774Y-81855102D01*
X117993552Y-81855102D01*
X117996113Y-81867888D01*
X118039829Y-82007389D01*
X118046035Y-82021134D01*
X118121296Y-82145404D01*
X118130603Y-82157273D01*
X118233327Y-82259997D01*
X118245196Y-82269304D01*
X118369466Y-82344565D01*
X118383211Y-82350771D01*
X118522704Y-82394485D01*
X118535754Y-82397098D01*
X118592762Y-82402337D01*
X118606424Y-82398325D01*
X118607629Y-82396935D01*
X118609300Y-82389252D01*
X118609300Y-81856915D01*
X118604825Y-81841676D01*
X118603435Y-81840471D01*
X118595752Y-81838800D01*
X118010142Y-81838800D01*
X117995597Y-81843071D01*
X117993552Y-81855102D01*
X112688774Y-81855102D01*
X112686194Y-81841965D01*
X112674298Y-81838800D01*
X112091615Y-81838800D01*
X112076376Y-81843275D01*
X112075171Y-81844665D01*
X112073500Y-81852348D01*
X112073500Y-82384685D01*
X111565500Y-82384685D01*
X111565500Y-81312685D01*
X112073500Y-81312685D01*
X112077975Y-81327924D01*
X112079365Y-81329129D01*
X112087048Y-81330800D01*
X112672658Y-81330800D01*
X112687203Y-81326529D01*
X112689248Y-81314498D01*
X112686687Y-81301712D01*
X112642971Y-81162211D01*
X112636765Y-81148466D01*
X112561504Y-81024196D01*
X112552197Y-81012327D01*
X112449473Y-80909603D01*
X112437604Y-80900296D01*
X112313334Y-80825035D01*
X112299589Y-80818829D01*
X112160096Y-80775115D01*
X112147046Y-80772502D01*
X112090038Y-80767263D01*
X112076376Y-80771275D01*
X112075171Y-80772665D01*
X112073500Y-80780348D01*
X112073500Y-81312685D01*
X111565500Y-81312685D01*
X111565500Y-80784915D01*
X111561025Y-80769676D01*
X111559635Y-80768471D01*
X111552814Y-80766987D01*
X111551110Y-80767066D01*
X111527783Y-80769209D01*
X111458118Y-80755524D01*
X111406910Y-80706348D01*
X111390255Y-80644026D01*
X111388059Y-79677817D01*
X111387308Y-79347328D01*
X111407156Y-79279162D01*
X111460705Y-79232548D01*
X111530956Y-79222284D01*
X111539716Y-79223840D01*
X111546085Y-79225205D01*
X111640438Y-79234872D01*
X111646854Y-79235200D01*
X112671885Y-79235200D01*
X112687124Y-79230725D01*
X112688329Y-79229335D01*
X112690000Y-79221652D01*
X112690000Y-79217084D01*
X113198000Y-79217084D01*
X113202475Y-79232323D01*
X113203865Y-79233528D01*
X113211548Y-79235199D01*
X114241095Y-79235199D01*
X114247613Y-79234862D01*
X114248207Y-79234800D01*
X114248338Y-79234824D01*
X114250852Y-79234694D01*
X114250883Y-79235293D01*
X114318029Y-79247661D01*
X114369814Y-79296228D01*
X114387120Y-79365083D01*
X114371634Y-79420823D01*
X114342082Y-79474578D01*
X114279553Y-79671696D01*
X114261500Y-79832640D01*
X114261500Y-80544034D01*
X114276578Y-80697811D01*
X114336349Y-80895783D01*
X114384892Y-80987079D01*
X114398317Y-81012327D01*
X114433435Y-81078375D01*
X114437326Y-81083145D01*
X114437328Y-81083149D01*
X114560242Y-81233857D01*
X114560245Y-81233860D01*
X114564137Y-81238632D01*
X114568884Y-81242559D01*
X114568886Y-81242561D01*
X114718729Y-81366522D01*
X114718734Y-81366525D01*
X114723478Y-81370450D01*
X114728897Y-81373380D01*
X114728900Y-81373382D01*
X114899968Y-81465878D01*
X114899973Y-81465880D01*
X114905388Y-81468808D01*
X115102937Y-81529960D01*
X115109062Y-81530604D01*
X115109063Y-81530604D01*
X115302474Y-81550932D01*
X115302476Y-81550932D01*
X115308603Y-81551576D01*
X115434771Y-81540094D01*
X115508409Y-81533393D01*
X115508410Y-81533393D01*
X115514550Y-81532834D01*
X115712934Y-81474446D01*
X115720233Y-81470630D01*
X115890739Y-81381492D01*
X115890743Y-81381489D01*
X115896199Y-81378637D01*
X115977459Y-81313303D01*
X117993791Y-81313303D01*
X117996606Y-81327635D01*
X118008502Y-81330800D01*
X118591185Y-81330800D01*
X118606424Y-81326325D01*
X118607629Y-81324935D01*
X118609300Y-81317252D01*
X118609300Y-80784915D01*
X118604825Y-80769676D01*
X118603435Y-80768471D01*
X118596614Y-80766987D01*
X118594912Y-80767066D01*
X118535754Y-80772502D01*
X118522704Y-80775115D01*
X118383211Y-80818829D01*
X118369466Y-80825035D01*
X118245196Y-80900296D01*
X118233327Y-80909603D01*
X118130603Y-81012327D01*
X118121296Y-81024196D01*
X118046035Y-81148466D01*
X118039829Y-81162211D01*
X117996113Y-81301712D01*
X117993791Y-81313303D01*
X115977459Y-81313303D01*
X116057365Y-81249057D01*
X116190292Y-81090640D01*
X116289918Y-80909422D01*
X116352447Y-80712304D01*
X116370500Y-80551360D01*
X116370500Y-79839966D01*
X116355422Y-79686189D01*
X116295651Y-79488217D01*
X116258969Y-79419228D01*
X116244649Y-79349691D01*
X116270197Y-79283450D01*
X116327502Y-79241538D01*
X116381210Y-79234960D01*
X116381223Y-79234708D01*
X116382664Y-79234782D01*
X116383069Y-79234732D01*
X116384436Y-79234872D01*
X116390854Y-79235200D01*
X117415885Y-79235200D01*
X117431124Y-79230725D01*
X117432329Y-79229335D01*
X117434000Y-79221652D01*
X117434000Y-78199315D01*
X117429525Y-78184076D01*
X117428135Y-78182871D01*
X117420452Y-78181200D01*
X115698116Y-78181200D01*
X115682877Y-78185675D01*
X115681672Y-78187065D01*
X115680001Y-78194748D01*
X115680001Y-78524295D01*
X115680338Y-78530814D01*
X115690257Y-78626406D01*
X115693149Y-78639800D01*
X115714080Y-78702539D01*
X115716664Y-78773489D01*
X115680480Y-78834573D01*
X115617016Y-78866397D01*
X115557298Y-78862780D01*
X115529063Y-78854040D01*
X115522938Y-78853396D01*
X115522937Y-78853396D01*
X115329526Y-78833068D01*
X115329524Y-78833068D01*
X115323397Y-78832424D01*
X115197229Y-78843906D01*
X115123591Y-78850607D01*
X115123590Y-78850607D01*
X115117450Y-78851166D01*
X115072638Y-78864355D01*
X115001643Y-78864401D01*
X114941893Y-78826056D01*
X114912358Y-78761494D01*
X114917471Y-78703815D01*
X114939137Y-78638493D01*
X114942005Y-78625114D01*
X114951672Y-78530762D01*
X114952000Y-78524346D01*
X114952000Y-78199315D01*
X114947525Y-78184076D01*
X114946135Y-78182871D01*
X114938452Y-78181200D01*
X113216115Y-78181200D01*
X113200876Y-78185675D01*
X113199671Y-78187065D01*
X113198000Y-78194748D01*
X113198000Y-79217084D01*
X112690000Y-79217084D01*
X112690000Y-77655085D01*
X113198000Y-77655085D01*
X113202475Y-77670324D01*
X113203865Y-77671529D01*
X113211548Y-77673200D01*
X114933884Y-77673200D01*
X114949123Y-77668725D01*
X114950328Y-77667335D01*
X114951999Y-77659652D01*
X114951999Y-77330105D01*
X114951662Y-77323586D01*
X114941743Y-77227994D01*
X114938851Y-77214600D01*
X114903432Y-77108435D01*
X114900848Y-77037485D01*
X114937032Y-76976401D01*
X115000496Y-76944577D01*
X115055566Y-76946852D01*
X115092969Y-76956874D01*
X115190637Y-76965419D01*
X115257418Y-76971262D01*
X115257425Y-76971262D01*
X115260142Y-76971500D01*
X115371858Y-76971500D01*
X115374575Y-76971262D01*
X115374582Y-76971262D01*
X115441363Y-76965419D01*
X115539031Y-76956874D01*
X115544344Y-76955450D01*
X115544346Y-76955450D01*
X115576370Y-76946869D01*
X115647346Y-76948559D01*
X115706142Y-76988353D01*
X115734090Y-77053617D01*
X115728574Y-77108244D01*
X115692862Y-77215910D01*
X115689995Y-77229286D01*
X115680328Y-77323638D01*
X115680000Y-77330055D01*
X115680000Y-77655085D01*
X115684475Y-77670324D01*
X115685865Y-77671529D01*
X115693548Y-77673200D01*
X117415885Y-77673200D01*
X117431124Y-77668725D01*
X117432329Y-77667335D01*
X117434000Y-77659652D01*
X117434000Y-76637316D01*
X117429525Y-76622077D01*
X117428135Y-76620872D01*
X117420452Y-76619201D01*
X116470792Y-76619201D01*
X116402671Y-76599199D01*
X116356178Y-76545543D01*
X116346074Y-76475269D01*
X116367579Y-76420931D01*
X116425152Y-76338708D01*
X116425155Y-76338702D01*
X116428312Y-76334194D01*
X116430635Y-76329212D01*
X116430638Y-76329207D01*
X116520606Y-76136268D01*
X116520606Y-76136267D01*
X116522929Y-76131286D01*
X116580874Y-75915031D01*
X116600387Y-75692000D01*
X116580874Y-75468969D01*
X116522929Y-75252714D01*
X116428312Y-75049807D01*
X116299898Y-74866412D01*
X116141588Y-74708102D01*
X115958193Y-74579688D01*
X115953215Y-74577367D01*
X115953212Y-74577365D01*
X115760268Y-74487394D01*
X115760267Y-74487393D01*
X115755286Y-74485071D01*
X115749978Y-74483649D01*
X115749976Y-74483648D01*
X115680380Y-74465000D01*
X115610491Y-74446274D01*
X115549869Y-74409322D01*
X115518848Y-74345462D01*
X115527276Y-74274967D01*
X115572479Y-74220220D01*
X115607605Y-74203671D01*
X115621724Y-74199525D01*
X115622929Y-74198135D01*
X115624600Y-74190452D01*
X115624600Y-74185884D01*
X116132600Y-74185884D01*
X116137075Y-74201123D01*
X116138465Y-74202328D01*
X116146148Y-74203999D01*
X116423269Y-74203999D01*
X116430090Y-74203629D01*
X116480952Y-74198105D01*
X116496204Y-74194479D01*
X116616654Y-74149324D01*
X116632249Y-74140786D01*
X116734324Y-74064285D01*
X116746885Y-74051724D01*
X116823386Y-73949649D01*
X116831924Y-73934054D01*
X116877078Y-73813606D01*
X116880705Y-73798351D01*
X116886231Y-73747486D01*
X116886600Y-73740672D01*
X116886600Y-73740669D01*
X117410601Y-73740669D01*
X117410971Y-73747490D01*
X117416495Y-73798352D01*
X117420121Y-73813604D01*
X117465276Y-73934054D01*
X117473814Y-73949649D01*
X117550315Y-74051724D01*
X117562876Y-74064285D01*
X117664951Y-74140786D01*
X117680546Y-74149324D01*
X117800994Y-74194478D01*
X117816249Y-74198105D01*
X117867114Y-74203631D01*
X117873928Y-74204000D01*
X118146485Y-74204000D01*
X118161724Y-74199525D01*
X118162929Y-74198135D01*
X118164600Y-74190452D01*
X118164600Y-72393115D01*
X118160125Y-72377876D01*
X118158735Y-72376671D01*
X118151052Y-72375000D01*
X117428716Y-72375000D01*
X117413477Y-72379475D01*
X117412272Y-72380865D01*
X117410601Y-72388548D01*
X117410601Y-73740669D01*
X116886600Y-73740669D01*
X116886600Y-72393115D01*
X116882125Y-72377876D01*
X116880735Y-72376671D01*
X116873052Y-72375000D01*
X116150715Y-72375000D01*
X116135476Y-72379475D01*
X116134271Y-72380865D01*
X116132600Y-72388548D01*
X116132600Y-74185884D01*
X115624600Y-74185884D01*
X115624600Y-72393115D01*
X115620125Y-72377876D01*
X115618735Y-72376671D01*
X115611052Y-72375000D01*
X114888716Y-72375000D01*
X114873477Y-72379475D01*
X114872272Y-72380865D01*
X114870601Y-72388548D01*
X114870601Y-73740669D01*
X114870971Y-73747490D01*
X114876495Y-73798352D01*
X114880121Y-73813604D01*
X114925276Y-73934054D01*
X114933814Y-73949649D01*
X115010315Y-74051724D01*
X115022876Y-74064285D01*
X115124951Y-74140786D01*
X115140546Y-74149324D01*
X115212015Y-74176117D01*
X115268779Y-74218759D01*
X115293479Y-74285321D01*
X115278271Y-74354669D01*
X115227985Y-74404787D01*
X115178768Y-74419619D01*
X115141822Y-74422852D01*
X115098450Y-74426646D01*
X115098445Y-74426647D01*
X115092969Y-74427126D01*
X115087656Y-74428550D01*
X115087654Y-74428550D01*
X114882024Y-74483648D01*
X114882022Y-74483649D01*
X114876714Y-74485071D01*
X114871733Y-74487393D01*
X114871732Y-74487394D01*
X114678788Y-74577365D01*
X114678785Y-74577367D01*
X114673807Y-74579688D01*
X114490412Y-74708102D01*
X114332102Y-74866412D01*
X114328945Y-74870920D01*
X114328943Y-74870923D01*
X114206845Y-75045297D01*
X114203688Y-75049806D01*
X114201365Y-75054788D01*
X114201362Y-75054793D01*
X114111394Y-75247732D01*
X114109071Y-75252714D01*
X114051126Y-75468969D01*
X114031613Y-75692000D01*
X114051126Y-75915031D01*
X114109071Y-76131286D01*
X114203688Y-76334193D01*
X114264423Y-76420932D01*
X114287110Y-76488203D01*
X114269825Y-76557064D01*
X114218055Y-76605648D01*
X114161209Y-76619200D01*
X113216115Y-76619200D01*
X113200876Y-76623675D01*
X113199671Y-76625065D01*
X113198000Y-76632748D01*
X113198000Y-77655085D01*
X112690000Y-77655085D01*
X112690000Y-76637316D01*
X112685525Y-76622077D01*
X112684135Y-76620872D01*
X112676452Y-76619201D01*
X111646905Y-76619201D01*
X111640386Y-76619538D01*
X111544800Y-76629456D01*
X111533455Y-76631906D01*
X111462647Y-76626734D01*
X111405876Y-76584102D01*
X111381165Y-76517545D01*
X111380857Y-76509031D01*
X111375480Y-74143273D01*
X111375058Y-73957536D01*
X111394906Y-73889370D01*
X111431055Y-73852486D01*
X111435142Y-73849755D01*
X111435145Y-73849752D01*
X111445460Y-73842860D01*
X111490481Y-73775480D01*
X111497406Y-73740669D01*
X112330601Y-73740669D01*
X112330971Y-73747490D01*
X112336495Y-73798352D01*
X112340121Y-73813604D01*
X112385276Y-73934054D01*
X112393814Y-73949649D01*
X112470315Y-74051724D01*
X112482876Y-74064285D01*
X112584951Y-74140786D01*
X112600546Y-74149324D01*
X112720994Y-74194478D01*
X112736249Y-74198105D01*
X112787114Y-74203631D01*
X112793928Y-74204000D01*
X113066485Y-74204000D01*
X113081724Y-74199525D01*
X113082929Y-74198135D01*
X113084600Y-74190452D01*
X113084600Y-74185884D01*
X113592600Y-74185884D01*
X113597075Y-74201123D01*
X113598465Y-74202328D01*
X113606148Y-74203999D01*
X113883269Y-74203999D01*
X113890090Y-74203629D01*
X113940952Y-74198105D01*
X113956204Y-74194479D01*
X114076654Y-74149324D01*
X114092249Y-74140786D01*
X114194324Y-74064285D01*
X114206885Y-74051724D01*
X114283386Y-73949649D01*
X114291924Y-73934054D01*
X114337078Y-73813606D01*
X114340705Y-73798351D01*
X114346231Y-73747486D01*
X114346600Y-73740672D01*
X114346600Y-72393115D01*
X114342125Y-72377876D01*
X114340735Y-72376671D01*
X114333052Y-72375000D01*
X113610715Y-72375000D01*
X113595476Y-72379475D01*
X113594271Y-72380865D01*
X113592600Y-72388548D01*
X113592600Y-74185884D01*
X113084600Y-74185884D01*
X113084600Y-72393115D01*
X113080125Y-72377876D01*
X113078735Y-72376671D01*
X113071052Y-72375000D01*
X112348716Y-72375000D01*
X112333477Y-72379475D01*
X112332272Y-72380865D01*
X112330601Y-72388548D01*
X112330601Y-73740669D01*
X111497406Y-73740669D01*
X111502300Y-73716064D01*
X111502300Y-71848885D01*
X112330600Y-71848885D01*
X112335075Y-71864124D01*
X112336465Y-71865329D01*
X112344148Y-71867000D01*
X113066485Y-71867000D01*
X113081724Y-71862525D01*
X113082929Y-71861135D01*
X113084600Y-71853452D01*
X113084600Y-71848885D01*
X113592600Y-71848885D01*
X113597075Y-71864124D01*
X113598465Y-71865329D01*
X113606148Y-71867000D01*
X114328484Y-71867000D01*
X114343723Y-71862525D01*
X114344928Y-71861135D01*
X114346599Y-71853452D01*
X114346599Y-71848885D01*
X114870600Y-71848885D01*
X114875075Y-71864124D01*
X114876465Y-71865329D01*
X114884148Y-71867000D01*
X115606485Y-71867000D01*
X115621724Y-71862525D01*
X115622929Y-71861135D01*
X115624600Y-71853452D01*
X115624600Y-71848885D01*
X116132600Y-71848885D01*
X116137075Y-71864124D01*
X116138465Y-71865329D01*
X116146148Y-71867000D01*
X116868484Y-71867000D01*
X116883723Y-71862525D01*
X116884928Y-71861135D01*
X116886599Y-71853452D01*
X116886599Y-71848885D01*
X117410600Y-71848885D01*
X117415075Y-71864124D01*
X117416465Y-71865329D01*
X117424148Y-71867000D01*
X118146485Y-71867000D01*
X118161724Y-71862525D01*
X118162929Y-71861135D01*
X118164600Y-71853452D01*
X118164600Y-70056116D01*
X118160125Y-70040877D01*
X118158735Y-70039672D01*
X118151052Y-70038001D01*
X117873931Y-70038001D01*
X117867110Y-70038371D01*
X117816248Y-70043895D01*
X117800996Y-70047521D01*
X117680546Y-70092676D01*
X117664951Y-70101214D01*
X117562876Y-70177715D01*
X117550315Y-70190276D01*
X117473814Y-70292351D01*
X117465276Y-70307946D01*
X117420122Y-70428394D01*
X117416495Y-70443649D01*
X117410969Y-70494514D01*
X117410600Y-70501328D01*
X117410600Y-71848885D01*
X116886599Y-71848885D01*
X116886599Y-70501331D01*
X116886229Y-70494510D01*
X116880705Y-70443648D01*
X116877079Y-70428396D01*
X116831924Y-70307946D01*
X116823386Y-70292351D01*
X116746885Y-70190276D01*
X116734324Y-70177715D01*
X116632249Y-70101214D01*
X116616654Y-70092676D01*
X116496206Y-70047522D01*
X116480951Y-70043895D01*
X116430086Y-70038369D01*
X116423272Y-70038000D01*
X116150715Y-70038000D01*
X116135476Y-70042475D01*
X116134271Y-70043865D01*
X116132600Y-70051548D01*
X116132600Y-71848885D01*
X115624600Y-71848885D01*
X115624600Y-70056116D01*
X115620125Y-70040877D01*
X115618735Y-70039672D01*
X115611052Y-70038001D01*
X115333931Y-70038001D01*
X115327110Y-70038371D01*
X115276248Y-70043895D01*
X115260996Y-70047521D01*
X115140546Y-70092676D01*
X115124951Y-70101214D01*
X115022876Y-70177715D01*
X115010315Y-70190276D01*
X114933814Y-70292351D01*
X114925276Y-70307946D01*
X114880122Y-70428394D01*
X114876495Y-70443649D01*
X114870969Y-70494514D01*
X114870600Y-70501328D01*
X114870600Y-71848885D01*
X114346599Y-71848885D01*
X114346599Y-70501331D01*
X114346229Y-70494510D01*
X114340705Y-70443648D01*
X114337079Y-70428396D01*
X114291924Y-70307946D01*
X114283386Y-70292351D01*
X114206885Y-70190276D01*
X114194324Y-70177715D01*
X114092249Y-70101214D01*
X114076654Y-70092676D01*
X113956206Y-70047522D01*
X113940951Y-70043895D01*
X113890086Y-70038369D01*
X113883272Y-70038000D01*
X113768131Y-70038000D01*
X113700010Y-70017998D01*
X113664362Y-69976858D01*
X113635713Y-70019743D01*
X113597449Y-70040198D01*
X113594271Y-70043865D01*
X113592600Y-70051548D01*
X113592600Y-71848885D01*
X113084600Y-71848885D01*
X113084600Y-70056116D01*
X113080125Y-70040877D01*
X113078735Y-70039672D01*
X113071052Y-70038001D01*
X112793931Y-70038001D01*
X112787110Y-70038371D01*
X112736248Y-70043895D01*
X112720996Y-70047521D01*
X112600546Y-70092676D01*
X112584951Y-70101214D01*
X112482876Y-70177715D01*
X112470315Y-70190276D01*
X112393814Y-70292351D01*
X112385276Y-70307946D01*
X112340122Y-70428394D01*
X112336495Y-70443649D01*
X112330969Y-70494514D01*
X112330600Y-70501328D01*
X112330600Y-71848885D01*
X111502300Y-71848885D01*
X111502300Y-70525936D01*
X111490481Y-70466520D01*
X111445460Y-70399140D01*
X111422699Y-70383932D01*
X111377170Y-70329456D01*
X111366699Y-70279455D01*
X111363598Y-68915192D01*
X111383446Y-68847027D01*
X111419596Y-68810142D01*
X111435143Y-68799754D01*
X111435145Y-68799752D01*
X111445460Y-68792860D01*
X111490481Y-68725480D01*
X111497406Y-68690669D01*
X112330601Y-68690669D01*
X112330971Y-68697490D01*
X112336495Y-68748352D01*
X112340121Y-68763604D01*
X112385276Y-68884054D01*
X112393814Y-68899649D01*
X112470315Y-69001724D01*
X112482876Y-69014285D01*
X112584951Y-69090786D01*
X112600546Y-69099324D01*
X112720994Y-69144478D01*
X112736249Y-69148105D01*
X112787114Y-69153631D01*
X112793928Y-69154000D01*
X113058484Y-69154000D01*
X113126605Y-69174002D01*
X113173098Y-69227658D01*
X113182984Y-69299383D01*
X113177228Y-69336351D01*
X113178392Y-69345253D01*
X113178392Y-69345256D01*
X113179444Y-69353298D01*
X113194227Y-69466350D01*
X113247030Y-69586354D01*
X113331391Y-69686713D01*
X113338862Y-69691686D01*
X113338863Y-69691687D01*
X113355070Y-69702475D01*
X113440529Y-69759362D01*
X113565670Y-69798459D01*
X113574645Y-69798623D01*
X113575050Y-69798689D01*
X113639096Y-69829324D01*
X113658580Y-69860859D01*
X113672907Y-69829488D01*
X113734989Y-69790437D01*
X113814582Y-69768738D01*
X113814585Y-69768737D01*
X113823244Y-69766376D01*
X113834668Y-69759362D01*
X113927319Y-69702475D01*
X113927322Y-69702472D01*
X113934971Y-69697776D01*
X114022953Y-69600575D01*
X114033825Y-69578136D01*
X114076204Y-69490664D01*
X114076204Y-69490663D01*
X114080117Y-69482587D01*
X114101869Y-69353298D01*
X114102007Y-69342000D01*
X114083421Y-69212218D01*
X114079707Y-69204050D01*
X114079304Y-69202671D01*
X114079384Y-69131674D01*
X114117836Y-69071992D01*
X114124675Y-69066484D01*
X114194324Y-69014285D01*
X114206885Y-69001724D01*
X114283386Y-68899649D01*
X114291924Y-68884054D01*
X114337078Y-68763606D01*
X114340705Y-68748351D01*
X114346231Y-68697486D01*
X114346600Y-68690672D01*
X114346600Y-68690669D01*
X114870601Y-68690669D01*
X114870971Y-68697490D01*
X114876495Y-68748352D01*
X114880121Y-68763604D01*
X114925276Y-68884054D01*
X114933814Y-68899649D01*
X115010315Y-69001724D01*
X115022876Y-69014285D01*
X115124951Y-69090786D01*
X115140546Y-69099324D01*
X115260994Y-69144478D01*
X115276249Y-69148105D01*
X115327114Y-69153631D01*
X115333928Y-69154000D01*
X115606485Y-69154000D01*
X115621724Y-69149525D01*
X115622929Y-69148135D01*
X115624600Y-69140452D01*
X115624600Y-69135884D01*
X116132600Y-69135884D01*
X116137075Y-69151123D01*
X116138465Y-69152328D01*
X116146148Y-69153999D01*
X116423269Y-69153999D01*
X116430090Y-69153629D01*
X116480952Y-69148105D01*
X116496204Y-69144479D01*
X116616654Y-69099324D01*
X116632249Y-69090786D01*
X116734324Y-69014285D01*
X116746885Y-69001724D01*
X116823386Y-68899649D01*
X116831924Y-68884054D01*
X116877078Y-68763606D01*
X116880705Y-68748351D01*
X116886231Y-68697486D01*
X116886600Y-68690672D01*
X116886600Y-68690669D01*
X117410601Y-68690669D01*
X117410971Y-68697490D01*
X117416495Y-68748352D01*
X117420121Y-68763604D01*
X117465276Y-68884054D01*
X117473814Y-68899649D01*
X117550315Y-69001724D01*
X117562876Y-69014285D01*
X117664951Y-69090786D01*
X117680546Y-69099324D01*
X117800994Y-69144478D01*
X117816249Y-69148105D01*
X117867114Y-69153631D01*
X117873928Y-69154000D01*
X118146485Y-69154000D01*
X118161724Y-69149525D01*
X118162929Y-69148135D01*
X118164600Y-69140452D01*
X118164600Y-67343115D01*
X118160125Y-67327876D01*
X118158735Y-67326671D01*
X118151052Y-67325000D01*
X117428716Y-67325000D01*
X117413477Y-67329475D01*
X117412272Y-67330865D01*
X117410601Y-67338548D01*
X117410601Y-68690669D01*
X116886600Y-68690669D01*
X116886600Y-67343115D01*
X116882125Y-67327876D01*
X116880735Y-67326671D01*
X116873052Y-67325000D01*
X116150715Y-67325000D01*
X116135476Y-67329475D01*
X116134271Y-67330865D01*
X116132600Y-67338548D01*
X116132600Y-69135884D01*
X115624600Y-69135884D01*
X115624600Y-67343115D01*
X115620125Y-67327876D01*
X115618735Y-67326671D01*
X115611052Y-67325000D01*
X114888716Y-67325000D01*
X114873477Y-67329475D01*
X114872272Y-67330865D01*
X114870601Y-67338548D01*
X114870601Y-68690669D01*
X114346600Y-68690669D01*
X114346600Y-67343115D01*
X114342125Y-67327876D01*
X114340735Y-67326671D01*
X114333052Y-67325000D01*
X112348716Y-67325000D01*
X112333477Y-67329475D01*
X112332272Y-67330865D01*
X112330601Y-67338548D01*
X112330601Y-68690669D01*
X111497406Y-68690669D01*
X111502300Y-68666064D01*
X111502300Y-66798885D01*
X112330600Y-66798885D01*
X112335075Y-66814124D01*
X112336465Y-66815329D01*
X112344148Y-66817000D01*
X113066485Y-66817000D01*
X113081724Y-66812525D01*
X113082929Y-66811135D01*
X113084600Y-66803452D01*
X113084600Y-66798885D01*
X113592600Y-66798885D01*
X113597075Y-66814124D01*
X113598465Y-66815329D01*
X113606148Y-66817000D01*
X114328484Y-66817000D01*
X114343723Y-66812525D01*
X114344928Y-66811135D01*
X114346599Y-66803452D01*
X114346599Y-66798885D01*
X114870600Y-66798885D01*
X114875075Y-66814124D01*
X114876465Y-66815329D01*
X114884148Y-66817000D01*
X115606485Y-66817000D01*
X115621724Y-66812525D01*
X115622929Y-66811135D01*
X115624600Y-66803452D01*
X115624600Y-66798885D01*
X116132600Y-66798885D01*
X116137075Y-66814124D01*
X116138465Y-66815329D01*
X116146148Y-66817000D01*
X116868484Y-66817000D01*
X116883723Y-66812525D01*
X116884928Y-66811135D01*
X116886599Y-66803452D01*
X116886599Y-66798885D01*
X117410600Y-66798885D01*
X117415075Y-66814124D01*
X117416465Y-66815329D01*
X117424148Y-66817000D01*
X118146485Y-66817000D01*
X118161724Y-66812525D01*
X118162929Y-66811135D01*
X118164600Y-66803452D01*
X118164600Y-65006116D01*
X118160125Y-64990877D01*
X118158735Y-64989672D01*
X118151052Y-64988001D01*
X117873931Y-64988001D01*
X117867110Y-64988371D01*
X117816248Y-64993895D01*
X117800996Y-64997521D01*
X117680546Y-65042676D01*
X117664951Y-65051214D01*
X117562876Y-65127715D01*
X117550315Y-65140276D01*
X117473814Y-65242351D01*
X117465276Y-65257946D01*
X117420122Y-65378394D01*
X117416495Y-65393649D01*
X117410969Y-65444514D01*
X117410600Y-65451328D01*
X117410600Y-66798885D01*
X116886599Y-66798885D01*
X116886599Y-65451331D01*
X116886229Y-65444510D01*
X116880705Y-65393648D01*
X116877079Y-65378396D01*
X116831924Y-65257946D01*
X116823386Y-65242351D01*
X116746885Y-65140276D01*
X116734324Y-65127715D01*
X116632249Y-65051214D01*
X116616654Y-65042676D01*
X116496206Y-64997522D01*
X116480951Y-64993895D01*
X116430086Y-64988369D01*
X116423272Y-64988000D01*
X116150715Y-64988000D01*
X116135476Y-64992475D01*
X116134271Y-64993865D01*
X116132600Y-65001548D01*
X116132600Y-66798885D01*
X115624600Y-66798885D01*
X115624600Y-65006116D01*
X115620125Y-64990877D01*
X115618735Y-64989672D01*
X115611052Y-64988001D01*
X115333931Y-64988001D01*
X115327110Y-64988371D01*
X115276248Y-64993895D01*
X115260996Y-64997521D01*
X115140546Y-65042676D01*
X115124951Y-65051214D01*
X115022876Y-65127715D01*
X115010315Y-65140276D01*
X114933814Y-65242351D01*
X114925276Y-65257946D01*
X114880122Y-65378394D01*
X114876495Y-65393649D01*
X114870969Y-65444514D01*
X114870600Y-65451328D01*
X114870600Y-66798885D01*
X114346599Y-66798885D01*
X114346599Y-65451331D01*
X114346229Y-65444510D01*
X114340705Y-65393648D01*
X114337079Y-65378396D01*
X114291924Y-65257946D01*
X114283386Y-65242351D01*
X114206885Y-65140276D01*
X114194324Y-65127715D01*
X114092249Y-65051214D01*
X114076654Y-65042676D01*
X113956206Y-64997522D01*
X113940951Y-64993895D01*
X113890086Y-64988369D01*
X113883272Y-64988000D01*
X113610715Y-64988000D01*
X113595476Y-64992475D01*
X113594271Y-64993865D01*
X113592600Y-65001548D01*
X113592600Y-66798885D01*
X113084600Y-66798885D01*
X113084600Y-65006116D01*
X113080125Y-64990877D01*
X113078735Y-64989672D01*
X113071052Y-64988001D01*
X112793931Y-64988001D01*
X112787110Y-64988371D01*
X112736248Y-64993895D01*
X112720996Y-64997521D01*
X112600546Y-65042676D01*
X112584951Y-65051214D01*
X112482876Y-65127715D01*
X112470315Y-65140276D01*
X112393814Y-65242351D01*
X112385276Y-65257946D01*
X112340122Y-65378394D01*
X112336495Y-65393649D01*
X112330969Y-65444514D01*
X112330600Y-65451328D01*
X112330600Y-66798885D01*
X111502300Y-66798885D01*
X111502300Y-65475936D01*
X111490481Y-65416520D01*
X111445460Y-65349140D01*
X111435145Y-65342248D01*
X111435143Y-65342246D01*
X111411204Y-65326251D01*
X111365675Y-65271775D01*
X111355204Y-65221771D01*
X111354349Y-64845486D01*
X111374197Y-64777320D01*
X111427746Y-64730706D01*
X111480349Y-64719200D01*
X119203200Y-64719200D01*
X119271321Y-64739202D01*
G37*
%TD.AperFunction*%
%TD*%
%TA.AperFunction,Conductor*%
%TO.N,VDD*%
G36*
X123995721Y-64739202D02*
G01*
X124042214Y-64792858D01*
X124053600Y-64845200D01*
X124053600Y-76716660D01*
X124033598Y-76784781D01*
X123979942Y-76831274D01*
X123909668Y-76841378D01*
X123845088Y-76811884D01*
X123838582Y-76805833D01*
X123816171Y-76783461D01*
X123804760Y-76774449D01*
X123666757Y-76689384D01*
X123653576Y-76683237D01*
X123499290Y-76632062D01*
X123485914Y-76629195D01*
X123391562Y-76619528D01*
X123385145Y-76619200D01*
X122360115Y-76619200D01*
X122344876Y-76623675D01*
X122343671Y-76625065D01*
X122342000Y-76632748D01*
X122342000Y-79217084D01*
X122346475Y-79232323D01*
X122347865Y-79233528D01*
X122355548Y-79235199D01*
X123385095Y-79235199D01*
X123391614Y-79234862D01*
X123487206Y-79224943D01*
X123500600Y-79222051D01*
X123654784Y-79170612D01*
X123667962Y-79164439D01*
X123805807Y-79079137D01*
X123817208Y-79070101D01*
X123838427Y-79048845D01*
X123900710Y-79014766D01*
X123971530Y-79019769D01*
X124028402Y-79062266D01*
X124053271Y-79128765D01*
X124053600Y-79137863D01*
X124053600Y-86538800D01*
X124033598Y-86606921D01*
X123979942Y-86653414D01*
X123927600Y-86664800D01*
X122553432Y-86664800D01*
X122485311Y-86644798D01*
X122437724Y-86588677D01*
X122428524Y-86567334D01*
X121577212Y-85716022D01*
X121563268Y-85708408D01*
X121561435Y-85708539D01*
X121554820Y-85712790D01*
X120703320Y-86564290D01*
X120684264Y-86599187D01*
X120634061Y-86649388D01*
X120573677Y-86664800D01*
X119658400Y-86664800D01*
X119590279Y-86644798D01*
X119543786Y-86591142D01*
X119532400Y-86538800D01*
X119532400Y-85348930D01*
X120052125Y-85348930D01*
X120069972Y-85575699D01*
X120071515Y-85585446D01*
X120124617Y-85806627D01*
X120127666Y-85816012D01*
X120214713Y-86026163D01*
X120219195Y-86034958D01*
X120321832Y-86202445D01*
X120332290Y-86211907D01*
X120341066Y-86208124D01*
X121192378Y-85356812D01*
X121198756Y-85345132D01*
X121928808Y-85345132D01*
X121928939Y-85346965D01*
X121933190Y-85353580D01*
X122784690Y-86205080D01*
X122797070Y-86211840D01*
X122804720Y-86206113D01*
X122909605Y-86034958D01*
X122914087Y-86026163D01*
X123001134Y-85816012D01*
X123004183Y-85806627D01*
X123057285Y-85585446D01*
X123058828Y-85575699D01*
X123076675Y-85348930D01*
X123076675Y-85339070D01*
X123058828Y-85112301D01*
X123057285Y-85102554D01*
X123004183Y-84881373D01*
X123001134Y-84871988D01*
X122914087Y-84661837D01*
X122909605Y-84653042D01*
X122806968Y-84485555D01*
X122796510Y-84476093D01*
X122787734Y-84479876D01*
X121936422Y-85331188D01*
X121928808Y-85345132D01*
X121198756Y-85345132D01*
X121199992Y-85342868D01*
X121199861Y-85341035D01*
X121195610Y-85334420D01*
X120344110Y-84482920D01*
X120331730Y-84476160D01*
X120324080Y-84481887D01*
X120219195Y-84653042D01*
X120214713Y-84661837D01*
X120127666Y-84871988D01*
X120124617Y-84881373D01*
X120071515Y-85102554D01*
X120069972Y-85112301D01*
X120052125Y-85339070D01*
X120052125Y-85348930D01*
X119532400Y-85348930D01*
X119532400Y-84111890D01*
X120696493Y-84111890D01*
X120700276Y-84120666D01*
X121551588Y-84971978D01*
X121565532Y-84979592D01*
X121567365Y-84979461D01*
X121573980Y-84975210D01*
X122425480Y-84123710D01*
X122432240Y-84111330D01*
X122426513Y-84103680D01*
X122255358Y-83998795D01*
X122246563Y-83994313D01*
X122036412Y-83907266D01*
X122027027Y-83904217D01*
X121805846Y-83851115D01*
X121796099Y-83849572D01*
X121569330Y-83831725D01*
X121559470Y-83831725D01*
X121332701Y-83849572D01*
X121322954Y-83851115D01*
X121101773Y-83904217D01*
X121092388Y-83907266D01*
X120882237Y-83994313D01*
X120873442Y-83998795D01*
X120705955Y-84101432D01*
X120696493Y-84111890D01*
X119532400Y-84111890D01*
X119532400Y-82522494D01*
X119552402Y-82454373D01*
X119606058Y-82407880D01*
X119669929Y-82397023D01*
X119727762Y-82402337D01*
X119741424Y-82398325D01*
X119742629Y-82396935D01*
X119744300Y-82389252D01*
X119744300Y-82384685D01*
X120252300Y-82384685D01*
X120256775Y-82399924D01*
X120258165Y-82401129D01*
X120264986Y-82402613D01*
X120266688Y-82402534D01*
X120325846Y-82397098D01*
X120338896Y-82394485D01*
X120478389Y-82350771D01*
X120492134Y-82344565D01*
X120616404Y-82269304D01*
X120628273Y-82259997D01*
X120730997Y-82157273D01*
X120740304Y-82145404D01*
X120815565Y-82021134D01*
X120821771Y-82007389D01*
X120865487Y-81867888D01*
X120867809Y-81856297D01*
X120864994Y-81841965D01*
X120853098Y-81838800D01*
X120270415Y-81838800D01*
X120255176Y-81843275D01*
X120253971Y-81844665D01*
X120252300Y-81852348D01*
X120252300Y-82384685D01*
X119744300Y-82384685D01*
X119744300Y-81312685D01*
X120252300Y-81312685D01*
X120256775Y-81327924D01*
X120258165Y-81329129D01*
X120265848Y-81330800D01*
X120851458Y-81330800D01*
X120866003Y-81326529D01*
X120868048Y-81314498D01*
X120865487Y-81301712D01*
X120821771Y-81162211D01*
X120815565Y-81148466D01*
X120740304Y-81024196D01*
X120730997Y-81012327D01*
X120628273Y-80909603D01*
X120616404Y-80900296D01*
X120492134Y-80825035D01*
X120478389Y-80818829D01*
X120338896Y-80775115D01*
X120325846Y-80772502D01*
X120268838Y-80767263D01*
X120255176Y-80771275D01*
X120253971Y-80772665D01*
X120252300Y-80780348D01*
X120252300Y-81312685D01*
X119744300Y-81312685D01*
X119744300Y-80784915D01*
X119739825Y-80769676D01*
X119738435Y-80768471D01*
X119731614Y-80766987D01*
X119729910Y-80767066D01*
X119669929Y-80772577D01*
X119600264Y-80758892D01*
X119549056Y-80709716D01*
X119532400Y-80647106D01*
X119532400Y-78524295D01*
X120080001Y-78524295D01*
X120080338Y-78530814D01*
X120090257Y-78626406D01*
X120093149Y-78639800D01*
X120144588Y-78793984D01*
X120150761Y-78807162D01*
X120236063Y-78945007D01*
X120245099Y-78956408D01*
X120359829Y-79070939D01*
X120371240Y-79079951D01*
X120509243Y-79165016D01*
X120522424Y-79171163D01*
X120676710Y-79222338D01*
X120690086Y-79225205D01*
X120784438Y-79234872D01*
X120790854Y-79235200D01*
X121815885Y-79235200D01*
X121831124Y-79230725D01*
X121832329Y-79229335D01*
X121834000Y-79221652D01*
X121834000Y-78199315D01*
X121829525Y-78184076D01*
X121828135Y-78182871D01*
X121820452Y-78181200D01*
X120098116Y-78181200D01*
X120082877Y-78185675D01*
X120081672Y-78187065D01*
X120080001Y-78194748D01*
X120080001Y-78524295D01*
X119532400Y-78524295D01*
X119532400Y-77655085D01*
X120080000Y-77655085D01*
X120084475Y-77670324D01*
X120085865Y-77671529D01*
X120093548Y-77673200D01*
X121815885Y-77673200D01*
X121831124Y-77668725D01*
X121832329Y-77667335D01*
X121834000Y-77659652D01*
X121834000Y-76637316D01*
X121829525Y-76622077D01*
X121828135Y-76620872D01*
X121820452Y-76619201D01*
X120790905Y-76619201D01*
X120784386Y-76619538D01*
X120688794Y-76629457D01*
X120675400Y-76632349D01*
X120521216Y-76683788D01*
X120508038Y-76689961D01*
X120370193Y-76775263D01*
X120358792Y-76784299D01*
X120244261Y-76899029D01*
X120235249Y-76910440D01*
X120150184Y-77048443D01*
X120144037Y-77061624D01*
X120092862Y-77215910D01*
X120089995Y-77229286D01*
X120080328Y-77323638D01*
X120080000Y-77330055D01*
X120080000Y-77655085D01*
X119532400Y-77655085D01*
X119532400Y-73740669D01*
X119950601Y-73740669D01*
X119950971Y-73747490D01*
X119956495Y-73798352D01*
X119960121Y-73813604D01*
X120005276Y-73934054D01*
X120013814Y-73949649D01*
X120090315Y-74051724D01*
X120102876Y-74064285D01*
X120204951Y-74140786D01*
X120220546Y-74149324D01*
X120340994Y-74194478D01*
X120356249Y-74198105D01*
X120407114Y-74203631D01*
X120413928Y-74204000D01*
X120686485Y-74204000D01*
X120701724Y-74199525D01*
X120702929Y-74198135D01*
X120704600Y-74190452D01*
X120704600Y-74185884D01*
X121212600Y-74185884D01*
X121217075Y-74201123D01*
X121218465Y-74202328D01*
X121226148Y-74203999D01*
X121503269Y-74203999D01*
X121510090Y-74203629D01*
X121560952Y-74198105D01*
X121576204Y-74194479D01*
X121696654Y-74149324D01*
X121712249Y-74140786D01*
X121814324Y-74064285D01*
X121826885Y-74051724D01*
X121903386Y-73949649D01*
X121911924Y-73934054D01*
X121957078Y-73813606D01*
X121960705Y-73798351D01*
X121966231Y-73747486D01*
X121966600Y-73740672D01*
X121966600Y-72393115D01*
X121962125Y-72377876D01*
X121960735Y-72376671D01*
X121953052Y-72375000D01*
X121230715Y-72375000D01*
X121215476Y-72379475D01*
X121214271Y-72380865D01*
X121212600Y-72388548D01*
X121212600Y-74185884D01*
X120704600Y-74185884D01*
X120704600Y-72393115D01*
X120700125Y-72377876D01*
X120698735Y-72376671D01*
X120691052Y-72375000D01*
X119968716Y-72375000D01*
X119953477Y-72379475D01*
X119952272Y-72380865D01*
X119950601Y-72388548D01*
X119950601Y-73740669D01*
X119532400Y-73740669D01*
X119532400Y-71848885D01*
X119950600Y-71848885D01*
X119955075Y-71864124D01*
X119956465Y-71865329D01*
X119964148Y-71867000D01*
X120686485Y-71867000D01*
X120701724Y-71862525D01*
X120702929Y-71861135D01*
X120704600Y-71853452D01*
X120704600Y-71848885D01*
X121212600Y-71848885D01*
X121217075Y-71864124D01*
X121218465Y-71865329D01*
X121226148Y-71867000D01*
X121948484Y-71867000D01*
X121963723Y-71862525D01*
X121964928Y-71861135D01*
X121966599Y-71853452D01*
X121966599Y-70501331D01*
X121966229Y-70494510D01*
X121960705Y-70443648D01*
X121957079Y-70428396D01*
X121911924Y-70307946D01*
X121903386Y-70292351D01*
X121826885Y-70190276D01*
X121814324Y-70177715D01*
X121712249Y-70101214D01*
X121696654Y-70092676D01*
X121576206Y-70047522D01*
X121560951Y-70043895D01*
X121510086Y-70038369D01*
X121503272Y-70038000D01*
X121230715Y-70038000D01*
X121215476Y-70042475D01*
X121214271Y-70043865D01*
X121212600Y-70051548D01*
X121212600Y-71848885D01*
X120704600Y-71848885D01*
X120704600Y-70056116D01*
X120700125Y-70040877D01*
X120698735Y-70039672D01*
X120691052Y-70038001D01*
X120413931Y-70038001D01*
X120407110Y-70038371D01*
X120356248Y-70043895D01*
X120340996Y-70047521D01*
X120220546Y-70092676D01*
X120204951Y-70101214D01*
X120102876Y-70177715D01*
X120090315Y-70190276D01*
X120013814Y-70292351D01*
X120005276Y-70307946D01*
X119960122Y-70428394D01*
X119956495Y-70443649D01*
X119950969Y-70494514D01*
X119950600Y-70501328D01*
X119950600Y-71848885D01*
X119532400Y-71848885D01*
X119532400Y-68690669D01*
X119950601Y-68690669D01*
X119950971Y-68697490D01*
X119956495Y-68748352D01*
X119960121Y-68763604D01*
X120005276Y-68884054D01*
X120013814Y-68899649D01*
X120090315Y-69001724D01*
X120102876Y-69014285D01*
X120204951Y-69090786D01*
X120220546Y-69099324D01*
X120340994Y-69144478D01*
X120356249Y-69148105D01*
X120407114Y-69153631D01*
X120413928Y-69154000D01*
X120686485Y-69154000D01*
X120701724Y-69149525D01*
X120702929Y-69148135D01*
X120704600Y-69140452D01*
X120704600Y-69135884D01*
X121212600Y-69135884D01*
X121217075Y-69151123D01*
X121218465Y-69152328D01*
X121226148Y-69153999D01*
X121503269Y-69153999D01*
X121510090Y-69153629D01*
X121560952Y-69148105D01*
X121576204Y-69144479D01*
X121696654Y-69099324D01*
X121712249Y-69090786D01*
X121814324Y-69014285D01*
X121826885Y-69001724D01*
X121903386Y-68899649D01*
X121911924Y-68884054D01*
X121957078Y-68763606D01*
X121960705Y-68748351D01*
X121966231Y-68697486D01*
X121966600Y-68690672D01*
X121966600Y-67343115D01*
X121962125Y-67327876D01*
X121960735Y-67326671D01*
X121953052Y-67325000D01*
X121230715Y-67325000D01*
X121215476Y-67329475D01*
X121214271Y-67330865D01*
X121212600Y-67338548D01*
X121212600Y-69135884D01*
X120704600Y-69135884D01*
X120704600Y-67343115D01*
X120700125Y-67327876D01*
X120698735Y-67326671D01*
X120691052Y-67325000D01*
X119968716Y-67325000D01*
X119953477Y-67329475D01*
X119952272Y-67330865D01*
X119950601Y-67338548D01*
X119950601Y-68690669D01*
X119532400Y-68690669D01*
X119532400Y-66798885D01*
X119950600Y-66798885D01*
X119955075Y-66814124D01*
X119956465Y-66815329D01*
X119964148Y-66817000D01*
X120686485Y-66817000D01*
X120701724Y-66812525D01*
X120702929Y-66811135D01*
X120704600Y-66803452D01*
X120704600Y-66798885D01*
X121212600Y-66798885D01*
X121217075Y-66814124D01*
X121218465Y-66815329D01*
X121226148Y-66817000D01*
X121948484Y-66817000D01*
X121963723Y-66812525D01*
X121964928Y-66811135D01*
X121966599Y-66803452D01*
X121966599Y-65451331D01*
X121966229Y-65444510D01*
X121960705Y-65393648D01*
X121957079Y-65378396D01*
X121911924Y-65257946D01*
X121903386Y-65242351D01*
X121826885Y-65140276D01*
X121814324Y-65127715D01*
X121712249Y-65051214D01*
X121696654Y-65042676D01*
X121576206Y-64997522D01*
X121560951Y-64993895D01*
X121510086Y-64988369D01*
X121503272Y-64988000D01*
X121230715Y-64988000D01*
X121215476Y-64992475D01*
X121214271Y-64993865D01*
X121212600Y-65001548D01*
X121212600Y-66798885D01*
X120704600Y-66798885D01*
X120704600Y-65006116D01*
X120700125Y-64990877D01*
X120698735Y-64989672D01*
X120691052Y-64988001D01*
X120413931Y-64988001D01*
X120407110Y-64988371D01*
X120356248Y-64993895D01*
X120340996Y-64997521D01*
X120220546Y-65042676D01*
X120204951Y-65051214D01*
X120102876Y-65127715D01*
X120090315Y-65140276D01*
X120013814Y-65242351D01*
X120005276Y-65257946D01*
X119960122Y-65378394D01*
X119956495Y-65393649D01*
X119950969Y-65444514D01*
X119950600Y-65451328D01*
X119950600Y-66798885D01*
X119532400Y-66798885D01*
X119532400Y-64845200D01*
X119552402Y-64777079D01*
X119606058Y-64730586D01*
X119658400Y-64719200D01*
X123927600Y-64719200D01*
X123995721Y-64739202D01*
G37*
%TD.AperFunction*%
%TD*%
%TA.AperFunction,Conductor*%
%TO.N,VSS*%
G36*
X111092521Y-64739202D02*
G01*
X111139014Y-64792858D01*
X111150400Y-64845200D01*
X111150400Y-64870280D01*
X111130398Y-64938401D01*
X111076742Y-64984894D01*
X111059899Y-64991176D01*
X111055476Y-64992475D01*
X111054271Y-64993865D01*
X111052600Y-65001548D01*
X111052600Y-69135884D01*
X111057075Y-69151123D01*
X111065933Y-69158798D01*
X111113496Y-69184770D01*
X111147521Y-69247083D01*
X111150400Y-69273865D01*
X111150400Y-69920280D01*
X111130398Y-69988401D01*
X111076742Y-70034894D01*
X111059899Y-70041176D01*
X111055476Y-70042475D01*
X111054271Y-70043865D01*
X111052600Y-70051548D01*
X111052600Y-74185884D01*
X111057075Y-74201123D01*
X111065933Y-74208798D01*
X111113496Y-74234770D01*
X111147521Y-74297083D01*
X111150400Y-74323865D01*
X111150400Y-80647106D01*
X111130398Y-80715227D01*
X111076742Y-80761720D01*
X111012871Y-80772577D01*
X110955038Y-80767263D01*
X110941376Y-80771275D01*
X110940171Y-80772665D01*
X110938500Y-80780348D01*
X110938500Y-82384685D01*
X110942975Y-82399924D01*
X110944365Y-82401129D01*
X110951186Y-82402613D01*
X110952890Y-82402534D01*
X111012871Y-82397023D01*
X111082536Y-82410708D01*
X111133744Y-82459884D01*
X111150400Y-82522494D01*
X111150400Y-86538800D01*
X111130398Y-86606921D01*
X111076742Y-86653414D01*
X111024400Y-86664800D01*
X109802632Y-86664800D01*
X109734511Y-86644798D01*
X109686924Y-86588677D01*
X109677724Y-86567334D01*
X108826412Y-85716022D01*
X108812468Y-85708408D01*
X108810635Y-85708539D01*
X108804020Y-85712790D01*
X107952520Y-86564290D01*
X107933464Y-86599187D01*
X107883261Y-86649388D01*
X107822877Y-86664800D01*
X107733391Y-86664800D01*
X107715449Y-86662763D01*
X107710192Y-86662754D01*
X107696364Y-86659574D01*
X107682522Y-86662706D01*
X107680675Y-86662703D01*
X107668552Y-86662096D01*
X107549783Y-86650399D01*
X107525562Y-86645582D01*
X107396825Y-86606530D01*
X107374011Y-86597079D01*
X107255372Y-86533665D01*
X107234845Y-86519949D01*
X107130850Y-86434603D01*
X107113397Y-86417150D01*
X107028051Y-86313155D01*
X107014333Y-86292625D01*
X106971153Y-86211840D01*
X106950921Y-86173989D01*
X106941469Y-86151172D01*
X106902419Y-86022441D01*
X106897601Y-85998215D01*
X106885853Y-85878932D01*
X106885246Y-85866363D01*
X106885246Y-85866191D01*
X106888426Y-85852364D01*
X106885294Y-85838524D01*
X106885302Y-85834007D01*
X106883200Y-85815191D01*
X106883200Y-85348930D01*
X107301325Y-85348930D01*
X107319172Y-85575699D01*
X107320715Y-85585446D01*
X107373817Y-85806627D01*
X107376866Y-85816012D01*
X107463913Y-86026163D01*
X107468395Y-86034958D01*
X107571032Y-86202445D01*
X107581490Y-86211907D01*
X107590266Y-86208124D01*
X108441578Y-85356812D01*
X108447956Y-85345132D01*
X109178008Y-85345132D01*
X109178139Y-85346965D01*
X109182390Y-85353580D01*
X110033890Y-86205080D01*
X110046270Y-86211840D01*
X110053920Y-86206113D01*
X110158805Y-86034958D01*
X110163287Y-86026163D01*
X110250334Y-85816012D01*
X110253383Y-85806627D01*
X110306485Y-85585446D01*
X110308028Y-85575699D01*
X110325875Y-85348930D01*
X110325875Y-85339070D01*
X110308028Y-85112301D01*
X110306485Y-85102554D01*
X110253383Y-84881373D01*
X110250334Y-84871988D01*
X110163287Y-84661837D01*
X110158805Y-84653042D01*
X110056168Y-84485555D01*
X110045710Y-84476093D01*
X110036934Y-84479876D01*
X109185622Y-85331188D01*
X109178008Y-85345132D01*
X108447956Y-85345132D01*
X108449192Y-85342868D01*
X108449061Y-85341035D01*
X108444810Y-85334420D01*
X107593310Y-84482920D01*
X107580930Y-84476160D01*
X107573280Y-84481887D01*
X107468395Y-84653042D01*
X107463913Y-84661837D01*
X107376866Y-84871988D01*
X107373817Y-84881373D01*
X107320715Y-85102554D01*
X107319172Y-85112301D01*
X107301325Y-85339070D01*
X107301325Y-85348930D01*
X106883200Y-85348930D01*
X106883200Y-84111890D01*
X107945693Y-84111890D01*
X107949476Y-84120666D01*
X108800788Y-84971978D01*
X108814732Y-84979592D01*
X108816565Y-84979461D01*
X108823180Y-84975210D01*
X109674680Y-84123710D01*
X109681440Y-84111330D01*
X109675713Y-84103680D01*
X109504558Y-83998795D01*
X109495763Y-83994313D01*
X109285612Y-83907266D01*
X109276227Y-83904217D01*
X109055046Y-83851115D01*
X109045299Y-83849572D01*
X108818530Y-83831725D01*
X108808670Y-83831725D01*
X108581901Y-83849572D01*
X108572154Y-83851115D01*
X108350973Y-83904217D01*
X108341588Y-83907266D01*
X108131437Y-83994313D01*
X108122642Y-83998795D01*
X107955155Y-84101432D01*
X107945693Y-84111890D01*
X106883200Y-84111890D01*
X106883200Y-81855102D01*
X109814752Y-81855102D01*
X109817313Y-81867888D01*
X109861029Y-82007389D01*
X109867235Y-82021134D01*
X109942496Y-82145404D01*
X109951803Y-82157273D01*
X110054527Y-82259997D01*
X110066396Y-82269304D01*
X110190666Y-82344565D01*
X110204411Y-82350771D01*
X110343904Y-82394485D01*
X110356954Y-82397098D01*
X110413962Y-82402337D01*
X110427624Y-82398325D01*
X110428829Y-82396935D01*
X110430500Y-82389252D01*
X110430500Y-81856915D01*
X110426025Y-81841676D01*
X110424635Y-81840471D01*
X110416952Y-81838800D01*
X109831342Y-81838800D01*
X109816797Y-81843071D01*
X109814752Y-81855102D01*
X106883200Y-81855102D01*
X106883200Y-81313303D01*
X109814991Y-81313303D01*
X109817806Y-81327635D01*
X109829702Y-81330800D01*
X110412385Y-81330800D01*
X110427624Y-81326325D01*
X110428829Y-81324935D01*
X110430500Y-81317252D01*
X110430500Y-80784915D01*
X110426025Y-80769676D01*
X110424635Y-80768471D01*
X110417814Y-80766987D01*
X110416112Y-80767066D01*
X110356954Y-80772502D01*
X110343904Y-80775115D01*
X110204411Y-80818829D01*
X110190666Y-80825035D01*
X110066396Y-80900296D01*
X110054527Y-80909603D01*
X109951803Y-81012327D01*
X109942496Y-81024196D01*
X109867235Y-81148466D01*
X109861029Y-81162211D01*
X109817313Y-81301712D01*
X109814991Y-81313303D01*
X106883200Y-81313303D01*
X106883200Y-79314121D01*
X106903202Y-79246000D01*
X106956858Y-79199507D01*
X107027132Y-79189403D01*
X107048868Y-79194528D01*
X107132710Y-79222338D01*
X107146086Y-79225205D01*
X107240438Y-79234872D01*
X107246854Y-79235200D01*
X108271885Y-79235200D01*
X108287124Y-79230725D01*
X108288329Y-79229335D01*
X108290000Y-79221652D01*
X108290000Y-79217084D01*
X108798000Y-79217084D01*
X108802475Y-79232323D01*
X108803865Y-79233528D01*
X108811548Y-79235199D01*
X109841095Y-79235199D01*
X109847614Y-79234862D01*
X109943206Y-79224943D01*
X109956600Y-79222051D01*
X110110784Y-79170612D01*
X110123962Y-79164439D01*
X110261807Y-79079137D01*
X110273208Y-79070101D01*
X110387739Y-78955371D01*
X110396751Y-78943960D01*
X110481816Y-78805957D01*
X110487963Y-78792776D01*
X110539138Y-78638490D01*
X110542005Y-78625114D01*
X110551672Y-78530762D01*
X110552000Y-78524346D01*
X110552000Y-78199315D01*
X110547525Y-78184076D01*
X110546135Y-78182871D01*
X110538452Y-78181200D01*
X108816115Y-78181200D01*
X108800876Y-78185675D01*
X108799671Y-78187065D01*
X108798000Y-78194748D01*
X108798000Y-79217084D01*
X108290000Y-79217084D01*
X108290000Y-77655085D01*
X108798000Y-77655085D01*
X108802475Y-77670324D01*
X108803865Y-77671529D01*
X108811548Y-77673200D01*
X110533884Y-77673200D01*
X110549123Y-77668725D01*
X110550328Y-77667335D01*
X110551999Y-77659652D01*
X110551999Y-77330105D01*
X110551662Y-77323586D01*
X110541743Y-77227994D01*
X110538851Y-77214600D01*
X110487412Y-77060416D01*
X110481239Y-77047238D01*
X110395937Y-76909393D01*
X110386901Y-76897992D01*
X110272171Y-76783461D01*
X110260760Y-76774449D01*
X110122757Y-76689384D01*
X110109576Y-76683237D01*
X109955290Y-76632062D01*
X109941914Y-76629195D01*
X109847562Y-76619528D01*
X109841145Y-76619200D01*
X108816115Y-76619200D01*
X108800876Y-76623675D01*
X108799671Y-76625065D01*
X108798000Y-76632748D01*
X108798000Y-77655085D01*
X108290000Y-77655085D01*
X108290000Y-76637316D01*
X108285525Y-76622077D01*
X108284135Y-76620872D01*
X108276452Y-76619201D01*
X107246905Y-76619201D01*
X107240386Y-76619538D01*
X107144794Y-76629457D01*
X107131400Y-76632349D01*
X107049076Y-76659814D01*
X106978126Y-76662398D01*
X106917042Y-76626214D01*
X106885218Y-76562750D01*
X106883200Y-76540290D01*
X106883200Y-73740669D01*
X109790601Y-73740669D01*
X109790971Y-73747490D01*
X109796495Y-73798352D01*
X109800121Y-73813604D01*
X109845276Y-73934054D01*
X109853814Y-73949649D01*
X109930315Y-74051724D01*
X109942876Y-74064285D01*
X110044951Y-74140786D01*
X110060546Y-74149324D01*
X110180994Y-74194478D01*
X110196249Y-74198105D01*
X110247114Y-74203631D01*
X110253928Y-74204000D01*
X110526485Y-74204000D01*
X110541724Y-74199525D01*
X110542929Y-74198135D01*
X110544600Y-74190452D01*
X110544600Y-72393115D01*
X110540125Y-72377876D01*
X110538735Y-72376671D01*
X110531052Y-72375000D01*
X109808716Y-72375000D01*
X109793477Y-72379475D01*
X109792272Y-72380865D01*
X109790601Y-72388548D01*
X109790601Y-73740669D01*
X106883200Y-73740669D01*
X106883200Y-71848885D01*
X109790600Y-71848885D01*
X109795075Y-71864124D01*
X109796465Y-71865329D01*
X109804148Y-71867000D01*
X110526485Y-71867000D01*
X110541724Y-71862525D01*
X110542929Y-71861135D01*
X110544600Y-71853452D01*
X110544600Y-70056116D01*
X110540125Y-70040877D01*
X110538735Y-70039672D01*
X110531052Y-70038001D01*
X110253931Y-70038001D01*
X110247110Y-70038371D01*
X110196248Y-70043895D01*
X110180996Y-70047521D01*
X110060546Y-70092676D01*
X110044951Y-70101214D01*
X109942876Y-70177715D01*
X109930315Y-70190276D01*
X109853814Y-70292351D01*
X109845276Y-70307946D01*
X109800122Y-70428394D01*
X109796495Y-70443649D01*
X109790969Y-70494514D01*
X109790600Y-70501328D01*
X109790600Y-71848885D01*
X106883200Y-71848885D01*
X106883200Y-68690669D01*
X109790601Y-68690669D01*
X109790971Y-68697490D01*
X109796495Y-68748352D01*
X109800121Y-68763604D01*
X109845276Y-68884054D01*
X109853814Y-68899649D01*
X109930315Y-69001724D01*
X109942876Y-69014285D01*
X110044951Y-69090786D01*
X110060546Y-69099324D01*
X110180994Y-69144478D01*
X110196249Y-69148105D01*
X110247114Y-69153631D01*
X110253928Y-69154000D01*
X110526485Y-69154000D01*
X110541724Y-69149525D01*
X110542929Y-69148135D01*
X110544600Y-69140452D01*
X110544600Y-67343115D01*
X110540125Y-67327876D01*
X110538735Y-67326671D01*
X110531052Y-67325000D01*
X109808716Y-67325000D01*
X109793477Y-67329475D01*
X109792272Y-67330865D01*
X109790601Y-67338548D01*
X109790601Y-68690669D01*
X106883200Y-68690669D01*
X106883200Y-66798885D01*
X109790600Y-66798885D01*
X109795075Y-66814124D01*
X109796465Y-66815329D01*
X109804148Y-66817000D01*
X110526485Y-66817000D01*
X110541724Y-66812525D01*
X110542929Y-66811135D01*
X110544600Y-66803452D01*
X110544600Y-65006116D01*
X110540125Y-64990877D01*
X110538735Y-64989672D01*
X110531052Y-64988001D01*
X110253931Y-64988001D01*
X110247110Y-64988371D01*
X110196248Y-64993895D01*
X110180996Y-64997521D01*
X110060546Y-65042676D01*
X110044951Y-65051214D01*
X109942876Y-65127715D01*
X109930315Y-65140276D01*
X109853814Y-65242351D01*
X109845276Y-65257946D01*
X109800122Y-65378394D01*
X109796495Y-65393649D01*
X109790969Y-65444514D01*
X109790600Y-65451328D01*
X109790600Y-66798885D01*
X106883200Y-66798885D01*
X106883200Y-65569391D01*
X106885237Y-65551449D01*
X106885246Y-65546192D01*
X106888426Y-65532364D01*
X106885294Y-65518522D01*
X106885297Y-65516675D01*
X106885904Y-65504544D01*
X106891146Y-65451328D01*
X106897601Y-65385783D01*
X106902419Y-65361559D01*
X106933850Y-65257946D01*
X106941470Y-65232825D01*
X106950922Y-65210008D01*
X107014333Y-65091375D01*
X107028051Y-65070845D01*
X107113397Y-64966850D01*
X107130850Y-64949397D01*
X107234845Y-64864051D01*
X107255372Y-64850335D01*
X107374011Y-64786921D01*
X107396825Y-64777470D01*
X107525562Y-64738418D01*
X107549783Y-64733601D01*
X107578569Y-64730766D01*
X107669068Y-64721853D01*
X107681637Y-64721246D01*
X107681809Y-64721246D01*
X107695636Y-64724426D01*
X107709476Y-64721294D01*
X107713993Y-64721302D01*
X107732809Y-64719200D01*
X111024400Y-64719200D01*
X111092521Y-64739202D01*
G37*
%TD.AperFunction*%
%TD*%
M02*
