%TF.GenerationSoftware,KiCad,Pcbnew,(6.0.2)*%
%TF.CreationDate,2022-03-16T17:45:16-04:00*%
%TF.ProjectId,cv_sequencer,63765f73-6571-4756-956e-6365722e6b69,0.1*%
%TF.SameCoordinates,Original*%
%TF.FileFunction,Soldermask,Top*%
%TF.FilePolarity,Negative*%
%FSLAX46Y46*%
G04 Gerber Fmt 4.6, Leading zero omitted, Abs format (unit mm)*
G04 Created by KiCad (PCBNEW (6.0.2)) date 2022-03-16 17:45:16*
%MOMM*%
%LPD*%
G01*
G04 APERTURE LIST*
G04 Aperture macros list*
%AMRoundRect*
0 Rectangle with rounded corners*
0 $1 Rounding radius*
0 $2 $3 $4 $5 $6 $7 $8 $9 X,Y pos of 4 corners*
0 Add a 4 corners polygon primitive as box body*
4,1,4,$2,$3,$4,$5,$6,$7,$8,$9,$2,$3,0*
0 Add four circle primitives for the rounded corners*
1,1,$1+$1,$2,$3*
1,1,$1+$1,$4,$5*
1,1,$1+$1,$6,$7*
1,1,$1+$1,$8,$9*
0 Add four rect primitives between the rounded corners*
20,1,$1+$1,$2,$3,$4,$5,0*
20,1,$1+$1,$4,$5,$6,$7,0*
20,1,$1+$1,$6,$7,$8,$9,0*
20,1,$1+$1,$8,$9,$2,$3,0*%
G04 Aperture macros list end*
%ADD10O,0.990600X2.209800*%
%ADD11O,0.990600X1.803400*%
%ADD12O,0.800000X1.300000*%
%ADD13RoundRect,0.200000X0.200000X0.450000X-0.200000X0.450000X-0.200000X-0.450000X0.200000X-0.450000X0*%
%ADD14R,1.300000X2.400000*%
%ADD15R,2.500000X3.200000*%
%ADD16R,3.750000X4.000000*%
%ADD17O,1.600000X2.200000*%
%ADD18C,2.050000*%
%ADD19O,2.300000X3.100000*%
%ADD20RoundRect,0.650000X0.650000X-0.650000X0.650000X0.650000X-0.650000X0.650000X-0.650000X-0.650000X0*%
%ADD21C,2.000000*%
%ADD22C,2.032000*%
%ADD23C,0.508000*%
G04 APERTURE END LIST*
D10*
%TO.C,J4*%
X135735600Y-84527261D03*
X144375600Y-84527261D03*
D11*
X135735600Y-80527260D03*
X144375600Y-80527260D03*
%TD*%
D12*
%TO.C,J1*%
X138896400Y-71424800D03*
X140146400Y-71424800D03*
X141396400Y-71424800D03*
D13*
X142646400Y-71424800D03*
%TD*%
D14*
%TO.C,E1*%
X112816000Y-68692000D03*
X117816000Y-68692000D03*
X117816000Y-82992000D03*
X115316000Y-82992000D03*
X112816000Y-82992000D03*
D15*
X110316000Y-67792000D03*
D16*
X121691000Y-75692000D03*
D15*
X110316000Y-83592000D03*
X120316000Y-67792000D03*
D17*
X115316000Y-80192000D03*
D18*
X115316000Y-75692000D03*
D15*
X120316000Y-83592000D03*
D16*
X108941000Y-75692000D03*
%TD*%
D19*
%TO.C,J12*%
X200942400Y-69977000D03*
D20*
X189542400Y-69977000D03*
X197842400Y-69977000D03*
%TD*%
D21*
%TO.C,TP18*%
X124968000Y-85344000D03*
%TD*%
D19*
%TO.C,J8*%
X200942400Y-81407000D03*
D20*
X189542400Y-81407000D03*
X197842400Y-81407000D03*
%TD*%
D19*
%TO.C,J6*%
X169751200Y-81407000D03*
D20*
X158351200Y-81407000D03*
X166651200Y-81407000D03*
%TD*%
D19*
%TO.C,J10*%
X169751200Y-69977000D03*
D20*
X158351200Y-69977000D03*
X166651200Y-69977000D03*
%TD*%
D19*
%TO.C,J13*%
X216489000Y-69977000D03*
D20*
X205089000Y-69977000D03*
X213389000Y-69977000D03*
%TD*%
D21*
%TO.C,TP16*%
X128066800Y-85344000D03*
%TD*%
D19*
%TO.C,J9*%
X216538000Y-81407000D03*
D20*
X205138000Y-81407000D03*
X213438000Y-81407000D03*
%TD*%
D19*
%TO.C,J11*%
X185346800Y-69977000D03*
D20*
X173946800Y-69977000D03*
X182246800Y-69977000D03*
%TD*%
D21*
%TO.C,TP15*%
X131165600Y-85344000D03*
%TD*%
D22*
%TO.C,U1*%
X152463500Y-67437000D03*
X149923500Y-67437000D03*
X147383500Y-67437000D03*
X144843500Y-67437000D03*
X142303500Y-67437000D03*
X139763500Y-67437000D03*
X137223500Y-67437000D03*
X134683500Y-67437000D03*
X132143500Y-67437000D03*
X129603500Y-67437000D03*
X127063500Y-67437000D03*
%TD*%
D19*
%TO.C,J7*%
X185346800Y-81407000D03*
D20*
X173946800Y-81407000D03*
X182246800Y-81407000D03*
%TD*%
D23*
%TO.C,U2*%
X151441000Y-75330200D03*
X149041000Y-75330200D03*
X151441000Y-76130200D03*
X150641000Y-76930200D03*
X149041000Y-76930200D03*
X151441000Y-77730200D03*
X149841000Y-76930200D03*
X149841000Y-76130200D03*
X149841000Y-75330200D03*
X151441000Y-76930200D03*
X150638519Y-77730200D03*
X149841000Y-77730200D03*
X150641000Y-76130200D03*
X149041000Y-76130200D03*
X150641000Y-75330200D03*
X149041000Y-77730200D03*
%TD*%
M02*
