%TF.GenerationSoftware,KiCad,Pcbnew,(6.0.2)*%
%TF.CreationDate,2022-03-16T17:45:16-04:00*%
%TF.ProjectId,cv_sequencer,63765f73-6571-4756-956e-6365722e6b69,0.1*%
%TF.SameCoordinates,Original*%
%TF.FileFunction,Copper,L1,Top*%
%TF.FilePolarity,Positive*%
%FSLAX46Y46*%
G04 Gerber Fmt 4.6, Leading zero omitted, Abs format (unit mm)*
G04 Created by KiCad (PCBNEW (6.0.2)) date 2022-03-16 17:45:16*
%MOMM*%
%LPD*%
G01*
G04 APERTURE LIST*
G04 Aperture macros list*
%AMRoundRect*
0 Rectangle with rounded corners*
0 $1 Rounding radius*
0 $2 $3 $4 $5 $6 $7 $8 $9 X,Y pos of 4 corners*
0 Add a 4 corners polygon primitive as box body*
4,1,4,$2,$3,$4,$5,$6,$7,$8,$9,$2,$3,0*
0 Add four circle primitives for the rounded corners*
1,1,$1+$1,$2,$3*
1,1,$1+$1,$4,$5*
1,1,$1+$1,$6,$7*
1,1,$1+$1,$8,$9*
0 Add four rect primitives between the rounded corners*
20,1,$1+$1,$2,$3,$4,$5,0*
20,1,$1+$1,$4,$5,$6,$7,0*
20,1,$1+$1,$6,$7,$8,$9,0*
20,1,$1+$1,$8,$9,$2,$3,0*%
G04 Aperture macros list end*
%TA.AperFunction,ComponentPad*%
%ADD10O,0.990600X2.209800*%
%TD*%
%TA.AperFunction,ComponentPad*%
%ADD11O,0.990600X1.803400*%
%TD*%
%TA.AperFunction,ComponentPad*%
%ADD12O,0.800000X1.300000*%
%TD*%
%TA.AperFunction,ComponentPad*%
%ADD13RoundRect,0.200000X0.200000X0.450000X-0.200000X0.450000X-0.200000X-0.450000X0.200000X-0.450000X0*%
%TD*%
%TA.AperFunction,SMDPad,CuDef*%
%ADD14R,1.300000X2.400000*%
%TD*%
%TA.AperFunction,SMDPad,CuDef*%
%ADD15R,2.500000X3.200000*%
%TD*%
%TA.AperFunction,SMDPad,CuDef*%
%ADD16R,3.750000X4.000000*%
%TD*%
%TA.AperFunction,ComponentPad*%
%ADD17O,2.300000X3.100000*%
%TD*%
%TA.AperFunction,ComponentPad*%
%ADD18RoundRect,0.650000X0.650000X-0.650000X0.650000X0.650000X-0.650000X0.650000X-0.650000X-0.650000X0*%
%TD*%
%TA.AperFunction,SMDPad,CuDef*%
%ADD19C,2.000000*%
%TD*%
%TA.AperFunction,ComponentPad*%
%ADD20C,2.032000*%
%TD*%
%TA.AperFunction,ComponentPad*%
%ADD21C,0.508000*%
%TD*%
%TA.AperFunction,ViaPad*%
%ADD22C,0.508000*%
%TD*%
%TA.AperFunction,Conductor*%
%ADD23C,0.152400*%
%TD*%
G04 APERTURE END LIST*
D10*
%TO.P,J4,*%
%TO.N,*%
X135735600Y-84527261D03*
X144375600Y-84527261D03*
D11*
X135735600Y-80527260D03*
X144375600Y-80527260D03*
%TD*%
D12*
%TO.P,J1,4*%
%TO.N,/MIDI_OUT_SRC*%
X138896400Y-71424800D03*
%TO.P,J1,3*%
%TO.N,/UART_TX*%
X140146400Y-71424800D03*
%TO.P,J1,2*%
%TO.N,/MIDI_SRC*%
X141396400Y-71424800D03*
D13*
%TO.P,J1,1*%
%TO.N,/MIDI_SNK*%
X142646400Y-71424800D03*
%TD*%
D14*
%TO.P,E1,5*%
%TO.N,/ENC_BTN*%
X112816000Y-68692000D03*
%TO.P,E1,4*%
%TO.N,VCC*%
X117816000Y-68692000D03*
%TO.P,E1,3*%
%TO.N,/ENC_0*%
X117816000Y-82992000D03*
%TO.P,E1,2*%
%TO.N,GND*%
X115316000Y-82992000D03*
%TO.P,E1,1*%
%TO.N,/ENC_1*%
X112816000Y-82992000D03*
D15*
%TO.P,E1,*%
%TO.N,*%
X110316000Y-67792000D03*
D16*
X121691000Y-75692000D03*
D15*
X110316000Y-83592000D03*
X120316000Y-67792000D03*
X120316000Y-83592000D03*
D16*
X108941000Y-75692000D03*
%TD*%
D17*
%TO.P,J12,S,S*%
%TO.N,GND*%
X200942400Y-69977000D03*
D18*
%TO.P,J12,T,T*%
%TO.N,/IO Jacks/CV2_OUT*%
X189542400Y-69977000D03*
%TO.P,J12,TN,TN*%
%TO.N,unconnected-(J12-PadTN)*%
X197842400Y-69977000D03*
%TD*%
D19*
%TO.P,TP18,1,1*%
%TO.N,/~{RESET}*%
X124968000Y-85344000D03*
%TD*%
D17*
%TO.P,J8,S,S*%
%TO.N,GND*%
X200942400Y-81407000D03*
D18*
%TO.P,J8,T,T*%
%TO.N,/IO Jacks/TRIG2*%
X189542400Y-81407000D03*
%TO.P,J8,TN,TN*%
%TO.N,unconnected-(J8-PadTN)*%
X197842400Y-81407000D03*
%TD*%
D17*
%TO.P,J6,S,S*%
%TO.N,GND*%
X169751200Y-81407000D03*
D18*
%TO.P,J6,T,T*%
%TO.N,/IO Jacks/TRIG0*%
X158351200Y-81407000D03*
%TO.P,J6,TN,TN*%
%TO.N,unconnected-(J6-PadTN)*%
X166651200Y-81407000D03*
%TD*%
D17*
%TO.P,J10,S,S*%
%TO.N,GND*%
X169751200Y-69977000D03*
D18*
%TO.P,J10,T,T*%
%TO.N,/IO Jacks/CV0_OUT*%
X158351200Y-69977000D03*
%TO.P,J10,TN,TN*%
%TO.N,unconnected-(J10-PadTN)*%
X166651200Y-69977000D03*
%TD*%
D17*
%TO.P,J13,S,S*%
%TO.N,GND*%
X216489000Y-69977000D03*
D18*
%TO.P,J13,T,T*%
%TO.N,/IO Jacks/CV3_OUT*%
X205089000Y-69977000D03*
%TO.P,J13,TN,TN*%
%TO.N,unconnected-(J13-PadTN)*%
X213389000Y-69977000D03*
%TD*%
D19*
%TO.P,TP16,1,1*%
%TO.N,/SWCLK*%
X128066800Y-85344000D03*
%TD*%
D17*
%TO.P,J9,S,S*%
%TO.N,GND*%
X216538000Y-81407000D03*
D18*
%TO.P,J9,T,T*%
%TO.N,/IO Jacks/TRIG3*%
X205138000Y-81407000D03*
%TO.P,J9,TN,TN*%
%TO.N,unconnected-(J9-PadTN)*%
X213438000Y-81407000D03*
%TD*%
D17*
%TO.P,J11,S,S*%
%TO.N,GND*%
X185346800Y-69977000D03*
D18*
%TO.P,J11,T,T*%
%TO.N,/IO Jacks/CV1_OUT*%
X173946800Y-69977000D03*
%TO.P,J11,TN,TN*%
%TO.N,unconnected-(J11-PadTN)*%
X182246800Y-69977000D03*
%TD*%
D19*
%TO.P,TP15,1,1*%
%TO.N,/SWDIO*%
X131165600Y-85344000D03*
%TD*%
D20*
%TO.P,U1,1,VIN*%
%TO.N,/LCD_VIN*%
X152463500Y-67437000D03*
%TO.P,U1,2,3V3*%
%TO.N,unconnected-(U1-Pad2)*%
X149923500Y-67437000D03*
%TO.P,U1,3,GND*%
%TO.N,GND*%
X147383500Y-67437000D03*
%TO.P,U1,4,SCK*%
%TO.N,/LCD{slash}SD_SCK*%
X144843500Y-67437000D03*
%TO.P,U1,5,MISO*%
%TO.N,/SD_SDO*%
X142303500Y-67437000D03*
%TO.P,U1,6,MOSI*%
%TO.N,/LCD{slash}SD_SDI*%
X139763500Y-67437000D03*
%TO.P,U1,7,TFT_CS*%
%TO.N,/LCD_CS*%
X137223500Y-67437000D03*
%TO.P,U1,8,RST*%
%TO.N,/LCD_RST*%
X134683500Y-67437000D03*
%TO.P,U1,9,DC*%
%TO.N,/LCD_DC*%
X132143500Y-67437000D03*
%TO.P,U1,10,SD_CS*%
%TO.N,/SD_CS*%
X129603500Y-67437000D03*
%TO.P,U1,11,BL*%
%TO.N,unconnected-(U1-Pad11)*%
X127063500Y-67437000D03*
%TD*%
D17*
%TO.P,J7,S,S*%
%TO.N,GND*%
X185346800Y-81407000D03*
D18*
%TO.P,J7,T,T*%
%TO.N,/IO Jacks/TRIG1*%
X173946800Y-81407000D03*
%TO.P,J7,TN,TN*%
%TO.N,unconnected-(J7-PadTN)*%
X182246800Y-81407000D03*
%TD*%
D21*
%TO.P,U2,0,GND*%
%TO.N,GND*%
X151441000Y-75330200D03*
X149041000Y-75330200D03*
X151441000Y-76130200D03*
X150641000Y-76930200D03*
X149041000Y-76930200D03*
X151441000Y-77730200D03*
X149841000Y-76930200D03*
X149841000Y-76130200D03*
X149841000Y-75330200D03*
X151441000Y-76930200D03*
X150638519Y-77730200D03*
X149841000Y-77730200D03*
X150641000Y-76130200D03*
X149041000Y-76130200D03*
X150641000Y-75330200D03*
X149041000Y-77730200D03*
%TD*%
D22*
%TO.N,VCC*%
X167030400Y-73152000D03*
%TO.N,GND*%
X170789600Y-72796400D03*
X164693600Y-71424800D03*
X166065200Y-72745600D03*
X135128000Y-77012800D03*
%TO.N,/STAT_LED*%
X154635200Y-76098400D03*
X153670000Y-82245200D03*
%TO.N,GND*%
X154990800Y-80924400D03*
%TO.N,Net-(R5-Pad1)*%
X147980400Y-80924400D03*
X151079200Y-82397600D03*
%TO.N,/IO Jacks/CVx_REF*%
X171881300Y-76352400D03*
%TO.N,VDD*%
X126238000Y-79959200D03*
X131253215Y-79959200D03*
%TO.N,VCC*%
X132943600Y-70459600D03*
%TO.N,GND*%
X205689200Y-76098400D03*
X205689200Y-75336400D03*
%TO.N,/IO Jacks/VREF_5V0*%
X179425600Y-85140800D03*
X201320400Y-78028800D03*
%TO.N,/IO Jacks/CVx_REF*%
X183489600Y-75692000D03*
X190804800Y-75895200D03*
X193090800Y-75844400D03*
X202133200Y-77470000D03*
%TO.N,/VREG_1V2*%
X155752800Y-71678800D03*
X150469600Y-73964800D03*
%TO.N,GND*%
X128168400Y-82245200D03*
X156819600Y-80162400D03*
X151130000Y-69138800D03*
X160324800Y-72796400D03*
X197408800Y-72288400D03*
X126898400Y-72339200D03*
X143256000Y-79197200D03*
X154736800Y-85445600D03*
X154228800Y-81330800D03*
X124409200Y-77063600D03*
X157022800Y-75539600D03*
X154025600Y-69900800D03*
X158851600Y-85445600D03*
X143967200Y-74015600D03*
X156819600Y-78994000D03*
X186994800Y-72948800D03*
X115316000Y-81838800D03*
X147320000Y-85445600D03*
X155295600Y-70053200D03*
X186944000Y-76352400D03*
X138734800Y-76962000D03*
X129438400Y-72339200D03*
X128625600Y-77927200D03*
X143002000Y-77266800D03*
X150114000Y-71221600D03*
X129082800Y-77063600D03*
X192989200Y-80467200D03*
X131352722Y-82194262D03*
X147777200Y-71577200D03*
X128168400Y-72339200D03*
X130708400Y-72339200D03*
X164338000Y-77978000D03*
X136855200Y-79197200D03*
X125526800Y-82143600D03*
X149478500Y-73964800D03*
X133858000Y-77978000D03*
X134315200Y-82143600D03*
X151485600Y-85445600D03*
%TO.N,VCC*%
X132740400Y-78841600D03*
X135890000Y-78435200D03*
X134315200Y-80975200D03*
X156565600Y-72770500D03*
X145338800Y-69545200D03*
X133045200Y-77114400D03*
X131978400Y-75387200D03*
X155854400Y-69392800D03*
X155549600Y-75895200D03*
X134315200Y-79654400D03*
X155194000Y-79603600D03*
X145717084Y-79326916D03*
X154432000Y-71678800D03*
X145724041Y-76178841D03*
%TO.N,VSS*%
X192532000Y-72745600D03*
X110083600Y-86106000D03*
X178511200Y-79756000D03*
%TO.N,/VREG_1V2*%
X152146000Y-81381600D03*
X150160107Y-81011647D03*
%TO.N,/5V3*%
X155803600Y-66802000D03*
X160731200Y-69443600D03*
%TO.N,VDD*%
X123240800Y-85445600D03*
X177342800Y-79756000D03*
X191363600Y-72745600D03*
%TO.N,/ENC_1*%
X113487200Y-83159600D03*
X148640800Y-78790800D03*
%TO.N,/ENC_0*%
X147878800Y-78841600D03*
X117144800Y-82651600D03*
%TO.N,/ENC_BTN*%
X146558000Y-71729600D03*
X147675600Y-75895200D03*
X113639600Y-69342000D03*
%TO.N,/SWDIO*%
X151820843Y-73985157D03*
X132842000Y-72898000D03*
%TO.N,/SWCLK*%
X130708400Y-69748400D03*
X151130000Y-73990700D03*
%TO.N,/~{RESET}*%
X138125200Y-82271100D03*
X152476202Y-74244213D03*
X126847600Y-69748400D03*
X154482793Y-83007200D03*
X138125200Y-83641700D03*
X154686000Y-73101200D03*
%TO.N,/IO Jacks/VREF_5V0*%
X171754800Y-80060800D03*
X171754800Y-83820000D03*
%TO.N,/IO_TRIG0*%
X155854400Y-78130400D03*
X156057600Y-81330800D03*
X185572400Y-78028800D03*
%TO.N,/IO_TRIG1*%
X155702000Y-76911200D03*
X185572400Y-73456800D03*
%TO.N,/IO_TRIG2*%
X156182731Y-77472290D03*
X190398400Y-77419200D03*
%TO.N,/IO_TRIG3*%
X155092400Y-76606400D03*
X193852800Y-71780400D03*
%TO.N,/LCD{slash}SD_SCK*%
X148031200Y-74472800D03*
%TO.N,/LCD_RST*%
X143510000Y-68986400D03*
%TO.N,/LCD_DC*%
X148437600Y-73914000D03*
%TO.N,/SD_CS*%
X145846800Y-75234800D03*
X134315200Y-70561200D03*
%TO.N,/IO_SDI*%
X162584900Y-73456800D03*
X154660549Y-74334886D03*
X158394400Y-73406000D03*
X170637200Y-66802000D03*
%TO.N,/IO_SCK*%
X161290000Y-73812400D03*
X164439600Y-66852800D03*
%TO.N,/IO Jacks/DAC_VOUT0*%
X168960800Y-77317600D03*
X176733200Y-77317600D03*
%TO.N,/IO_SDO*%
X162001200Y-73812400D03*
X167487600Y-66802000D03*
%TO.N,/IO Jacks/DAC_VOUT1*%
X176326800Y-75082400D03*
X160578800Y-75946000D03*
%TO.N,/IO Jacks/DAC_VOUT2*%
X179628800Y-75031600D03*
X166573200Y-75996800D03*
%TO.N,/IO Jacks/DAC_VOUT3*%
X160578800Y-76657200D03*
X179527200Y-76352400D03*
%TO.N,/UART_TX*%
X145846800Y-78536800D03*
%TO.N,/UART_RX*%
X145338800Y-71729600D03*
X144932400Y-75590400D03*
X145846800Y-77724000D03*
%TD*%
D23*
%TO.N,VCC*%
X131470400Y-68986400D02*
X132943600Y-70459600D01*
X126288800Y-68986400D02*
X131470400Y-68986400D01*
X124155200Y-68986400D02*
X126288800Y-68986400D01*
X122529600Y-70612000D02*
X123393200Y-69748400D01*
X123393200Y-69748400D02*
X124155200Y-68986400D01*
X118872000Y-70612000D02*
X122529600Y-70612000D01*
X117816000Y-68692000D02*
X117816000Y-69556000D01*
X117816000Y-69556000D02*
X118872000Y-70612000D01*
%TO.N,/ENC_BTN*%
X112989600Y-68692000D02*
X113639600Y-69342000D01*
X112816000Y-68692000D02*
X112989600Y-68692000D01*
%TO.N,/SWDIO*%
X131165600Y-84124800D02*
X131165600Y-85344000D01*
X132842000Y-72898000D02*
X130098800Y-75641200D01*
X130098800Y-83058000D02*
X131165600Y-84124800D01*
X130098800Y-75641200D02*
X130098800Y-83058000D01*
%TO.N,/SWCLK*%
X127508000Y-72317791D02*
X130077391Y-69748400D01*
X130077391Y-69748400D02*
X130708400Y-69748400D01*
X127508000Y-84785200D02*
X127508000Y-72317791D01*
X128066800Y-85344000D02*
X127508000Y-84785200D01*
%TO.N,/~{RESET}*%
X124968000Y-85344000D02*
X124968000Y-71628000D01*
X124968000Y-71628000D02*
X126847600Y-69748400D01*
%TD*%
%TA.AperFunction,Conductor*%
%TO.N,VCC*%
G36*
X143040521Y-69108002D02*
G01*
X143087729Y-69163254D01*
X143108499Y-69210456D01*
X143117430Y-69230754D01*
X143201791Y-69331113D01*
X143209262Y-69336086D01*
X143209263Y-69336087D01*
X143225470Y-69346875D01*
X143310929Y-69403762D01*
X143400372Y-69431706D01*
X143427501Y-69440182D01*
X143427502Y-69440182D01*
X143436070Y-69442859D01*
X143500505Y-69444040D01*
X143558178Y-69445097D01*
X143558181Y-69445097D01*
X143567154Y-69445261D01*
X143608547Y-69433976D01*
X143684982Y-69413138D01*
X143684985Y-69413137D01*
X143693644Y-69410776D01*
X143701296Y-69406078D01*
X143797719Y-69346875D01*
X143797722Y-69346872D01*
X143805371Y-69342176D01*
X143893353Y-69244975D01*
X143904209Y-69222569D01*
X143934977Y-69159062D01*
X143982680Y-69106479D01*
X144048370Y-69088000D01*
X150551128Y-69088000D01*
X150619249Y-69108002D01*
X150665742Y-69161658D01*
X150676064Y-69197661D01*
X150684627Y-69263150D01*
X150737430Y-69383154D01*
X150821791Y-69483513D01*
X150829262Y-69488486D01*
X150829263Y-69488487D01*
X150845461Y-69499269D01*
X150930929Y-69556162D01*
X151020372Y-69584106D01*
X151047501Y-69592582D01*
X151047502Y-69592582D01*
X151056070Y-69595259D01*
X151120505Y-69596440D01*
X151178178Y-69597497D01*
X151178181Y-69597497D01*
X151187154Y-69597661D01*
X151228547Y-69586376D01*
X151304982Y-69565538D01*
X151304985Y-69565537D01*
X151313644Y-69563176D01*
X151331281Y-69552347D01*
X151417719Y-69499275D01*
X151417722Y-69499272D01*
X151425371Y-69494576D01*
X151435409Y-69483487D01*
X151504868Y-69406749D01*
X151513353Y-69397375D01*
X151524225Y-69374936D01*
X151566604Y-69287464D01*
X151566604Y-69287463D01*
X151570517Y-69279387D01*
X151585035Y-69193095D01*
X151616062Y-69129237D01*
X151676688Y-69092291D01*
X151709289Y-69088000D01*
X156723877Y-69088000D01*
X156791998Y-69108002D01*
X156838491Y-69161658D01*
X156849585Y-69222569D01*
X156847646Y-69251008D01*
X156847646Y-69251023D01*
X156847500Y-69253157D01*
X156847501Y-70700842D01*
X156850411Y-70743544D01*
X156895284Y-70923519D01*
X156898316Y-70929626D01*
X156898317Y-70929630D01*
X156945853Y-71025391D01*
X156977757Y-71089661D01*
X156982030Y-71094976D01*
X156982031Y-71094977D01*
X157086457Y-71224856D01*
X157093983Y-71234217D01*
X157099295Y-71238488D01*
X157099300Y-71238493D01*
X157178952Y-71302535D01*
X157219508Y-71360808D01*
X157226000Y-71400731D01*
X157226000Y-74957482D01*
X157205998Y-75025603D01*
X157152342Y-75072096D01*
X157091157Y-75080719D01*
X157091148Y-75082272D01*
X156960044Y-75081471D01*
X156833985Y-75117499D01*
X156826398Y-75122286D01*
X156826396Y-75122287D01*
X156768043Y-75159105D01*
X156723105Y-75187459D01*
X156636317Y-75285728D01*
X156632503Y-75293851D01*
X156632502Y-75293853D01*
X156617699Y-75325383D01*
X156580598Y-75404405D01*
X156575396Y-75437817D01*
X156561809Y-75525078D01*
X156561809Y-75525082D01*
X156560428Y-75533951D01*
X156561592Y-75542853D01*
X156561592Y-75542856D01*
X156565737Y-75574554D01*
X156577427Y-75663950D01*
X156630230Y-75783954D01*
X156714591Y-75884313D01*
X156722062Y-75889286D01*
X156722063Y-75889287D01*
X156738247Y-75900060D01*
X156823729Y-75956962D01*
X156913172Y-75984906D01*
X156940301Y-75993382D01*
X156940302Y-75993382D01*
X156948870Y-75996059D01*
X157018016Y-75997326D01*
X157070982Y-75998297D01*
X157070985Y-75998297D01*
X157079954Y-75998461D01*
X157085847Y-75996854D01*
X157154494Y-76008048D01*
X157207263Y-76055545D01*
X157226000Y-76121655D01*
X157226000Y-78480113D01*
X157205998Y-78548234D01*
X157152342Y-78594727D01*
X157082068Y-78604831D01*
X157031468Y-78585845D01*
X157021092Y-78579120D01*
X157021090Y-78579119D01*
X157013558Y-78574237D01*
X156887948Y-78536672D01*
X156878972Y-78536617D01*
X156878971Y-78536617D01*
X156824559Y-78536285D01*
X156756844Y-78535871D01*
X156630785Y-78571899D01*
X156623198Y-78576686D01*
X156623196Y-78576687D01*
X156603268Y-78589261D01*
X156519905Y-78641859D01*
X156433117Y-78740128D01*
X156429303Y-78748251D01*
X156429302Y-78748253D01*
X156416807Y-78774866D01*
X156377398Y-78858805D01*
X156373088Y-78886487D01*
X156358609Y-78979478D01*
X156358609Y-78979482D01*
X156357228Y-78988351D01*
X156374227Y-79118350D01*
X156427030Y-79238354D01*
X156436397Y-79249497D01*
X156503874Y-79329770D01*
X156511391Y-79338713D01*
X156518862Y-79343686D01*
X156518863Y-79343687D01*
X156542941Y-79359715D01*
X156620529Y-79411362D01*
X156690863Y-79433336D01*
X156737101Y-79447782D01*
X156737102Y-79447782D01*
X156745670Y-79450459D01*
X156810105Y-79451640D01*
X156867778Y-79452697D01*
X156867781Y-79452697D01*
X156876754Y-79452861D01*
X156918228Y-79441554D01*
X156994582Y-79420738D01*
X156994585Y-79420737D01*
X157003244Y-79418376D01*
X157034073Y-79399447D01*
X157102590Y-79380850D01*
X157170285Y-79402248D01*
X157215665Y-79456848D01*
X157226000Y-79506823D01*
X157226000Y-79648513D01*
X157205998Y-79716634D01*
X157152342Y-79763127D01*
X157082068Y-79773231D01*
X157031468Y-79754245D01*
X157021092Y-79747520D01*
X157021090Y-79747519D01*
X157013558Y-79742637D01*
X156887948Y-79705072D01*
X156878972Y-79705017D01*
X156878971Y-79705017D01*
X156824559Y-79704685D01*
X156756844Y-79704271D01*
X156630785Y-79740299D01*
X156519905Y-79810259D01*
X156513963Y-79816987D01*
X156499285Y-79833607D01*
X156433117Y-79908528D01*
X156377398Y-80027205D01*
X156370626Y-80070699D01*
X156358609Y-80147878D01*
X156358609Y-80147882D01*
X156357228Y-80156751D01*
X156358392Y-80165653D01*
X156358392Y-80165656D01*
X156365208Y-80217775D01*
X156374227Y-80286750D01*
X156427030Y-80406754D01*
X156511391Y-80507113D01*
X156620529Y-80579762D01*
X156745670Y-80618859D01*
X156745704Y-80618860D01*
X156805692Y-80647554D01*
X156843008Y-80707953D01*
X156847500Y-80741297D01*
X156847501Y-81436023D01*
X156847501Y-82130842D01*
X156850411Y-82173544D01*
X156895284Y-82353519D01*
X156898316Y-82359626D01*
X156898317Y-82359630D01*
X156974724Y-82513552D01*
X156977757Y-82519661D01*
X156982030Y-82524976D01*
X156982031Y-82524977D01*
X157082195Y-82649556D01*
X157093983Y-82664217D01*
X157099295Y-82668488D01*
X157099300Y-82668493D01*
X157178952Y-82732535D01*
X157219508Y-82790808D01*
X157226000Y-82830731D01*
X157226000Y-82982800D01*
X157205998Y-83050921D01*
X157152342Y-83097414D01*
X157100000Y-83108800D01*
X155068991Y-83108800D01*
X155000870Y-83088798D01*
X154954377Y-83035142D01*
X154944264Y-83000662D01*
X154927887Y-82886304D01*
X154927886Y-82886301D01*
X154926614Y-82877418D01*
X154920458Y-82863878D01*
X154876066Y-82766243D01*
X154876064Y-82766240D01*
X154872349Y-82758069D01*
X154786768Y-82658747D01*
X154774447Y-82650761D01*
X154684282Y-82592318D01*
X154684280Y-82592317D01*
X154676751Y-82587437D01*
X154551141Y-82549872D01*
X154542165Y-82549817D01*
X154542164Y-82549817D01*
X154487752Y-82549485D01*
X154420037Y-82549071D01*
X154293978Y-82585099D01*
X154282537Y-82592318D01*
X154263511Y-82604322D01*
X154195226Y-82623755D01*
X154127274Y-82603185D01*
X154081231Y-82549143D01*
X154071713Y-82478787D01*
X154082885Y-82442820D01*
X154106603Y-82393866D01*
X154106603Y-82393865D01*
X154110517Y-82385787D01*
X154132269Y-82256498D01*
X154132407Y-82245200D01*
X154125808Y-82199122D01*
X154115094Y-82124304D01*
X154115093Y-82124301D01*
X154113821Y-82115418D01*
X154094701Y-82073366D01*
X154063273Y-82004243D01*
X154063271Y-82004240D01*
X154059556Y-81996069D01*
X154053695Y-81989267D01*
X154048860Y-81981707D01*
X154051926Y-81979746D01*
X154029765Y-81930817D01*
X154040088Y-81860575D01*
X154086748Y-81807064D01*
X154156846Y-81787295D01*
X154285954Y-81789661D01*
X154350144Y-81772161D01*
X154403782Y-81757538D01*
X154403785Y-81757537D01*
X154412444Y-81755176D01*
X154423868Y-81748162D01*
X154516519Y-81691275D01*
X154516522Y-81691272D01*
X154524171Y-81686576D01*
X154560147Y-81646831D01*
X154606128Y-81596031D01*
X154612153Y-81589375D01*
X154623025Y-81566936D01*
X154665404Y-81479464D01*
X154665404Y-81479463D01*
X154669317Y-81471387D01*
X154672186Y-81454334D01*
X154703214Y-81390476D01*
X154763840Y-81353530D01*
X154834014Y-81354973D01*
X154908301Y-81378182D01*
X154908302Y-81378182D01*
X154916870Y-81380859D01*
X154981305Y-81382040D01*
X155038978Y-81383097D01*
X155038981Y-81383097D01*
X155047954Y-81383261D01*
X155089347Y-81371976D01*
X155165782Y-81351138D01*
X155165785Y-81351137D01*
X155174444Y-81348776D01*
X155182096Y-81344078D01*
X155278519Y-81284875D01*
X155278522Y-81284872D01*
X155286171Y-81280176D01*
X155293012Y-81272619D01*
X155368129Y-81189630D01*
X155374153Y-81182975D01*
X155376421Y-81178294D01*
X155429634Y-81134217D01*
X155500115Y-81125677D01*
X155564024Y-81156598D01*
X155601071Y-81217162D01*
X155603916Y-81269349D01*
X155596609Y-81316278D01*
X155596609Y-81316282D01*
X155595228Y-81325151D01*
X155596392Y-81334053D01*
X155596392Y-81334056D01*
X155602518Y-81380899D01*
X155612227Y-81455150D01*
X155665030Y-81575154D01*
X155749391Y-81675513D01*
X155756862Y-81680486D01*
X155756863Y-81680487D01*
X155769419Y-81688845D01*
X155858529Y-81748162D01*
X155927804Y-81769805D01*
X155975101Y-81784582D01*
X155975102Y-81784582D01*
X155983670Y-81787259D01*
X156048105Y-81788440D01*
X156105778Y-81789497D01*
X156105781Y-81789497D01*
X156114754Y-81789661D01*
X156178944Y-81772161D01*
X156232582Y-81757538D01*
X156232585Y-81757537D01*
X156241244Y-81755176D01*
X156252668Y-81748162D01*
X156345319Y-81691275D01*
X156345322Y-81691272D01*
X156352971Y-81686576D01*
X156388947Y-81646831D01*
X156434928Y-81596031D01*
X156440953Y-81589375D01*
X156451825Y-81566936D01*
X156494204Y-81479464D01*
X156494204Y-81479463D01*
X156498117Y-81471387D01*
X156519869Y-81342098D01*
X156520007Y-81330800D01*
X156509295Y-81256001D01*
X156502694Y-81209904D01*
X156502693Y-81209901D01*
X156501421Y-81201018D01*
X156495265Y-81187478D01*
X156450873Y-81089843D01*
X156450871Y-81089840D01*
X156447156Y-81081669D01*
X156381611Y-81005600D01*
X156367436Y-80989149D01*
X156361575Y-80982347D01*
X156322521Y-80957033D01*
X156259089Y-80915918D01*
X156259087Y-80915917D01*
X156251558Y-80911037D01*
X156125948Y-80873472D01*
X156116972Y-80873417D01*
X156116971Y-80873417D01*
X156062559Y-80873085D01*
X155994844Y-80872671D01*
X155868785Y-80908699D01*
X155861198Y-80913486D01*
X155861196Y-80913487D01*
X155833697Y-80930838D01*
X155757905Y-80978659D01*
X155671117Y-81076928D01*
X155671089Y-81076987D01*
X155620389Y-81120039D01*
X155550018Y-81129439D01*
X155485735Y-81099301D01*
X155447951Y-81039194D01*
X155444942Y-80984002D01*
X155444973Y-80983821D01*
X155449480Y-80957033D01*
X155452263Y-80940492D01*
X155452264Y-80940485D01*
X155453069Y-80935698D01*
X155453207Y-80924400D01*
X155444427Y-80863091D01*
X155435894Y-80803504D01*
X155435893Y-80803501D01*
X155434621Y-80794618D01*
X155420025Y-80762516D01*
X155384073Y-80683443D01*
X155384071Y-80683440D01*
X155380356Y-80675269D01*
X155294775Y-80575947D01*
X155263978Y-80555985D01*
X155192289Y-80509518D01*
X155192287Y-80509517D01*
X155184758Y-80504637D01*
X155059148Y-80467072D01*
X155050172Y-80467017D01*
X155050171Y-80467017D01*
X154995759Y-80466685D01*
X154928044Y-80466271D01*
X154801985Y-80502299D01*
X154794398Y-80507086D01*
X154794396Y-80507087D01*
X154786472Y-80512087D01*
X154691105Y-80572259D01*
X154604317Y-80670528D01*
X154600503Y-80678651D01*
X154600502Y-80678653D01*
X154598387Y-80683158D01*
X154548598Y-80789205D01*
X154547217Y-80798075D01*
X154547216Y-80798078D01*
X154547095Y-80798858D01*
X154546761Y-80799567D01*
X154544593Y-80806659D01*
X154543569Y-80806346D01*
X154516852Y-80863091D01*
X154456683Y-80900776D01*
X154386494Y-80900192D01*
X154297148Y-80873472D01*
X154288172Y-80873417D01*
X154288171Y-80873417D01*
X154233759Y-80873085D01*
X154166044Y-80872671D01*
X154039985Y-80908699D01*
X154032398Y-80913486D01*
X154032396Y-80913487D01*
X154004897Y-80930838D01*
X153929105Y-80978659D01*
X153842317Y-81076928D01*
X153838503Y-81085051D01*
X153838502Y-81085053D01*
X153830724Y-81101620D01*
X153786598Y-81195605D01*
X153785217Y-81204477D01*
X153767809Y-81316278D01*
X153767809Y-81316282D01*
X153766428Y-81325151D01*
X153767592Y-81334053D01*
X153767592Y-81334056D01*
X153773718Y-81380899D01*
X153783427Y-81455150D01*
X153836230Y-81575154D01*
X153842006Y-81582025D01*
X153846751Y-81589649D01*
X153845555Y-81590393D01*
X153870272Y-81646738D01*
X153859116Y-81716853D01*
X153811824Y-81769805D01*
X153743411Y-81788784D01*
X153740639Y-81788557D01*
X153738348Y-81787872D01*
X153607244Y-81787071D01*
X153481185Y-81823099D01*
X153473598Y-81827886D01*
X153473596Y-81827887D01*
X153421789Y-81860575D01*
X153370305Y-81893059D01*
X153283517Y-81991328D01*
X153279703Y-81999451D01*
X153279702Y-81999453D01*
X153272958Y-82013818D01*
X153227798Y-82110005D01*
X153221811Y-82148460D01*
X153209009Y-82230678D01*
X153209009Y-82230682D01*
X153207628Y-82239551D01*
X153208792Y-82248453D01*
X153208792Y-82248456D01*
X153212179Y-82274356D01*
X153224627Y-82369550D01*
X153277430Y-82489554D01*
X153361791Y-82589913D01*
X153369262Y-82594886D01*
X153369263Y-82594887D01*
X153380395Y-82602297D01*
X153470929Y-82662562D01*
X153553829Y-82688462D01*
X153587501Y-82698982D01*
X153587502Y-82698982D01*
X153596070Y-82701659D01*
X153660505Y-82702840D01*
X153718178Y-82703897D01*
X153718181Y-82703897D01*
X153727154Y-82704061D01*
X153784371Y-82688462D01*
X153844982Y-82671938D01*
X153844985Y-82671937D01*
X153853644Y-82669576D01*
X153890810Y-82646756D01*
X153959324Y-82628159D01*
X154027020Y-82649556D01*
X154072401Y-82704155D01*
X154081059Y-82774622D01*
X154070791Y-82807681D01*
X154067373Y-82814962D01*
X154040591Y-82872005D01*
X154020421Y-83001551D01*
X154016802Y-83000987D01*
X154001042Y-83052255D01*
X153946803Y-83098066D01*
X153895913Y-83108800D01*
X130682000Y-83108800D01*
X130613879Y-83088798D01*
X130567386Y-83035142D01*
X130556000Y-82982800D01*
X130556000Y-82188613D01*
X130890350Y-82188613D01*
X130891514Y-82197515D01*
X130891514Y-82197518D01*
X130897749Y-82245200D01*
X130907349Y-82318612D01*
X130960152Y-82438616D01*
X130996062Y-82481336D01*
X131037112Y-82530170D01*
X131044513Y-82538975D01*
X131051984Y-82543948D01*
X131051985Y-82543949D01*
X131076063Y-82559977D01*
X131153651Y-82611624D01*
X131217510Y-82631575D01*
X131270223Y-82648044D01*
X131270224Y-82648044D01*
X131278792Y-82650721D01*
X131343227Y-82651902D01*
X131400900Y-82652959D01*
X131400903Y-82652959D01*
X131409876Y-82653123D01*
X131451269Y-82641838D01*
X131527704Y-82621000D01*
X131527707Y-82620999D01*
X131536366Y-82618638D01*
X131547790Y-82611624D01*
X131640441Y-82554737D01*
X131640444Y-82554734D01*
X131648093Y-82550038D01*
X131681119Y-82513552D01*
X131730050Y-82459493D01*
X131736075Y-82452837D01*
X131746947Y-82430398D01*
X131789326Y-82342926D01*
X131789326Y-82342925D01*
X131793239Y-82334849D01*
X131814991Y-82205560D01*
X131815129Y-82194262D01*
X131809056Y-82151853D01*
X131807065Y-82137951D01*
X133852828Y-82137951D01*
X133853992Y-82146853D01*
X133853992Y-82146856D01*
X133855044Y-82154898D01*
X133869827Y-82267950D01*
X133922630Y-82387954D01*
X133942580Y-82411687D01*
X133998984Y-82478787D01*
X134006991Y-82488313D01*
X134014462Y-82493286D01*
X134014463Y-82493287D01*
X134030219Y-82503775D01*
X134116129Y-82560962D01*
X134200870Y-82587437D01*
X134232701Y-82597382D01*
X134232702Y-82597382D01*
X134241270Y-82600059D01*
X134305705Y-82601240D01*
X134363378Y-82602297D01*
X134363381Y-82602297D01*
X134372354Y-82602461D01*
X134427462Y-82587437D01*
X134490182Y-82570338D01*
X134490185Y-82570337D01*
X134498844Y-82567976D01*
X134510268Y-82560962D01*
X134602919Y-82504075D01*
X134602922Y-82504072D01*
X134610571Y-82499376D01*
X134619462Y-82489554D01*
X134689943Y-82411687D01*
X134698553Y-82402175D01*
X134703104Y-82392783D01*
X134751804Y-82292264D01*
X134751804Y-82292263D01*
X134755717Y-82284187D01*
X134758869Y-82265451D01*
X137662828Y-82265451D01*
X137663992Y-82274353D01*
X137663992Y-82274356D01*
X137665044Y-82282398D01*
X137679827Y-82395450D01*
X137732630Y-82515454D01*
X137773134Y-82563639D01*
X137805630Y-82602297D01*
X137816991Y-82615813D01*
X137824462Y-82620786D01*
X137824463Y-82620787D01*
X137835538Y-82628159D01*
X137926129Y-82688462D01*
X138015572Y-82716406D01*
X138042701Y-82724882D01*
X138042702Y-82724882D01*
X138051270Y-82727559D01*
X138115705Y-82728740D01*
X138173378Y-82729797D01*
X138173381Y-82729797D01*
X138182354Y-82729961D01*
X138223747Y-82718676D01*
X138300182Y-82697838D01*
X138300185Y-82697837D01*
X138308844Y-82695476D01*
X138320268Y-82688462D01*
X138412919Y-82631575D01*
X138412922Y-82631572D01*
X138420571Y-82626876D01*
X138431954Y-82614301D01*
X138480233Y-82560962D01*
X138508553Y-82529675D01*
X138516365Y-82513552D01*
X138561804Y-82419764D01*
X138561804Y-82419763D01*
X138565717Y-82411687D01*
X138569037Y-82391951D01*
X150616828Y-82391951D01*
X150617992Y-82400853D01*
X150617992Y-82400856D01*
X150624790Y-82452837D01*
X150633827Y-82521950D01*
X150686630Y-82641954D01*
X150709849Y-82669576D01*
X150758623Y-82727599D01*
X150770991Y-82742313D01*
X150778462Y-82747286D01*
X150778463Y-82747287D01*
X150794661Y-82758069D01*
X150880129Y-82814962D01*
X150953757Y-82837965D01*
X150996701Y-82851382D01*
X150996702Y-82851382D01*
X151005270Y-82854059D01*
X151069705Y-82855240D01*
X151127378Y-82856297D01*
X151127381Y-82856297D01*
X151136354Y-82856461D01*
X151177747Y-82845176D01*
X151254182Y-82824338D01*
X151254185Y-82824337D01*
X151262844Y-82821976D01*
X151274268Y-82814962D01*
X151366919Y-82758075D01*
X151366922Y-82758072D01*
X151374571Y-82753376D01*
X151393436Y-82732535D01*
X151454068Y-82665549D01*
X151462553Y-82656175D01*
X151466493Y-82648044D01*
X151515804Y-82546264D01*
X151515804Y-82546263D01*
X151519717Y-82538187D01*
X151541469Y-82408898D01*
X151541607Y-82397600D01*
X151533777Y-82342926D01*
X151524294Y-82276704D01*
X151524293Y-82276701D01*
X151523021Y-82267818D01*
X151519032Y-82259045D01*
X151472473Y-82156643D01*
X151472471Y-82156640D01*
X151468756Y-82148469D01*
X151383175Y-82049147D01*
X151334006Y-82017277D01*
X151280689Y-81982718D01*
X151280687Y-81982717D01*
X151273158Y-81977837D01*
X151147548Y-81940272D01*
X151138572Y-81940217D01*
X151138571Y-81940217D01*
X151084159Y-81939885D01*
X151016444Y-81939471D01*
X150890385Y-81975499D01*
X150882798Y-81980286D01*
X150882796Y-81980287D01*
X150844828Y-82004243D01*
X150779505Y-82045459D01*
X150692717Y-82143728D01*
X150688903Y-82151851D01*
X150688902Y-82151853D01*
X150686653Y-82156643D01*
X150636998Y-82262405D01*
X150634985Y-82275336D01*
X150618209Y-82383078D01*
X150618209Y-82383082D01*
X150616828Y-82391951D01*
X138569037Y-82391951D01*
X138587469Y-82282398D01*
X138587607Y-82271100D01*
X138577299Y-82199122D01*
X138570294Y-82150204D01*
X138570293Y-82150201D01*
X138569021Y-82141318D01*
X138565307Y-82133149D01*
X138518473Y-82030143D01*
X138518471Y-82030140D01*
X138514756Y-82021969D01*
X138429175Y-81922647D01*
X138376137Y-81888269D01*
X138326689Y-81856218D01*
X138326687Y-81856217D01*
X138319158Y-81851337D01*
X138193548Y-81813772D01*
X138184572Y-81813717D01*
X138184571Y-81813717D01*
X138130159Y-81813385D01*
X138062444Y-81812971D01*
X137936385Y-81848999D01*
X137928798Y-81853786D01*
X137928796Y-81853787D01*
X137918038Y-81860575D01*
X137825505Y-81918959D01*
X137738717Y-82017228D01*
X137734903Y-82025351D01*
X137734902Y-82025353D01*
X137716532Y-82064480D01*
X137682998Y-82135905D01*
X137674662Y-82189445D01*
X137664209Y-82256578D01*
X137664209Y-82256582D01*
X137662828Y-82265451D01*
X134758869Y-82265451D01*
X134777469Y-82154898D01*
X134777607Y-82143600D01*
X134765501Y-82059067D01*
X134760294Y-82022704D01*
X134760293Y-82022701D01*
X134759021Y-82013818D01*
X134755307Y-82005649D01*
X134708473Y-81902643D01*
X134708471Y-81902640D01*
X134704756Y-81894469D01*
X134619175Y-81795147D01*
X134583353Y-81771928D01*
X134516689Y-81728718D01*
X134516687Y-81728717D01*
X134509158Y-81723837D01*
X134383548Y-81686272D01*
X134374572Y-81686217D01*
X134374571Y-81686217D01*
X134320159Y-81685885D01*
X134252444Y-81685471D01*
X134126385Y-81721499D01*
X134118798Y-81726286D01*
X134118796Y-81726287D01*
X134080456Y-81750478D01*
X134015505Y-81791459D01*
X134009563Y-81798187D01*
X133993526Y-81816345D01*
X133928717Y-81889728D01*
X133924903Y-81897851D01*
X133924902Y-81897853D01*
X133903061Y-81944373D01*
X133872998Y-82008405D01*
X133867975Y-82040669D01*
X133854209Y-82129078D01*
X133854209Y-82129082D01*
X133852828Y-82137951D01*
X131807065Y-82137951D01*
X131797816Y-82073366D01*
X131797815Y-82073363D01*
X131796543Y-82064480D01*
X131790387Y-82050940D01*
X131745995Y-81953305D01*
X131745993Y-81953302D01*
X131742278Y-81945131D01*
X131656697Y-81845809D01*
X131621660Y-81823099D01*
X131554211Y-81779380D01*
X131554209Y-81779379D01*
X131546680Y-81774499D01*
X131421070Y-81736934D01*
X131412094Y-81736879D01*
X131412093Y-81736879D01*
X131357681Y-81736547D01*
X131289966Y-81736133D01*
X131163907Y-81772161D01*
X131156320Y-81776948D01*
X131156318Y-81776949D01*
X131136431Y-81789497D01*
X131053027Y-81842121D01*
X130966239Y-81940390D01*
X130962425Y-81948513D01*
X130962424Y-81948515D01*
X130947761Y-81979746D01*
X130910520Y-82059067D01*
X130903018Y-82107249D01*
X130891731Y-82179740D01*
X130891731Y-82179744D01*
X130890350Y-82188613D01*
X130556000Y-82188613D01*
X130556000Y-80976086D01*
X135036600Y-80976086D01*
X135051791Y-81101620D01*
X135111594Y-81259882D01*
X135115895Y-81266140D01*
X135203013Y-81392898D01*
X135207421Y-81399312D01*
X135213091Y-81404363D01*
X135213092Y-81404365D01*
X135328069Y-81506806D01*
X135328072Y-81506808D01*
X135333741Y-81511859D01*
X135483261Y-81591026D01*
X135490626Y-81592876D01*
X135639978Y-81630391D01*
X135639982Y-81630391D01*
X135647349Y-81632242D01*
X135654948Y-81632282D01*
X135654950Y-81632282D01*
X135725292Y-81632650D01*
X135816531Y-81633128D01*
X135827931Y-81630391D01*
X135973662Y-81595404D01*
X135973665Y-81595403D01*
X135981041Y-81593632D01*
X136131382Y-81516036D01*
X136137103Y-81511046D01*
X136137105Y-81511044D01*
X136253147Y-81409814D01*
X136258874Y-81404818D01*
X136292931Y-81356360D01*
X136351785Y-81272619D01*
X136351787Y-81272616D01*
X136356156Y-81266399D01*
X136417612Y-81108771D01*
X136432310Y-80997125D01*
X136434062Y-80983821D01*
X136434062Y-80983820D01*
X136434600Y-80979734D01*
X136434600Y-80976086D01*
X143676600Y-80976086D01*
X143691791Y-81101620D01*
X143751594Y-81259882D01*
X143755895Y-81266140D01*
X143843013Y-81392898D01*
X143847421Y-81399312D01*
X143853091Y-81404363D01*
X143853092Y-81404365D01*
X143968069Y-81506806D01*
X143968072Y-81506808D01*
X143973741Y-81511859D01*
X144123261Y-81591026D01*
X144130626Y-81592876D01*
X144279978Y-81630391D01*
X144279982Y-81630391D01*
X144287349Y-81632242D01*
X144294948Y-81632282D01*
X144294950Y-81632282D01*
X144365292Y-81632650D01*
X144456531Y-81633128D01*
X144467931Y-81630391D01*
X144613662Y-81595404D01*
X144613665Y-81595403D01*
X144621041Y-81593632D01*
X144771382Y-81516036D01*
X144777103Y-81511046D01*
X144777105Y-81511044D01*
X144893147Y-81409814D01*
X144898874Y-81404818D01*
X144932931Y-81356360D01*
X144991785Y-81272619D01*
X144991787Y-81272616D01*
X144996156Y-81266399D01*
X145057612Y-81108771D01*
X145072310Y-80997125D01*
X145074062Y-80983821D01*
X145074062Y-80983820D01*
X145074600Y-80979734D01*
X145074600Y-80918751D01*
X147518028Y-80918751D01*
X147519192Y-80927653D01*
X147519192Y-80927656D01*
X147520244Y-80935698D01*
X147535027Y-81048750D01*
X147587830Y-81168754D01*
X147622420Y-81209904D01*
X147666335Y-81262146D01*
X147672191Y-81269113D01*
X147679662Y-81274086D01*
X147679663Y-81274087D01*
X147695870Y-81284875D01*
X147781329Y-81341762D01*
X147842157Y-81360766D01*
X147897901Y-81378182D01*
X147897902Y-81378182D01*
X147906470Y-81380859D01*
X147970905Y-81382040D01*
X148028578Y-81383097D01*
X148028581Y-81383097D01*
X148037554Y-81383261D01*
X148078947Y-81371976D01*
X148155382Y-81351138D01*
X148155385Y-81351137D01*
X148164044Y-81348776D01*
X148171696Y-81344078D01*
X148268119Y-81284875D01*
X148268122Y-81284872D01*
X148275771Y-81280176D01*
X148282612Y-81272619D01*
X148357728Y-81189631D01*
X148357729Y-81189630D01*
X148363753Y-81182975D01*
X148374625Y-81160536D01*
X148417004Y-81073064D01*
X148417004Y-81073063D01*
X148420917Y-81064987D01*
X148430842Y-81005998D01*
X149697735Y-81005998D01*
X149698899Y-81014900D01*
X149698899Y-81014903D01*
X149703325Y-81048750D01*
X149714734Y-81135997D01*
X149767537Y-81256001D01*
X149851898Y-81356360D01*
X149859369Y-81361333D01*
X149859370Y-81361334D01*
X149875577Y-81372122D01*
X149961036Y-81429009D01*
X150016205Y-81446245D01*
X150077608Y-81465429D01*
X150077609Y-81465429D01*
X150086177Y-81468106D01*
X150150612Y-81469287D01*
X150208285Y-81470344D01*
X150208288Y-81470344D01*
X150217261Y-81470508D01*
X150276587Y-81454334D01*
X150335089Y-81438385D01*
X150335092Y-81438384D01*
X150343751Y-81436023D01*
X150355175Y-81429009D01*
X150441590Y-81375951D01*
X151683628Y-81375951D01*
X151684792Y-81384853D01*
X151684792Y-81384856D01*
X151688056Y-81409814D01*
X151700627Y-81505950D01*
X151753430Y-81625954D01*
X151837791Y-81726313D01*
X151845262Y-81731286D01*
X151845263Y-81731287D01*
X151856249Y-81738600D01*
X151946929Y-81798962D01*
X152031670Y-81825437D01*
X152063501Y-81835382D01*
X152063502Y-81835382D01*
X152072070Y-81838059D01*
X152136505Y-81839240D01*
X152194178Y-81840297D01*
X152194181Y-81840297D01*
X152203154Y-81840461D01*
X152258262Y-81825437D01*
X152320982Y-81808338D01*
X152320985Y-81808337D01*
X152329644Y-81805976D01*
X152347281Y-81795147D01*
X152433719Y-81742075D01*
X152433722Y-81742072D01*
X152441371Y-81737376D01*
X152451409Y-81726287D01*
X152492864Y-81680487D01*
X152529353Y-81640175D01*
X152534094Y-81630391D01*
X152582604Y-81530264D01*
X152582604Y-81530263D01*
X152586517Y-81522187D01*
X152608269Y-81392898D01*
X152608407Y-81381600D01*
X152603085Y-81344439D01*
X152591094Y-81260704D01*
X152591093Y-81260701D01*
X152589821Y-81251818D01*
X152570764Y-81209904D01*
X152539273Y-81140643D01*
X152539271Y-81140640D01*
X152535556Y-81132469D01*
X152449975Y-81033147D01*
X152408090Y-81005998D01*
X152347489Y-80966718D01*
X152347487Y-80966717D01*
X152339958Y-80961837D01*
X152214348Y-80924272D01*
X152205372Y-80924217D01*
X152205371Y-80924217D01*
X152150959Y-80923885D01*
X152083244Y-80923471D01*
X151957185Y-80959499D01*
X151949598Y-80964286D01*
X151949596Y-80964287D01*
X151897551Y-80997125D01*
X151846305Y-81029459D01*
X151759517Y-81127728D01*
X151755703Y-81135851D01*
X151755702Y-81135853D01*
X151740255Y-81168754D01*
X151703798Y-81246405D01*
X151698540Y-81280176D01*
X151685009Y-81367078D01*
X151685009Y-81367082D01*
X151683628Y-81375951D01*
X150441590Y-81375951D01*
X150447826Y-81372122D01*
X150447829Y-81372119D01*
X150455478Y-81367423D01*
X150466748Y-81354973D01*
X150537435Y-81276878D01*
X150543460Y-81270222D01*
X150548072Y-81260704D01*
X150596711Y-81160311D01*
X150596711Y-81160310D01*
X150600624Y-81152234D01*
X150622376Y-81022945D01*
X150622514Y-81011647D01*
X150612324Y-80940492D01*
X150605201Y-80890751D01*
X150605200Y-80890748D01*
X150603928Y-80881865D01*
X150569734Y-80806659D01*
X150553380Y-80770690D01*
X150553378Y-80770687D01*
X150549663Y-80762516D01*
X150464082Y-80663194D01*
X150429002Y-80640456D01*
X150361596Y-80596765D01*
X150361594Y-80596764D01*
X150354065Y-80591884D01*
X150228455Y-80554319D01*
X150219479Y-80554264D01*
X150219478Y-80554264D01*
X150165066Y-80553932D01*
X150097351Y-80553518D01*
X149971292Y-80589546D01*
X149963705Y-80594333D01*
X149963703Y-80594334D01*
X149905350Y-80631152D01*
X149860412Y-80659506D01*
X149773624Y-80757775D01*
X149769810Y-80765898D01*
X149769809Y-80765900D01*
X149756326Y-80794618D01*
X149717905Y-80876452D01*
X149712884Y-80908699D01*
X149699116Y-80997125D01*
X149699116Y-80997129D01*
X149697735Y-81005998D01*
X148430842Y-81005998D01*
X148442669Y-80935698D01*
X148442807Y-80924400D01*
X148434027Y-80863091D01*
X148425494Y-80803504D01*
X148425493Y-80803501D01*
X148424221Y-80794618D01*
X148409625Y-80762516D01*
X148373673Y-80683443D01*
X148373671Y-80683440D01*
X148369956Y-80675269D01*
X148284375Y-80575947D01*
X148253578Y-80555985D01*
X148181889Y-80509518D01*
X148181887Y-80509517D01*
X148174358Y-80504637D01*
X148048748Y-80467072D01*
X148039772Y-80467017D01*
X148039771Y-80467017D01*
X147985359Y-80466685D01*
X147917644Y-80466271D01*
X147791585Y-80502299D01*
X147783998Y-80507086D01*
X147783996Y-80507087D01*
X147776072Y-80512087D01*
X147680705Y-80572259D01*
X147593917Y-80670528D01*
X147590103Y-80678651D01*
X147590102Y-80678653D01*
X147587987Y-80683158D01*
X147538198Y-80789205D01*
X147529700Y-80843783D01*
X147519409Y-80909878D01*
X147519409Y-80909882D01*
X147518028Y-80918751D01*
X145074600Y-80918751D01*
X145074600Y-80078434D01*
X145059409Y-79952900D01*
X144999606Y-79794638D01*
X144960565Y-79737833D01*
X144908081Y-79661467D01*
X144908079Y-79661465D01*
X144903779Y-79655208D01*
X144898108Y-79650155D01*
X144783131Y-79547714D01*
X144783128Y-79547712D01*
X144777459Y-79542661D01*
X144627939Y-79463494D01*
X144617564Y-79460888D01*
X144471222Y-79424129D01*
X144471218Y-79424129D01*
X144463851Y-79422278D01*
X144456252Y-79422238D01*
X144456250Y-79422238D01*
X144385908Y-79421870D01*
X144294669Y-79421392D01*
X144287288Y-79423164D01*
X144137538Y-79459116D01*
X144137535Y-79459117D01*
X144130159Y-79460888D01*
X143979818Y-79538484D01*
X143974097Y-79543474D01*
X143974095Y-79543476D01*
X143881860Y-79623938D01*
X143852326Y-79649702D01*
X143837717Y-79670488D01*
X143765509Y-79773231D01*
X143755044Y-79788121D01*
X143693588Y-79945749D01*
X143676600Y-80074786D01*
X143676600Y-80976086D01*
X136434600Y-80976086D01*
X136434600Y-80078434D01*
X136419409Y-79952900D01*
X136359606Y-79794638D01*
X136320565Y-79737833D01*
X136268081Y-79661467D01*
X136268079Y-79661465D01*
X136263779Y-79655208D01*
X136258108Y-79650155D01*
X136143131Y-79547714D01*
X136143128Y-79547712D01*
X136137459Y-79542661D01*
X135987939Y-79463494D01*
X135977564Y-79460888D01*
X135831222Y-79424129D01*
X135831218Y-79424129D01*
X135823851Y-79422278D01*
X135816252Y-79422238D01*
X135816250Y-79422238D01*
X135745908Y-79421870D01*
X135654669Y-79421392D01*
X135647288Y-79423164D01*
X135497538Y-79459116D01*
X135497535Y-79459117D01*
X135490159Y-79460888D01*
X135339818Y-79538484D01*
X135334097Y-79543474D01*
X135334095Y-79543476D01*
X135241860Y-79623938D01*
X135212326Y-79649702D01*
X135197717Y-79670488D01*
X135125509Y-79773231D01*
X135115044Y-79788121D01*
X135053588Y-79945749D01*
X135036600Y-80074786D01*
X135036600Y-80976086D01*
X130556000Y-80976086D01*
X130556000Y-80092958D01*
X130576002Y-80024837D01*
X130629658Y-79978344D01*
X130699932Y-79968240D01*
X130764512Y-79997734D01*
X130802896Y-80057460D01*
X130806034Y-80072340D01*
X130806678Y-80074645D01*
X130807842Y-80083550D01*
X130860645Y-80203554D01*
X130866421Y-80210425D01*
X130937489Y-80294970D01*
X130945006Y-80303913D01*
X130952477Y-80308886D01*
X130952478Y-80308887D01*
X130968685Y-80319675D01*
X131054144Y-80376562D01*
X131124478Y-80398536D01*
X131170716Y-80412982D01*
X131170717Y-80412982D01*
X131179285Y-80415659D01*
X131243720Y-80416840D01*
X131301393Y-80417897D01*
X131301396Y-80417897D01*
X131310369Y-80418061D01*
X131351843Y-80406754D01*
X131428197Y-80385938D01*
X131428200Y-80385937D01*
X131436859Y-80383576D01*
X131448283Y-80376562D01*
X131540934Y-80319675D01*
X131540937Y-80319672D01*
X131548586Y-80314976D01*
X131636568Y-80217775D01*
X131647440Y-80195336D01*
X131689819Y-80107864D01*
X131689819Y-80107863D01*
X131693732Y-80099787D01*
X131715484Y-79970498D01*
X131715622Y-79959200D01*
X131708365Y-79908528D01*
X131698309Y-79838304D01*
X131698308Y-79838301D01*
X131697036Y-79829418D01*
X131684452Y-79801741D01*
X131646488Y-79718243D01*
X131646486Y-79718240D01*
X131642771Y-79710069D01*
X131557190Y-79610747D01*
X131457791Y-79546319D01*
X131454704Y-79544318D01*
X131454702Y-79544317D01*
X131447173Y-79539437D01*
X131321563Y-79501872D01*
X131312587Y-79501817D01*
X131312586Y-79501817D01*
X131258174Y-79501485D01*
X131190459Y-79501071D01*
X131064400Y-79537099D01*
X131056813Y-79541886D01*
X131056811Y-79541887D01*
X131049787Y-79546319D01*
X130953520Y-79607059D01*
X130866732Y-79705328D01*
X130811013Y-79824005D01*
X130809632Y-79832877D01*
X130806500Y-79852991D01*
X130776256Y-79917224D01*
X130716087Y-79954909D01*
X130645095Y-79954081D01*
X130585820Y-79915004D01*
X130557082Y-79850084D01*
X130556000Y-79833607D01*
X130556000Y-79191551D01*
X136392828Y-79191551D01*
X136393992Y-79200453D01*
X136393992Y-79200456D01*
X136400118Y-79247299D01*
X136409827Y-79321550D01*
X136462630Y-79441554D01*
X136546991Y-79541913D01*
X136554462Y-79546886D01*
X136554463Y-79546887D01*
X136570670Y-79557675D01*
X136656129Y-79614562D01*
X136745572Y-79642506D01*
X136772701Y-79650982D01*
X136772702Y-79650982D01*
X136781270Y-79653659D01*
X136845705Y-79654840D01*
X136903378Y-79655897D01*
X136903381Y-79655897D01*
X136912354Y-79656061D01*
X136954004Y-79644706D01*
X137030182Y-79623938D01*
X137030185Y-79623937D01*
X137038844Y-79621576D01*
X137056481Y-79610747D01*
X137142919Y-79557675D01*
X137142922Y-79557672D01*
X137150571Y-79552976D01*
X137160609Y-79541887D01*
X137232528Y-79462431D01*
X137238553Y-79455775D01*
X137249425Y-79433336D01*
X137291804Y-79345864D01*
X137291804Y-79345863D01*
X137295717Y-79337787D01*
X137317469Y-79208498D01*
X137317538Y-79202849D01*
X137317548Y-79202060D01*
X137317548Y-79202055D01*
X137317607Y-79197200D01*
X137316798Y-79191551D01*
X142793628Y-79191551D01*
X142794792Y-79200453D01*
X142794792Y-79200456D01*
X142800918Y-79247299D01*
X142810627Y-79321550D01*
X142863430Y-79441554D01*
X142947791Y-79541913D01*
X142955262Y-79546886D01*
X142955263Y-79546887D01*
X142971470Y-79557675D01*
X143056929Y-79614562D01*
X143146372Y-79642506D01*
X143173501Y-79650982D01*
X143173502Y-79650982D01*
X143182070Y-79653659D01*
X143246505Y-79654840D01*
X143304178Y-79655897D01*
X143304181Y-79655897D01*
X143313154Y-79656061D01*
X143354804Y-79644706D01*
X143430982Y-79623938D01*
X143430985Y-79623937D01*
X143439644Y-79621576D01*
X143457281Y-79610747D01*
X143543719Y-79557675D01*
X143543722Y-79557672D01*
X143551371Y-79552976D01*
X143561409Y-79541887D01*
X143633328Y-79462431D01*
X143639353Y-79455775D01*
X143650225Y-79433336D01*
X143692604Y-79345864D01*
X143692604Y-79345863D01*
X143696517Y-79337787D01*
X143718269Y-79208498D01*
X143718338Y-79202849D01*
X143718348Y-79202060D01*
X143718348Y-79202055D01*
X143718407Y-79197200D01*
X143713286Y-79161445D01*
X143701094Y-79076304D01*
X143701093Y-79076301D01*
X143699821Y-79067418D01*
X143693665Y-79053878D01*
X143649273Y-78956243D01*
X143649271Y-78956240D01*
X143645556Y-78948069D01*
X143573306Y-78864218D01*
X143565836Y-78855549D01*
X143559975Y-78848747D01*
X143526544Y-78827078D01*
X143457489Y-78782318D01*
X143457487Y-78782317D01*
X143449958Y-78777437D01*
X143324348Y-78739872D01*
X143315372Y-78739817D01*
X143315371Y-78739817D01*
X143260959Y-78739485D01*
X143193244Y-78739071D01*
X143067185Y-78775099D01*
X143059598Y-78779886D01*
X143059596Y-78779887D01*
X143032097Y-78797238D01*
X142956305Y-78845059D01*
X142950363Y-78851787D01*
X142930177Y-78874643D01*
X142869517Y-78943328D01*
X142865703Y-78951451D01*
X142865702Y-78951453D01*
X142848379Y-78988351D01*
X142813798Y-79062005D01*
X142807855Y-79100175D01*
X142795009Y-79182678D01*
X142795009Y-79182682D01*
X142793628Y-79191551D01*
X137316798Y-79191551D01*
X137312486Y-79161445D01*
X137300294Y-79076304D01*
X137300293Y-79076301D01*
X137299021Y-79067418D01*
X137292865Y-79053878D01*
X137248473Y-78956243D01*
X137248471Y-78956240D01*
X137244756Y-78948069D01*
X137172506Y-78864218D01*
X137165036Y-78855549D01*
X137159175Y-78848747D01*
X137125744Y-78827078D01*
X137056689Y-78782318D01*
X137056687Y-78782317D01*
X137049158Y-78777437D01*
X136923548Y-78739872D01*
X136914572Y-78739817D01*
X136914571Y-78739817D01*
X136860159Y-78739485D01*
X136792444Y-78739071D01*
X136666385Y-78775099D01*
X136658798Y-78779886D01*
X136658796Y-78779887D01*
X136631297Y-78797238D01*
X136555505Y-78845059D01*
X136549563Y-78851787D01*
X136529377Y-78874643D01*
X136468717Y-78943328D01*
X136464903Y-78951451D01*
X136464902Y-78951453D01*
X136447579Y-78988351D01*
X136412998Y-79062005D01*
X136407055Y-79100175D01*
X136394209Y-79182678D01*
X136394209Y-79182682D01*
X136392828Y-79191551D01*
X130556000Y-79191551D01*
X130556000Y-78531151D01*
X145384428Y-78531151D01*
X145385592Y-78540053D01*
X145385592Y-78540056D01*
X145391718Y-78586899D01*
X145401427Y-78661150D01*
X145454230Y-78781154D01*
X145475865Y-78806892D01*
X145526961Y-78867677D01*
X145538591Y-78881513D01*
X145546062Y-78886486D01*
X145546063Y-78886487D01*
X145562270Y-78897275D01*
X145647729Y-78954162D01*
X145728760Y-78979478D01*
X145764301Y-78990582D01*
X145764302Y-78990582D01*
X145772870Y-78993259D01*
X145837305Y-78994440D01*
X145894978Y-78995497D01*
X145894981Y-78995497D01*
X145903954Y-78995661D01*
X145963313Y-78979478D01*
X146021782Y-78963538D01*
X146021785Y-78963537D01*
X146030444Y-78961176D01*
X146038096Y-78956478D01*
X146134519Y-78897275D01*
X146134522Y-78897272D01*
X146142171Y-78892576D01*
X146164709Y-78867677D01*
X146193426Y-78835951D01*
X147416428Y-78835951D01*
X147417592Y-78844853D01*
X147417592Y-78844856D01*
X147421487Y-78874643D01*
X147433427Y-78965950D01*
X147486230Y-79085954D01*
X147570591Y-79186313D01*
X147578062Y-79191286D01*
X147578063Y-79191287D01*
X147594247Y-79202060D01*
X147679729Y-79258962D01*
X147769172Y-79286906D01*
X147796301Y-79295382D01*
X147796302Y-79295382D01*
X147804870Y-79298059D01*
X147869305Y-79299240D01*
X147926978Y-79300297D01*
X147926981Y-79300297D01*
X147935954Y-79300461D01*
X147977347Y-79289176D01*
X148053782Y-79268338D01*
X148053785Y-79268337D01*
X148062444Y-79265976D01*
X148073868Y-79258962D01*
X148166519Y-79202075D01*
X148166522Y-79202072D01*
X148174171Y-79197376D01*
X148195820Y-79173458D01*
X148256363Y-79136378D01*
X148327343Y-79137916D01*
X148359053Y-79153128D01*
X148434255Y-79203187D01*
X148441729Y-79208162D01*
X148512063Y-79230136D01*
X148558301Y-79244582D01*
X148558302Y-79244582D01*
X148566870Y-79247259D01*
X148631305Y-79248440D01*
X148688978Y-79249497D01*
X148688981Y-79249497D01*
X148697954Y-79249661D01*
X148739428Y-79238354D01*
X148815782Y-79217538D01*
X148815785Y-79217537D01*
X148824444Y-79215176D01*
X148832096Y-79210478D01*
X148928519Y-79151275D01*
X148928522Y-79151272D01*
X148936171Y-79146576D01*
X149024153Y-79049375D01*
X149050257Y-78995497D01*
X149077404Y-78939464D01*
X149077404Y-78939463D01*
X149081317Y-78931387D01*
X149103069Y-78802098D01*
X149103207Y-78790800D01*
X149094987Y-78733400D01*
X149085894Y-78669904D01*
X149085893Y-78669901D01*
X149084621Y-78661018D01*
X149073732Y-78637069D01*
X149034073Y-78549843D01*
X149034071Y-78549840D01*
X149030356Y-78541669D01*
X148944775Y-78442347D01*
X148908119Y-78418587D01*
X148861836Y-78364753D01*
X148852005Y-78294440D01*
X148881749Y-78229974D01*
X148941623Y-78191823D01*
X148978960Y-78186877D01*
X149089177Y-78188897D01*
X149089180Y-78188897D01*
X149098154Y-78189061D01*
X149139547Y-78177776D01*
X149215982Y-78156938D01*
X149215985Y-78156937D01*
X149224644Y-78154576D01*
X149236068Y-78147562D01*
X149328719Y-78090675D01*
X149328722Y-78090672D01*
X149336371Y-78085976D01*
X149342398Y-78079318D01*
X149342399Y-78079317D01*
X149346580Y-78074698D01*
X149407124Y-78037618D01*
X149478104Y-78039157D01*
X149523975Y-78065324D01*
X149527016Y-78068043D01*
X149532791Y-78074913D01*
X149540262Y-78079886D01*
X149540263Y-78079887D01*
X149556470Y-78090675D01*
X149641929Y-78147562D01*
X149731372Y-78175506D01*
X149758501Y-78183982D01*
X149758502Y-78183982D01*
X149767070Y-78186659D01*
X149831505Y-78187840D01*
X149889178Y-78188897D01*
X149889181Y-78188897D01*
X149898154Y-78189061D01*
X149939547Y-78177776D01*
X150015982Y-78156938D01*
X150015985Y-78156937D01*
X150024644Y-78154576D01*
X150036068Y-78147562D01*
X150128719Y-78090675D01*
X150128722Y-78090672D01*
X150136371Y-78085976D01*
X150142399Y-78079317D01*
X150145469Y-78075925D01*
X150206012Y-78038844D01*
X150276992Y-78040382D01*
X150322864Y-78066549D01*
X150324535Y-78068043D01*
X150330310Y-78074913D01*
X150439448Y-78147562D01*
X150528891Y-78175506D01*
X150556020Y-78183982D01*
X150556021Y-78183982D01*
X150564589Y-78186659D01*
X150629024Y-78187840D01*
X150686697Y-78188897D01*
X150686700Y-78188897D01*
X150695673Y-78189061D01*
X150737066Y-78177776D01*
X150813501Y-78156938D01*
X150813504Y-78156937D01*
X150822163Y-78154576D01*
X150833587Y-78147562D01*
X150926238Y-78090675D01*
X150926241Y-78090672D01*
X150933890Y-78085976D01*
X150945206Y-78073475D01*
X151005748Y-78036393D01*
X151076728Y-78037930D01*
X151122601Y-78064097D01*
X151127021Y-78068048D01*
X151132791Y-78074913D01*
X151241929Y-78147562D01*
X151331372Y-78175506D01*
X151358501Y-78183982D01*
X151358502Y-78183982D01*
X151367070Y-78186659D01*
X151431505Y-78187840D01*
X151489178Y-78188897D01*
X151489181Y-78188897D01*
X151498154Y-78189061D01*
X151539547Y-78177776D01*
X151615982Y-78156938D01*
X151615985Y-78156937D01*
X151624644Y-78154576D01*
X151636068Y-78147562D01*
X151728719Y-78090675D01*
X151728722Y-78090672D01*
X151736371Y-78085976D01*
X151742399Y-78079317D01*
X151818328Y-77995431D01*
X151824353Y-77988775D01*
X151829574Y-77978000D01*
X151877604Y-77878864D01*
X151877604Y-77878863D01*
X151881517Y-77870787D01*
X151903269Y-77741498D01*
X151903407Y-77730200D01*
X151896814Y-77684162D01*
X151886094Y-77609304D01*
X151886093Y-77609301D01*
X151884821Y-77600418D01*
X151867862Y-77563118D01*
X151834273Y-77489243D01*
X151834271Y-77489240D01*
X151830556Y-77481069D01*
X151824696Y-77474268D01*
X151824692Y-77474262D01*
X151771141Y-77412113D01*
X151741827Y-77347451D01*
X151752126Y-77277205D01*
X151773179Y-77245311D01*
X151818328Y-77195431D01*
X151824353Y-77188775D01*
X151835225Y-77166336D01*
X151877604Y-77078864D01*
X151877604Y-77078863D01*
X151881517Y-77070787D01*
X151903269Y-76941498D01*
X151903407Y-76930200D01*
X151893014Y-76857625D01*
X151886094Y-76809304D01*
X151886093Y-76809301D01*
X151884821Y-76800418D01*
X151881107Y-76792249D01*
X151834273Y-76689243D01*
X151834271Y-76689240D01*
X151830556Y-76681069D01*
X151824696Y-76674268D01*
X151824692Y-76674262D01*
X151771141Y-76612113D01*
X151741827Y-76547451D01*
X151752126Y-76477205D01*
X151773179Y-76445311D01*
X151818328Y-76395431D01*
X151824353Y-76388775D01*
X151835225Y-76366336D01*
X151877604Y-76278864D01*
X151877604Y-76278863D01*
X151881517Y-76270787D01*
X151903269Y-76141498D01*
X151903407Y-76130200D01*
X151898044Y-76092751D01*
X154172828Y-76092751D01*
X154173992Y-76101653D01*
X154173992Y-76101656D01*
X154180137Y-76148645D01*
X154189827Y-76222750D01*
X154242630Y-76342754D01*
X154326991Y-76443113D01*
X154334462Y-76448086D01*
X154334463Y-76448087D01*
X154342033Y-76453126D01*
X154436129Y-76515762D01*
X154520870Y-76542237D01*
X154549786Y-76551271D01*
X154608843Y-76590677D01*
X154637148Y-76655201D01*
X154647027Y-76730750D01*
X154699830Y-76850754D01*
X154784191Y-76951113D01*
X154791662Y-76956086D01*
X154791663Y-76956087D01*
X154807847Y-76966860D01*
X154893329Y-77023762D01*
X154963372Y-77045645D01*
X155009901Y-77060182D01*
X155009902Y-77060182D01*
X155018470Y-77062859D01*
X155082905Y-77064040D01*
X155140578Y-77065097D01*
X155140581Y-77065097D01*
X155149554Y-77065261D01*
X155158216Y-77062899D01*
X155167121Y-77061790D01*
X155167504Y-77064868D01*
X155223083Y-77065955D01*
X155282047Y-77105499D01*
X155300555Y-77135384D01*
X155309430Y-77155554D01*
X155393791Y-77255913D01*
X155401262Y-77260886D01*
X155401263Y-77260887D01*
X155417019Y-77271375D01*
X155502929Y-77328562D01*
X155595595Y-77357513D01*
X155628070Y-77367659D01*
X155627411Y-77369768D01*
X155680376Y-77395099D01*
X155717697Y-77455496D01*
X155721126Y-77472505D01*
X155732657Y-77560687D01*
X155735192Y-77580074D01*
X155724192Y-77650213D01*
X155677017Y-77703271D01*
X155669886Y-77707070D01*
X155665585Y-77708299D01*
X155554705Y-77778259D01*
X155467917Y-77876528D01*
X155412198Y-77995205D01*
X155410817Y-78004077D01*
X155393409Y-78115878D01*
X155393409Y-78115882D01*
X155392028Y-78124751D01*
X155393192Y-78133653D01*
X155393192Y-78133656D01*
X155399773Y-78183982D01*
X155409027Y-78254750D01*
X155461830Y-78374754D01*
X155546191Y-78475113D01*
X155553662Y-78480086D01*
X155553663Y-78480087D01*
X155567742Y-78489459D01*
X155655329Y-78547762D01*
X155740070Y-78574237D01*
X155771901Y-78584182D01*
X155771902Y-78584182D01*
X155780470Y-78586859D01*
X155844905Y-78588040D01*
X155902578Y-78589097D01*
X155902581Y-78589097D01*
X155911554Y-78589261D01*
X155966662Y-78574237D01*
X156029382Y-78557138D01*
X156029385Y-78557137D01*
X156038044Y-78554776D01*
X156045696Y-78550078D01*
X156142119Y-78490875D01*
X156142122Y-78490872D01*
X156149771Y-78486176D01*
X156237753Y-78388975D01*
X156248625Y-78366536D01*
X156291004Y-78279064D01*
X156291004Y-78279063D01*
X156294917Y-78270987D01*
X156316669Y-78141698D01*
X156316807Y-78130400D01*
X156301637Y-78024472D01*
X156311779Y-77954205D01*
X156358302Y-77900575D01*
X156364870Y-77897076D01*
X156366375Y-77896666D01*
X156371188Y-77893711D01*
X156371197Y-77893706D01*
X156470450Y-77832765D01*
X156470453Y-77832762D01*
X156478102Y-77828066D01*
X156566084Y-77730865D01*
X156574698Y-77713087D01*
X156619335Y-77620954D01*
X156619335Y-77620953D01*
X156623248Y-77612877D01*
X156645000Y-77483588D01*
X156645138Y-77472290D01*
X156633173Y-77388738D01*
X156627825Y-77351394D01*
X156627824Y-77351391D01*
X156626552Y-77342508D01*
X156622838Y-77334339D01*
X156576004Y-77231333D01*
X156576002Y-77231330D01*
X156572287Y-77223159D01*
X156486706Y-77123837D01*
X156417322Y-77078864D01*
X156384220Y-77057408D01*
X156384218Y-77057407D01*
X156376689Y-77052527D01*
X156253132Y-77015576D01*
X156193598Y-76976895D01*
X156164428Y-76912168D01*
X156164399Y-76911880D01*
X156164407Y-76911200D01*
X156161644Y-76891904D01*
X156147094Y-76790304D01*
X156147093Y-76790301D01*
X156145821Y-76781418D01*
X156142107Y-76773249D01*
X156095273Y-76670243D01*
X156095271Y-76670240D01*
X156091556Y-76662069D01*
X156005975Y-76562747D01*
X155933487Y-76515762D01*
X155903489Y-76496318D01*
X155903487Y-76496317D01*
X155895958Y-76491437D01*
X155770348Y-76453872D01*
X155761372Y-76453817D01*
X155761371Y-76453817D01*
X155707979Y-76453491D01*
X155639244Y-76453071D01*
X155630614Y-76455537D01*
X155625697Y-76456211D01*
X155555492Y-76445640D01*
X155502147Y-76398791D01*
X155493895Y-76383527D01*
X155485674Y-76365445D01*
X155485672Y-76365442D01*
X155481956Y-76357269D01*
X155396375Y-76257947D01*
X155385620Y-76250976D01*
X155293889Y-76191518D01*
X155293887Y-76191517D01*
X155286358Y-76186637D01*
X155277761Y-76184066D01*
X155277759Y-76184065D01*
X155179565Y-76154699D01*
X155120031Y-76116017D01*
X155090940Y-76051845D01*
X155086315Y-76019550D01*
X155079021Y-75968618D01*
X155075307Y-75960449D01*
X155028473Y-75857443D01*
X155028471Y-75857440D01*
X155024756Y-75849269D01*
X154952506Y-75765418D01*
X154945036Y-75756749D01*
X154939175Y-75749947D01*
X154909924Y-75730987D01*
X154836689Y-75683518D01*
X154836687Y-75683517D01*
X154829158Y-75678637D01*
X154703548Y-75641072D01*
X154694572Y-75641017D01*
X154694571Y-75641017D01*
X154640159Y-75640685D01*
X154572444Y-75640271D01*
X154446385Y-75676299D01*
X154438798Y-75681086D01*
X154438796Y-75681087D01*
X154418868Y-75693661D01*
X154335505Y-75746259D01*
X154329563Y-75752987D01*
X154310737Y-75774304D01*
X154248717Y-75844528D01*
X154244903Y-75852651D01*
X154244902Y-75852653D01*
X154231561Y-75881069D01*
X154192998Y-75963205D01*
X154185700Y-76010078D01*
X154174209Y-76083878D01*
X154174209Y-76083882D01*
X154172828Y-76092751D01*
X151898044Y-76092751D01*
X151891816Y-76049261D01*
X151886094Y-76009304D01*
X151886093Y-76009301D01*
X151884821Y-76000418D01*
X151871935Y-75972077D01*
X151834273Y-75889243D01*
X151834271Y-75889240D01*
X151830556Y-75881069D01*
X151824696Y-75874268D01*
X151824692Y-75874262D01*
X151771141Y-75812113D01*
X151741827Y-75747451D01*
X151752126Y-75677205D01*
X151773179Y-75645311D01*
X151792979Y-75623436D01*
X151824353Y-75588775D01*
X151828841Y-75579513D01*
X151877604Y-75478864D01*
X151877604Y-75478863D01*
X151881517Y-75470787D01*
X151903269Y-75341498D01*
X151903407Y-75330200D01*
X151896075Y-75279000D01*
X151886094Y-75209304D01*
X151886093Y-75209301D01*
X151884821Y-75200418D01*
X151873500Y-75175518D01*
X151834273Y-75089243D01*
X151834271Y-75089240D01*
X151830556Y-75081069D01*
X151744975Y-74981747D01*
X151737440Y-74976863D01*
X151642489Y-74915318D01*
X151642487Y-74915317D01*
X151634958Y-74910437D01*
X151509348Y-74872872D01*
X151500372Y-74872817D01*
X151500371Y-74872817D01*
X151445959Y-74872485D01*
X151378244Y-74872071D01*
X151252185Y-74908099D01*
X151244598Y-74912886D01*
X151244596Y-74912887D01*
X151222891Y-74926582D01*
X151141305Y-74978059D01*
X151135363Y-74984787D01*
X151128527Y-74990605D01*
X151127528Y-74989431D01*
X151075851Y-75021959D01*
X151004858Y-75021291D01*
X150959790Y-74991936D01*
X150957598Y-74994448D01*
X150950836Y-74988549D01*
X150944975Y-74981747D01*
X150937440Y-74976863D01*
X150842489Y-74915318D01*
X150842487Y-74915317D01*
X150834958Y-74910437D01*
X150709348Y-74872872D01*
X150700372Y-74872817D01*
X150700371Y-74872817D01*
X150645959Y-74872485D01*
X150578244Y-74872071D01*
X150452185Y-74908099D01*
X150444598Y-74912886D01*
X150444596Y-74912887D01*
X150422891Y-74926582D01*
X150341305Y-74978059D01*
X150335363Y-74984787D01*
X150328527Y-74990605D01*
X150327528Y-74989431D01*
X150275851Y-75021959D01*
X150204858Y-75021291D01*
X150159790Y-74991936D01*
X150157598Y-74994448D01*
X150150836Y-74988549D01*
X150144975Y-74981747D01*
X150137440Y-74976863D01*
X150042489Y-74915318D01*
X150042487Y-74915317D01*
X150034958Y-74910437D01*
X149909348Y-74872872D01*
X149900372Y-74872817D01*
X149900371Y-74872817D01*
X149845959Y-74872485D01*
X149778244Y-74872071D01*
X149652185Y-74908099D01*
X149644598Y-74912886D01*
X149644596Y-74912887D01*
X149622891Y-74926582D01*
X149541305Y-74978059D01*
X149535363Y-74984787D01*
X149528527Y-74990605D01*
X149527528Y-74989431D01*
X149475851Y-75021959D01*
X149404858Y-75021291D01*
X149359790Y-74991936D01*
X149357598Y-74994448D01*
X149350836Y-74988549D01*
X149344975Y-74981747D01*
X149337440Y-74976863D01*
X149242489Y-74915318D01*
X149242487Y-74915317D01*
X149234958Y-74910437D01*
X149109348Y-74872872D01*
X149100372Y-74872817D01*
X149100371Y-74872817D01*
X149045959Y-74872485D01*
X148978244Y-74872071D01*
X148852185Y-74908099D01*
X148844598Y-74912886D01*
X148844596Y-74912887D01*
X148822891Y-74926582D01*
X148741305Y-74978059D01*
X148654517Y-75076328D01*
X148598798Y-75195005D01*
X148591845Y-75239660D01*
X148580009Y-75315678D01*
X148580009Y-75315682D01*
X148578628Y-75324551D01*
X148579792Y-75333453D01*
X148579792Y-75333456D01*
X148581471Y-75346292D01*
X148595627Y-75454550D01*
X148648430Y-75574554D01*
X148654205Y-75581424D01*
X148654208Y-75581429D01*
X148711506Y-75649593D01*
X148740027Y-75714608D01*
X148728871Y-75784723D01*
X148709496Y-75814076D01*
X148654517Y-75876328D01*
X148650703Y-75884451D01*
X148650702Y-75884453D01*
X148645574Y-75895376D01*
X148598798Y-75995005D01*
X148593697Y-76027770D01*
X148580009Y-76115678D01*
X148580009Y-76115682D01*
X148578628Y-76124551D01*
X148579792Y-76133453D01*
X148579792Y-76133456D01*
X148581834Y-76149072D01*
X148595627Y-76254550D01*
X148648430Y-76374554D01*
X148654205Y-76381424D01*
X148654208Y-76381429D01*
X148711506Y-76449593D01*
X148740027Y-76514608D01*
X148728871Y-76584723D01*
X148709496Y-76614076D01*
X148654517Y-76676328D01*
X148650703Y-76684451D01*
X148650702Y-76684453D01*
X148641249Y-76704587D01*
X148598798Y-76795005D01*
X148591445Y-76842233D01*
X148580009Y-76915678D01*
X148580009Y-76915682D01*
X148578628Y-76924551D01*
X148579792Y-76933453D01*
X148579792Y-76933456D01*
X148584160Y-76966860D01*
X148595627Y-77054550D01*
X148648430Y-77174554D01*
X148654205Y-77181424D01*
X148654208Y-77181429D01*
X148711506Y-77249593D01*
X148740027Y-77314608D01*
X148728871Y-77384723D01*
X148709496Y-77414076D01*
X148654517Y-77476328D01*
X148650703Y-77484451D01*
X148650702Y-77484453D01*
X148634048Y-77519926D01*
X148598798Y-77595005D01*
X148593994Y-77625859D01*
X148580009Y-77715678D01*
X148580009Y-77715682D01*
X148578628Y-77724551D01*
X148579792Y-77733453D01*
X148579792Y-77733456D01*
X148580261Y-77737043D01*
X148595627Y-77854550D01*
X148648430Y-77974554D01*
X148665789Y-77995205D01*
X148724731Y-78065324D01*
X148732791Y-78074913D01*
X148740262Y-78079886D01*
X148740263Y-78079887D01*
X148774315Y-78102554D01*
X148819938Y-78156952D01*
X148828908Y-78227379D01*
X148798379Y-78291477D01*
X148738042Y-78328893D01*
X148703727Y-78333439D01*
X148578044Y-78332671D01*
X148451985Y-78368699D01*
X148444398Y-78373486D01*
X148444396Y-78373487D01*
X148409300Y-78395631D01*
X148341105Y-78438659D01*
X148335163Y-78445387D01*
X148324731Y-78457199D01*
X148264645Y-78495017D01*
X148193652Y-78494347D01*
X148161758Y-78479523D01*
X148080292Y-78426720D01*
X148080290Y-78426719D01*
X148072758Y-78421837D01*
X147947148Y-78384272D01*
X147938172Y-78384217D01*
X147938171Y-78384217D01*
X147883759Y-78383885D01*
X147816044Y-78383471D01*
X147689985Y-78419499D01*
X147682398Y-78424286D01*
X147682396Y-78424287D01*
X147630234Y-78457199D01*
X147579105Y-78489459D01*
X147492317Y-78587728D01*
X147436598Y-78706405D01*
X147431128Y-78741538D01*
X147417809Y-78827078D01*
X147417809Y-78827082D01*
X147416428Y-78835951D01*
X146193426Y-78835951D01*
X146219728Y-78806892D01*
X146230153Y-78795375D01*
X146234704Y-78785983D01*
X146283404Y-78685464D01*
X146283404Y-78685463D01*
X146287317Y-78677387D01*
X146309069Y-78548098D01*
X146309207Y-78536800D01*
X146303127Y-78494347D01*
X146291894Y-78415904D01*
X146291893Y-78415901D01*
X146290621Y-78407018D01*
X146286907Y-78398849D01*
X146240073Y-78295843D01*
X146240071Y-78295840D01*
X146236356Y-78287669D01*
X146171291Y-78212157D01*
X146141977Y-78147494D01*
X146152276Y-78077248D01*
X146173328Y-78045354D01*
X146230153Y-77982575D01*
X146234704Y-77973183D01*
X146283404Y-77872664D01*
X146283404Y-77872663D01*
X146287317Y-77864587D01*
X146309069Y-77735298D01*
X146309207Y-77724000D01*
X146303885Y-77686839D01*
X146291894Y-77603104D01*
X146291893Y-77603101D01*
X146290621Y-77594218D01*
X146276481Y-77563118D01*
X146240073Y-77483043D01*
X146240071Y-77483040D01*
X146236356Y-77474869D01*
X146150775Y-77375547D01*
X146107429Y-77347451D01*
X146048289Y-77309118D01*
X146048287Y-77309117D01*
X146040758Y-77304237D01*
X145915148Y-77266672D01*
X145906172Y-77266617D01*
X145906171Y-77266617D01*
X145851759Y-77266285D01*
X145784044Y-77265871D01*
X145657985Y-77301899D01*
X145650398Y-77306686D01*
X145650396Y-77306687D01*
X145612443Y-77330634D01*
X145547105Y-77371859D01*
X145460317Y-77470128D01*
X145456503Y-77478251D01*
X145456502Y-77478253D01*
X145434661Y-77524773D01*
X145404598Y-77588805D01*
X145399575Y-77621069D01*
X145385809Y-77709478D01*
X145385809Y-77709482D01*
X145384428Y-77718351D01*
X145385592Y-77727253D01*
X145385592Y-77727256D01*
X145391635Y-77773469D01*
X145401427Y-77848350D01*
X145454230Y-77968354D01*
X145514776Y-78040382D01*
X145522819Y-78049950D01*
X145551340Y-78114966D01*
X145540184Y-78185081D01*
X145520810Y-78214433D01*
X145460317Y-78282928D01*
X145404598Y-78401605D01*
X145399457Y-78434623D01*
X145385809Y-78522278D01*
X145385809Y-78522282D01*
X145384428Y-78531151D01*
X130556000Y-78531151D01*
X130556000Y-77972351D01*
X133395628Y-77972351D01*
X133396792Y-77981253D01*
X133396792Y-77981256D01*
X133402444Y-78024473D01*
X133412627Y-78102350D01*
X133465430Y-78222354D01*
X133549791Y-78322713D01*
X133557262Y-78327686D01*
X133557263Y-78327687D01*
X133573470Y-78338475D01*
X133658929Y-78395362D01*
X133743670Y-78421837D01*
X133775501Y-78431782D01*
X133775502Y-78431782D01*
X133784070Y-78434459D01*
X133848505Y-78435640D01*
X133906178Y-78436697D01*
X133906181Y-78436697D01*
X133915154Y-78436861D01*
X133970262Y-78421837D01*
X134032982Y-78404738D01*
X134032985Y-78404737D01*
X134041644Y-78402376D01*
X134049296Y-78397678D01*
X134145719Y-78338475D01*
X134145722Y-78338472D01*
X134153371Y-78333776D01*
X134241353Y-78236575D01*
X134245809Y-78227379D01*
X134294604Y-78126664D01*
X134294604Y-78126663D01*
X134298517Y-78118587D01*
X134320269Y-77989298D01*
X134320407Y-77978000D01*
X134315286Y-77942245D01*
X134303094Y-77857104D01*
X134303093Y-77857101D01*
X134301821Y-77848218D01*
X134294795Y-77832765D01*
X134251273Y-77737043D01*
X134251271Y-77737040D01*
X134247556Y-77728869D01*
X134161975Y-77629547D01*
X134122601Y-77604026D01*
X134059489Y-77563118D01*
X134059487Y-77563117D01*
X134051958Y-77558237D01*
X133926348Y-77520672D01*
X133917372Y-77520617D01*
X133917371Y-77520617D01*
X133862959Y-77520285D01*
X133795244Y-77519871D01*
X133669185Y-77555899D01*
X133661598Y-77560686D01*
X133661596Y-77560687D01*
X133621400Y-77586049D01*
X133558305Y-77625859D01*
X133471517Y-77724128D01*
X133467703Y-77732251D01*
X133467702Y-77732253D01*
X133465453Y-77737043D01*
X133415798Y-77842805D01*
X133410184Y-77878864D01*
X133397009Y-77963478D01*
X133397009Y-77963482D01*
X133395628Y-77972351D01*
X130556000Y-77972351D01*
X130556000Y-77007151D01*
X134665628Y-77007151D01*
X134666792Y-77016053D01*
X134666792Y-77016056D01*
X134672934Y-77063023D01*
X134682627Y-77137150D01*
X134735430Y-77257154D01*
X134819791Y-77357513D01*
X134827262Y-77362486D01*
X134827263Y-77362487D01*
X134837989Y-77369627D01*
X134928929Y-77430162D01*
X135010018Y-77455496D01*
X135045501Y-77466582D01*
X135045502Y-77466582D01*
X135054070Y-77469259D01*
X135118505Y-77470440D01*
X135176178Y-77471497D01*
X135176181Y-77471497D01*
X135185154Y-77471661D01*
X135244447Y-77455496D01*
X135302982Y-77439538D01*
X135302985Y-77439537D01*
X135311644Y-77437176D01*
X135323068Y-77430162D01*
X135415719Y-77373275D01*
X135415722Y-77373272D01*
X135423371Y-77368576D01*
X135438924Y-77351394D01*
X135474864Y-77311687D01*
X135511353Y-77271375D01*
X135515904Y-77261983D01*
X135564604Y-77161464D01*
X135564604Y-77161463D01*
X135568517Y-77153387D01*
X135590269Y-77024098D01*
X135590407Y-77012800D01*
X135582323Y-76956351D01*
X138272428Y-76956351D01*
X138273592Y-76965253D01*
X138273592Y-76965256D01*
X138279809Y-77012800D01*
X138289427Y-77086350D01*
X138342230Y-77206354D01*
X138426591Y-77306713D01*
X138434062Y-77311686D01*
X138434063Y-77311687D01*
X138450270Y-77322475D01*
X138535729Y-77379362D01*
X138625172Y-77407306D01*
X138652301Y-77415782D01*
X138652302Y-77415782D01*
X138660870Y-77418459D01*
X138725305Y-77419640D01*
X138782978Y-77420697D01*
X138782981Y-77420697D01*
X138791954Y-77420861D01*
X138841376Y-77407387D01*
X138909782Y-77388738D01*
X138909785Y-77388737D01*
X138918444Y-77386376D01*
X138936081Y-77375547D01*
X139022519Y-77322475D01*
X139022522Y-77322472D01*
X139030171Y-77317776D01*
X139040209Y-77306687D01*
X139081426Y-77261151D01*
X142539628Y-77261151D01*
X142540792Y-77270053D01*
X142540792Y-77270056D01*
X142541727Y-77277205D01*
X142556627Y-77391150D01*
X142609430Y-77511154D01*
X142647042Y-77555899D01*
X142682161Y-77597677D01*
X142693791Y-77611513D01*
X142701262Y-77616486D01*
X142701263Y-77616487D01*
X142713546Y-77624663D01*
X142802929Y-77684162D01*
X142883960Y-77709478D01*
X142919501Y-77720582D01*
X142919502Y-77720582D01*
X142928070Y-77723259D01*
X142992505Y-77724440D01*
X143050178Y-77725497D01*
X143050181Y-77725497D01*
X143059154Y-77725661D01*
X143118513Y-77709478D01*
X143176982Y-77693538D01*
X143176985Y-77693537D01*
X143185644Y-77691176D01*
X143197068Y-77684162D01*
X143289719Y-77627275D01*
X143289722Y-77627272D01*
X143297371Y-77622576D01*
X143309385Y-77609304D01*
X143379328Y-77532031D01*
X143385353Y-77525375D01*
X143396225Y-77502936D01*
X143438604Y-77415464D01*
X143438604Y-77415463D01*
X143442517Y-77407387D01*
X143464269Y-77278098D01*
X143464407Y-77266800D01*
X143448476Y-77155554D01*
X143447094Y-77145904D01*
X143447093Y-77145901D01*
X143445821Y-77137018D01*
X143439665Y-77123478D01*
X143395273Y-77025843D01*
X143395271Y-77025840D01*
X143391556Y-77017669D01*
X143305975Y-76918347D01*
X143256806Y-76886477D01*
X143203489Y-76851918D01*
X143203487Y-76851917D01*
X143195958Y-76847037D01*
X143070348Y-76809472D01*
X143061372Y-76809417D01*
X143061371Y-76809417D01*
X143006959Y-76809085D01*
X142939244Y-76808671D01*
X142813185Y-76844699D01*
X142805598Y-76849486D01*
X142805596Y-76849487D01*
X142765400Y-76874849D01*
X142702305Y-76914659D01*
X142615517Y-77012928D01*
X142611703Y-77021051D01*
X142611702Y-77021053D01*
X142608022Y-77028892D01*
X142559798Y-77131605D01*
X142553111Y-77174554D01*
X142541009Y-77252278D01*
X142541009Y-77252282D01*
X142539628Y-77261151D01*
X139081426Y-77261151D01*
X139112128Y-77227231D01*
X139118153Y-77220575D01*
X139129025Y-77198136D01*
X139171404Y-77110664D01*
X139171404Y-77110663D01*
X139175317Y-77102587D01*
X139197069Y-76973298D01*
X139197207Y-76962000D01*
X139191391Y-76921387D01*
X139179894Y-76841104D01*
X139179893Y-76841101D01*
X139178621Y-76832218D01*
X139169449Y-76812045D01*
X139128073Y-76721043D01*
X139128071Y-76721040D01*
X139124356Y-76712869D01*
X139038775Y-76613547D01*
X138999721Y-76588233D01*
X138936289Y-76547118D01*
X138936287Y-76547117D01*
X138928758Y-76542237D01*
X138803148Y-76504672D01*
X138794172Y-76504617D01*
X138794171Y-76504617D01*
X138739759Y-76504285D01*
X138672044Y-76503871D01*
X138545985Y-76539899D01*
X138538398Y-76544686D01*
X138538396Y-76544687D01*
X138485505Y-76578059D01*
X138435105Y-76609859D01*
X138348317Y-76708128D01*
X138344503Y-76716251D01*
X138344502Y-76716253D01*
X138327625Y-76752200D01*
X138292598Y-76826805D01*
X138285954Y-76869478D01*
X138273809Y-76947478D01*
X138273809Y-76947482D01*
X138272428Y-76956351D01*
X135582323Y-76956351D01*
X135581052Y-76947478D01*
X135573094Y-76891904D01*
X135573093Y-76891901D01*
X135571821Y-76883018D01*
X135565665Y-76869478D01*
X135521273Y-76771843D01*
X135521271Y-76771840D01*
X135517556Y-76763669D01*
X135431975Y-76664347D01*
X135353601Y-76613547D01*
X135329489Y-76597918D01*
X135329487Y-76597917D01*
X135321958Y-76593037D01*
X135196348Y-76555472D01*
X135187372Y-76555417D01*
X135187371Y-76555417D01*
X135132959Y-76555085D01*
X135065244Y-76554671D01*
X134939185Y-76590699D01*
X134931598Y-76595486D01*
X134931596Y-76595487D01*
X134873243Y-76632305D01*
X134828305Y-76660659D01*
X134741517Y-76758928D01*
X134737703Y-76767051D01*
X134737702Y-76767053D01*
X134715861Y-76813573D01*
X134685798Y-76877605D01*
X134684417Y-76886477D01*
X134667009Y-76998278D01*
X134667009Y-76998282D01*
X134665628Y-77007151D01*
X130556000Y-77007151D01*
X130556000Y-75632028D01*
X130569882Y-75584751D01*
X144470028Y-75584751D01*
X144471192Y-75593653D01*
X144471192Y-75593656D01*
X144477729Y-75643645D01*
X144487027Y-75714750D01*
X144539830Y-75834754D01*
X144624191Y-75935113D01*
X144631662Y-75940086D01*
X144631663Y-75940087D01*
X144647870Y-75950875D01*
X144733329Y-76007762D01*
X144822772Y-76035706D01*
X144849901Y-76044182D01*
X144849902Y-76044182D01*
X144858470Y-76046859D01*
X144922905Y-76048040D01*
X144980578Y-76049097D01*
X144980581Y-76049097D01*
X144989554Y-76049261D01*
X145038976Y-76035787D01*
X145107382Y-76017138D01*
X145107385Y-76017137D01*
X145116044Y-76014776D01*
X145123696Y-76010078D01*
X145220119Y-75950875D01*
X145220122Y-75950872D01*
X145227771Y-75946176D01*
X145259347Y-75911292D01*
X145279026Y-75889551D01*
X147213228Y-75889551D01*
X147214392Y-75898453D01*
X147214392Y-75898456D01*
X147215194Y-75904587D01*
X147230227Y-76019550D01*
X147283030Y-76139554D01*
X147288806Y-76146425D01*
X147359874Y-76230970D01*
X147367391Y-76239913D01*
X147374862Y-76244886D01*
X147374863Y-76244887D01*
X147387146Y-76253063D01*
X147476529Y-76312562D01*
X147546863Y-76334536D01*
X147593101Y-76348982D01*
X147593102Y-76348982D01*
X147601670Y-76351659D01*
X147666105Y-76352840D01*
X147723778Y-76353897D01*
X147723781Y-76353897D01*
X147732754Y-76354061D01*
X147774228Y-76342754D01*
X147850582Y-76321938D01*
X147850585Y-76321937D01*
X147859244Y-76319576D01*
X147870668Y-76312562D01*
X147963319Y-76255675D01*
X147963322Y-76255672D01*
X147970971Y-76250976D01*
X148058953Y-76153775D01*
X148068798Y-76133456D01*
X148112204Y-76043864D01*
X148112204Y-76043863D01*
X148116117Y-76035787D01*
X148137869Y-75906498D01*
X148138007Y-75895200D01*
X148127515Y-75821938D01*
X148120694Y-75774304D01*
X148120693Y-75774301D01*
X148119421Y-75765418D01*
X148115707Y-75757249D01*
X148068873Y-75654243D01*
X148068871Y-75654240D01*
X148065156Y-75646069D01*
X147979575Y-75546747D01*
X147897233Y-75493375D01*
X147877089Y-75480318D01*
X147877087Y-75480317D01*
X147869558Y-75475437D01*
X147743948Y-75437872D01*
X147734972Y-75437817D01*
X147734971Y-75437817D01*
X147680559Y-75437485D01*
X147612844Y-75437071D01*
X147486785Y-75473099D01*
X147479198Y-75477886D01*
X147479196Y-75477887D01*
X147467449Y-75485299D01*
X147375905Y-75543059D01*
X147369963Y-75549787D01*
X147348090Y-75574554D01*
X147289117Y-75641328D01*
X147285303Y-75649451D01*
X147285302Y-75649453D01*
X147273856Y-75673833D01*
X147233398Y-75760005D01*
X147227455Y-75798175D01*
X147214609Y-75880678D01*
X147214609Y-75880682D01*
X147213228Y-75889551D01*
X145279026Y-75889551D01*
X145309728Y-75855631D01*
X145315753Y-75848975D01*
X145326625Y-75826536D01*
X145369004Y-75739064D01*
X145369004Y-75739063D01*
X145372917Y-75730987D01*
X145380268Y-75687294D01*
X145411295Y-75623436D01*
X145471920Y-75586489D01*
X145542897Y-75588184D01*
X145574341Y-75603311D01*
X145640255Y-75647187D01*
X145647729Y-75652162D01*
X145727886Y-75677205D01*
X145764301Y-75688582D01*
X145764302Y-75688582D01*
X145772870Y-75691259D01*
X145837305Y-75692440D01*
X145894978Y-75693497D01*
X145894981Y-75693497D01*
X145903954Y-75693661D01*
X145959062Y-75678637D01*
X146021782Y-75661538D01*
X146021785Y-75661537D01*
X146030444Y-75659176D01*
X146038096Y-75654478D01*
X146134519Y-75595275D01*
X146134522Y-75595272D01*
X146142171Y-75590576D01*
X146150451Y-75581429D01*
X146224128Y-75500031D01*
X146230153Y-75493375D01*
X146237184Y-75478864D01*
X146283404Y-75383464D01*
X146283404Y-75383463D01*
X146287317Y-75375387D01*
X146309069Y-75246098D01*
X146309207Y-75234800D01*
X146303113Y-75192249D01*
X146291894Y-75113904D01*
X146291893Y-75113901D01*
X146290621Y-75105018D01*
X146281271Y-75084453D01*
X146240073Y-74993843D01*
X146240071Y-74993840D01*
X146236356Y-74985669D01*
X146150775Y-74886347D01*
X146051376Y-74821919D01*
X146048289Y-74819918D01*
X146048287Y-74819917D01*
X146040758Y-74815037D01*
X145915148Y-74777472D01*
X145906172Y-74777417D01*
X145906171Y-74777417D01*
X145851759Y-74777085D01*
X145784044Y-74776671D01*
X145657985Y-74812699D01*
X145650398Y-74817486D01*
X145650396Y-74817487D01*
X145643372Y-74821919D01*
X145547105Y-74882659D01*
X145460317Y-74980928D01*
X145456503Y-74989051D01*
X145456502Y-74989053D01*
X145441053Y-75021959D01*
X145404598Y-75099605D01*
X145400424Y-75126412D01*
X145398953Y-75135860D01*
X145368708Y-75200093D01*
X145308538Y-75237777D01*
X145237547Y-75236949D01*
X145205920Y-75222207D01*
X145133889Y-75175518D01*
X145133887Y-75175517D01*
X145126358Y-75170637D01*
X145000748Y-75133072D01*
X144991772Y-75133017D01*
X144991771Y-75133017D01*
X144937359Y-75132685D01*
X144869644Y-75132271D01*
X144743585Y-75168299D01*
X144735998Y-75173086D01*
X144735996Y-75173087D01*
X144692679Y-75200418D01*
X144632705Y-75238259D01*
X144545917Y-75336528D01*
X144542103Y-75344651D01*
X144542102Y-75344653D01*
X144535296Y-75359150D01*
X144490198Y-75455205D01*
X144484255Y-75493375D01*
X144471409Y-75575878D01*
X144471409Y-75575882D01*
X144470028Y-75584751D01*
X130569882Y-75584751D01*
X130576002Y-75563907D01*
X130592905Y-75542933D01*
X132125887Y-74009951D01*
X143504828Y-74009951D01*
X143505992Y-74018853D01*
X143505992Y-74018856D01*
X143507044Y-74026898D01*
X143521827Y-74139950D01*
X143574630Y-74259954D01*
X143586584Y-74274175D01*
X143647361Y-74346477D01*
X143658991Y-74360313D01*
X143666462Y-74365286D01*
X143666463Y-74365287D01*
X143677415Y-74372577D01*
X143768129Y-74432962D01*
X143849160Y-74458278D01*
X143884701Y-74469382D01*
X143884702Y-74469382D01*
X143893270Y-74472059D01*
X143957705Y-74473240D01*
X144015378Y-74474297D01*
X144015381Y-74474297D01*
X144024354Y-74474461D01*
X144051167Y-74467151D01*
X147568828Y-74467151D01*
X147569992Y-74476053D01*
X147569992Y-74476056D01*
X147571044Y-74484098D01*
X147585827Y-74597150D01*
X147638630Y-74717154D01*
X147722991Y-74817513D01*
X147730462Y-74822486D01*
X147730463Y-74822487D01*
X147746670Y-74833275D01*
X147832129Y-74890162D01*
X147897025Y-74910437D01*
X147948701Y-74926582D01*
X147948702Y-74926582D01*
X147957270Y-74929259D01*
X148021705Y-74930440D01*
X148079378Y-74931497D01*
X148079381Y-74931497D01*
X148088354Y-74931661D01*
X148148300Y-74915318D01*
X148206182Y-74899538D01*
X148206185Y-74899537D01*
X148214844Y-74897176D01*
X148232481Y-74886347D01*
X148318919Y-74833275D01*
X148318922Y-74833272D01*
X148326571Y-74828576D01*
X148336609Y-74817487D01*
X148389311Y-74759262D01*
X148414553Y-74731375D01*
X148425425Y-74708936D01*
X148467804Y-74621464D01*
X148467804Y-74621463D01*
X148471717Y-74613387D01*
X148493469Y-74484098D01*
X148493607Y-74472800D01*
X148494647Y-74472813D01*
X148509077Y-74408431D01*
X148559593Y-74358545D01*
X148586142Y-74347946D01*
X148612580Y-74340738D01*
X148621244Y-74338376D01*
X148628896Y-74333678D01*
X148725319Y-74274475D01*
X148725322Y-74274472D01*
X148732971Y-74269776D01*
X148741862Y-74259954D01*
X148814928Y-74179231D01*
X148820953Y-74172575D01*
X148824867Y-74164497D01*
X148824870Y-74164492D01*
X148832487Y-74148772D01*
X148880190Y-74096190D01*
X148948749Y-74077745D01*
X149016396Y-74099294D01*
X149061206Y-74152965D01*
X149085930Y-74209154D01*
X149170291Y-74309513D01*
X149177762Y-74314486D01*
X149177763Y-74314487D01*
X149193970Y-74325275D01*
X149279429Y-74382162D01*
X149353156Y-74405196D01*
X149396001Y-74418582D01*
X149396002Y-74418582D01*
X149404570Y-74421259D01*
X149469005Y-74422440D01*
X149526678Y-74423497D01*
X149526681Y-74423497D01*
X149535654Y-74423661D01*
X149587475Y-74409533D01*
X149653482Y-74391538D01*
X149653485Y-74391537D01*
X149662144Y-74389176D01*
X149673568Y-74382162D01*
X149766219Y-74325275D01*
X149766222Y-74325272D01*
X149773871Y-74320576D01*
X149809847Y-74280831D01*
X149823257Y-74266016D01*
X149861853Y-74223375D01*
X149865766Y-74215298D01*
X149869705Y-74209459D01*
X149924381Y-74164171D01*
X149994863Y-74155632D01*
X150058771Y-74186554D01*
X150076351Y-74207611D01*
X150077030Y-74209154D01*
X150161391Y-74309513D01*
X150168862Y-74314486D01*
X150168863Y-74314487D01*
X150185070Y-74325275D01*
X150270529Y-74382162D01*
X150344256Y-74405196D01*
X150387101Y-74418582D01*
X150387102Y-74418582D01*
X150395670Y-74421259D01*
X150460105Y-74422440D01*
X150517778Y-74423497D01*
X150517781Y-74423497D01*
X150526754Y-74423661D01*
X150578575Y-74409533D01*
X150644582Y-74391538D01*
X150644585Y-74391537D01*
X150653244Y-74389176D01*
X150672771Y-74377187D01*
X150714264Y-74351710D01*
X150782781Y-74333112D01*
X150850011Y-74354198D01*
X150853233Y-74356343D01*
X150930929Y-74408062D01*
X151018042Y-74435278D01*
X151047501Y-74444482D01*
X151047502Y-74444482D01*
X151056070Y-74447159D01*
X151120505Y-74448340D01*
X151178178Y-74449397D01*
X151178181Y-74449397D01*
X151187154Y-74449561D01*
X151248039Y-74432962D01*
X151304982Y-74417438D01*
X151304985Y-74417437D01*
X151313644Y-74415076D01*
X151329736Y-74405196D01*
X151402835Y-74360313D01*
X151415071Y-74352800D01*
X151483588Y-74334202D01*
X151550818Y-74355288D01*
X151607287Y-74392877D01*
X151621772Y-74402519D01*
X151681755Y-74421259D01*
X151738344Y-74438939D01*
X151738345Y-74438939D01*
X151746913Y-74441616D01*
X151811348Y-74442797D01*
X151869021Y-74443854D01*
X151869024Y-74443854D01*
X151877997Y-74444018D01*
X151940848Y-74426883D01*
X152011829Y-74428262D01*
X152070798Y-74467799D01*
X152080251Y-74480884D01*
X152083632Y-74488567D01*
X152167993Y-74588926D01*
X152175464Y-74593899D01*
X152175465Y-74593900D01*
X152184805Y-74600117D01*
X152277131Y-74661575D01*
X152334822Y-74679599D01*
X152393703Y-74697995D01*
X152393704Y-74697995D01*
X152402272Y-74700672D01*
X152466707Y-74701853D01*
X152524380Y-74702910D01*
X152524383Y-74702910D01*
X152533356Y-74703074D01*
X152578883Y-74690662D01*
X152651184Y-74670951D01*
X152651187Y-74670950D01*
X152659846Y-74668589D01*
X152671270Y-74661575D01*
X152763921Y-74604688D01*
X152763924Y-74604685D01*
X152771573Y-74599989D01*
X152859555Y-74502788D01*
X152866288Y-74488892D01*
X152912806Y-74392877D01*
X152912806Y-74392876D01*
X152916719Y-74384800D01*
X152926067Y-74329237D01*
X154198177Y-74329237D01*
X154199341Y-74338139D01*
X154199341Y-74338142D01*
X154205448Y-74384839D01*
X154215176Y-74459236D01*
X154267979Y-74579240D01*
X154289944Y-74605370D01*
X154345071Y-74670951D01*
X154352340Y-74679599D01*
X154359811Y-74684572D01*
X154359812Y-74684573D01*
X154376019Y-74695361D01*
X154461478Y-74752248D01*
X154542215Y-74777472D01*
X154578050Y-74788668D01*
X154578051Y-74788668D01*
X154586619Y-74791345D01*
X154651054Y-74792526D01*
X154708727Y-74793583D01*
X154708730Y-74793583D01*
X154717703Y-74793747D01*
X154767962Y-74780045D01*
X154835531Y-74761624D01*
X154835534Y-74761623D01*
X154844193Y-74759262D01*
X154855617Y-74752248D01*
X154948268Y-74695361D01*
X154948271Y-74695358D01*
X154955920Y-74690662D01*
X154975900Y-74668589D01*
X155031564Y-74607092D01*
X155043902Y-74593461D01*
X155054774Y-74571022D01*
X155097153Y-74483550D01*
X155097153Y-74483549D01*
X155101066Y-74475473D01*
X155122818Y-74346184D01*
X155122956Y-74334886D01*
X155112678Y-74263119D01*
X155105643Y-74213990D01*
X155105642Y-74213987D01*
X155104370Y-74205104D01*
X155082129Y-74156187D01*
X155053822Y-74093929D01*
X155053820Y-74093926D01*
X155050105Y-74085755D01*
X154964524Y-73986433D01*
X154931149Y-73964800D01*
X154862038Y-73920004D01*
X154862036Y-73920003D01*
X154854507Y-73915123D01*
X154728897Y-73877558D01*
X154719921Y-73877503D01*
X154719920Y-73877503D01*
X154665508Y-73877171D01*
X154597793Y-73876757D01*
X154471734Y-73912785D01*
X154464147Y-73917572D01*
X154464145Y-73917573D01*
X154451902Y-73925298D01*
X154360854Y-73982745D01*
X154274066Y-74081014D01*
X154270252Y-74089137D01*
X154270251Y-74089139D01*
X154255453Y-74120659D01*
X154218347Y-74199691D01*
X154214087Y-74227053D01*
X154199558Y-74320364D01*
X154199558Y-74320368D01*
X154198177Y-74329237D01*
X152926067Y-74329237D01*
X152938471Y-74255511D01*
X152938609Y-74244213D01*
X152926003Y-74156187D01*
X152921296Y-74123317D01*
X152921295Y-74123314D01*
X152920023Y-74114431D01*
X152913141Y-74099294D01*
X152869475Y-74003256D01*
X152869473Y-74003253D01*
X152865758Y-73995082D01*
X152780177Y-73895760D01*
X152770175Y-73889277D01*
X152677691Y-73829331D01*
X152677689Y-73829330D01*
X152670160Y-73824450D01*
X152544550Y-73786885D01*
X152535574Y-73786830D01*
X152535573Y-73786830D01*
X152481161Y-73786498D01*
X152413446Y-73786084D01*
X152357785Y-73801992D01*
X152286791Y-73801480D01*
X152227344Y-73762666D01*
X152217012Y-73748729D01*
X152214116Y-73744200D01*
X152210399Y-73736026D01*
X152124818Y-73636704D01*
X152093411Y-73616347D01*
X152022332Y-73570275D01*
X152022330Y-73570274D01*
X152014801Y-73565394D01*
X151889191Y-73527829D01*
X151880215Y-73527774D01*
X151880214Y-73527774D01*
X151825802Y-73527442D01*
X151758087Y-73527028D01*
X151632028Y-73563056D01*
X151624441Y-73567843D01*
X151624439Y-73567844D01*
X151611801Y-73575818D01*
X151538329Y-73622176D01*
X151537907Y-73622442D01*
X151469623Y-73641876D01*
X151402139Y-73621612D01*
X151323958Y-73570937D01*
X151198348Y-73533372D01*
X151189372Y-73533317D01*
X151189371Y-73533317D01*
X151134959Y-73532985D01*
X151067244Y-73532571D01*
X150941185Y-73568599D01*
X150933597Y-73573387D01*
X150933594Y-73573388D01*
X150887073Y-73602741D01*
X150818788Y-73622176D01*
X150751305Y-73601912D01*
X150663558Y-73545037D01*
X150537948Y-73507472D01*
X150528972Y-73507417D01*
X150528971Y-73507417D01*
X150474559Y-73507085D01*
X150406844Y-73506671D01*
X150280785Y-73542699D01*
X150273198Y-73547486D01*
X150273196Y-73547487D01*
X150214843Y-73584305D01*
X150169905Y-73612659D01*
X150083117Y-73710928D01*
X150079314Y-73719029D01*
X150025206Y-73764975D01*
X149954835Y-73774376D01*
X149890552Y-73744239D01*
X149870273Y-73720545D01*
X149868056Y-73715669D01*
X149831326Y-73673041D01*
X149788336Y-73623149D01*
X149782475Y-73616347D01*
X149714595Y-73572349D01*
X149679989Y-73549918D01*
X149679987Y-73549917D01*
X149672458Y-73545037D01*
X149546848Y-73507472D01*
X149537872Y-73507417D01*
X149537871Y-73507417D01*
X149483459Y-73507085D01*
X149415744Y-73506671D01*
X149289685Y-73542699D01*
X149282098Y-73547486D01*
X149282096Y-73547487D01*
X149223743Y-73584305D01*
X149178805Y-73612659D01*
X149092017Y-73710928D01*
X149088202Y-73719053D01*
X149088201Y-73719055D01*
X149083991Y-73728022D01*
X149036935Y-73781185D01*
X148968607Y-73800467D01*
X148900701Y-73779748D01*
X148855235Y-73726626D01*
X148850253Y-73715669D01*
X148827156Y-73664869D01*
X148741575Y-73565547D01*
X148694506Y-73535038D01*
X148639089Y-73499118D01*
X148639087Y-73499117D01*
X148631558Y-73494237D01*
X148505948Y-73456672D01*
X148496972Y-73456617D01*
X148496971Y-73456617D01*
X148442559Y-73456285D01*
X148374844Y-73455871D01*
X148248785Y-73491899D01*
X148241198Y-73496686D01*
X148241196Y-73496687D01*
X148191839Y-73527829D01*
X148137905Y-73561859D01*
X148051117Y-73660128D01*
X147995398Y-73778805D01*
X147988655Y-73822112D01*
X147977353Y-73894704D01*
X147975228Y-73908351D01*
X147976392Y-73917254D01*
X147976372Y-73918908D01*
X147955539Y-73986780D01*
X147901319Y-74032614D01*
X147885005Y-74038518D01*
X147851015Y-74048232D01*
X147851012Y-74048233D01*
X147842385Y-74050699D01*
X147834798Y-74055486D01*
X147834796Y-74055487D01*
X147781461Y-74089139D01*
X147731505Y-74120659D01*
X147725563Y-74127387D01*
X147700618Y-74155632D01*
X147644717Y-74218928D01*
X147640903Y-74227051D01*
X147640902Y-74227053D01*
X147627541Y-74255511D01*
X147588998Y-74337605D01*
X147584688Y-74365287D01*
X147570209Y-74458278D01*
X147570209Y-74458282D01*
X147568828Y-74467151D01*
X144051167Y-74467151D01*
X144083713Y-74458278D01*
X144142182Y-74442338D01*
X144142185Y-74442337D01*
X144150844Y-74439976D01*
X144162268Y-74432962D01*
X144254919Y-74376075D01*
X144254922Y-74376072D01*
X144262571Y-74371376D01*
X144281035Y-74350978D01*
X144314064Y-74314487D01*
X144350553Y-74274175D01*
X144361425Y-74251736D01*
X144403804Y-74164264D01*
X144403804Y-74164263D01*
X144407717Y-74156187D01*
X144429469Y-74026898D01*
X144429607Y-74015600D01*
X144413419Y-73902562D01*
X144412294Y-73894704D01*
X144412293Y-73894701D01*
X144411021Y-73885818D01*
X144407307Y-73877649D01*
X144360473Y-73774643D01*
X144360471Y-73774640D01*
X144356756Y-73766469D01*
X144271175Y-73667147D01*
X144234702Y-73643506D01*
X144168689Y-73600718D01*
X144168687Y-73600717D01*
X144161158Y-73595837D01*
X144035548Y-73558272D01*
X144026572Y-73558217D01*
X144026571Y-73558217D01*
X143972159Y-73557885D01*
X143904444Y-73557471D01*
X143778385Y-73593499D01*
X143770798Y-73598286D01*
X143770796Y-73598287D01*
X143717650Y-73631820D01*
X143667505Y-73663459D01*
X143580717Y-73761728D01*
X143576903Y-73769851D01*
X143576902Y-73769853D01*
X143567698Y-73789458D01*
X143524998Y-73880405D01*
X143519211Y-73917573D01*
X143506209Y-74001078D01*
X143506209Y-74001082D01*
X143504828Y-74009951D01*
X132125887Y-74009951D01*
X132743275Y-73392563D01*
X132805587Y-73358537D01*
X132834677Y-73355679D01*
X132899154Y-73356861D01*
X132940628Y-73345554D01*
X133016982Y-73324738D01*
X133016985Y-73324737D01*
X133025644Y-73322376D01*
X133033296Y-73317678D01*
X133129719Y-73258475D01*
X133129722Y-73258472D01*
X133137371Y-73253776D01*
X133156235Y-73232936D01*
X133219328Y-73163231D01*
X133225353Y-73156575D01*
X133249063Y-73107638D01*
X133254919Y-73095551D01*
X154223628Y-73095551D01*
X154224792Y-73104453D01*
X154224792Y-73104456D01*
X154225844Y-73112498D01*
X154240627Y-73225550D01*
X154293430Y-73345554D01*
X154377791Y-73445913D01*
X154385262Y-73450886D01*
X154385263Y-73450887D01*
X154397819Y-73459245D01*
X154486929Y-73518562D01*
X154571670Y-73545037D01*
X154603501Y-73554982D01*
X154603502Y-73554982D01*
X154612070Y-73557659D01*
X154676505Y-73558840D01*
X154734178Y-73559897D01*
X154734181Y-73559897D01*
X154743154Y-73560061D01*
X154798262Y-73545037D01*
X154860982Y-73527938D01*
X154860985Y-73527937D01*
X154869644Y-73525576D01*
X154881068Y-73518562D01*
X154973719Y-73461675D01*
X154973722Y-73461672D01*
X154981371Y-73456976D01*
X155069353Y-73359775D01*
X155080225Y-73337336D01*
X155122604Y-73249864D01*
X155122604Y-73249863D01*
X155126517Y-73241787D01*
X155148269Y-73112498D01*
X155148407Y-73101200D01*
X155129821Y-72971418D01*
X155123665Y-72957878D01*
X155079273Y-72860243D01*
X155079271Y-72860240D01*
X155075556Y-72852069D01*
X154999306Y-72763576D01*
X154995836Y-72759549D01*
X154989975Y-72752747D01*
X154890576Y-72688319D01*
X154887489Y-72686318D01*
X154887487Y-72686317D01*
X154879958Y-72681437D01*
X154754348Y-72643872D01*
X154745372Y-72643817D01*
X154745371Y-72643817D01*
X154690959Y-72643485D01*
X154623244Y-72643071D01*
X154497185Y-72679099D01*
X154489598Y-72683886D01*
X154489596Y-72683887D01*
X154482572Y-72688319D01*
X154386305Y-72749059D01*
X154380363Y-72755787D01*
X154361537Y-72777104D01*
X154299517Y-72847328D01*
X154295703Y-72855451D01*
X154295702Y-72855453D01*
X154278379Y-72892351D01*
X154243798Y-72966005D01*
X154242417Y-72974877D01*
X154225009Y-73086678D01*
X154225009Y-73086682D01*
X154223628Y-73095551D01*
X133254919Y-73095551D01*
X133278604Y-73046664D01*
X133278604Y-73046663D01*
X133282517Y-73038587D01*
X133304269Y-72909298D01*
X133304407Y-72898000D01*
X133290095Y-72798061D01*
X133287094Y-72777104D01*
X133287093Y-72777101D01*
X133285821Y-72768218D01*
X133282107Y-72760049D01*
X133235273Y-72657043D01*
X133235271Y-72657040D01*
X133231556Y-72648869D01*
X133145975Y-72549547D01*
X133050811Y-72487864D01*
X133043489Y-72483118D01*
X133043487Y-72483117D01*
X133035958Y-72478237D01*
X132910348Y-72440672D01*
X132901372Y-72440617D01*
X132901371Y-72440617D01*
X132846959Y-72440285D01*
X132779244Y-72439871D01*
X132653185Y-72475899D01*
X132645598Y-72480686D01*
X132645596Y-72480687D01*
X132587243Y-72517505D01*
X132542305Y-72545859D01*
X132455517Y-72644128D01*
X132399798Y-72762805D01*
X132394309Y-72798061D01*
X132381009Y-72883478D01*
X132381009Y-72883482D01*
X132379628Y-72892351D01*
X132380792Y-72901255D01*
X132380683Y-72910226D01*
X132377486Y-72910187D01*
X132368937Y-72964760D01*
X132344087Y-73000074D01*
X131135599Y-74208563D01*
X130771095Y-74573067D01*
X130708783Y-74607092D01*
X130637968Y-74602028D01*
X130581132Y-74559481D01*
X130556321Y-74492961D01*
X130556000Y-74483972D01*
X130556000Y-72922551D01*
X130576002Y-72854430D01*
X130629658Y-72807937D01*
X130684308Y-72796572D01*
X130765554Y-72798061D01*
X130842424Y-72777104D01*
X130883382Y-72765938D01*
X130883385Y-72765937D01*
X130892044Y-72763576D01*
X130909681Y-72752747D01*
X130996119Y-72699675D01*
X130996122Y-72699672D01*
X131003771Y-72694976D01*
X131013809Y-72683887D01*
X131085728Y-72604431D01*
X131091753Y-72597775D01*
X131111824Y-72556349D01*
X131145004Y-72487864D01*
X131145004Y-72487863D01*
X131148917Y-72479787D01*
X131170669Y-72350498D01*
X131170807Y-72339200D01*
X131159889Y-72262961D01*
X131153494Y-72218304D01*
X131153493Y-72218301D01*
X131152221Y-72209418D01*
X131146621Y-72197102D01*
X131101673Y-72098243D01*
X131101671Y-72098240D01*
X131097956Y-72090069D01*
X131012375Y-71990747D01*
X131004840Y-71985863D01*
X130909889Y-71924318D01*
X130909887Y-71924317D01*
X130902358Y-71919437D01*
X130776748Y-71881872D01*
X130767772Y-71881817D01*
X130767771Y-71881817D01*
X130681230Y-71881288D01*
X130613232Y-71860869D01*
X130567068Y-71806931D01*
X130556000Y-71755290D01*
X130556000Y-71714366D01*
X138292700Y-71714366D01*
X138308239Y-71832397D01*
X138311398Y-71840024D01*
X138311399Y-71840027D01*
X138328400Y-71881071D01*
X138369069Y-71979254D01*
X138403030Y-72023513D01*
X138454958Y-72091187D01*
X138465836Y-72105364D01*
X138591945Y-72202131D01*
X138665374Y-72232546D01*
X138731173Y-72259801D01*
X138731176Y-72259802D01*
X138738803Y-72262961D01*
X138896400Y-72283709D01*
X138904588Y-72282631D01*
X139045809Y-72264039D01*
X139053997Y-72262961D01*
X139061624Y-72259802D01*
X139061627Y-72259801D01*
X139127426Y-72232546D01*
X139200854Y-72202131D01*
X139326964Y-72105364D01*
X139343920Y-72083266D01*
X139421437Y-71982244D01*
X139478775Y-71940377D01*
X139549646Y-71936155D01*
X139611549Y-71970919D01*
X139621363Y-71982244D01*
X139708775Y-72096162D01*
X139715836Y-72105364D01*
X139841945Y-72202131D01*
X139915374Y-72232546D01*
X139981173Y-72259801D01*
X139981176Y-72259802D01*
X139988803Y-72262961D01*
X140146400Y-72283709D01*
X140154588Y-72282631D01*
X140295809Y-72264039D01*
X140303997Y-72262961D01*
X140311624Y-72259802D01*
X140311627Y-72259801D01*
X140377426Y-72232546D01*
X140450854Y-72202131D01*
X140576964Y-72105364D01*
X140593920Y-72083266D01*
X140671437Y-71982244D01*
X140728775Y-71940377D01*
X140799646Y-71936155D01*
X140861549Y-71970919D01*
X140871363Y-71982244D01*
X140958775Y-72096162D01*
X140965836Y-72105364D01*
X141091945Y-72202131D01*
X141165374Y-72232546D01*
X141231173Y-72259801D01*
X141231176Y-72259802D01*
X141238803Y-72262961D01*
X141396400Y-72283709D01*
X141404588Y-72282631D01*
X141545809Y-72264039D01*
X141553997Y-72262961D01*
X141561624Y-72259802D01*
X141561627Y-72259801D01*
X141627426Y-72232546D01*
X141700854Y-72202131D01*
X141826964Y-72105364D01*
X141831987Y-72098818D01*
X141831990Y-72098815D01*
X141875964Y-72041506D01*
X141933302Y-71999638D01*
X142004173Y-71995416D01*
X142066076Y-72030179D01*
X142088194Y-72061007D01*
X142109680Y-72103176D01*
X142115729Y-72115047D01*
X142206153Y-72205471D01*
X142320095Y-72263527D01*
X142329885Y-72265078D01*
X142329886Y-72265078D01*
X142356363Y-72269271D01*
X142414630Y-72278500D01*
X142878170Y-72278500D01*
X142936437Y-72269271D01*
X142962914Y-72265078D01*
X142962915Y-72265078D01*
X142972705Y-72263527D01*
X143086647Y-72205471D01*
X143177071Y-72115047D01*
X143235127Y-72001105D01*
X143236952Y-71989587D01*
X143245414Y-71936155D01*
X143250100Y-71906570D01*
X143250100Y-71723951D01*
X144876428Y-71723951D01*
X144877592Y-71732853D01*
X144877592Y-71732856D01*
X144878644Y-71740898D01*
X144893427Y-71853950D01*
X144946230Y-71973954D01*
X145030591Y-72074313D01*
X145038062Y-72079286D01*
X145038063Y-72079287D01*
X145054261Y-72090069D01*
X145139729Y-72146962D01*
X145229172Y-72174906D01*
X145256301Y-72183382D01*
X145256302Y-72183382D01*
X145264870Y-72186059D01*
X145329305Y-72187240D01*
X145386978Y-72188297D01*
X145386981Y-72188297D01*
X145395954Y-72188461D01*
X145437347Y-72177176D01*
X145513782Y-72156338D01*
X145513785Y-72156337D01*
X145522444Y-72153976D01*
X145533868Y-72146962D01*
X145626519Y-72090075D01*
X145626522Y-72090072D01*
X145634171Y-72085376D01*
X145722153Y-71988175D01*
X145730514Y-71970919D01*
X145775404Y-71878264D01*
X145775404Y-71878263D01*
X145779317Y-71870187D01*
X145801069Y-71740898D01*
X145801207Y-71729600D01*
X145800398Y-71723951D01*
X146095628Y-71723951D01*
X146096792Y-71732853D01*
X146096792Y-71732856D01*
X146097844Y-71740898D01*
X146112627Y-71853950D01*
X146165430Y-71973954D01*
X146249791Y-72074313D01*
X146257262Y-72079286D01*
X146257263Y-72079287D01*
X146273461Y-72090069D01*
X146358929Y-72146962D01*
X146448372Y-72174906D01*
X146475501Y-72183382D01*
X146475502Y-72183382D01*
X146484070Y-72186059D01*
X146548505Y-72187240D01*
X146606178Y-72188297D01*
X146606181Y-72188297D01*
X146615154Y-72188461D01*
X146656547Y-72177176D01*
X146732982Y-72156338D01*
X146732985Y-72156337D01*
X146741644Y-72153976D01*
X146753068Y-72146962D01*
X146845719Y-72090075D01*
X146845722Y-72090072D01*
X146853371Y-72085376D01*
X146941353Y-71988175D01*
X146949714Y-71970919D01*
X146994604Y-71878264D01*
X146994604Y-71878263D01*
X146998517Y-71870187D01*
X147020269Y-71740898D01*
X147020407Y-71729600D01*
X147013026Y-71678059D01*
X147003094Y-71608704D01*
X147003093Y-71608701D01*
X147001821Y-71599818D01*
X146995665Y-71586278D01*
X146988969Y-71571551D01*
X147314828Y-71571551D01*
X147315992Y-71580453D01*
X147315992Y-71580456D01*
X147319686Y-71608704D01*
X147331827Y-71701550D01*
X147384630Y-71821554D01*
X147468991Y-71921913D01*
X147476462Y-71926886D01*
X147476463Y-71926887D01*
X147490386Y-71936155D01*
X147578129Y-71994562D01*
X147667572Y-72022506D01*
X147694701Y-72030982D01*
X147694702Y-72030982D01*
X147703270Y-72033659D01*
X147767705Y-72034840D01*
X147825378Y-72035897D01*
X147825381Y-72035897D01*
X147834354Y-72036061D01*
X147905579Y-72016643D01*
X147952182Y-72003938D01*
X147952185Y-72003937D01*
X147960844Y-72001576D01*
X147970877Y-71995416D01*
X148064919Y-71937675D01*
X148064922Y-71937672D01*
X148072571Y-71932976D01*
X148081462Y-71923154D01*
X148154528Y-71842431D01*
X148160553Y-71835775D01*
X148171425Y-71813336D01*
X148213804Y-71725864D01*
X148213804Y-71725863D01*
X148217717Y-71717787D01*
X148239469Y-71588498D01*
X148239538Y-71582849D01*
X148239548Y-71582060D01*
X148239548Y-71582055D01*
X148239607Y-71577200D01*
X148226925Y-71488643D01*
X148222294Y-71456304D01*
X148222293Y-71456301D01*
X148221021Y-71447418D01*
X148217307Y-71439249D01*
X148170473Y-71336243D01*
X148170471Y-71336240D01*
X148166756Y-71328069D01*
X148089573Y-71238493D01*
X148087036Y-71235549D01*
X148081175Y-71228747D01*
X148061433Y-71215951D01*
X149651628Y-71215951D01*
X149652792Y-71224853D01*
X149652792Y-71224856D01*
X149659329Y-71274845D01*
X149668627Y-71345950D01*
X149721430Y-71465954D01*
X149736476Y-71483853D01*
X149794161Y-71552477D01*
X149805791Y-71566313D01*
X149813262Y-71571286D01*
X149813263Y-71571287D01*
X149829447Y-71582060D01*
X149914929Y-71638962D01*
X149995960Y-71664278D01*
X150031501Y-71675382D01*
X150031502Y-71675382D01*
X150040070Y-71678059D01*
X150104505Y-71679240D01*
X150162178Y-71680297D01*
X150162181Y-71680297D01*
X150171154Y-71680461D01*
X150197967Y-71673151D01*
X155290428Y-71673151D01*
X155291592Y-71682053D01*
X155291592Y-71682056D01*
X155297321Y-71725864D01*
X155307427Y-71803150D01*
X155360230Y-71923154D01*
X155444591Y-72023513D01*
X155452062Y-72028486D01*
X155452063Y-72028487D01*
X155463195Y-72035897D01*
X155553729Y-72096162D01*
X155643172Y-72124106D01*
X155670301Y-72132582D01*
X155670302Y-72132582D01*
X155678870Y-72135259D01*
X155743305Y-72136440D01*
X155800978Y-72137497D01*
X155800981Y-72137497D01*
X155809954Y-72137661D01*
X155851347Y-72126376D01*
X155927782Y-72105538D01*
X155927785Y-72105537D01*
X155936444Y-72103176D01*
X155944096Y-72098478D01*
X156040519Y-72039275D01*
X156040522Y-72039272D01*
X156048171Y-72034576D01*
X156078468Y-72001105D01*
X156130128Y-71944031D01*
X156136153Y-71937375D01*
X156141235Y-71926887D01*
X156189404Y-71827464D01*
X156189404Y-71827463D01*
X156193317Y-71819387D01*
X156215069Y-71690098D01*
X156215207Y-71678800D01*
X156209885Y-71641639D01*
X156197894Y-71557904D01*
X156197893Y-71557901D01*
X156196621Y-71549018D01*
X156165558Y-71480699D01*
X156146073Y-71437843D01*
X156146071Y-71437840D01*
X156142356Y-71429669D01*
X156056775Y-71330347D01*
X155971147Y-71274845D01*
X155954289Y-71263918D01*
X155954287Y-71263917D01*
X155946758Y-71259037D01*
X155821148Y-71221472D01*
X155812172Y-71221417D01*
X155812171Y-71221417D01*
X155757759Y-71221085D01*
X155690044Y-71220671D01*
X155563985Y-71256699D01*
X155556398Y-71261486D01*
X155556396Y-71261487D01*
X155535225Y-71274845D01*
X155453105Y-71326659D01*
X155366317Y-71424928D01*
X155362503Y-71433051D01*
X155362502Y-71433053D01*
X155347055Y-71465954D01*
X155310598Y-71543605D01*
X155304611Y-71582060D01*
X155291809Y-71664278D01*
X155291809Y-71664282D01*
X155290428Y-71673151D01*
X150197967Y-71673151D01*
X150230513Y-71664278D01*
X150288982Y-71648338D01*
X150288985Y-71648337D01*
X150297644Y-71645976D01*
X150309068Y-71638962D01*
X150401719Y-71582075D01*
X150401722Y-71582072D01*
X150409371Y-71577376D01*
X150431909Y-71552477D01*
X150491328Y-71486831D01*
X150497353Y-71480175D01*
X150508225Y-71457736D01*
X150550604Y-71370264D01*
X150550604Y-71370263D01*
X150554517Y-71362187D01*
X150576269Y-71232898D01*
X150576407Y-71221600D01*
X150567218Y-71157437D01*
X150559094Y-71100704D01*
X150559093Y-71100701D01*
X150557821Y-71091818D01*
X150551665Y-71078278D01*
X150507273Y-70980643D01*
X150507271Y-70980640D01*
X150503556Y-70972469D01*
X150417975Y-70873147D01*
X150403547Y-70863795D01*
X150315489Y-70806718D01*
X150315487Y-70806717D01*
X150307958Y-70801837D01*
X150182348Y-70764272D01*
X150173372Y-70764217D01*
X150173371Y-70764217D01*
X150118959Y-70763885D01*
X150051244Y-70763471D01*
X149925185Y-70799499D01*
X149917598Y-70804286D01*
X149917596Y-70804287D01*
X149893049Y-70819775D01*
X149814305Y-70869459D01*
X149727517Y-70967728D01*
X149723703Y-70975851D01*
X149723702Y-70975853D01*
X149719137Y-70985576D01*
X149671798Y-71086405D01*
X149666596Y-71119817D01*
X149653009Y-71207078D01*
X149653009Y-71207082D01*
X149651628Y-71215951D01*
X148061433Y-71215951D01*
X148047744Y-71207078D01*
X147978689Y-71162318D01*
X147978687Y-71162317D01*
X147971158Y-71157437D01*
X147845548Y-71119872D01*
X147836572Y-71119817D01*
X147836571Y-71119817D01*
X147782159Y-71119485D01*
X147714444Y-71119071D01*
X147588385Y-71155099D01*
X147580798Y-71159886D01*
X147580796Y-71159887D01*
X147522443Y-71196705D01*
X147477505Y-71225059D01*
X147471563Y-71231787D01*
X147451739Y-71254233D01*
X147390717Y-71323328D01*
X147386903Y-71331451D01*
X147386902Y-71331453D01*
X147373120Y-71360808D01*
X147334998Y-71442005D01*
X147328973Y-71480700D01*
X147316209Y-71562678D01*
X147316209Y-71562682D01*
X147314828Y-71571551D01*
X146988969Y-71571551D01*
X146951273Y-71488643D01*
X146951271Y-71488640D01*
X146947556Y-71480469D01*
X146861975Y-71381147D01*
X146794095Y-71337149D01*
X146759489Y-71314718D01*
X146759487Y-71314717D01*
X146751958Y-71309837D01*
X146626348Y-71272272D01*
X146617372Y-71272217D01*
X146617371Y-71272217D01*
X146562959Y-71271885D01*
X146495244Y-71271471D01*
X146369185Y-71307499D01*
X146361598Y-71312286D01*
X146361596Y-71312287D01*
X146308244Y-71345950D01*
X146258305Y-71377459D01*
X146171517Y-71475728D01*
X146115798Y-71594405D01*
X146114417Y-71603277D01*
X146097009Y-71715078D01*
X146097009Y-71715082D01*
X146095628Y-71723951D01*
X145800398Y-71723951D01*
X145793826Y-71678059D01*
X145783894Y-71608704D01*
X145783893Y-71608701D01*
X145782621Y-71599818D01*
X145776465Y-71586278D01*
X145732073Y-71488643D01*
X145732071Y-71488640D01*
X145728356Y-71480469D01*
X145642775Y-71381147D01*
X145574895Y-71337149D01*
X145540289Y-71314718D01*
X145540287Y-71314717D01*
X145532758Y-71309837D01*
X145407148Y-71272272D01*
X145398172Y-71272217D01*
X145398171Y-71272217D01*
X145343759Y-71271885D01*
X145276044Y-71271471D01*
X145149985Y-71307499D01*
X145142398Y-71312286D01*
X145142396Y-71312287D01*
X145089044Y-71345950D01*
X145039105Y-71377459D01*
X144952317Y-71475728D01*
X144896598Y-71594405D01*
X144895217Y-71603277D01*
X144877809Y-71715078D01*
X144877809Y-71715082D01*
X144876428Y-71723951D01*
X143250100Y-71723951D01*
X143250100Y-70943030D01*
X143238588Y-70870346D01*
X143236678Y-70858286D01*
X143236678Y-70858285D01*
X143235127Y-70848495D01*
X143177071Y-70734553D01*
X143086647Y-70644129D01*
X142972705Y-70586073D01*
X142962915Y-70584522D01*
X142962914Y-70584522D01*
X142936437Y-70580329D01*
X142878170Y-70571100D01*
X142414630Y-70571100D01*
X142356363Y-70580329D01*
X142329886Y-70584522D01*
X142329885Y-70584522D01*
X142320095Y-70586073D01*
X142206153Y-70644129D01*
X142115729Y-70734553D01*
X142111229Y-70743385D01*
X142111227Y-70743388D01*
X142088194Y-70788593D01*
X142039446Y-70840209D01*
X141970531Y-70857275D01*
X141903330Y-70834375D01*
X141875964Y-70808094D01*
X141831994Y-70750790D01*
X141831990Y-70750786D01*
X141826964Y-70744236D01*
X141700855Y-70647469D01*
X141627426Y-70617054D01*
X141561627Y-70589799D01*
X141561624Y-70589798D01*
X141553997Y-70586639D01*
X141396400Y-70565891D01*
X141238803Y-70586639D01*
X141231176Y-70589798D01*
X141231173Y-70589799D01*
X141165374Y-70617054D01*
X141091946Y-70647469D01*
X141022389Y-70700842D01*
X140973966Y-70737998D01*
X140965836Y-70744236D01*
X140960813Y-70750782D01*
X140871363Y-70867356D01*
X140814025Y-70909223D01*
X140743154Y-70913445D01*
X140681251Y-70878681D01*
X140671437Y-70867356D01*
X140581991Y-70750787D01*
X140581990Y-70750786D01*
X140576964Y-70744236D01*
X140450855Y-70647469D01*
X140377426Y-70617054D01*
X140311627Y-70589799D01*
X140311624Y-70589798D01*
X140303997Y-70586639D01*
X140146400Y-70565891D01*
X139988803Y-70586639D01*
X139981176Y-70589798D01*
X139981173Y-70589799D01*
X139915374Y-70617054D01*
X139841946Y-70647469D01*
X139772389Y-70700842D01*
X139723966Y-70737998D01*
X139715836Y-70744236D01*
X139710813Y-70750782D01*
X139621363Y-70867356D01*
X139564025Y-70909223D01*
X139493154Y-70913445D01*
X139431251Y-70878681D01*
X139421437Y-70867356D01*
X139331991Y-70750787D01*
X139331990Y-70750786D01*
X139326964Y-70744236D01*
X139200855Y-70647469D01*
X139127426Y-70617054D01*
X139061627Y-70589799D01*
X139061624Y-70589798D01*
X139053997Y-70586639D01*
X138896400Y-70565891D01*
X138738803Y-70586639D01*
X138731176Y-70589798D01*
X138731173Y-70589799D01*
X138665374Y-70617054D01*
X138591946Y-70647469D01*
X138522389Y-70700842D01*
X138473966Y-70737998D01*
X138465836Y-70744236D01*
X138460813Y-70750782D01*
X138451034Y-70763526D01*
X138369069Y-70870346D01*
X138351217Y-70913445D01*
X138323136Y-70981239D01*
X138308239Y-71017203D01*
X138292700Y-71135234D01*
X138292700Y-71714366D01*
X130556000Y-71714366D01*
X130556000Y-70555551D01*
X133852828Y-70555551D01*
X133853992Y-70564453D01*
X133853992Y-70564456D01*
X133861327Y-70620550D01*
X133869827Y-70685550D01*
X133922630Y-70805554D01*
X134006991Y-70905913D01*
X134014462Y-70910886D01*
X134014463Y-70910887D01*
X134030670Y-70921675D01*
X134116129Y-70978562D01*
X134205572Y-71006506D01*
X134232701Y-71014982D01*
X134232702Y-71014982D01*
X134241270Y-71017659D01*
X134305705Y-71018840D01*
X134363378Y-71019897D01*
X134363381Y-71019897D01*
X134372354Y-71020061D01*
X134413747Y-71008776D01*
X134490182Y-70987938D01*
X134490185Y-70987937D01*
X134498844Y-70985576D01*
X134506496Y-70980878D01*
X134602919Y-70921675D01*
X134602922Y-70921672D01*
X134610571Y-70916976D01*
X134698553Y-70819775D01*
X134704213Y-70808094D01*
X134751804Y-70709864D01*
X134751804Y-70709863D01*
X134755717Y-70701787D01*
X134777469Y-70572498D01*
X134777607Y-70561200D01*
X134770226Y-70509659D01*
X134760294Y-70440304D01*
X134760293Y-70440301D01*
X134759021Y-70431418D01*
X134746049Y-70402887D01*
X134708473Y-70320243D01*
X134708471Y-70320240D01*
X134704756Y-70312069D01*
X134619175Y-70212747D01*
X134557508Y-70172776D01*
X134516689Y-70146318D01*
X134516687Y-70146317D01*
X134509158Y-70141437D01*
X134383548Y-70103872D01*
X134374572Y-70103817D01*
X134374571Y-70103817D01*
X134320159Y-70103485D01*
X134252444Y-70103071D01*
X134126385Y-70139099D01*
X134118798Y-70143886D01*
X134118796Y-70143887D01*
X134083700Y-70166031D01*
X134015505Y-70209059D01*
X133928717Y-70307328D01*
X133924903Y-70315451D01*
X133924902Y-70315453D01*
X133920337Y-70325176D01*
X133872998Y-70426005D01*
X133871617Y-70434877D01*
X133854209Y-70546678D01*
X133854209Y-70546682D01*
X133852828Y-70555551D01*
X130556000Y-70555551D01*
X130556000Y-70331751D01*
X130576002Y-70263630D01*
X130629658Y-70217137D01*
X130684308Y-70205772D01*
X130765554Y-70207261D01*
X130814976Y-70193787D01*
X130883382Y-70175138D01*
X130883385Y-70175137D01*
X130892044Y-70172776D01*
X130899696Y-70168078D01*
X130996119Y-70108875D01*
X130996122Y-70108872D01*
X131003771Y-70104176D01*
X131035347Y-70069292D01*
X131068616Y-70032536D01*
X131091753Y-70006975D01*
X131127931Y-69932304D01*
X131145004Y-69897064D01*
X131145004Y-69897063D01*
X131145930Y-69895151D01*
X153563228Y-69895151D01*
X153564392Y-69904053D01*
X153564392Y-69904056D01*
X153568086Y-69932304D01*
X153580227Y-70025150D01*
X153633030Y-70145154D01*
X153717391Y-70245513D01*
X153724862Y-70250486D01*
X153724863Y-70250487D01*
X153748941Y-70266515D01*
X153826529Y-70318162D01*
X153915972Y-70346106D01*
X153943101Y-70354582D01*
X153943102Y-70354582D01*
X153951670Y-70357259D01*
X154016105Y-70358440D01*
X154073778Y-70359497D01*
X154073781Y-70359497D01*
X154082754Y-70359661D01*
X154124147Y-70348376D01*
X154200582Y-70327538D01*
X154200585Y-70327537D01*
X154209244Y-70325176D01*
X154216896Y-70320478D01*
X154313319Y-70261275D01*
X154313322Y-70261272D01*
X154320971Y-70256576D01*
X154356670Y-70217137D01*
X154402928Y-70166031D01*
X154408953Y-70159375D01*
X154418890Y-70138866D01*
X154462204Y-70049464D01*
X154462204Y-70049463D01*
X154463130Y-70047551D01*
X154833228Y-70047551D01*
X154834392Y-70056453D01*
X154834392Y-70056456D01*
X154840929Y-70106445D01*
X154850227Y-70177550D01*
X154903030Y-70297554D01*
X154987391Y-70397913D01*
X154994862Y-70402886D01*
X154994863Y-70402887D01*
X155011070Y-70413675D01*
X155096529Y-70470562D01*
X155185972Y-70498506D01*
X155213101Y-70506982D01*
X155213102Y-70506982D01*
X155221670Y-70509659D01*
X155286105Y-70510840D01*
X155343778Y-70511897D01*
X155343781Y-70511897D01*
X155352754Y-70512061D01*
X155394147Y-70500776D01*
X155470582Y-70479938D01*
X155470585Y-70479937D01*
X155479244Y-70477576D01*
X155490668Y-70470562D01*
X155583319Y-70413675D01*
X155583322Y-70413672D01*
X155590971Y-70408976D01*
X155678953Y-70311775D01*
X155689825Y-70289336D01*
X155732204Y-70201864D01*
X155732204Y-70201863D01*
X155736117Y-70193787D01*
X155757869Y-70064498D01*
X155758007Y-70053200D01*
X155750231Y-69998899D01*
X155740694Y-69932304D01*
X155740693Y-69932301D01*
X155739421Y-69923418D01*
X155733265Y-69909878D01*
X155688873Y-69812243D01*
X155688871Y-69812240D01*
X155685156Y-69804069D01*
X155599575Y-69704747D01*
X155586495Y-69696269D01*
X155497089Y-69638318D01*
X155497087Y-69638317D01*
X155489558Y-69633437D01*
X155363948Y-69595872D01*
X155354972Y-69595817D01*
X155354971Y-69595817D01*
X155300559Y-69595485D01*
X155232844Y-69595071D01*
X155106785Y-69631099D01*
X155099198Y-69635886D01*
X155099196Y-69635887D01*
X155074183Y-69651669D01*
X154995905Y-69701059D01*
X154909117Y-69799328D01*
X154905303Y-69807451D01*
X154905302Y-69807453D01*
X154883461Y-69853973D01*
X154853398Y-69918005D01*
X154852017Y-69926877D01*
X154834609Y-70038678D01*
X154834609Y-70038682D01*
X154833228Y-70047551D01*
X154463130Y-70047551D01*
X154466117Y-70041387D01*
X154487869Y-69912098D01*
X154488007Y-69900800D01*
X154474639Y-69807453D01*
X154470694Y-69779904D01*
X154470693Y-69779901D01*
X154469421Y-69771018D01*
X154463265Y-69757478D01*
X154418873Y-69659843D01*
X154418871Y-69659840D01*
X154415156Y-69651669D01*
X154329575Y-69552347D01*
X154306603Y-69537457D01*
X154227089Y-69485918D01*
X154227087Y-69485917D01*
X154219558Y-69481037D01*
X154093948Y-69443472D01*
X154084972Y-69443417D01*
X154084971Y-69443417D01*
X154030559Y-69443085D01*
X153962844Y-69442671D01*
X153836785Y-69478699D01*
X153829198Y-69483486D01*
X153829196Y-69483487D01*
X153811621Y-69494576D01*
X153725905Y-69548659D01*
X153639117Y-69646928D01*
X153583398Y-69765605D01*
X153577409Y-69804069D01*
X153564609Y-69886278D01*
X153564609Y-69886282D01*
X153563228Y-69895151D01*
X131145930Y-69895151D01*
X131148917Y-69888987D01*
X131170669Y-69759698D01*
X131170807Y-69748400D01*
X131164991Y-69707787D01*
X131153494Y-69627504D01*
X131153493Y-69627501D01*
X131152221Y-69618618D01*
X131143049Y-69598445D01*
X131101673Y-69507443D01*
X131101671Y-69507440D01*
X131097956Y-69499269D01*
X131012375Y-69399947D01*
X130930496Y-69346875D01*
X130909891Y-69333519D01*
X130909887Y-69333517D01*
X130902358Y-69328637D01*
X130897348Y-69327139D01*
X130845319Y-69281649D01*
X130825620Y-69213440D01*
X130845925Y-69145409D01*
X130899787Y-69099155D01*
X130951619Y-69088000D01*
X142972400Y-69088000D01*
X143040521Y-69108002D01*
G37*
%TD.AperFunction*%
%TD*%
M02*
