M48
; DRILL file {KiCad (6.0.2)} date Wed Mar 16 17:45:18 2022
; FORMAT={-:-/ absolute / inch / decimal}
; #@! TF.CreationDate,2022-03-16T17:45:18-04:00
; #@! TF.GenerationSoftware,Kicad,Pcbnew,(6.0.2)
; #@! TF.FileFunction,Plated,1,4,PTH
FMAT,2
INCH
; #@! TA.AperFunction,Plated,PTH,ComponentDrill
T1C0.0060
; #@! TA.AperFunction,Plated,PTH,ViaDrill
T2C0.0060
; #@! TA.AperFunction,Plated,PTH,ComponentDrill
T3C0.0197
; #@! TA.AperFunction,Plated,PTH,ComponentDrill
T4C0.0236
; #@! TA.AperFunction,Plated,PTH,ComponentDrill
T5C0.0400
%
G90
G05
T1
X5.8678Y-2.9658
X5.8678Y-2.9973
X5.8678Y-3.0287
X5.8678Y-3.0602
X5.8993Y-2.9658
X5.8993Y-2.9973
X5.8993Y-3.0287
X5.8993Y-3.0602
X5.9307Y-3.0602
X5.9307Y-2.9658
X5.9307Y-2.9973
X5.9307Y-3.0287
X5.9622Y-2.9658
X5.9622Y-2.9973
X5.9622Y-3.0287
X5.9622Y-3.0602
T2
X4.334Y-3.39
X4.468Y-3.274
X4.474Y-2.73
X4.54Y-3.222
X4.612Y-3.254
X4.852Y-3.364
X4.898Y-3.034
X4.942Y-3.234
X4.97Y-3.148
X4.994Y-2.746
X4.996Y-2.848
X5.046Y-2.848
X5.046Y-3.238
X5.064Y-3.068
X5.082Y-3.034
X5.096Y-2.848
X5.146Y-2.746
X5.146Y-2.848
X5.1674Y-3.148
X5.1714Y-3.236
X5.196Y-2.968
X5.226Y-3.104
X5.23Y-2.87
X5.234Y-2.774
X5.238Y-3.036
X5.27Y-3.07
X5.288Y-2.778
X5.288Y-3.136
X5.288Y-3.188
X5.288Y-3.234
X5.32Y-3.032
X5.35Y-3.088
X5.388Y-3.118
X5.438Y-3.239
X5.438Y-3.293
X5.462Y-3.03
X5.63Y-3.042
X5.64Y-3.118
X5.65Y-2.716
X5.668Y-2.914
X5.706Y-2.976
X5.722Y-2.738
X5.722Y-2.824
X5.7369Y-3.1231
X5.7372Y-2.9992
X5.742Y-2.962
X5.742Y-3.06
X5.742Y-3.092
X5.77Y-2.824
X5.8Y-3.364
X5.814Y-2.988
X5.818Y-2.818
X5.822Y-3.104
X5.826Y-3.186
X5.828Y-2.932
X5.844Y-2.91
X5.852Y-3.102
X5.885Y-2.912
X5.91Y-2.804
X5.9118Y-3.1894
X5.924Y-2.912
X5.948Y-3.244
X5.95Y-2.722
X5.95Y-2.913
X5.964Y-3.364
X5.9772Y-2.9128
X5.99Y-3.204
X6.003Y-2.923
X6.05Y-3.238
X6.064Y-2.752
X6.072Y-3.202
X6.08Y-2.822
X6.082Y-3.268
X6.088Y-2.996
X6.089Y-2.9266
X6.09Y-2.878
X6.092Y-3.364
X6.102Y-3.186
X6.106Y-3.016
X6.11Y-3.134
X6.114Y-2.758
X6.124Y-2.988
X6.13Y-3.028
X6.132Y-2.822
X6.134Y-2.63
X6.136Y-2.732
X6.136Y-3.076
X6.144Y-3.202
X6.1489Y-3.0501
X6.164Y-2.865
X6.174Y-3.11
X6.174Y-3.156
X6.182Y-2.974
X6.236Y-2.89
X6.254Y-3.364
X6.312Y-2.866
X6.322Y-2.99
X6.322Y-3.018
X6.328Y-2.734
X6.35Y-2.906
X6.378Y-2.906
X6.401Y-2.892
X6.47Y-3.07
X6.474Y-2.632
X6.484Y-2.812
X6.538Y-2.864
X6.558Y-2.992
X6.576Y-2.88
X6.594Y-2.63
X6.652Y-3.044
X6.718Y-2.63
X6.724Y-2.866
X6.762Y-3.152
X6.762Y-3.3
X6.767Y-3.006
X6.942Y-2.956
X6.958Y-3.044
X6.982Y-3.14
X7.028Y-3.14
X7.064Y-3.352
X7.068Y-3.006
X7.072Y-2.954
X7.224Y-2.98
X7.306Y-2.892
X7.306Y-3.072
X7.36Y-3.006
X7.362Y-2.872
X7.496Y-3.048
X7.512Y-2.988
X7.534Y-2.864
X7.58Y-2.864
X7.598Y-3.168
X7.602Y-2.986
X7.632Y-2.826
X7.772Y-2.846
X7.926Y-3.072
X7.958Y-3.05
X8.098Y-2.966
X8.098Y-2.996
T3
X5.4684Y-2.812
X5.5176Y-2.812
X5.5668Y-2.812
X5.616Y-2.812
T5
X5.0025Y-2.655
X5.1025Y-2.655
X5.2025Y-2.655
X5.3025Y-2.655
X5.4025Y-2.655
X5.5025Y-2.655
X5.6025Y-2.655
X5.7025Y-2.655
X5.8025Y-2.655
X5.9025Y-2.655
X6.0025Y-2.655
T4
G00X5.3439Y-3.1861
M15
G01X5.3439Y-3.1546
M16
G05
G00X5.3439Y-3.3515
M15
G01X5.3439Y-3.3042
M16
G05
G00X5.6841Y-3.1861
M15
G01X5.6841Y-3.1546
M16
G05
G00X5.6841Y-3.3515
M15
G01X5.6841Y-3.3042
M16
G05
G00X6.2343Y-2.7747
M15
G01X6.2343Y-2.7353
M16
G05
G00X6.2343Y-3.2247
M15
G01X6.2343Y-3.1853
M16
G05
G00X6.5611Y-2.7747
M15
G01X6.5611Y-2.7353
M16
G05
G00X6.5611Y-3.2247
M15
G01X6.5611Y-3.1853
M16
G05
G00X6.6831Y-2.7747
M15
G01X6.6831Y-2.7353
M16
G05
G00X6.6831Y-3.2247
M15
G01X6.6831Y-3.1853
M16
G05
G00X6.8483Y-2.7747
M15
G01X6.8483Y-2.7353
M16
G05
G00X6.8483Y-3.2247
M15
G01X6.8483Y-3.1853
M16
G05
G00X7.1751Y-2.7747
M15
G01X7.1751Y-2.7353
M16
G05
G00X7.1751Y-3.2247
M15
G01X7.1751Y-3.1853
M16
G05
G00X7.2971Y-2.7747
M15
G01X7.2971Y-2.7353
M16
G05
G00X7.2971Y-3.2247
M15
G01X7.2971Y-3.1853
M16
G05
G00X7.4623Y-2.7747
M15
G01X7.4623Y-2.7353
M16
G05
G00X7.4623Y-3.2247
M15
G01X7.4623Y-3.1853
M16
G05
G00X7.7891Y-2.7747
M15
G01X7.7891Y-2.7353
M16
G05
G00X7.7891Y-3.2247
M15
G01X7.7891Y-3.1853
M16
G05
G00X7.9111Y-2.7747
M15
G01X7.9111Y-2.7353
M16
G05
G00X7.9111Y-3.2247
M15
G01X7.9111Y-3.1853
M16
G05
G00X8.0744Y-2.7747
M15
G01X8.0744Y-2.7353
M16
G05
G00X8.0763Y-3.2247
M15
G01X8.0763Y-3.1853
M16
G05
G00X8.4011Y-2.7747
M15
G01X8.4011Y-2.7353
M16
G05
G00X8.4031Y-3.2247
M15
G01X8.4031Y-3.1853
M16
G05
G00X8.5232Y-2.7747
M15
G01X8.5232Y-2.7353
M16
G05
G00X8.5251Y-3.2247
M15
G01X8.5251Y-3.1853
M16
G05
T0
M30
