%TF.GenerationSoftware,KiCad,Pcbnew,(6.0.2)*%
%TF.CreationDate,2022-03-16T17:45:16-04:00*%
%TF.ProjectId,cv_sequencer,63765f73-6571-4756-956e-6365722e6b69,0.1*%
%TF.SameCoordinates,Original*%
%TF.FileFunction,Legend,Top*%
%TF.FilePolarity,Positive*%
%FSLAX46Y46*%
G04 Gerber Fmt 4.6, Leading zero omitted, Abs format (unit mm)*
G04 Created by KiCad (PCBNEW (6.0.2)) date 2022-03-16 17:45:16*
%MOMM*%
%LPD*%
G01*
G04 APERTURE LIST*
%ADD10C,0.152400*%
%ADD11C,0.120000*%
%ADD12C,0.200000*%
G04 APERTURE END LIST*
D10*
%TO.C,E1*%
X114684628Y-86040685D02*
X114989428Y-86040685D01*
X115120057Y-86519657D02*
X114684628Y-86519657D01*
X114684628Y-85605257D01*
X115120057Y-85605257D01*
X115990914Y-86519657D02*
X115468400Y-86519657D01*
X115729657Y-86519657D02*
X115729657Y-85605257D01*
X115642571Y-85735885D01*
X115555485Y-85822971D01*
X115468400Y-85866514D01*
%TO.C,J12*%
X187161657Y-73217228D02*
X187814800Y-73217228D01*
X187945428Y-73260771D01*
X188032514Y-73347857D01*
X188076057Y-73478485D01*
X188076057Y-73565571D01*
X188076057Y-72302828D02*
X188076057Y-72825342D01*
X188076057Y-72564085D02*
X187161657Y-72564085D01*
X187292285Y-72651171D01*
X187379371Y-72738257D01*
X187422914Y-72825342D01*
X187248742Y-71954485D02*
X187205200Y-71910942D01*
X187161657Y-71823857D01*
X187161657Y-71606142D01*
X187205200Y-71519057D01*
X187248742Y-71475514D01*
X187335828Y-71431971D01*
X187422914Y-71431971D01*
X187553542Y-71475514D01*
X188076057Y-71998028D01*
X188076057Y-71431971D01*
%TO.C,TP18*%
X122609428Y-82654648D02*
X123523828Y-82654648D01*
X123349657Y-83827257D02*
X123044857Y-83391828D01*
X122827142Y-83827257D02*
X122827142Y-82912857D01*
X123175485Y-82912857D01*
X123262571Y-82956400D01*
X123306114Y-82999942D01*
X123349657Y-83087028D01*
X123349657Y-83217657D01*
X123306114Y-83304742D01*
X123262571Y-83348285D01*
X123175485Y-83391828D01*
X122827142Y-83391828D01*
X123523828Y-82654648D02*
X124394685Y-82654648D01*
X123698000Y-83783714D02*
X123828628Y-83827257D01*
X124046342Y-83827257D01*
X124133428Y-83783714D01*
X124176971Y-83740171D01*
X124220514Y-83653085D01*
X124220514Y-83566000D01*
X124176971Y-83478914D01*
X124133428Y-83435371D01*
X124046342Y-83391828D01*
X123872171Y-83348285D01*
X123785085Y-83304742D01*
X123741542Y-83261200D01*
X123698000Y-83174114D01*
X123698000Y-83087028D01*
X123741542Y-82999942D01*
X123785085Y-82956400D01*
X123872171Y-82912857D01*
X124089885Y-82912857D01*
X124220514Y-82956400D01*
X124394685Y-82654648D02*
X125091371Y-82654648D01*
X124481771Y-82912857D02*
X125004285Y-82912857D01*
X124743028Y-83827257D02*
X124743028Y-82912857D01*
%TO.C,J8*%
X187161657Y-84211800D02*
X187814800Y-84211800D01*
X187945428Y-84255342D01*
X188032514Y-84342428D01*
X188076057Y-84473057D01*
X188076057Y-84560142D01*
X187553542Y-83645742D02*
X187510000Y-83732828D01*
X187466457Y-83776371D01*
X187379371Y-83819914D01*
X187335828Y-83819914D01*
X187248742Y-83776371D01*
X187205200Y-83732828D01*
X187161657Y-83645742D01*
X187161657Y-83471571D01*
X187205200Y-83384485D01*
X187248742Y-83340942D01*
X187335828Y-83297400D01*
X187379371Y-83297400D01*
X187466457Y-83340942D01*
X187510000Y-83384485D01*
X187553542Y-83471571D01*
X187553542Y-83645742D01*
X187597085Y-83732828D01*
X187640628Y-83776371D01*
X187727714Y-83819914D01*
X187901885Y-83819914D01*
X187988971Y-83776371D01*
X188032514Y-83732828D01*
X188076057Y-83645742D01*
X188076057Y-83471571D01*
X188032514Y-83384485D01*
X187988971Y-83340942D01*
X187901885Y-83297400D01*
X187727714Y-83297400D01*
X187640628Y-83340942D01*
X187597085Y-83384485D01*
X187553542Y-83471571D01*
%TO.C,J6*%
X155970457Y-84211800D02*
X156623600Y-84211800D01*
X156754228Y-84255342D01*
X156841314Y-84342428D01*
X156884857Y-84473057D01*
X156884857Y-84560142D01*
X155970457Y-83384485D02*
X155970457Y-83558657D01*
X156014000Y-83645742D01*
X156057542Y-83689285D01*
X156188171Y-83776371D01*
X156362342Y-83819914D01*
X156710685Y-83819914D01*
X156797771Y-83776371D01*
X156841314Y-83732828D01*
X156884857Y-83645742D01*
X156884857Y-83471571D01*
X156841314Y-83384485D01*
X156797771Y-83340942D01*
X156710685Y-83297400D01*
X156492971Y-83297400D01*
X156405885Y-83340942D01*
X156362342Y-83384485D01*
X156318800Y-83471571D01*
X156318800Y-83645742D01*
X156362342Y-83732828D01*
X156405885Y-83776371D01*
X156492971Y-83819914D01*
%TO.C,J10*%
X155970457Y-73217228D02*
X156623600Y-73217228D01*
X156754228Y-73260771D01*
X156841314Y-73347857D01*
X156884857Y-73478485D01*
X156884857Y-73565571D01*
X156884857Y-72302828D02*
X156884857Y-72825342D01*
X156884857Y-72564085D02*
X155970457Y-72564085D01*
X156101085Y-72651171D01*
X156188171Y-72738257D01*
X156231714Y-72825342D01*
X155970457Y-71736771D02*
X155970457Y-71649685D01*
X156014000Y-71562600D01*
X156057542Y-71519057D01*
X156144628Y-71475514D01*
X156318800Y-71431971D01*
X156536514Y-71431971D01*
X156710685Y-71475514D01*
X156797771Y-71519057D01*
X156841314Y-71562600D01*
X156884857Y-71649685D01*
X156884857Y-71736771D01*
X156841314Y-71823857D01*
X156797771Y-71867400D01*
X156710685Y-71910942D01*
X156536514Y-71954485D01*
X156318800Y-71954485D01*
X156144628Y-71910942D01*
X156057542Y-71867400D01*
X156014000Y-71823857D01*
X155970457Y-71736771D01*
%TO.C,J13*%
X202708257Y-73217228D02*
X203361400Y-73217228D01*
X203492028Y-73260771D01*
X203579114Y-73347857D01*
X203622657Y-73478485D01*
X203622657Y-73565571D01*
X203622657Y-72302828D02*
X203622657Y-72825342D01*
X203622657Y-72564085D02*
X202708257Y-72564085D01*
X202838885Y-72651171D01*
X202925971Y-72738257D01*
X202969514Y-72825342D01*
X202708257Y-71998028D02*
X202708257Y-71431971D01*
X203056600Y-71736771D01*
X203056600Y-71606142D01*
X203100142Y-71519057D01*
X203143685Y-71475514D01*
X203230771Y-71431971D01*
X203448485Y-71431971D01*
X203535571Y-71475514D01*
X203579114Y-71519057D01*
X203622657Y-71606142D01*
X203622657Y-71867400D01*
X203579114Y-71954485D01*
X203535571Y-71998028D01*
%TO.C,TP16*%
X125998514Y-83783714D02*
X126129142Y-83827257D01*
X126346857Y-83827257D01*
X126433942Y-83783714D01*
X126477485Y-83740171D01*
X126521028Y-83653085D01*
X126521028Y-83566000D01*
X126477485Y-83478914D01*
X126433942Y-83435371D01*
X126346857Y-83391828D01*
X126172685Y-83348285D01*
X126085600Y-83304742D01*
X126042057Y-83261200D01*
X125998514Y-83174114D01*
X125998514Y-83087028D01*
X126042057Y-82999942D01*
X126085600Y-82956400D01*
X126172685Y-82912857D01*
X126390400Y-82912857D01*
X126521028Y-82956400D01*
X126825828Y-82912857D02*
X127043542Y-83827257D01*
X127217714Y-83174114D01*
X127391885Y-83827257D01*
X127609600Y-82912857D01*
X128480457Y-83740171D02*
X128436914Y-83783714D01*
X128306285Y-83827257D01*
X128219200Y-83827257D01*
X128088571Y-83783714D01*
X128001485Y-83696628D01*
X127957942Y-83609542D01*
X127914400Y-83435371D01*
X127914400Y-83304742D01*
X127957942Y-83130571D01*
X128001485Y-83043485D01*
X128088571Y-82956400D01*
X128219200Y-82912857D01*
X128306285Y-82912857D01*
X128436914Y-82956400D01*
X128480457Y-82999942D01*
X129307771Y-83827257D02*
X128872342Y-83827257D01*
X128872342Y-82912857D01*
X129612571Y-83827257D02*
X129612571Y-82912857D01*
X130135085Y-83827257D02*
X129743200Y-83304742D01*
X130135085Y-82912857D02*
X129612571Y-83435371D01*
%TO.C,J9*%
X202757257Y-84211800D02*
X203410400Y-84211800D01*
X203541028Y-84255342D01*
X203628114Y-84342428D01*
X203671657Y-84473057D01*
X203671657Y-84560142D01*
X203671657Y-83732828D02*
X203671657Y-83558657D01*
X203628114Y-83471571D01*
X203584571Y-83428028D01*
X203453942Y-83340942D01*
X203279771Y-83297400D01*
X202931428Y-83297400D01*
X202844342Y-83340942D01*
X202800800Y-83384485D01*
X202757257Y-83471571D01*
X202757257Y-83645742D01*
X202800800Y-83732828D01*
X202844342Y-83776371D01*
X202931428Y-83819914D01*
X203149142Y-83819914D01*
X203236228Y-83776371D01*
X203279771Y-83732828D01*
X203323314Y-83645742D01*
X203323314Y-83471571D01*
X203279771Y-83384485D01*
X203236228Y-83340942D01*
X203149142Y-83297400D01*
%TO.C,J11*%
X171566057Y-73217228D02*
X172219200Y-73217228D01*
X172349828Y-73260771D01*
X172436914Y-73347857D01*
X172480457Y-73478485D01*
X172480457Y-73565571D01*
X172480457Y-72302828D02*
X172480457Y-72825342D01*
X172480457Y-72564085D02*
X171566057Y-72564085D01*
X171696685Y-72651171D01*
X171783771Y-72738257D01*
X171827314Y-72825342D01*
X172480457Y-71431971D02*
X172480457Y-71954485D01*
X172480457Y-71693228D02*
X171566057Y-71693228D01*
X171696685Y-71780314D01*
X171783771Y-71867400D01*
X171827314Y-71954485D01*
%TO.C,TP15*%
X130701142Y-83783714D02*
X130831771Y-83827257D01*
X131049485Y-83827257D01*
X131136571Y-83783714D01*
X131180114Y-83740171D01*
X131223657Y-83653085D01*
X131223657Y-83566000D01*
X131180114Y-83478914D01*
X131136571Y-83435371D01*
X131049485Y-83391828D01*
X130875314Y-83348285D01*
X130788228Y-83304742D01*
X130744685Y-83261200D01*
X130701142Y-83174114D01*
X130701142Y-83087028D01*
X130744685Y-82999942D01*
X130788228Y-82956400D01*
X130875314Y-82912857D01*
X131093028Y-82912857D01*
X131223657Y-82956400D01*
X131528457Y-82912857D02*
X131746171Y-83827257D01*
X131920342Y-83174114D01*
X132094514Y-83827257D01*
X132312228Y-82912857D01*
X132660571Y-83827257D02*
X132660571Y-82912857D01*
X132878285Y-82912857D01*
X133008914Y-82956400D01*
X133096000Y-83043485D01*
X133139542Y-83130571D01*
X133183085Y-83304742D01*
X133183085Y-83435371D01*
X133139542Y-83609542D01*
X133096000Y-83696628D01*
X133008914Y-83783714D01*
X132878285Y-83827257D01*
X132660571Y-83827257D01*
X133574971Y-83827257D02*
X133574971Y-82912857D01*
X134184571Y-82912857D02*
X134358742Y-82912857D01*
X134445828Y-82956400D01*
X134532914Y-83043485D01*
X134576457Y-83217657D01*
X134576457Y-83522457D01*
X134532914Y-83696628D01*
X134445828Y-83783714D01*
X134358742Y-83827257D01*
X134184571Y-83827257D01*
X134097485Y-83783714D01*
X134010400Y-83696628D01*
X133966857Y-83522457D01*
X133966857Y-83217657D01*
X134010400Y-83043485D01*
X134097485Y-82956400D01*
X134184571Y-82912857D01*
%TO.C,U1*%
X149853314Y-64814257D02*
X149853314Y-65554485D01*
X149896857Y-65641571D01*
X149940400Y-65685114D01*
X150027485Y-65728657D01*
X150201657Y-65728657D01*
X150288742Y-65685114D01*
X150332285Y-65641571D01*
X150375828Y-65554485D01*
X150375828Y-64814257D01*
X151290228Y-65728657D02*
X150767714Y-65728657D01*
X151028971Y-65728657D02*
X151028971Y-64814257D01*
X150941885Y-64944885D01*
X150854800Y-65031971D01*
X150767714Y-65075514D01*
%TO.C,J7*%
X171566057Y-84211800D02*
X172219200Y-84211800D01*
X172349828Y-84255342D01*
X172436914Y-84342428D01*
X172480457Y-84473057D01*
X172480457Y-84560142D01*
X171566057Y-83863457D02*
X171566057Y-83253857D01*
X172480457Y-83645742D01*
D11*
%TO.C,E1*%
X111616000Y-85392000D02*
X108816000Y-85392000D01*
X111616000Y-65992000D02*
X108816000Y-65992000D01*
X119016000Y-65992000D02*
X121816000Y-65992000D01*
X108816000Y-65992000D02*
X108816000Y-71092000D01*
X119014260Y-85392000D02*
X121816000Y-85392000D01*
X121816000Y-65992000D02*
X121816000Y-71092000D01*
X108816000Y-85392000D02*
X108816000Y-80292000D01*
X121816000Y-85392000D02*
X121816000Y-80292000D01*
D12*
%TO.C,J12*%
X198962400Y-68477000D02*
X198962400Y-65477000D01*
X198962400Y-74477000D02*
X198962400Y-71477000D01*
X188462400Y-68377000D02*
X188462400Y-65477000D01*
X198962400Y-65477000D02*
X188462400Y-65477000D01*
X198962400Y-74477000D02*
X188462400Y-74477000D01*
X188462400Y-74477000D02*
X188462400Y-71577000D01*
D11*
X196992667Y-68560050D02*
G75*
G03*
X191562400Y-69977000I-2530267J-1416950D01*
G01*
X191562400Y-69977000D02*
G75*
G03*
X196992667Y-71393950I2900000J0D01*
G01*
X196262400Y-69977000D02*
G75*
G03*
X196262400Y-69977000I-1800000J0D01*
G01*
%TO.C,TP18*%
X126168000Y-85344000D02*
G75*
G03*
X126168000Y-85344000I-1200000J0D01*
G01*
D12*
%TO.C,J8*%
X198962400Y-79907000D02*
X198962400Y-76907000D01*
X198962400Y-85907000D02*
X198962400Y-82907000D01*
X188462400Y-79807000D02*
X188462400Y-76907000D01*
X198962400Y-76907000D02*
X188462400Y-76907000D01*
X198962400Y-85907000D02*
X188462400Y-85907000D01*
X188462400Y-85907000D02*
X188462400Y-83007000D01*
D11*
X196992667Y-79990050D02*
G75*
G03*
X191562400Y-81407000I-2530267J-1416950D01*
G01*
X191562400Y-81407000D02*
G75*
G03*
X196992667Y-82823950I2900000J0D01*
G01*
X196262400Y-81407000D02*
G75*
G03*
X196262400Y-81407000I-1800000J0D01*
G01*
D12*
%TO.C,J6*%
X167771200Y-79907000D02*
X167771200Y-76907000D01*
X167771200Y-85907000D02*
X167771200Y-82907000D01*
X157271200Y-79807000D02*
X157271200Y-76907000D01*
X167771200Y-76907000D02*
X157271200Y-76907000D01*
X167771200Y-85907000D02*
X157271200Y-85907000D01*
X157271200Y-85907000D02*
X157271200Y-83007000D01*
D11*
X165801467Y-79990050D02*
G75*
G03*
X160371200Y-81407000I-2530267J-1416950D01*
G01*
X160371200Y-81407000D02*
G75*
G03*
X165801467Y-82823950I2900000J0D01*
G01*
X165071200Y-81407000D02*
G75*
G03*
X165071200Y-81407000I-1800000J0D01*
G01*
D12*
%TO.C,J10*%
X167771200Y-68477000D02*
X167771200Y-65477000D01*
X167771200Y-74477000D02*
X167771200Y-71477000D01*
X157271200Y-68377000D02*
X157271200Y-65477000D01*
X167771200Y-65477000D02*
X157271200Y-65477000D01*
X167771200Y-74477000D02*
X157271200Y-74477000D01*
X157271200Y-74477000D02*
X157271200Y-71577000D01*
D11*
X165801467Y-68560050D02*
G75*
G03*
X160371200Y-69977000I-2530267J-1416950D01*
G01*
X160371200Y-69977000D02*
G75*
G03*
X165801467Y-71393950I2900000J0D01*
G01*
X165071200Y-69977000D02*
G75*
G03*
X165071200Y-69977000I-1800000J0D01*
G01*
D12*
%TO.C,J13*%
X214509000Y-68477000D02*
X214509000Y-65477000D01*
X214509000Y-74477000D02*
X214509000Y-71477000D01*
X204009000Y-68377000D02*
X204009000Y-65477000D01*
X214509000Y-65477000D02*
X204009000Y-65477000D01*
X214509000Y-74477000D02*
X204009000Y-74477000D01*
X204009000Y-74477000D02*
X204009000Y-71577000D01*
D11*
X212539267Y-68560050D02*
G75*
G03*
X207109000Y-69977000I-2530267J-1416950D01*
G01*
X207109000Y-69977000D02*
G75*
G03*
X212539267Y-71393950I2900000J0D01*
G01*
X211809000Y-69977000D02*
G75*
G03*
X211809000Y-69977000I-1800000J0D01*
G01*
%TO.C,TP16*%
X129266800Y-85344000D02*
G75*
G03*
X129266800Y-85344000I-1200000J0D01*
G01*
D12*
%TO.C,J9*%
X214558000Y-79907000D02*
X214558000Y-76907000D01*
X214558000Y-85907000D02*
X214558000Y-82907000D01*
X204058000Y-79807000D02*
X204058000Y-76907000D01*
X214558000Y-76907000D02*
X204058000Y-76907000D01*
X214558000Y-85907000D02*
X204058000Y-85907000D01*
X204058000Y-85907000D02*
X204058000Y-83007000D01*
D11*
X212588267Y-79990050D02*
G75*
G03*
X207158000Y-81407000I-2530267J-1416950D01*
G01*
X207158000Y-81407000D02*
G75*
G03*
X212588267Y-82823950I2900000J0D01*
G01*
X211858000Y-81407000D02*
G75*
G03*
X211858000Y-81407000I-1800000J0D01*
G01*
D12*
%TO.C,J11*%
X183366800Y-68477000D02*
X183366800Y-65477000D01*
X183366800Y-74477000D02*
X183366800Y-71477000D01*
X172866800Y-68377000D02*
X172866800Y-65477000D01*
X183366800Y-65477000D02*
X172866800Y-65477000D01*
X183366800Y-74477000D02*
X172866800Y-74477000D01*
X172866800Y-74477000D02*
X172866800Y-71577000D01*
D11*
X181397067Y-68560050D02*
G75*
G03*
X175966800Y-69977000I-2530267J-1416950D01*
G01*
X175966800Y-69977000D02*
G75*
G03*
X181397067Y-71393950I2900000J0D01*
G01*
X180666800Y-69977000D02*
G75*
G03*
X180666800Y-69977000I-1800000J0D01*
G01*
%TO.C,TP15*%
X132365600Y-85344000D02*
G75*
G03*
X132365600Y-85344000I-1200000J0D01*
G01*
D12*
%TO.C,J7*%
X183366800Y-79907000D02*
X183366800Y-76907000D01*
X183366800Y-85907000D02*
X183366800Y-82907000D01*
X172866800Y-79807000D02*
X172866800Y-76907000D01*
X183366800Y-76907000D02*
X172866800Y-76907000D01*
X183366800Y-85907000D02*
X172866800Y-85907000D01*
X172866800Y-85907000D02*
X172866800Y-83007000D01*
D11*
X181397067Y-79990050D02*
G75*
G03*
X175966800Y-81407000I-2530267J-1416950D01*
G01*
X175966800Y-81407000D02*
G75*
G03*
X181397067Y-82823950I2900000J0D01*
G01*
X180666800Y-81407000D02*
G75*
G03*
X180666800Y-81407000I-1800000J0D01*
G01*
%TD*%
M02*
