  0
SECTION
  2
HEADER
  9
$ANGBASE
  50
0.0
  9
$ANGDIR
  70
1
  9
$MEASUREMENT
  70
1
  0
ENDSEC
  0
SECTION
  2
TABLES
  0
TABLE
  2
LTYPE
  70
4
  0
LTYPE
  5
40F
  2
CONTINUOUS
  70
0
  3
Solid line
  72
65
  73
0
  40
0.0
  0
LTYPE
  5
410
  2
DASHDOT
 70
0
  3
Dash Dot ____ _ ____ _
 72
65
 73
4
 40
2.0
 49
1.25
 49
-0.25
 49
0.25
 49
-0.25
  0
LTYPE
  5
411
  2
DASHED
 70
0
  3
Dashed __ __ __ __ __
 72
65
 73
2
 40
0.75
 49
0.5
 49
-0.25
  0
LTYPE
  5
43B
  2
DOTTED
 70
0
  3
Dotted .  .  .  .
 72
65
 73
2
 40
0.2
 49
0.0
 49
-0.2
  0
ENDTAB
  0
TABLE
  2
STYLE
  70
4
  0
STYLE
  2
KICAD
  70
0
  40
0
  41
1
  42
1
  50
0
  71
0
  3
isocp.shx
  0
STYLE
  2
KICADB
  70
0
  40
0
  41
1
  42
1
  50
0
  71
0
  3
isocp.shx
  0
STYLE
  2
KICADI
  70
0
  40
0
  41
1
  42
1
  50
15
  71
0
  3
isocp.shx
  0
STYLE
  2
KICADBI
  70
0
  40
0
  41
1
  42
1
  50
15
  71
0
  3
isocp.shx
  0
ENDTAB
  0
TABLE
  2
LAYER
  70
1
  0
LAYER
  2
BLACK
  70
0
  62
7
  6
CONTINUOUS
  0
ENDTAB
  0
ENDSEC
  0
SECTION
  2
ENTITIES
0
LINE
8
BLACK
6
CONTINUOUS
10
19.9776
20
-0.239426
11
19.96
21
-0.197
0
LINE
8
BLACK
6
CONTINUOUS
10
19.96
20
-0.197
11
19.96
21
17.503
0
LINE
8
BLACK
6
CONTINUOUS
10
19.96
20
17.503
11
19.9776
21
17.5454
0
LINE
8
BLACK
6
CONTINUOUS
10
19.9776
20
17.5454
11
20.02
21
17.563
0
LINE
8
BLACK
6
CONTINUOUS
10
20.02
20
17.563
11
48.37
21
17.563
0
LINE
8
BLACK
6
CONTINUOUS
10
48.37
20
17.563
11
48.4124
21
17.5454
0
LINE
8
BLACK
6
CONTINUOUS
10
48.4124
20
17.5454
11
48.43
21
17.503
0
LINE
8
BLACK
6
CONTINUOUS
10
48.43
20
17.503
11
48.43
21
-0.197
0
LINE
8
BLACK
6
CONTINUOUS
10
48.43
20
-0.197
11
48.4124
21
-0.239426
0
LINE
8
BLACK
6
CONTINUOUS
10
48.4124
20
-0.239426
11
48.37
21
-0.257
0
LINE
8
BLACK
6
CONTINUOUS
10
48.37
20
-0.257
11
20.02
21
-0.257
0
LINE
8
BLACK
6
CONTINUOUS
10
20.02
20
-0.257
11
19.9776
21
-0.239426
0
LINE
8
BLACK
6
CONTINUOUS
10
20.08
20
17.443
11
20.08
21
-0.137
0
LINE
8
BLACK
6
CONTINUOUS
10
20.08
20
-0.137
11
48.31
21
-0.137
0
LINE
8
BLACK
6
CONTINUOUS
10
48.31
20
-0.137
11
48.31
21
17.443
0
LINE
8
BLACK
6
CONTINUOUS
10
48.31
20
17.443
11
20.08
21
17.443
0
LINE
8
BLACK
6
CONTINUOUS
10
84.4433
20
5.83554
11
84.5033
21
6.19396
0
LINE
8
BLACK
6
CONTINUOUS
10
84.5033
20
6.19396
11
84.6017
21
6.54381
0
LINE
8
BLACK
6
CONTINUOUS
10
84.6017
20
6.54381
11
84.7372
21
6.881
0
LINE
8
BLACK
6
CONTINUOUS
10
84.7372
20
6.881
11
84.9084
21
7.20157
0
LINE
8
BLACK
6
CONTINUOUS
10
84.9084
20
7.20157
11
85.1132
21
7.50178
0
LINE
8
BLACK
6
CONTINUOUS
10
85.1132
20
7.50178
11
85.3492
21
7.77812
0
LINE
8
BLACK
6
CONTINUOUS
10
85.3492
20
7.77812
11
85.6137
21
8.02736
0
LINE
8
BLACK
6
CONTINUOUS
10
85.6137
20
8.02736
11
85.9035
21
8.24657
0
LINE
8
BLACK
6
CONTINUOUS
10
85.9035
20
8.24657
11
86.2153
21
8.43319
0
LINE
8
BLACK
6
CONTINUOUS
10
86.2153
20
8.43319
11
86.5455
21
8.58505
0
LINE
8
BLACK
6
CONTINUOUS
10
86.5455
20
8.58505
11
86.8901
21
8.70036
0
LINE
8
BLACK
6
CONTINUOUS
10
86.8901
20
8.70036
11
87.2452
21
8.77778
0
LINE
8
BLACK
6
CONTINUOUS
10
87.2452
20
8.77778
11
87.6066
21
8.81639
0
LINE
8
BLACK
6
CONTINUOUS
10
87.6066
20
8.81639
11
87.97
21
8.81576
0
LINE
8
BLACK
6
CONTINUOUS
10
87.97
20
8.81576
11
88.3312
21
8.77588
0
LINE
8
BLACK
6
CONTINUOUS
10
88.3312
20
8.77588
11
88.686
21
8.69723
0
LINE
8
BLACK
6
CONTINUOUS
10
88.686
20
8.69723
11
89.0302
21
8.58071
0
LINE
8
BLACK
6
CONTINUOUS
10
89.0302
20
8.58071
11
89.3598
21
8.4277
0
LINE
8
BLACK
6
CONTINUOUS
10
89.3598
20
8.4277
11
89.671
21
8.23999
0
LINE
8
BLACK
6
CONTINUOUS
10
89.671
20
8.23999
11
89.9601
21
8.01977
0
LINE
8
BLACK
6
CONTINUOUS
10
89.9601
20
8.01977
11
90.2237
21
7.76961
0
LINE
8
BLACK
6
CONTINUOUS
10
90.2237
20
7.76961
11
90.4587
21
7.49245
0
LINE
8
BLACK
6
CONTINUOUS
10
90.4587
20
7.49245
11
90.6625
21
7.19153
0
LINE
8
BLACK
6
CONTINUOUS
10
90.6625
20
7.19153
11
90.8325
21
6.87036
0
LINE
8
BLACK
6
CONTINUOUS
10
90.8325
20
6.87036
11
90.9669
21
6.5327
0
LINE
8
BLACK
6
CONTINUOUS
10
90.9669
20
6.5327
11
91.064
21
6.18251
0
LINE
8
BLACK
6
CONTINUOUS
10
91.064
20
6.18251
11
91.1227
21
5.82388
0
LINE
8
BLACK
6
CONTINUOUS
10
91.1227
20
5.82388
11
91.1424
21
5.461
0
LINE
8
BLACK
6
CONTINUOUS
10
91.1424
20
5.461
11
91.1423
21
5.43754
0
LINE
8
BLACK
6
CONTINUOUS
10
91.1423
20
5.43754
11
91.1201
21
5.07481
0
LINE
8
BLACK
6
CONTINUOUS
10
91.1201
20
5.07481
11
91.0589
21
4.7166
0
LINE
8
BLACK
6
CONTINUOUS
10
91.0589
20
4.7166
11
90.9593
21
4.36709
0
LINE
8
BLACK
6
CONTINUOUS
10
90.9593
20
4.36709
11
90.8226
21
4.03038
0
LINE
8
BLACK
6
CONTINUOUS
10
90.8226
20
4.03038
11
90.6503
21
3.71041
0
LINE
8
BLACK
6
CONTINUOUS
10
90.6503
20
3.71041
11
90.4445
21
3.41091
0
LINE
8
BLACK
6
CONTINUOUS
10
90.4445
20
3.41091
11
90.2075
21
3.1354
0
LINE
8
BLACK
6
CONTINUOUS
10
90.2075
20
3.1354
11
89.9422
21
2.88709
0
LINE
8
BLACK
6
CONTINUOUS
10
89.9422
20
2.88709
11
89.6516
21
2.66889
0
LINE
8
BLACK
6
CONTINUOUS
10
89.6516
20
2.66889
11
89.3391
21
2.48336
0
LINE
8
BLACK
6
CONTINUOUS
10
89.3391
20
2.48336
11
89.0084
21
2.33265
0
LINE
8
BLACK
6
CONTINUOUS
10
89.0084
20
2.33265
11
88.6634
21
2.21854
0
LINE
8
BLACK
6
CONTINUOUS
10
88.6634
20
2.21854
11
88.308
21
2.14237
0
LINE
8
BLACK
6
CONTINUOUS
10
88.308
20
2.14237
11
87.9465
21
2.10501
0
LINE
8
BLACK
6
CONTINUOUS
10
87.9465
20
2.10501
11
87.5831
21
2.10691
0
LINE
8
BLACK
6
CONTINUOUS
10
87.5831
20
2.10691
11
87.2221
21
2.14805
0
LINE
8
BLACK
6
CONTINUOUS
10
87.2221
20
2.14805
11
86.8675
21
2.22795
0
LINE
8
BLACK
6
CONTINUOUS
10
86.8675
20
2.22795
11
86.5237
21
2.34566
0
LINE
8
BLACK
6
CONTINUOUS
10
86.5237
20
2.34566
11
86.1946
21
2.49982
0
LINE
8
BLACK
6
CONTINUOUS
10
86.1946
20
2.49982
11
85.8841
21
2.68862
0
LINE
8
BLACK
6
CONTINUOUS
10
85.8841
20
2.68862
11
85.5958
21
2.90985
0
LINE
8
BLACK
6
CONTINUOUS
10
85.5958
20
2.90985
11
85.3331
21
3.16092
0
LINE
8
BLACK
6
CONTINUOUS
10
85.3331
20
3.16092
11
85.099
21
3.4389
0
LINE
8
BLACK
6
CONTINUOUS
10
85.099
20
3.4389
11
84.8963
21
3.74054
0
LINE
8
BLACK
6
CONTINUOUS
10
84.8963
20
3.74054
11
84.7274
21
4.0623
0
LINE
8
BLACK
6
CONTINUOUS
10
84.7274
20
4.0623
11
84.5942
21
4.40042
0
LINE
8
BLACK
6
CONTINUOUS
10
84.5942
20
4.40042
11
84.4983
21
4.75095
0
LINE
8
BLACK
6
CONTINUOUS
10
84.4983
20
4.75095
11
84.4408
21
5.10978
0
LINE
8
BLACK
6
CONTINUOUS
10
84.4408
20
5.10978
11
84.4224
21
5.47233
0
LINE
8
BLACK
6
CONTINUOUS
10
84.4224
20
5.47233
11
84.4224
21
5.47273
0
LINE
8
BLACK
6
CONTINUOUS
10
84.4224
20
5.47273
11
84.4433
21
5.83554
0
LINE
8
BLACK
6
CONTINUOUS
10
84.6109
20
4.7753
11
84.7035
21
4.4368
0
LINE
8
BLACK
6
CONTINUOUS
10
84.7035
20
4.4368
11
84.8321
21
4.11027
0
LINE
8
BLACK
6
CONTINUOUS
10
84.8321
20
4.11027
11
84.9953
21
3.79954
0
LINE
8
BLACK
6
CONTINUOUS
10
84.9953
20
3.79954
11
85.191
21
3.50825
0
LINE
8
BLACK
6
CONTINUOUS
10
85.191
20
3.50825
11
85.4171
21
3.23981
0
LINE
8
BLACK
6
CONTINUOUS
10
85.4171
20
3.23981
11
85.6708
21
2.99735
0
LINE
8
BLACK
6
CONTINUOUS
10
85.6708
20
2.99735
11
85.9492
21
2.78371
0
LINE
8
BLACK
6
CONTINUOUS
10
85.9492
20
2.78371
11
86.2491
21
2.60138
0
LINE
8
BLACK
6
CONTINUOUS
10
86.2491
20
2.60138
11
86.5669
21
2.45251
0
LINE
8
BLACK
6
CONTINUOUS
10
86.5669
20
2.45251
11
86.8989
21
2.33883
0
LINE
8
BLACK
6
CONTINUOUS
10
86.8989
20
2.33883
11
87.2413
21
2.26168
0
LINE
8
BLACK
6
CONTINUOUS
10
87.2413
20
2.26168
11
87.59
21
2.22195
0
LINE
8
BLACK
6
CONTINUOUS
10
87.59
20
2.22195
11
87.9409
21
2.22011
0
LINE
8
BLACK
6
CONTINUOUS
10
87.9409
20
2.22011
11
88.29
21
2.25619
0
LINE
8
BLACK
6
CONTINUOUS
10
88.29
20
2.25619
11
88.6331
21
2.32975
0
LINE
8
BLACK
6
CONTINUOUS
10
88.6331
20
2.32975
11
88.9663
21
2.43995
0
LINE
8
BLACK
6
CONTINUOUS
10
88.9663
20
2.43995
11
89.2857
21
2.58548
0
LINE
8
BLACK
6
CONTINUOUS
10
89.2857
20
2.58548
11
89.5874
21
2.76466
0
LINE
8
BLACK
6
CONTINUOUS
10
89.5874
20
2.76466
11
89.8681
21
2.97537
0
LINE
8
BLACK
6
CONTINUOUS
10
89.8681
20
2.97537
11
90.1243
21
3.21516
0
LINE
8
BLACK
6
CONTINUOUS
10
90.1243
20
3.21516
11
90.3532
21
3.48123
0
LINE
8
BLACK
6
CONTINUOUS
10
90.3532
20
3.48123
11
90.552
21
3.77045
0
LINE
8
BLACK
6
CONTINUOUS
10
90.552
20
3.77045
11
90.7183
21
4.07945
0
LINE
8
BLACK
6
CONTINUOUS
10
90.7183
20
4.07945
11
90.8504
21
4.40461
0
LINE
8
BLACK
6
CONTINUOUS
10
90.8504
20
4.40461
11
90.9465
21
4.74213
0
LINE
8
BLACK
6
CONTINUOUS
10
90.9465
20
4.74213
11
91.0057
21
5.08806
0
LINE
8
BLACK
6
CONTINUOUS
10
91.0057
20
5.08806
11
91.0271
21
5.43835
0
LINE
8
BLACK
6
CONTINUOUS
10
91.0271
20
5.43835
11
91.0272
21
5.461
0
LINE
8
BLACK
6
CONTINUOUS
10
91.0272
20
5.461
11
91.0082
21
5.81143
0
LINE
8
BLACK
6
CONTINUOUS
10
91.0082
20
5.81143
11
90.9515
21
6.15776
0
LINE
8
BLACK
6
CONTINUOUS
10
90.9515
20
6.15776
11
90.8577
21
6.49595
0
LINE
8
BLACK
6
CONTINUOUS
10
90.8577
20
6.49595
11
90.7279
21
6.82202
0
LINE
8
BLACK
6
CONTINUOUS
10
90.7279
20
6.82202
11
90.5637
21
7.13217
0
LINE
8
BLACK
6
CONTINUOUS
10
90.5637
20
7.13217
11
90.3669
21
7.42278
0
LINE
8
BLACK
6
CONTINUOUS
10
90.3669
20
7.42278
11
90.14
21
7.69043
0
LINE
8
BLACK
6
CONTINUOUS
10
90.14
20
7.69043
11
89.8854
21
7.93201
0
LINE
8
BLACK
6
CONTINUOUS
10
89.8854
20
7.93201
11
89.6062
21
8.14468
0
LINE
8
BLACK
6
CONTINUOUS
10
89.6062
20
8.14468
11
89.3057
21
8.32595
0
LINE
8
BLACK
6
CONTINUOUS
10
89.3057
20
8.32595
11
88.9874
21
8.47371
0
LINE
8
BLACK
6
CONTINUOUS
10
88.9874
20
8.47371
11
88.655
21
8.58623
0
LINE
8
BLACK
6
CONTINUOUS
10
88.655
20
8.58623
11
88.3124
21
8.66219
0
LINE
8
BLACK
6
CONTINUOUS
10
88.3124
20
8.66219
11
87.9635
21
8.7007
0
LINE
8
BLACK
6
CONTINUOUS
10
87.9635
20
8.7007
11
87.6126
21
8.70131
0
LINE
8
BLACK
6
CONTINUOUS
10
87.6126
20
8.70131
11
87.2636
21
8.66402
0
LINE
8
BLACK
6
CONTINUOUS
10
87.2636
20
8.66402
11
86.9207
21
8.58926
0
LINE
8
BLACK
6
CONTINUOUS
10
86.9207
20
8.58926
11
86.5879
21
8.4779
0
LINE
8
BLACK
6
CONTINUOUS
10
86.5879
20
8.4779
11
86.2691
21
8.33125
0
LINE
8
BLACK
6
CONTINUOUS
10
86.2691
20
8.33125
11
85.968
21
8.15103
0
LINE
8
BLACK
6
CONTINUOUS
10
85.968
20
8.15103
11
85.688
21
7.93933
0
LINE
8
BLACK
6
CONTINUOUS
10
85.688
20
7.93933
11
85.4326
21
7.69865
0
LINE
8
BLACK
6
CONTINUOUS
10
85.4326
20
7.69865
11
85.2047
21
7.43179
0
LINE
8
BLACK
6
CONTINUOUS
10
85.2047
20
7.43179
11
85.0069
21
7.14187
0
LINE
8
BLACK
6
CONTINUOUS
10
85.0069
20
7.14187
11
84.8417
21
6.83229
0
LINE
8
BLACK
6
CONTINUOUS
10
84.8417
20
6.83229
11
84.7108
21
6.50667
0
LINE
8
BLACK
6
CONTINUOUS
10
84.7108
20
6.50667
11
84.6158
21
6.16882
0
LINE
8
BLACK
6
CONTINUOUS
10
84.6158
20
6.16882
11
84.5579
21
5.82269
0
LINE
8
BLACK
6
CONTINUOUS
10
84.5579
20
5.82269
11
84.5377
21
5.47233
0
LINE
8
BLACK
6
CONTINUOUS
10
84.5377
20
5.47233
11
84.5554
21
5.12183
0
LINE
8
BLACK
6
CONTINUOUS
10
84.5554
20
5.12183
11
84.6109
21
4.7753
0
LINE
8
BLACK
6
CONTINUOUS
10
53.2521
20
5.83554
11
53.3121
21
6.19396
0
LINE
8
BLACK
6
CONTINUOUS
10
53.3121
20
6.19396
11
53.4105
21
6.54381
0
LINE
8
BLACK
6
CONTINUOUS
10
53.4105
20
6.54381
11
53.546
21
6.881
0
LINE
8
BLACK
6
CONTINUOUS
10
53.546
20
6.881
11
53.7172
21
7.20157
0
LINE
8
BLACK
6
CONTINUOUS
10
53.7172
20
7.20157
11
53.922
21
7.50178
0
LINE
8
BLACK
6
CONTINUOUS
10
53.922
20
7.50178
11
54.158
21
7.77812
0
LINE
8
BLACK
6
CONTINUOUS
10
54.158
20
7.77812
11
54.4225
21
8.02736
0
LINE
8
BLACK
6
CONTINUOUS
10
54.4225
20
8.02736
11
54.7123
21
8.24657
0
LINE
8
BLACK
6
CONTINUOUS
10
54.7123
20
8.24657
11
55.0241
21
8.43319
0
LINE
8
BLACK
6
CONTINUOUS
10
55.0241
20
8.43319
11
55.3543
21
8.58505
0
LINE
8
BLACK
6
CONTINUOUS
10
55.3543
20
8.58505
11
55.6989
21
8.70036
0
LINE
8
BLACK
6
CONTINUOUS
10
55.6989
20
8.70036
11
56.054
21
8.77778
0
LINE
8
BLACK
6
CONTINUOUS
10
56.054
20
8.77778
11
56.4154
21
8.81639
0
LINE
8
BLACK
6
CONTINUOUS
10
56.4154
20
8.81639
11
56.7788
21
8.81576
0
LINE
8
BLACK
6
CONTINUOUS
10
56.7788
20
8.81576
11
57.14
21
8.77588
0
LINE
8
BLACK
6
CONTINUOUS
10
57.14
20
8.77588
11
57.4948
21
8.69723
0
LINE
8
BLACK
6
CONTINUOUS
10
57.4948
20
8.69723
11
57.839
21
8.58071
0
LINE
8
BLACK
6
CONTINUOUS
10
57.839
20
8.58071
11
58.1686
21
8.4277
0
LINE
8
BLACK
6
CONTINUOUS
10
58.1686
20
8.4277
11
58.4798
21
8.23999
0
LINE
8
BLACK
6
CONTINUOUS
10
58.4798
20
8.23999
11
58.7689
21
8.01977
0
LINE
8
BLACK
6
CONTINUOUS
10
58.7689
20
8.01977
11
59.0325
21
7.76961
0
LINE
8
BLACK
6
CONTINUOUS
10
59.0325
20
7.76961
11
59.2675
21
7.49245
0
LINE
8
BLACK
6
CONTINUOUS
10
59.2675
20
7.49245
11
59.4713
21
7.19153
0
LINE
8
BLACK
6
CONTINUOUS
10
59.4713
20
7.19153
11
59.6413
21
6.87036
0
LINE
8
BLACK
6
CONTINUOUS
10
59.6413
20
6.87036
11
59.7757
21
6.5327
0
LINE
8
BLACK
6
CONTINUOUS
10
59.7757
20
6.5327
11
59.8728
21
6.18251
0
LINE
8
BLACK
6
CONTINUOUS
10
59.8728
20
6.18251
11
59.9315
21
5.82388
0
LINE
8
BLACK
6
CONTINUOUS
10
59.9315
20
5.82388
11
59.9512
21
5.461
0
LINE
8
BLACK
6
CONTINUOUS
10
59.9512
20
5.461
11
59.9511
21
5.43754
0
LINE
8
BLACK
6
CONTINUOUS
10
59.9511
20
5.43754
11
59.9289
21
5.07481
0
LINE
8
BLACK
6
CONTINUOUS
10
59.9289
20
5.07481
11
59.8677
21
4.7166
0
LINE
8
BLACK
6
CONTINUOUS
10
59.8677
20
4.7166
11
59.7681
21
4.36709
0
LINE
8
BLACK
6
CONTINUOUS
10
59.7681
20
4.36709
11
59.6314
21
4.03038
0
LINE
8
BLACK
6
CONTINUOUS
10
59.6314
20
4.03038
11
59.4591
21
3.71041
0
LINE
8
BLACK
6
CONTINUOUS
10
59.4591
20
3.71041
11
59.2533
21
3.41091
0
LINE
8
BLACK
6
CONTINUOUS
10
59.2533
20
3.41091
11
59.0163
21
3.1354
0
LINE
8
BLACK
6
CONTINUOUS
10
59.0163
20
3.1354
11
58.751
21
2.88709
0
LINE
8
BLACK
6
CONTINUOUS
10
58.751
20
2.88709
11
58.4604
21
2.66889
0
LINE
8
BLACK
6
CONTINUOUS
10
58.4604
20
2.66889
11
58.1479
21
2.48336
0
LINE
8
BLACK
6
CONTINUOUS
10
58.1479
20
2.48336
11
57.8172
21
2.33265
0
LINE
8
BLACK
6
CONTINUOUS
10
57.8172
20
2.33265
11
57.4722
21
2.21854
0
LINE
8
BLACK
6
CONTINUOUS
10
57.4722
20
2.21854
11
57.1168
21
2.14237
0
LINE
8
BLACK
6
CONTINUOUS
10
57.1168
20
2.14237
11
56.7553
21
2.10501
0
LINE
8
BLACK
6
CONTINUOUS
10
56.7553
20
2.10501
11
56.3919
21
2.10691
0
LINE
8
BLACK
6
CONTINUOUS
10
56.3919
20
2.10691
11
56.0309
21
2.14805
0
LINE
8
BLACK
6
CONTINUOUS
10
56.0309
20
2.14805
11
55.6763
21
2.22795
0
LINE
8
BLACK
6
CONTINUOUS
10
55.6763
20
2.22795
11
55.3325
21
2.34566
0
LINE
8
BLACK
6
CONTINUOUS
10
55.3325
20
2.34566
11
55.0034
21
2.49982
0
LINE
8
BLACK
6
CONTINUOUS
10
55.0034
20
2.49982
11
54.6929
21
2.68862
0
LINE
8
BLACK
6
CONTINUOUS
10
54.6929
20
2.68862
11
54.4046
21
2.90985
0
LINE
8
BLACK
6
CONTINUOUS
10
54.4046
20
2.90985
11
54.1419
21
3.16092
0
LINE
8
BLACK
6
CONTINUOUS
10
54.1419
20
3.16092
11
53.9078
21
3.4389
0
LINE
8
BLACK
6
CONTINUOUS
10
53.9078
20
3.4389
11
53.7051
21
3.74054
0
LINE
8
BLACK
6
CONTINUOUS
10
53.7051
20
3.74054
11
53.5362
21
4.0623
0
LINE
8
BLACK
6
CONTINUOUS
10
53.5362
20
4.0623
11
53.403
21
4.40042
0
LINE
8
BLACK
6
CONTINUOUS
10
53.403
20
4.40042
11
53.3071
21
4.75095
0
LINE
8
BLACK
6
CONTINUOUS
10
53.3071
20
4.75095
11
53.2496
21
5.10978
0
LINE
8
BLACK
6
CONTINUOUS
10
53.2496
20
5.10978
11
53.2312
21
5.47233
0
LINE
8
BLACK
6
CONTINUOUS
10
53.2312
20
5.47233
11
53.2312
21
5.47273
0
LINE
8
BLACK
6
CONTINUOUS
10
53.2312
20
5.47273
11
53.2521
21
5.83554
0
LINE
8
BLACK
6
CONTINUOUS
10
53.4197
20
4.7753
11
53.5123
21
4.4368
0
LINE
8
BLACK
6
CONTINUOUS
10
53.5123
20
4.4368
11
53.6409
21
4.11027
0
LINE
8
BLACK
6
CONTINUOUS
10
53.6409
20
4.11027
11
53.8041
21
3.79954
0
LINE
8
BLACK
6
CONTINUOUS
10
53.8041
20
3.79954
11
53.9998
21
3.50825
0
LINE
8
BLACK
6
CONTINUOUS
10
53.9998
20
3.50825
11
54.2259
21
3.23981
0
LINE
8
BLACK
6
CONTINUOUS
10
54.2259
20
3.23981
11
54.4796
21
2.99735
0
LINE
8
BLACK
6
CONTINUOUS
10
54.4796
20
2.99735
11
54.758
21
2.78371
0
LINE
8
BLACK
6
CONTINUOUS
10
54.758
20
2.78371
11
55.0579
21
2.60138
0
LINE
8
BLACK
6
CONTINUOUS
10
55.0579
20
2.60138
11
55.3757
21
2.45251
0
LINE
8
BLACK
6
CONTINUOUS
10
55.3757
20
2.45251
11
55.7077
21
2.33883
0
LINE
8
BLACK
6
CONTINUOUS
10
55.7077
20
2.33883
11
56.0501
21
2.26168
0
LINE
8
BLACK
6
CONTINUOUS
10
56.0501
20
2.26168
11
56.3988
21
2.22195
0
LINE
8
BLACK
6
CONTINUOUS
10
56.3988
20
2.22195
11
56.7497
21
2.22011
0
LINE
8
BLACK
6
CONTINUOUS
10
56.7497
20
2.22011
11
57.0988
21
2.25619
0
LINE
8
BLACK
6
CONTINUOUS
10
57.0988
20
2.25619
11
57.4419
21
2.32975
0
LINE
8
BLACK
6
CONTINUOUS
10
57.4419
20
2.32975
11
57.7751
21
2.43995
0
LINE
8
BLACK
6
CONTINUOUS
10
57.7751
20
2.43995
11
58.0945
21
2.58548
0
LINE
8
BLACK
6
CONTINUOUS
10
58.0945
20
2.58548
11
58.3962
21
2.76466
0
LINE
8
BLACK
6
CONTINUOUS
10
58.3962
20
2.76466
11
58.6769
21
2.97537
0
LINE
8
BLACK
6
CONTINUOUS
10
58.6769
20
2.97537
11
58.9331
21
3.21516
0
LINE
8
BLACK
6
CONTINUOUS
10
58.9331
20
3.21516
11
59.162
21
3.48123
0
LINE
8
BLACK
6
CONTINUOUS
10
59.162
20
3.48123
11
59.3608
21
3.77045
0
LINE
8
BLACK
6
CONTINUOUS
10
59.3608
20
3.77045
11
59.5271
21
4.07945
0
LINE
8
BLACK
6
CONTINUOUS
10
59.5271
20
4.07945
11
59.6592
21
4.40461
0
LINE
8
BLACK
6
CONTINUOUS
10
59.6592
20
4.40461
11
59.7553
21
4.74213
0
LINE
8
BLACK
6
CONTINUOUS
10
59.7553
20
4.74213
11
59.8145
21
5.08806
0
LINE
8
BLACK
6
CONTINUOUS
10
59.8145
20
5.08806
11
59.8359
21
5.43835
0
LINE
8
BLACK
6
CONTINUOUS
10
59.8359
20
5.43835
11
59.836
21
5.461
0
LINE
8
BLACK
6
CONTINUOUS
10
59.836
20
5.461
11
59.817
21
5.81143
0
LINE
8
BLACK
6
CONTINUOUS
10
59.817
20
5.81143
11
59.7603
21
6.15776
0
LINE
8
BLACK
6
CONTINUOUS
10
59.7603
20
6.15776
11
59.6665
21
6.49595
0
LINE
8
BLACK
6
CONTINUOUS
10
59.6665
20
6.49595
11
59.5367
21
6.82202
0
LINE
8
BLACK
6
CONTINUOUS
10
59.5367
20
6.82202
11
59.3725
21
7.13217
0
LINE
8
BLACK
6
CONTINUOUS
10
59.3725
20
7.13217
11
59.1757
21
7.42278
0
LINE
8
BLACK
6
CONTINUOUS
10
59.1757
20
7.42278
11
58.9488
21
7.69043
0
LINE
8
BLACK
6
CONTINUOUS
10
58.9488
20
7.69043
11
58.6942
21
7.93201
0
LINE
8
BLACK
6
CONTINUOUS
10
58.6942
20
7.93201
11
58.415
21
8.14468
0
LINE
8
BLACK
6
CONTINUOUS
10
58.415
20
8.14468
11
58.1145
21
8.32595
0
LINE
8
BLACK
6
CONTINUOUS
10
58.1145
20
8.32595
11
57.7962
21
8.47371
0
LINE
8
BLACK
6
CONTINUOUS
10
57.7962
20
8.47371
11
57.4638
21
8.58623
0
LINE
8
BLACK
6
CONTINUOUS
10
57.4638
20
8.58623
11
57.1212
21
8.66219
0
LINE
8
BLACK
6
CONTINUOUS
10
57.1212
20
8.66219
11
56.7723
21
8.7007
0
LINE
8
BLACK
6
CONTINUOUS
10
56.7723
20
8.7007
11
56.4214
21
8.70131
0
LINE
8
BLACK
6
CONTINUOUS
10
56.4214
20
8.70131
11
56.0724
21
8.66402
0
LINE
8
BLACK
6
CONTINUOUS
10
56.0724
20
8.66402
11
55.7295
21
8.58926
0
LINE
8
BLACK
6
CONTINUOUS
10
55.7295
20
8.58926
11
55.3967
21
8.4779
0
LINE
8
BLACK
6
CONTINUOUS
10
55.3967
20
8.4779
11
55.0779
21
8.33125
0
LINE
8
BLACK
6
CONTINUOUS
10
55.0779
20
8.33125
11
54.7768
21
8.15103
0
LINE
8
BLACK
6
CONTINUOUS
10
54.7768
20
8.15103
11
54.4968
21
7.93933
0
LINE
8
BLACK
6
CONTINUOUS
10
54.4968
20
7.93933
11
54.2414
21
7.69865
0
LINE
8
BLACK
6
CONTINUOUS
10
54.2414
20
7.69865
11
54.0135
21
7.43179
0
LINE
8
BLACK
6
CONTINUOUS
10
54.0135
20
7.43179
11
53.8157
21
7.14187
0
LINE
8
BLACK
6
CONTINUOUS
10
53.8157
20
7.14187
11
53.6504
21
6.83229
0
LINE
8
BLACK
6
CONTINUOUS
10
53.6504
20
6.83229
11
53.5196
21
6.50667
0
LINE
8
BLACK
6
CONTINUOUS
10
53.5196
20
6.50667
11
53.4246
21
6.16882
0
LINE
8
BLACK
6
CONTINUOUS
10
53.4246
20
6.16882
11
53.3667
21
5.82269
0
LINE
8
BLACK
6
CONTINUOUS
10
53.3667
20
5.82269
11
53.3465
21
5.47233
0
LINE
8
BLACK
6
CONTINUOUS
10
53.3465
20
5.47233
11
53.3642
21
5.12183
0
LINE
8
BLACK
6
CONTINUOUS
10
53.3642
20
5.12183
11
53.4197
21
4.7753
0
LINE
8
BLACK
6
CONTINUOUS
10
100.039
20
5.83554
11
100.099
21
6.19396
0
LINE
8
BLACK
6
CONTINUOUS
10
100.099
20
6.19396
11
100.197
21
6.54381
0
LINE
8
BLACK
6
CONTINUOUS
10
100.197
20
6.54381
11
100.333
21
6.881
0
LINE
8
BLACK
6
CONTINUOUS
10
100.333
20
6.881
11
100.504
21
7.20157
0
LINE
8
BLACK
6
CONTINUOUS
10
100.504
20
7.20157
11
100.709
21
7.50178
0
LINE
8
BLACK
6
CONTINUOUS
10
100.709
20
7.50178
11
100.945
21
7.77812
0
LINE
8
BLACK
6
CONTINUOUS
10
100.945
20
7.77812
11
101.209
21
8.02736
0
LINE
8
BLACK
6
CONTINUOUS
10
101.209
20
8.02736
11
101.499
21
8.24657
0
LINE
8
BLACK
6
CONTINUOUS
10
101.499
20
8.24657
11
101.811
21
8.43319
0
LINE
8
BLACK
6
CONTINUOUS
10
101.811
20
8.43319
11
102.141
21
8.58505
0
LINE
8
BLACK
6
CONTINUOUS
10
102.141
20
8.58505
11
102.486
21
8.70036
0
LINE
8
BLACK
6
CONTINUOUS
10
102.486
20
8.70036
11
102.841
21
8.77778
0
LINE
8
BLACK
6
CONTINUOUS
10
102.841
20
8.77778
11
103.202
21
8.81639
0
LINE
8
BLACK
6
CONTINUOUS
10
103.202
20
8.81639
11
103.566
21
8.81576
0
LINE
8
BLACK
6
CONTINUOUS
10
103.566
20
8.81576
11
103.927
21
8.77588
0
LINE
8
BLACK
6
CONTINUOUS
10
103.927
20
8.77588
11
104.282
21
8.69723
0
LINE
8
BLACK
6
CONTINUOUS
10
104.282
20
8.69723
11
104.626
21
8.58071
0
LINE
8
BLACK
6
CONTINUOUS
10
104.626
20
8.58071
11
104.955
21
8.4277
0
LINE
8
BLACK
6
CONTINUOUS
10
104.955
20
8.4277
11
105.267
21
8.23999
0
LINE
8
BLACK
6
CONTINUOUS
10
105.267
20
8.23999
11
105.556
21
8.01977
0
LINE
8
BLACK
6
CONTINUOUS
10
105.556
20
8.01977
11
105.819
21
7.76961
0
LINE
8
BLACK
6
CONTINUOUS
10
105.819
20
7.76961
11
106.054
21
7.49245
0
LINE
8
BLACK
6
CONTINUOUS
10
106.054
20
7.49245
11
106.258
21
7.19153
0
LINE
8
BLACK
6
CONTINUOUS
10
106.258
20
7.19153
11
106.428
21
6.87036
0
LINE
8
BLACK
6
CONTINUOUS
10
106.428
20
6.87036
11
106.563
21
6.5327
0
LINE
8
BLACK
6
CONTINUOUS
10
106.563
20
6.5327
11
106.66
21
6.18251
0
LINE
8
BLACK
6
CONTINUOUS
10
106.66
20
6.18251
11
106.718
21
5.82388
0
LINE
8
BLACK
6
CONTINUOUS
10
106.718
20
5.82388
11
106.738
21
5.461
0
LINE
8
BLACK
6
CONTINUOUS
10
106.738
20
5.461
11
106.738
21
5.43754
0
LINE
8
BLACK
6
CONTINUOUS
10
106.738
20
5.43754
11
106.716
21
5.07481
0
LINE
8
BLACK
6
CONTINUOUS
10
106.716
20
5.07481
11
106.655
21
4.7166
0
LINE
8
BLACK
6
CONTINUOUS
10
106.655
20
4.7166
11
106.555
21
4.36709
0
LINE
8
BLACK
6
CONTINUOUS
10
106.555
20
4.36709
11
106.418
21
4.03038
0
LINE
8
BLACK
6
CONTINUOUS
10
106.418
20
4.03038
11
106.246
21
3.71041
0
LINE
8
BLACK
6
CONTINUOUS
10
106.246
20
3.71041
11
106.04
21
3.41091
0
LINE
8
BLACK
6
CONTINUOUS
10
106.04
20
3.41091
11
105.803
21
3.1354
0
LINE
8
BLACK
6
CONTINUOUS
10
105.803
20
3.1354
11
105.538
21
2.88709
0
LINE
8
BLACK
6
CONTINUOUS
10
105.538
20
2.88709
11
105.247
21
2.66889
0
LINE
8
BLACK
6
CONTINUOUS
10
105.247
20
2.66889
11
104.935
21
2.48336
0
LINE
8
BLACK
6
CONTINUOUS
10
104.935
20
2.48336
11
104.604
21
2.33265
0
LINE
8
BLACK
6
CONTINUOUS
10
104.604
20
2.33265
11
104.259
21
2.21854
0
LINE
8
BLACK
6
CONTINUOUS
10
104.259
20
2.21854
11
103.904
21
2.14237
0
LINE
8
BLACK
6
CONTINUOUS
10
103.904
20
2.14237
11
103.542
21
2.10501
0
LINE
8
BLACK
6
CONTINUOUS
10
103.542
20
2.10501
11
103.179
21
2.10691
0
LINE
8
BLACK
6
CONTINUOUS
10
103.179
20
2.10691
11
102.818
21
2.14805
0
LINE
8
BLACK
6
CONTINUOUS
10
102.818
20
2.14805
11
102.463
21
2.22795
0
LINE
8
BLACK
6
CONTINUOUS
10
102.463
20
2.22795
11
102.119
21
2.34566
0
LINE
8
BLACK
6
CONTINUOUS
10
102.119
20
2.34566
11
101.79
21
2.49982
0
LINE
8
BLACK
6
CONTINUOUS
10
101.79
20
2.49982
11
101.48
21
2.68862
0
LINE
8
BLACK
6
CONTINUOUS
10
101.48
20
2.68862
11
101.191
21
2.90985
0
LINE
8
BLACK
6
CONTINUOUS
10
101.191
20
2.90985
11
100.929
21
3.16092
0
LINE
8
BLACK
6
CONTINUOUS
10
100.929
20
3.16092
11
100.695
21
3.4389
0
LINE
8
BLACK
6
CONTINUOUS
10
100.695
20
3.4389
11
100.492
21
3.74054
0
LINE
8
BLACK
6
CONTINUOUS
10
100.492
20
3.74054
11
100.323
21
4.0623
0
LINE
8
BLACK
6
CONTINUOUS
10
100.323
20
4.0623
11
100.19
21
4.40042
0
LINE
8
BLACK
6
CONTINUOUS
10
100.19
20
4.40042
11
100.094
21
4.75095
0
LINE
8
BLACK
6
CONTINUOUS
10
100.094
20
4.75095
11
100.036
21
5.10978
0
LINE
8
BLACK
6
CONTINUOUS
10
100.036
20
5.10978
11
100.018
21
5.47233
0
LINE
8
BLACK
6
CONTINUOUS
10
100.018
20
5.47233
11
100.018
21
5.47273
0
LINE
8
BLACK
6
CONTINUOUS
10
100.018
20
5.47273
11
100.039
21
5.83554
0
LINE
8
BLACK
6
CONTINUOUS
10
100.207
20
4.7753
11
100.299
21
4.4368
0
LINE
8
BLACK
6
CONTINUOUS
10
100.299
20
4.4368
11
100.428
21
4.11027
0
LINE
8
BLACK
6
CONTINUOUS
10
100.428
20
4.11027
11
100.591
21
3.79954
0
LINE
8
BLACK
6
CONTINUOUS
10
100.591
20
3.79954
11
100.787
21
3.50825
0
LINE
8
BLACK
6
CONTINUOUS
10
100.787
20
3.50825
11
101.013
21
3.23981
0
LINE
8
BLACK
6
CONTINUOUS
10
101.013
20
3.23981
11
101.266
21
2.99735
0
LINE
8
BLACK
6
CONTINUOUS
10
101.266
20
2.99735
11
101.545
21
2.78371
0
LINE
8
BLACK
6
CONTINUOUS
10
101.545
20
2.78371
11
101.845
21
2.60138
0
LINE
8
BLACK
6
CONTINUOUS
10
101.845
20
2.60138
11
102.162
21
2.45251
0
LINE
8
BLACK
6
CONTINUOUS
10
102.162
20
2.45251
11
102.495
21
2.33883
0
LINE
8
BLACK
6
CONTINUOUS
10
102.495
20
2.33883
11
102.837
21
2.26168
0
LINE
8
BLACK
6
CONTINUOUS
10
102.837
20
2.26168
11
103.186
21
2.22195
0
LINE
8
BLACK
6
CONTINUOUS
10
103.186
20
2.22195
11
103.537
21
2.22011
0
LINE
8
BLACK
6
CONTINUOUS
10
103.537
20
2.22011
11
103.886
21
2.25619
0
LINE
8
BLACK
6
CONTINUOUS
10
103.886
20
2.25619
11
104.229
21
2.32975
0
LINE
8
BLACK
6
CONTINUOUS
10
104.229
20
2.32975
11
104.562
21
2.43995
0
LINE
8
BLACK
6
CONTINUOUS
10
104.562
20
2.43995
11
104.881
21
2.58548
0
LINE
8
BLACK
6
CONTINUOUS
10
104.881
20
2.58548
11
105.183
21
2.76466
0
LINE
8
BLACK
6
CONTINUOUS
10
105.183
20
2.76466
11
105.464
21
2.97537
0
LINE
8
BLACK
6
CONTINUOUS
10
105.464
20
2.97537
11
105.72
21
3.21516
0
LINE
8
BLACK
6
CONTINUOUS
10
105.72
20
3.21516
11
105.949
21
3.48123
0
LINE
8
BLACK
6
CONTINUOUS
10
105.949
20
3.48123
11
106.148
21
3.77045
0
LINE
8
BLACK
6
CONTINUOUS
10
106.148
20
3.77045
11
106.314
21
4.07945
0
LINE
8
BLACK
6
CONTINUOUS
10
106.314
20
4.07945
11
106.446
21
4.40461
0
LINE
8
BLACK
6
CONTINUOUS
10
106.446
20
4.40461
11
106.542
21
4.74213
0
LINE
8
BLACK
6
CONTINUOUS
10
106.542
20
4.74213
11
106.601
21
5.08806
0
LINE
8
BLACK
6
CONTINUOUS
10
106.601
20
5.08806
11
106.623
21
5.43835
0
LINE
8
BLACK
6
CONTINUOUS
10
106.623
20
5.43835
11
106.623
21
5.461
0
LINE
8
BLACK
6
CONTINUOUS
10
106.623
20
5.461
11
106.604
21
5.81143
0
LINE
8
BLACK
6
CONTINUOUS
10
106.604
20
5.81143
11
106.547
21
6.15776
0
LINE
8
BLACK
6
CONTINUOUS
10
106.547
20
6.15776
11
106.453
21
6.49595
0
LINE
8
BLACK
6
CONTINUOUS
10
106.453
20
6.49595
11
106.324
21
6.82202
0
LINE
8
BLACK
6
CONTINUOUS
10
106.324
20
6.82202
11
106.159
21
7.13217
0
LINE
8
BLACK
6
CONTINUOUS
10
106.159
20
7.13217
11
105.963
21
7.42278
0
LINE
8
BLACK
6
CONTINUOUS
10
105.963
20
7.42278
11
105.736
21
7.69043
0
LINE
8
BLACK
6
CONTINUOUS
10
105.736
20
7.69043
11
105.481
21
7.93201
0
LINE
8
BLACK
6
CONTINUOUS
10
105.481
20
7.93201
11
105.202
21
8.14468
0
LINE
8
BLACK
6
CONTINUOUS
10
105.202
20
8.14468
11
104.901
21
8.32595
0
LINE
8
BLACK
6
CONTINUOUS
10
104.901
20
8.32595
11
104.583
21
8.47371
0
LINE
8
BLACK
6
CONTINUOUS
10
104.583
20
8.47371
11
104.251
21
8.58623
0
LINE
8
BLACK
6
CONTINUOUS
10
104.251
20
8.58623
11
103.908
21
8.66219
0
LINE
8
BLACK
6
CONTINUOUS
10
103.908
20
8.66219
11
103.559
21
8.7007
0
LINE
8
BLACK
6
CONTINUOUS
10
103.559
20
8.7007
11
103.208
21
8.70131
0
LINE
8
BLACK
6
CONTINUOUS
10
103.208
20
8.70131
11
102.859
21
8.66402
0
LINE
8
BLACK
6
CONTINUOUS
10
102.859
20
8.66402
11
102.516
21
8.58926
0
LINE
8
BLACK
6
CONTINUOUS
10
102.516
20
8.58926
11
102.184
21
8.4779
0
LINE
8
BLACK
6
CONTINUOUS
10
102.184
20
8.4779
11
101.865
21
8.33125
0
LINE
8
BLACK
6
CONTINUOUS
10
101.865
20
8.33125
11
101.564
21
8.15103
0
LINE
8
BLACK
6
CONTINUOUS
10
101.564
20
8.15103
11
101.284
21
7.93933
0
LINE
8
BLACK
6
CONTINUOUS
10
101.284
20
7.93933
11
101.028
21
7.69865
0
LINE
8
BLACK
6
CONTINUOUS
10
101.028
20
7.69865
11
100.8
21
7.43179
0
LINE
8
BLACK
6
CONTINUOUS
10
100.8
20
7.43179
11
100.603
21
7.14187
0
LINE
8
BLACK
6
CONTINUOUS
10
100.603
20
7.14187
11
100.437
21
6.83229
0
LINE
8
BLACK
6
CONTINUOUS
10
100.437
20
6.83229
11
100.306
21
6.50667
0
LINE
8
BLACK
6
CONTINUOUS
10
100.306
20
6.50667
11
100.211
21
6.16882
0
LINE
8
BLACK
6
CONTINUOUS
10
100.211
20
6.16882
11
100.153
21
5.82269
0
LINE
8
BLACK
6
CONTINUOUS
10
100.153
20
5.82269
11
100.133
21
5.47233
0
LINE
8
BLACK
6
CONTINUOUS
10
100.133
20
5.47233
11
100.151
21
5.12183
0
LINE
8
BLACK
6
CONTINUOUS
10
100.151
20
5.12183
11
100.207
21
4.7753
0
LINE
8
BLACK
6
CONTINUOUS
10
68.8477
20
5.83554
11
68.9077
21
6.19396
0
LINE
8
BLACK
6
CONTINUOUS
10
68.9077
20
6.19396
11
69.0061
21
6.54381
0
LINE
8
BLACK
6
CONTINUOUS
10
69.0061
20
6.54381
11
69.1416
21
6.881
0
LINE
8
BLACK
6
CONTINUOUS
10
69.1416
20
6.881
11
69.3128
21
7.20157
0
LINE
8
BLACK
6
CONTINUOUS
10
69.3128
20
7.20157
11
69.5176
21
7.50178
0
LINE
8
BLACK
6
CONTINUOUS
10
69.5176
20
7.50178
11
69.7536
21
7.77812
0
LINE
8
BLACK
6
CONTINUOUS
10
69.7536
20
7.77812
11
70.0181
21
8.02736
0
LINE
8
BLACK
6
CONTINUOUS
10
70.0181
20
8.02736
11
70.3079
21
8.24657
0
LINE
8
BLACK
6
CONTINUOUS
10
70.3079
20
8.24657
11
70.6197
21
8.43319
0
LINE
8
BLACK
6
CONTINUOUS
10
70.6197
20
8.43319
11
70.9499
21
8.58505
0
LINE
8
BLACK
6
CONTINUOUS
10
70.9499
20
8.58505
11
71.2945
21
8.70036
0
LINE
8
BLACK
6
CONTINUOUS
10
71.2945
20
8.70036
11
71.6496
21
8.77778
0
LINE
8
BLACK
6
CONTINUOUS
10
71.6496
20
8.77778
11
72.011
21
8.81639
0
LINE
8
BLACK
6
CONTINUOUS
10
72.011
20
8.81639
11
72.3744
21
8.81576
0
LINE
8
BLACK
6
CONTINUOUS
10
72.3744
20
8.81576
11
72.7356
21
8.77588
0
LINE
8
BLACK
6
CONTINUOUS
10
72.7356
20
8.77588
11
73.0904
21
8.69723
0
LINE
8
BLACK
6
CONTINUOUS
10
73.0904
20
8.69723
11
73.4346
21
8.58071
0
LINE
8
BLACK
6
CONTINUOUS
10
73.4346
20
8.58071
11
73.7642
21
8.4277
0
LINE
8
BLACK
6
CONTINUOUS
10
73.7642
20
8.4277
11
74.0754
21
8.23999
0
LINE
8
BLACK
6
CONTINUOUS
10
74.0754
20
8.23999
11
74.3645
21
8.01977
0
LINE
8
BLACK
6
CONTINUOUS
10
74.3645
20
8.01977
11
74.6281
21
7.76961
0
LINE
8
BLACK
6
CONTINUOUS
10
74.6281
20
7.76961
11
74.8631
21
7.49245
0
LINE
8
BLACK
6
CONTINUOUS
10
74.8631
20
7.49245
11
75.0669
21
7.19153
0
LINE
8
BLACK
6
CONTINUOUS
10
75.0669
20
7.19153
11
75.2369
21
6.87036
0
LINE
8
BLACK
6
CONTINUOUS
10
75.2369
20
6.87036
11
75.3713
21
6.5327
0
LINE
8
BLACK
6
CONTINUOUS
10
75.3713
20
6.5327
11
75.4684
21
6.18251
0
LINE
8
BLACK
6
CONTINUOUS
10
75.4684
20
6.18251
11
75.5271
21
5.82388
0
LINE
8
BLACK
6
CONTINUOUS
10
75.5271
20
5.82388
11
75.5468
21
5.461
0
LINE
8
BLACK
6
CONTINUOUS
10
75.5468
20
5.461
11
75.5467
21
5.43754
0
LINE
8
BLACK
6
CONTINUOUS
10
75.5467
20
5.43754
11
75.5245
21
5.07481
0
LINE
8
BLACK
6
CONTINUOUS
10
75.5245
20
5.07481
11
75.4633
21
4.7166
0
LINE
8
BLACK
6
CONTINUOUS
10
75.4633
20
4.7166
11
75.3637
21
4.36709
0
LINE
8
BLACK
6
CONTINUOUS
10
75.3637
20
4.36709
11
75.227
21
4.03038
0
LINE
8
BLACK
6
CONTINUOUS
10
75.227
20
4.03038
11
75.0547
21
3.71041
0
LINE
8
BLACK
6
CONTINUOUS
10
75.0547
20
3.71041
11
74.8489
21
3.41091
0
LINE
8
BLACK
6
CONTINUOUS
10
74.8489
20
3.41091
11
74.6119
21
3.1354
0
LINE
8
BLACK
6
CONTINUOUS
10
74.6119
20
3.1354
11
74.3466
21
2.88709
0
LINE
8
BLACK
6
CONTINUOUS
10
74.3466
20
2.88709
11
74.056
21
2.66889
0
LINE
8
BLACK
6
CONTINUOUS
10
74.056
20
2.66889
11
73.7435
21
2.48336
0
LINE
8
BLACK
6
CONTINUOUS
10
73.7435
20
2.48336
11
73.4128
21
2.33265
0
LINE
8
BLACK
6
CONTINUOUS
10
73.4128
20
2.33265
11
73.0678
21
2.21854
0
LINE
8
BLACK
6
CONTINUOUS
10
73.0678
20
2.21854
11
72.7124
21
2.14237
0
LINE
8
BLACK
6
CONTINUOUS
10
72.7124
20
2.14237
11
72.3509
21
2.10501
0
LINE
8
BLACK
6
CONTINUOUS
10
72.3509
20
2.10501
11
71.9875
21
2.10691
0
LINE
8
BLACK
6
CONTINUOUS
10
71.9875
20
2.10691
11
71.6265
21
2.14805
0
LINE
8
BLACK
6
CONTINUOUS
10
71.6265
20
2.14805
11
71.2719
21
2.22795
0
LINE
8
BLACK
6
CONTINUOUS
10
71.2719
20
2.22795
11
70.9281
21
2.34566
0
LINE
8
BLACK
6
CONTINUOUS
10
70.9281
20
2.34566
11
70.599
21
2.49982
0
LINE
8
BLACK
6
CONTINUOUS
10
70.599
20
2.49982
11
70.2885
21
2.68862
0
LINE
8
BLACK
6
CONTINUOUS
10
70.2885
20
2.68862
11
70.0002
21
2.90985
0
LINE
8
BLACK
6
CONTINUOUS
10
70.0002
20
2.90985
11
69.7375
21
3.16092
0
LINE
8
BLACK
6
CONTINUOUS
10
69.7375
20
3.16092
11
69.5034
21
3.4389
0
LINE
8
BLACK
6
CONTINUOUS
10
69.5034
20
3.4389
11
69.3007
21
3.74054
0
LINE
8
BLACK
6
CONTINUOUS
10
69.3007
20
3.74054
11
69.1318
21
4.0623
0
LINE
8
BLACK
6
CONTINUOUS
10
69.1318
20
4.0623
11
68.9986
21
4.40042
0
LINE
8
BLACK
6
CONTINUOUS
10
68.9986
20
4.40042
11
68.9027
21
4.75095
0
LINE
8
BLACK
6
CONTINUOUS
10
68.9027
20
4.75095
11
68.8452
21
5.10978
0
LINE
8
BLACK
6
CONTINUOUS
10
68.8452
20
5.10978
11
68.8268
21
5.47233
0
LINE
8
BLACK
6
CONTINUOUS
10
68.8268
20
5.47233
11
68.8268
21
5.47273
0
LINE
8
BLACK
6
CONTINUOUS
10
68.8268
20
5.47273
11
68.8477
21
5.83554
0
LINE
8
BLACK
6
CONTINUOUS
10
69.0153
20
4.7753
11
69.1079
21
4.4368
0
LINE
8
BLACK
6
CONTINUOUS
10
69.1079
20
4.4368
11
69.2365
21
4.11027
0
LINE
8
BLACK
6
CONTINUOUS
10
69.2365
20
4.11027
11
69.3997
21
3.79954
0
LINE
8
BLACK
6
CONTINUOUS
10
69.3997
20
3.79954
11
69.5954
21
3.50825
0
LINE
8
BLACK
6
CONTINUOUS
10
69.5954
20
3.50825
11
69.8215
21
3.23981
0
LINE
8
BLACK
6
CONTINUOUS
10
69.8215
20
3.23981
11
70.0752
21
2.99735
0
LINE
8
BLACK
6
CONTINUOUS
10
70.0752
20
2.99735
11
70.3536
21
2.78371
0
LINE
8
BLACK
6
CONTINUOUS
10
70.3536
20
2.78371
11
70.6535
21
2.60138
0
LINE
8
BLACK
6
CONTINUOUS
10
70.6535
20
2.60138
11
70.9713
21
2.45251
0
LINE
8
BLACK
6
CONTINUOUS
10
70.9713
20
2.45251
11
71.3033
21
2.33883
0
LINE
8
BLACK
6
CONTINUOUS
10
71.3033
20
2.33883
11
71.6457
21
2.26168
0
LINE
8
BLACK
6
CONTINUOUS
10
71.6457
20
2.26168
11
71.9944
21
2.22195
0
LINE
8
BLACK
6
CONTINUOUS
10
71.9944
20
2.22195
11
72.3453
21
2.22011
0
LINE
8
BLACK
6
CONTINUOUS
10
72.3453
20
2.22011
11
72.6944
21
2.25619
0
LINE
8
BLACK
6
CONTINUOUS
10
72.6944
20
2.25619
11
73.0375
21
2.32975
0
LINE
8
BLACK
6
CONTINUOUS
10
73.0375
20
2.32975
11
73.3707
21
2.43995
0
LINE
8
BLACK
6
CONTINUOUS
10
73.3707
20
2.43995
11
73.6901
21
2.58548
0
LINE
8
BLACK
6
CONTINUOUS
10
73.6901
20
2.58548
11
73.9918
21
2.76466
0
LINE
8
BLACK
6
CONTINUOUS
10
73.9918
20
2.76466
11
74.2725
21
2.97537
0
LINE
8
BLACK
6
CONTINUOUS
10
74.2725
20
2.97537
11
74.5287
21
3.21516
0
LINE
8
BLACK
6
CONTINUOUS
10
74.5287
20
3.21516
11
74.7576
21
3.48123
0
LINE
8
BLACK
6
CONTINUOUS
10
74.7576
20
3.48123
11
74.9564
21
3.77045
0
LINE
8
BLACK
6
CONTINUOUS
10
74.9564
20
3.77045
11
75.1227
21
4.07945
0
LINE
8
BLACK
6
CONTINUOUS
10
75.1227
20
4.07945
11
75.2548
21
4.40461
0
LINE
8
BLACK
6
CONTINUOUS
10
75.2548
20
4.40461
11
75.3509
21
4.74213
0
LINE
8
BLACK
6
CONTINUOUS
10
75.3509
20
4.74213
11
75.4101
21
5.08806
0
LINE
8
BLACK
6
CONTINUOUS
10
75.4101
20
5.08806
11
75.4315
21
5.43835
0
LINE
8
BLACK
6
CONTINUOUS
10
75.4315
20
5.43835
11
75.4316
21
5.461
0
LINE
8
BLACK
6
CONTINUOUS
10
75.4316
20
5.461
11
75.4126
21
5.81143
0
LINE
8
BLACK
6
CONTINUOUS
10
75.4126
20
5.81143
11
75.3559
21
6.15776
0
LINE
8
BLACK
6
CONTINUOUS
10
75.3559
20
6.15776
11
75.2621
21
6.49595
0
LINE
8
BLACK
6
CONTINUOUS
10
75.2621
20
6.49595
11
75.1323
21
6.82202
0
LINE
8
BLACK
6
CONTINUOUS
10
75.1323
20
6.82202
11
74.9681
21
7.13217
0
LINE
8
BLACK
6
CONTINUOUS
10
74.9681
20
7.13217
11
74.7713
21
7.42278
0
LINE
8
BLACK
6
CONTINUOUS
10
74.7713
20
7.42278
11
74.5444
21
7.69043
0
LINE
8
BLACK
6
CONTINUOUS
10
74.5444
20
7.69043
11
74.2898
21
7.93201
0
LINE
8
BLACK
6
CONTINUOUS
10
74.2898
20
7.93201
11
74.0106
21
8.14468
0
LINE
8
BLACK
6
CONTINUOUS
10
74.0106
20
8.14468
11
73.7101
21
8.32595
0
LINE
8
BLACK
6
CONTINUOUS
10
73.7101
20
8.32595
11
73.3918
21
8.47371
0
LINE
8
BLACK
6
CONTINUOUS
10
73.3918
20
8.47371
11
73.0594
21
8.58623
0
LINE
8
BLACK
6
CONTINUOUS
10
73.0594
20
8.58623
11
72.7168
21
8.66219
0
LINE
8
BLACK
6
CONTINUOUS
10
72.7168
20
8.66219
11
72.3679
21
8.7007
0
LINE
8
BLACK
6
CONTINUOUS
10
72.3679
20
8.7007
11
72.017
21
8.70131
0
LINE
8
BLACK
6
CONTINUOUS
10
72.017
20
8.70131
11
71.668
21
8.66402
0
LINE
8
BLACK
6
CONTINUOUS
10
71.668
20
8.66402
11
71.3251
21
8.58926
0
LINE
8
BLACK
6
CONTINUOUS
10
71.3251
20
8.58926
11
70.9923
21
8.4779
0
LINE
8
BLACK
6
CONTINUOUS
10
70.9923
20
8.4779
11
70.6735
21
8.33125
0
LINE
8
BLACK
6
CONTINUOUS
10
70.6735
20
8.33125
11
70.3724
21
8.15103
0
LINE
8
BLACK
6
CONTINUOUS
10
70.3724
20
8.15103
11
70.0924
21
7.93933
0
LINE
8
BLACK
6
CONTINUOUS
10
70.0924
20
7.93933
11
69.837
21
7.69865
0
LINE
8
BLACK
6
CONTINUOUS
10
69.837
20
7.69865
11
69.6091
21
7.43179
0
LINE
8
BLACK
6
CONTINUOUS
10
69.6091
20
7.43179
11
69.4113
21
7.14187
0
LINE
8
BLACK
6
CONTINUOUS
10
69.4113
20
7.14187
11
69.246
21
6.83229
0
LINE
8
BLACK
6
CONTINUOUS
10
69.246
20
6.83229
11
69.1152
21
6.50667
0
LINE
8
BLACK
6
CONTINUOUS
10
69.1152
20
6.50667
11
69.0202
21
6.16882
0
LINE
8
BLACK
6
CONTINUOUS
10
69.0202
20
6.16882
11
68.9623
21
5.82269
0
LINE
8
BLACK
6
CONTINUOUS
10
68.9623
20
5.82269
11
68.9421
21
5.47233
0
LINE
8
BLACK
6
CONTINUOUS
10
68.9421
20
5.47233
11
68.9598
21
5.12183
0
LINE
8
BLACK
6
CONTINUOUS
10
68.9598
20
5.12183
11
69.0153
21
4.7753
0
LINE
8
BLACK
6
CONTINUOUS
10
5.05598
20
11.937
11
5.15513
21
12.307
0
LINE
8
BLACK
6
CONTINUOUS
10
5.15513
20
12.307
11
5.29242
21
12.6647
0
LINE
8
BLACK
6
CONTINUOUS
10
5.29242
20
12.6647
11
5.46635
21
13.006
0
LINE
8
BLACK
6
CONTINUOUS
10
5.46635
20
13.006
11
5.675
21
13.3273
0
LINE
8
BLACK
6
CONTINUOUS
10
5.675
20
13.3273
11
5.91609
21
13.625
0
LINE
8
BLACK
6
CONTINUOUS
10
5.91609
20
13.625
11
6.18698
21
13.8959
0
LINE
8
BLACK
6
CONTINUOUS
10
6.18698
20
13.8959
11
6.48471
21
14.137
0
LINE
8
BLACK
6
CONTINUOUS
10
6.48471
20
14.137
11
6.806
21
14.3457
0
LINE
8
BLACK
6
CONTINUOUS
10
6.806
20
14.3457
11
7.14734
21
14.5196
0
LINE
8
BLACK
6
CONTINUOUS
10
7.14734
20
14.5196
11
7.505
21
14.6569
0
LINE
8
BLACK
6
CONTINUOUS
10
7.505
20
14.6569
11
7.87504
21
14.756
0
LINE
8
BLACK
6
CONTINUOUS
10
7.87504
20
14.756
11
8.25343
21
14.8159
0
LINE
8
BLACK
6
CONTINUOUS
10
8.25343
20
14.8159
11
8.636
21
14.836
0
LINE
8
BLACK
6
CONTINUOUS
10
8.636
20
14.836
11
9.01857
21
14.8159
0
LINE
8
BLACK
6
CONTINUOUS
10
9.01857
20
14.8159
11
9.39696
21
14.756
0
LINE
8
BLACK
6
CONTINUOUS
10
9.39696
20
14.756
11
9.767
21
14.6569
0
LINE
8
BLACK
6
CONTINUOUS
10
9.767
20
14.6569
11
10.1247
21
14.5196
0
LINE
8
BLACK
6
CONTINUOUS
10
10.1247
20
14.5196
11
10.466
21
14.3457
0
LINE
8
BLACK
6
CONTINUOUS
10
10.466
20
14.3457
11
10.7873
21
14.137
0
LINE
8
BLACK
6
CONTINUOUS
10
10.7873
20
14.137
11
11.085
21
13.8959
0
LINE
8
BLACK
6
CONTINUOUS
10
11.085
20
13.8959
11
11.3559
21
13.625
0
LINE
8
BLACK
6
CONTINUOUS
10
11.3559
20
13.625
11
11.597
21
13.3273
0
LINE
8
BLACK
6
CONTINUOUS
10
11.597
20
13.3273
11
11.8057
21
13.006
0
LINE
8
BLACK
6
CONTINUOUS
10
11.8057
20
13.006
11
11.9796
21
12.6647
0
LINE
8
BLACK
6
CONTINUOUS
10
11.9796
20
12.6647
11
12.1169
21
12.307
0
LINE
8
BLACK
6
CONTINUOUS
10
12.1169
20
12.307
11
12.216
21
11.937
0
LINE
8
BLACK
6
CONTINUOUS
10
12.216
20
11.937
11
12.2759
21
11.5586
0
LINE
8
BLACK
6
CONTINUOUS
10
12.2759
20
11.5586
11
12.296
21
11.176
0
LINE
8
BLACK
6
CONTINUOUS
10
12.296
20
11.176
11
12.2759
21
10.7934
0
LINE
8
BLACK
6
CONTINUOUS
10
12.2759
20
10.7934
11
12.216
21
10.415
0
LINE
8
BLACK
6
CONTINUOUS
10
12.216
20
10.415
11
12.1169
21
10.045
0
LINE
8
BLACK
6
CONTINUOUS
10
12.1169
20
10.045
11
11.9796
21
9.68734
0
LINE
8
BLACK
6
CONTINUOUS
10
11.9796
20
9.68734
11
11.8057
21
9.346
0
LINE
8
BLACK
6
CONTINUOUS
10
11.8057
20
9.346
11
11.597
21
9.02471
0
LINE
8
BLACK
6
CONTINUOUS
10
11.597
20
9.02471
11
11.3559
21
8.72698
0
LINE
8
BLACK
6
CONTINUOUS
10
11.3559
20
8.72698
11
11.085
21
8.45609
0
LINE
8
BLACK
6
CONTINUOUS
10
11.085
20
8.45609
11
10.7873
21
8.215
0
LINE
8
BLACK
6
CONTINUOUS
10
10.7873
20
8.215
11
10.466
21
8.00635
0
LINE
8
BLACK
6
CONTINUOUS
10
10.466
20
8.00635
11
10.1247
21
7.83242
0
LINE
8
BLACK
6
CONTINUOUS
10
10.1247
20
7.83242
11
9.767
21
7.69513
0
LINE
8
BLACK
6
CONTINUOUS
10
9.767
20
7.69513
11
9.39696
21
7.59598
0
LINE
8
BLACK
6
CONTINUOUS
10
9.39696
20
7.59598
11
9.01857
21
7.53605
0
LINE
8
BLACK
6
CONTINUOUS
10
9.01857
20
7.53605
11
8.636
21
7.516
0
LINE
8
BLACK
6
CONTINUOUS
10
8.636
20
7.516
11
8.25343
21
7.53605
0
LINE
8
BLACK
6
CONTINUOUS
10
8.25343
20
7.53605
11
7.87504
21
7.59598
0
LINE
8
BLACK
6
CONTINUOUS
10
7.87504
20
7.59598
11
7.505
21
7.69513
0
LINE
8
BLACK
6
CONTINUOUS
10
7.505
20
7.69513
11
7.14734
21
7.83242
0
LINE
8
BLACK
6
CONTINUOUS
10
7.14734
20
7.83242
11
6.806
21
8.00635
0
LINE
8
BLACK
6
CONTINUOUS
10
6.806
20
8.00635
11
6.48471
21
8.215
0
LINE
8
BLACK
6
CONTINUOUS
10
6.48471
20
8.215
11
6.18698
21
8.45609
0
LINE
8
BLACK
6
CONTINUOUS
10
6.18698
20
8.45609
11
5.91609
21
8.72698
0
LINE
8
BLACK
6
CONTINUOUS
10
5.91609
20
8.72698
11
5.675
21
9.02471
0
LINE
8
BLACK
6
CONTINUOUS
10
5.675
20
9.02471
11
5.46635
21
9.346
0
LINE
8
BLACK
6
CONTINUOUS
10
5.46635
20
9.346
11
5.29242
21
9.68734
0
LINE
8
BLACK
6
CONTINUOUS
10
5.29242
20
9.68734
11
5.15513
21
10.045
0
LINE
8
BLACK
6
CONTINUOUS
10
5.15513
20
10.045
11
5.05598
21
10.415
0
LINE
8
BLACK
6
CONTINUOUS
10
5.05598
20
10.415
11
4.99605
21
10.7934
0
LINE
8
BLACK
6
CONTINUOUS
10
4.99605
20
10.7934
11
4.976
21
11.176
0
LINE
8
BLACK
6
CONTINUOUS
10
4.976
20
11.176
11
4.99605
21
11.5586
0
LINE
8
BLACK
6
CONTINUOUS
10
4.99605
20
11.5586
11
5.05598
21
11.937
0
LINE
8
BLACK
6
CONTINUOUS
10
5.16861
20
10.439
11
5.26464
21
10.0806
0
LINE
8
BLACK
6
CONTINUOUS
10
5.26464
20
10.0806
11
5.39761
21
9.73418
0
LINE
8
BLACK
6
CONTINUOUS
10
5.39761
20
9.73418
11
5.56606
21
9.40357
0
LINE
8
BLACK
6
CONTINUOUS
10
5.56606
20
9.40357
11
5.76815
21
9.09239
0
LINE
8
BLACK
6
CONTINUOUS
10
5.76815
20
9.09239
11
6.00166
21
8.80403
0
LINE
8
BLACK
6
CONTINUOUS
10
6.00166
20
8.80403
11
6.26403
21
8.54166
0
LINE
8
BLACK
6
CONTINUOUS
10
6.26403
20
8.54166
11
6.55239
21
8.30815
0
LINE
8
BLACK
6
CONTINUOUS
10
6.55239
20
8.30815
11
6.86357
21
8.10606
0
LINE
8
BLACK
6
CONTINUOUS
10
6.86357
20
8.10606
11
7.19418
21
7.93761
0
LINE
8
BLACK
6
CONTINUOUS
10
7.19418
20
7.93761
11
7.54058
21
7.80464
0
LINE
8
BLACK
6
CONTINUOUS
10
7.54058
20
7.80464
11
7.89898
21
7.70861
0
LINE
8
BLACK
6
CONTINUOUS
10
7.89898
20
7.70861
11
8.26546
21
7.65056
0
LINE
8
BLACK
6
CONTINUOUS
10
8.26546
20
7.65056
11
8.636
21
7.63114
0
LINE
8
BLACK
6
CONTINUOUS
10
8.636
20
7.63114
11
9.00654
21
7.65056
0
LINE
8
BLACK
6
CONTINUOUS
10
9.00654
20
7.65056
11
9.37302
21
7.70861
0
LINE
8
BLACK
6
CONTINUOUS
10
9.37302
20
7.70861
11
9.73142
21
7.80464
0
LINE
8
BLACK
6
CONTINUOUS
10
9.73142
20
7.80464
11
10.0778
21
7.93761
0
LINE
8
BLACK
6
CONTINUOUS
10
10.0778
20
7.93761
11
10.4084
21
8.10606
0
LINE
8
BLACK
6
CONTINUOUS
10
10.4084
20
8.10606
11
10.7196
21
8.30815
0
LINE
8
BLACK
6
CONTINUOUS
10
10.7196
20
8.30815
11
11.008
21
8.54166
0
LINE
8
BLACK
6
CONTINUOUS
10
11.008
20
8.54166
11
11.2703
21
8.80403
0
LINE
8
BLACK
6
CONTINUOUS
10
11.2703
20
8.80403
11
11.5038
21
9.09239
0
LINE
8
BLACK
6
CONTINUOUS
10
11.5038
20
9.09239
11
11.7059
21
9.40357
0
LINE
8
BLACK
6
CONTINUOUS
10
11.7059
20
9.40357
11
11.8744
21
9.73418
0
LINE
8
BLACK
6
CONTINUOUS
10
11.8744
20
9.73418
11
12.0074
21
10.0806
0
LINE
8
BLACK
6
CONTINUOUS
10
12.0074
20
10.0806
11
12.1034
21
10.439
0
LINE
8
BLACK
6
CONTINUOUS
10
12.1034
20
10.439
11
12.1614
21
10.8055
0
LINE
8
BLACK
6
CONTINUOUS
10
12.1614
20
10.8055
11
12.1809
21
11.176
0
LINE
8
BLACK
6
CONTINUOUS
10
12.1809
20
11.176
11
12.1614
21
11.5465
0
LINE
8
BLACK
6
CONTINUOUS
10
12.1614
20
11.5465
11
12.1034
21
11.913
0
LINE
8
BLACK
6
CONTINUOUS
10
12.1034
20
11.913
11
12.0074
21
12.2714
0
LINE
8
BLACK
6
CONTINUOUS
10
12.0074
20
12.2714
11
11.8744
21
12.6178
0
LINE
8
BLACK
6
CONTINUOUS
10
11.8744
20
12.6178
11
11.7059
21
12.9484
0
LINE
8
BLACK
6
CONTINUOUS
10
11.7059
20
12.9484
11
11.5038
21
13.2596
0
LINE
8
BLACK
6
CONTINUOUS
10
11.5038
20
13.2596
11
11.2703
21
13.548
0
LINE
8
BLACK
6
CONTINUOUS
10
11.2703
20
13.548
11
11.008
21
13.8103
0
LINE
8
BLACK
6
CONTINUOUS
10
11.008
20
13.8103
11
10.7196
21
14.0438
0
LINE
8
BLACK
6
CONTINUOUS
10
10.7196
20
14.0438
11
10.4084
21
14.2459
0
LINE
8
BLACK
6
CONTINUOUS
10
10.4084
20
14.2459
11
10.0778
21
14.4144
0
LINE
8
BLACK
6
CONTINUOUS
10
10.0778
20
14.4144
11
9.73142
21
14.5474
0
LINE
8
BLACK
6
CONTINUOUS
10
9.73142
20
14.5474
11
9.37302
21
14.6434
0
LINE
8
BLACK
6
CONTINUOUS
10
9.37302
20
14.6434
11
9.00654
21
14.7014
0
LINE
8
BLACK
6
CONTINUOUS
10
9.00654
20
14.7014
11
8.636
21
14.7209
0
LINE
8
BLACK
6
CONTINUOUS
10
8.636
20
14.7209
11
8.26546
21
14.7014
0
LINE
8
BLACK
6
CONTINUOUS
10
8.26546
20
14.7014
11
7.89898
21
14.6434
0
LINE
8
BLACK
6
CONTINUOUS
10
7.89898
20
14.6434
11
7.54058
21
14.5474
0
LINE
8
BLACK
6
CONTINUOUS
10
7.54058
20
14.5474
11
7.19418
21
14.4144
0
LINE
8
BLACK
6
CONTINUOUS
10
7.19418
20
14.4144
11
6.86357
21
14.2459
0
LINE
8
BLACK
6
CONTINUOUS
10
6.86357
20
14.2459
11
6.55239
21
14.0438
0
LINE
8
BLACK
6
CONTINUOUS
10
6.55239
20
14.0438
11
6.26403
21
13.8103
0
LINE
8
BLACK
6
CONTINUOUS
10
6.26403
20
13.8103
11
6.00166
21
13.548
0
LINE
8
BLACK
6
CONTINUOUS
10
6.00166
20
13.548
11
5.76815
21
13.2596
0
LINE
8
BLACK
6
CONTINUOUS
10
5.76815
20
13.2596
11
5.56606
21
12.9484
0
LINE
8
BLACK
6
CONTINUOUS
10
5.56606
20
12.9484
11
5.39761
21
12.6178
0
LINE
8
BLACK
6
CONTINUOUS
10
5.39761
20
12.6178
11
5.26464
21
12.2714
0
LINE
8
BLACK
6
CONTINUOUS
10
5.26464
20
12.2714
11
5.16861
21
11.913
0
LINE
8
BLACK
6
CONTINUOUS
10
5.16861
20
11.913
11
5.11056
21
11.5465
0
LINE
8
BLACK
6
CONTINUOUS
10
5.11056
20
11.5465
11
5.09114
21
11.176
0
LINE
8
BLACK
6
CONTINUOUS
10
5.09114
20
11.176
11
5.11056
21
10.8055
0
LINE
8
BLACK
6
CONTINUOUS
10
5.11056
20
10.8055
11
5.16861
21
10.439
0
LINE
8
BLACK
6
CONTINUOUS
10
84.4433
20
17.2655
11
84.5033
21
17.624
0
LINE
8
BLACK
6
CONTINUOUS
10
84.5033
20
17.624
11
84.6017
21
17.9738
0
LINE
8
BLACK
6
CONTINUOUS
10
84.6017
20
17.9738
11
84.7372
21
18.311
0
LINE
8
BLACK
6
CONTINUOUS
10
84.7372
20
18.311
11
84.9084
21
18.6316
0
LINE
8
BLACK
6
CONTINUOUS
10
84.9084
20
18.6316
11
85.1132
21
18.9318
0
LINE
8
BLACK
6
CONTINUOUS
10
85.1132
20
18.9318
11
85.3492
21
19.2081
0
LINE
8
BLACK
6
CONTINUOUS
10
85.3492
20
19.2081
11
85.6137
21
19.4574
0
LINE
8
BLACK
6
CONTINUOUS
10
85.6137
20
19.4574
11
85.9035
21
19.6766
0
LINE
8
BLACK
6
CONTINUOUS
10
85.9035
20
19.6766
11
86.2153
21
19.8632
0
LINE
8
BLACK
6
CONTINUOUS
10
86.2153
20
19.8632
11
86.5455
21
20.015
0
LINE
8
BLACK
6
CONTINUOUS
10
86.5455
20
20.015
11
86.8901
21
20.1304
0
LINE
8
BLACK
6
CONTINUOUS
10
86.8901
20
20.1304
11
87.2452
21
20.2078
0
LINE
8
BLACK
6
CONTINUOUS
10
87.2452
20
20.2078
11
87.6066
21
20.2464
0
LINE
8
BLACK
6
CONTINUOUS
10
87.6066
20
20.2464
11
87.97
21
20.2458
0
LINE
8
BLACK
6
CONTINUOUS
10
87.97
20
20.2458
11
88.3312
21
20.2059
0
LINE
8
BLACK
6
CONTINUOUS
10
88.3312
20
20.2059
11
88.686
21
20.1272
0
LINE
8
BLACK
6
CONTINUOUS
10
88.686
20
20.1272
11
89.0302
21
20.0107
0
LINE
8
BLACK
6
CONTINUOUS
10
89.0302
20
20.0107
11
89.3598
21
19.8577
0
LINE
8
BLACK
6
CONTINUOUS
10
89.3598
20
19.8577
11
89.671
21
19.67
0
LINE
8
BLACK
6
CONTINUOUS
10
89.671
20
19.67
11
89.9601
21
19.4498
0
LINE
8
BLACK
6
CONTINUOUS
10
89.9601
20
19.4498
11
90.2237
21
19.1996
0
LINE
8
BLACK
6
CONTINUOUS
10
90.2237
20
19.1996
11
90.4587
21
18.9225
0
LINE
8
BLACK
6
CONTINUOUS
10
90.4587
20
18.9225
11
90.6625
21
18.6215
0
LINE
8
BLACK
6
CONTINUOUS
10
90.6625
20
18.6215
11
90.8325
21
18.3004
0
LINE
8
BLACK
6
CONTINUOUS
10
90.8325
20
18.3004
11
90.9669
21
17.9627
0
LINE
8
BLACK
6
CONTINUOUS
10
90.9669
20
17.9627
11
91.064
21
17.6125
0
LINE
8
BLACK
6
CONTINUOUS
10
91.064
20
17.6125
11
91.1227
21
17.2539
0
LINE
8
BLACK
6
CONTINUOUS
10
91.1227
20
17.2539
11
91.1424
21
16.891
0
LINE
8
BLACK
6
CONTINUOUS
10
91.1424
20
16.891
11
91.1423
21
16.8675
0
LINE
8
BLACK
6
CONTINUOUS
10
91.1423
20
16.8675
11
91.1201
21
16.5048
0
LINE
8
BLACK
6
CONTINUOUS
10
91.1201
20
16.5048
11
91.0589
21
16.1466
0
LINE
8
BLACK
6
CONTINUOUS
10
91.0589
20
16.1466
11
90.9593
21
15.7971
0
LINE
8
BLACK
6
CONTINUOUS
10
90.9593
20
15.7971
11
90.8226
21
15.4604
0
LINE
8
BLACK
6
CONTINUOUS
10
90.8226
20
15.4604
11
90.6503
21
15.1404
0
LINE
8
BLACK
6
CONTINUOUS
10
90.6503
20
15.1404
11
90.4445
21
14.8409
0
LINE
8
BLACK
6
CONTINUOUS
10
90.4445
20
14.8409
11
90.2075
21
14.5654
0
LINE
8
BLACK
6
CONTINUOUS
10
90.2075
20
14.5654
11
89.9422
21
14.3171
0
LINE
8
BLACK
6
CONTINUOUS
10
89.9422
20
14.3171
11
89.6516
21
14.0989
0
LINE
8
BLACK
6
CONTINUOUS
10
89.6516
20
14.0989
11
89.3391
21
13.9134
0
LINE
8
BLACK
6
CONTINUOUS
10
89.3391
20
13.9134
11
89.0084
21
13.7627
0
LINE
8
BLACK
6
CONTINUOUS
10
89.0084
20
13.7627
11
88.6634
21
13.6485
0
LINE
8
BLACK
6
CONTINUOUS
10
88.6634
20
13.6485
11
88.308
21
13.5724
0
LINE
8
BLACK
6
CONTINUOUS
10
88.308
20
13.5724
11
87.9465
21
13.535
0
LINE
8
BLACK
6
CONTINUOUS
10
87.9465
20
13.535
11
87.5831
21
13.5369
0
LINE
8
BLACK
6
CONTINUOUS
10
87.5831
20
13.5369
11
87.2221
21
13.5781
0
LINE
8
BLACK
6
CONTINUOUS
10
87.2221
20
13.5781
11
86.8675
21
13.6579
0
LINE
8
BLACK
6
CONTINUOUS
10
86.8675
20
13.6579
11
86.5237
21
13.7757
0
LINE
8
BLACK
6
CONTINUOUS
10
86.5237
20
13.7757
11
86.1946
21
13.9298
0
LINE
8
BLACK
6
CONTINUOUS
10
86.1946
20
13.9298
11
85.8841
21
14.1186
0
LINE
8
BLACK
6
CONTINUOUS
10
85.8841
20
14.1186
11
85.5958
21
14.3398
0
LINE
8
BLACK
6
CONTINUOUS
10
85.5958
20
14.3398
11
85.3331
21
14.5909
0
LINE
8
BLACK
6
CONTINUOUS
10
85.3331
20
14.5909
11
85.099
21
14.8689
0
LINE
8
BLACK
6
CONTINUOUS
10
85.099
20
14.8689
11
84.8963
21
15.1705
0
LINE
8
BLACK
6
CONTINUOUS
10
84.8963
20
15.1705
11
84.7274
21
15.4923
0
LINE
8
BLACK
6
CONTINUOUS
10
84.7274
20
15.4923
11
84.5942
21
15.8304
0
LINE
8
BLACK
6
CONTINUOUS
10
84.5942
20
15.8304
11
84.4983
21
16.1809
0
LINE
8
BLACK
6
CONTINUOUS
10
84.4983
20
16.1809
11
84.4408
21
16.5398
0
LINE
8
BLACK
6
CONTINUOUS
10
84.4408
20
16.5398
11
84.4224
21
16.9023
0
LINE
8
BLACK
6
CONTINUOUS
10
84.4224
20
16.9023
11
84.4224
21
16.9027
0
LINE
8
BLACK
6
CONTINUOUS
10
84.4224
20
16.9027
11
84.4433
21
17.2655
0
LINE
8
BLACK
6
CONTINUOUS
10
84.6109
20
16.2053
11
84.7035
21
15.8668
0
LINE
8
BLACK
6
CONTINUOUS
10
84.7035
20
15.8668
11
84.8321
21
15.5403
0
LINE
8
BLACK
6
CONTINUOUS
10
84.8321
20
15.5403
11
84.9953
21
15.2295
0
LINE
8
BLACK
6
CONTINUOUS
10
84.9953
20
15.2295
11
85.191
21
14.9383
0
LINE
8
BLACK
6
CONTINUOUS
10
85.191
20
14.9383
11
85.4171
21
14.6698
0
LINE
8
BLACK
6
CONTINUOUS
10
85.4171
20
14.6698
11
85.6708
21
14.4273
0
LINE
8
BLACK
6
CONTINUOUS
10
85.6708
20
14.4273
11
85.9492
21
14.2137
0
LINE
8
BLACK
6
CONTINUOUS
10
85.9492
20
14.2137
11
86.2491
21
14.0314
0
LINE
8
BLACK
6
CONTINUOUS
10
86.2491
20
14.0314
11
86.5669
21
13.8825
0
LINE
8
BLACK
6
CONTINUOUS
10
86.5669
20
13.8825
11
86.8989
21
13.7688
0
LINE
8
BLACK
6
CONTINUOUS
10
86.8989
20
13.7688
11
87.2413
21
13.6917
0
LINE
8
BLACK
6
CONTINUOUS
10
87.2413
20
13.6917
11
87.59
21
13.652
0
LINE
8
BLACK
6
CONTINUOUS
10
87.59
20
13.652
11
87.9409
21
13.6501
0
LINE
8
BLACK
6
CONTINUOUS
10
87.9409
20
13.6501
11
88.29
21
13.6862
0
LINE
8
BLACK
6
CONTINUOUS
10
88.29
20
13.6862
11
88.6331
21
13.7598
0
LINE
8
BLACK
6
CONTINUOUS
10
88.6331
20
13.7598
11
88.9663
21
13.8699
0
LINE
8
BLACK
6
CONTINUOUS
10
88.9663
20
13.8699
11
89.2857
21
14.0155
0
LINE
8
BLACK
6
CONTINUOUS
10
89.2857
20
14.0155
11
89.5874
21
14.1947
0
LINE
8
BLACK
6
CONTINUOUS
10
89.5874
20
14.1947
11
89.8681
21
14.4054
0
LINE
8
BLACK
6
CONTINUOUS
10
89.8681
20
14.4054
11
90.1243
21
14.6452
0
LINE
8
BLACK
6
CONTINUOUS
10
90.1243
20
14.6452
11
90.3532
21
14.9112
0
LINE
8
BLACK
6
CONTINUOUS
10
90.3532
20
14.9112
11
90.552
21
15.2004
0
LINE
8
BLACK
6
CONTINUOUS
10
90.552
20
15.2004
11
90.7183
21
15.5094
0
LINE
8
BLACK
6
CONTINUOUS
10
90.7183
20
15.5094
11
90.8504
21
15.8346
0
LINE
8
BLACK
6
CONTINUOUS
10
90.8504
20
15.8346
11
90.9465
21
16.1721
0
LINE
8
BLACK
6
CONTINUOUS
10
90.9465
20
16.1721
11
91.0057
21
16.5181
0
LINE
8
BLACK
6
CONTINUOUS
10
91.0057
20
16.5181
11
91.0271
21
16.8683
0
LINE
8
BLACK
6
CONTINUOUS
10
91.0271
20
16.8683
11
91.0272
21
16.891
0
LINE
8
BLACK
6
CONTINUOUS
10
91.0272
20
16.891
11
91.0082
21
17.2414
0
LINE
8
BLACK
6
CONTINUOUS
10
91.0082
20
17.2414
11
90.9515
21
17.5878
0
LINE
8
BLACK
6
CONTINUOUS
10
90.9515
20
17.5878
11
90.8577
21
17.9259
0
LINE
8
BLACK
6
CONTINUOUS
10
90.8577
20
17.9259
11
90.7279
21
18.252
0
LINE
8
BLACK
6
CONTINUOUS
10
90.7279
20
18.252
11
90.5637
21
18.5622
0
LINE
8
BLACK
6
CONTINUOUS
10
90.5637
20
18.5622
11
90.3669
21
18.8528
0
LINE
8
BLACK
6
CONTINUOUS
10
90.3669
20
18.8528
11
90.14
21
19.1204
0
LINE
8
BLACK
6
CONTINUOUS
10
90.14
20
19.1204
11
89.8854
21
19.362
0
LINE
8
BLACK
6
CONTINUOUS
10
89.8854
20
19.362
11
89.6062
21
19.5747
0
LINE
8
BLACK
6
CONTINUOUS
10
89.6062
20
19.5747
11
89.3057
21
19.756
0
LINE
8
BLACK
6
CONTINUOUS
10
89.3057
20
19.756
11
88.9874
21
19.9037
0
LINE
8
BLACK
6
CONTINUOUS
10
88.9874
20
19.9037
11
88.655
21
20.0162
0
LINE
8
BLACK
6
CONTINUOUS
10
88.655
20
20.0162
11
88.3124
21
20.0922
0
LINE
8
BLACK
6
CONTINUOUS
10
88.3124
20
20.0922
11
87.9635
21
20.1307
0
LINE
8
BLACK
6
CONTINUOUS
10
87.9635
20
20.1307
11
87.6126
21
20.1313
0
LINE
8
BLACK
6
CONTINUOUS
10
87.6126
20
20.1313
11
87.2636
21
20.094
0
LINE
8
BLACK
6
CONTINUOUS
10
87.2636
20
20.094
11
86.9207
21
20.0193
0
LINE
8
BLACK
6
CONTINUOUS
10
86.9207
20
20.0193
11
86.5879
21
19.9079
0
LINE
8
BLACK
6
CONTINUOUS
10
86.5879
20
19.9079
11
86.2691
21
19.7613
0
LINE
8
BLACK
6
CONTINUOUS
10
86.2691
20
19.7613
11
85.968
21
19.581
0
LINE
8
BLACK
6
CONTINUOUS
10
85.968
20
19.581
11
85.688
21
19.3693
0
LINE
8
BLACK
6
CONTINUOUS
10
85.688
20
19.3693
11
85.4326
21
19.1286
0
LINE
8
BLACK
6
CONTINUOUS
10
85.4326
20
19.1286
11
85.2047
21
18.8618
0
LINE
8
BLACK
6
CONTINUOUS
10
85.2047
20
18.8618
11
85.0069
21
18.5719
0
LINE
8
BLACK
6
CONTINUOUS
10
85.0069
20
18.5719
11
84.8417
21
18.2623
0
LINE
8
BLACK
6
CONTINUOUS
10
84.8417
20
18.2623
11
84.7108
21
17.9367
0
LINE
8
BLACK
6
CONTINUOUS
10
84.7108
20
17.9367
11
84.6158
21
17.5988
0
LINE
8
BLACK
6
CONTINUOUS
10
84.6158
20
17.5988
11
84.5579
21
17.2527
0
LINE
8
BLACK
6
CONTINUOUS
10
84.5579
20
17.2527
11
84.5377
21
16.9023
0
LINE
8
BLACK
6
CONTINUOUS
10
84.5377
20
16.9023
11
84.5554
21
16.5518
0
LINE
8
BLACK
6
CONTINUOUS
10
84.5554
20
16.5518
11
84.6109
21
16.2053
0
LINE
8
BLACK
6
CONTINUOUS
10
53.2521
20
17.2655
11
53.3121
21
17.624
0
LINE
8
BLACK
6
CONTINUOUS
10
53.3121
20
17.624
11
53.4105
21
17.9738
0
LINE
8
BLACK
6
CONTINUOUS
10
53.4105
20
17.9738
11
53.546
21
18.311
0
LINE
8
BLACK
6
CONTINUOUS
10
53.546
20
18.311
11
53.7172
21
18.6316
0
LINE
8
BLACK
6
CONTINUOUS
10
53.7172
20
18.6316
11
53.922
21
18.9318
0
LINE
8
BLACK
6
CONTINUOUS
10
53.922
20
18.9318
11
54.158
21
19.2081
0
LINE
8
BLACK
6
CONTINUOUS
10
54.158
20
19.2081
11
54.4225
21
19.4574
0
LINE
8
BLACK
6
CONTINUOUS
10
54.4225
20
19.4574
11
54.7123
21
19.6766
0
LINE
8
BLACK
6
CONTINUOUS
10
54.7123
20
19.6766
11
55.0241
21
19.8632
0
LINE
8
BLACK
6
CONTINUOUS
10
55.0241
20
19.8632
11
55.3543
21
20.015
0
LINE
8
BLACK
6
CONTINUOUS
10
55.3543
20
20.015
11
55.6989
21
20.1304
0
LINE
8
BLACK
6
CONTINUOUS
10
55.6989
20
20.1304
11
56.054
21
20.2078
0
LINE
8
BLACK
6
CONTINUOUS
10
56.054
20
20.2078
11
56.4154
21
20.2464
0
LINE
8
BLACK
6
CONTINUOUS
10
56.4154
20
20.2464
11
56.7788
21
20.2458
0
LINE
8
BLACK
6
CONTINUOUS
10
56.7788
20
20.2458
11
57.14
21
20.2059
0
LINE
8
BLACK
6
CONTINUOUS
10
57.14
20
20.2059
11
57.4948
21
20.1272
0
LINE
8
BLACK
6
CONTINUOUS
10
57.4948
20
20.1272
11
57.839
21
20.0107
0
LINE
8
BLACK
6
CONTINUOUS
10
57.839
20
20.0107
11
58.1686
21
19.8577
0
LINE
8
BLACK
6
CONTINUOUS
10
58.1686
20
19.8577
11
58.4798
21
19.67
0
LINE
8
BLACK
6
CONTINUOUS
10
58.4798
20
19.67
11
58.7689
21
19.4498
0
LINE
8
BLACK
6
CONTINUOUS
10
58.7689
20
19.4498
11
59.0325
21
19.1996
0
LINE
8
BLACK
6
CONTINUOUS
10
59.0325
20
19.1996
11
59.2675
21
18.9225
0
LINE
8
BLACK
6
CONTINUOUS
10
59.2675
20
18.9225
11
59.4713
21
18.6215
0
LINE
8
BLACK
6
CONTINUOUS
10
59.4713
20
18.6215
11
59.6413
21
18.3004
0
LINE
8
BLACK
6
CONTINUOUS
10
59.6413
20
18.3004
11
59.7757
21
17.9627
0
LINE
8
BLACK
6
CONTINUOUS
10
59.7757
20
17.9627
11
59.8728
21
17.6125
0
LINE
8
BLACK
6
CONTINUOUS
10
59.8728
20
17.6125
11
59.9315
21
17.2539
0
LINE
8
BLACK
6
CONTINUOUS
10
59.9315
20
17.2539
11
59.9512
21
16.891
0
LINE
8
BLACK
6
CONTINUOUS
10
59.9512
20
16.891
11
59.9511
21
16.8675
0
LINE
8
BLACK
6
CONTINUOUS
10
59.9511
20
16.8675
11
59.9289
21
16.5048
0
LINE
8
BLACK
6
CONTINUOUS
10
59.9289
20
16.5048
11
59.8677
21
16.1466
0
LINE
8
BLACK
6
CONTINUOUS
10
59.8677
20
16.1466
11
59.7681
21
15.7971
0
LINE
8
BLACK
6
CONTINUOUS
10
59.7681
20
15.7971
11
59.6314
21
15.4604
0
LINE
8
BLACK
6
CONTINUOUS
10
59.6314
20
15.4604
11
59.4591
21
15.1404
0
LINE
8
BLACK
6
CONTINUOUS
10
59.4591
20
15.1404
11
59.2533
21
14.8409
0
LINE
8
BLACK
6
CONTINUOUS
10
59.2533
20
14.8409
11
59.0163
21
14.5654
0
LINE
8
BLACK
6
CONTINUOUS
10
59.0163
20
14.5654
11
58.751
21
14.3171
0
LINE
8
BLACK
6
CONTINUOUS
10
58.751
20
14.3171
11
58.4604
21
14.0989
0
LINE
8
BLACK
6
CONTINUOUS
10
58.4604
20
14.0989
11
58.1479
21
13.9134
0
LINE
8
BLACK
6
CONTINUOUS
10
58.1479
20
13.9134
11
57.8172
21
13.7627
0
LINE
8
BLACK
6
CONTINUOUS
10
57.8172
20
13.7627
11
57.4722
21
13.6485
0
LINE
8
BLACK
6
CONTINUOUS
10
57.4722
20
13.6485
11
57.1168
21
13.5724
0
LINE
8
BLACK
6
CONTINUOUS
10
57.1168
20
13.5724
11
56.7553
21
13.535
0
LINE
8
BLACK
6
CONTINUOUS
10
56.7553
20
13.535
11
56.3919
21
13.5369
0
LINE
8
BLACK
6
CONTINUOUS
10
56.3919
20
13.5369
11
56.0309
21
13.5781
0
LINE
8
BLACK
6
CONTINUOUS
10
56.0309
20
13.5781
11
55.6763
21
13.6579
0
LINE
8
BLACK
6
CONTINUOUS
10
55.6763
20
13.6579
11
55.3325
21
13.7757
0
LINE
8
BLACK
6
CONTINUOUS
10
55.3325
20
13.7757
11
55.0034
21
13.9298
0
LINE
8
BLACK
6
CONTINUOUS
10
55.0034
20
13.9298
11
54.6929
21
14.1186
0
LINE
8
BLACK
6
CONTINUOUS
10
54.6929
20
14.1186
11
54.4046
21
14.3398
0
LINE
8
BLACK
6
CONTINUOUS
10
54.4046
20
14.3398
11
54.1419
21
14.5909
0
LINE
8
BLACK
6
CONTINUOUS
10
54.1419
20
14.5909
11
53.9078
21
14.8689
0
LINE
8
BLACK
6
CONTINUOUS
10
53.9078
20
14.8689
11
53.7051
21
15.1705
0
LINE
8
BLACK
6
CONTINUOUS
10
53.7051
20
15.1705
11
53.5362
21
15.4923
0
LINE
8
BLACK
6
CONTINUOUS
10
53.5362
20
15.4923
11
53.403
21
15.8304
0
LINE
8
BLACK
6
CONTINUOUS
10
53.403
20
15.8304
11
53.3071
21
16.1809
0
LINE
8
BLACK
6
CONTINUOUS
10
53.3071
20
16.1809
11
53.2496
21
16.5398
0
LINE
8
BLACK
6
CONTINUOUS
10
53.2496
20
16.5398
11
53.2312
21
16.9023
0
LINE
8
BLACK
6
CONTINUOUS
10
53.2312
20
16.9023
11
53.2312
21
16.9027
0
LINE
8
BLACK
6
CONTINUOUS
10
53.2312
20
16.9027
11
53.2521
21
17.2655
0
LINE
8
BLACK
6
CONTINUOUS
10
53.4197
20
16.2053
11
53.5123
21
15.8668
0
LINE
8
BLACK
6
CONTINUOUS
10
53.5123
20
15.8668
11
53.6409
21
15.5403
0
LINE
8
BLACK
6
CONTINUOUS
10
53.6409
20
15.5403
11
53.8041
21
15.2295
0
LINE
8
BLACK
6
CONTINUOUS
10
53.8041
20
15.2295
11
53.9998
21
14.9383
0
LINE
8
BLACK
6
CONTINUOUS
10
53.9998
20
14.9383
11
54.2259
21
14.6698
0
LINE
8
BLACK
6
CONTINUOUS
10
54.2259
20
14.6698
11
54.4796
21
14.4273
0
LINE
8
BLACK
6
CONTINUOUS
10
54.4796
20
14.4273
11
54.758
21
14.2137
0
LINE
8
BLACK
6
CONTINUOUS
10
54.758
20
14.2137
11
55.0579
21
14.0314
0
LINE
8
BLACK
6
CONTINUOUS
10
55.0579
20
14.0314
11
55.3757
21
13.8825
0
LINE
8
BLACK
6
CONTINUOUS
10
55.3757
20
13.8825
11
55.7077
21
13.7688
0
LINE
8
BLACK
6
CONTINUOUS
10
55.7077
20
13.7688
11
56.0501
21
13.6917
0
LINE
8
BLACK
6
CONTINUOUS
10
56.0501
20
13.6917
11
56.3988
21
13.652
0
LINE
8
BLACK
6
CONTINUOUS
10
56.3988
20
13.652
11
56.7497
21
13.6501
0
LINE
8
BLACK
6
CONTINUOUS
10
56.7497
20
13.6501
11
57.0988
21
13.6862
0
LINE
8
BLACK
6
CONTINUOUS
10
57.0988
20
13.6862
11
57.4419
21
13.7598
0
LINE
8
BLACK
6
CONTINUOUS
10
57.4419
20
13.7598
11
57.7751
21
13.8699
0
LINE
8
BLACK
6
CONTINUOUS
10
57.7751
20
13.8699
11
58.0945
21
14.0155
0
LINE
8
BLACK
6
CONTINUOUS
10
58.0945
20
14.0155
11
58.3962
21
14.1947
0
LINE
8
BLACK
6
CONTINUOUS
10
58.3962
20
14.1947
11
58.6769
21
14.4054
0
LINE
8
BLACK
6
CONTINUOUS
10
58.6769
20
14.4054
11
58.9331
21
14.6452
0
LINE
8
BLACK
6
CONTINUOUS
10
58.9331
20
14.6452
11
59.162
21
14.9112
0
LINE
8
BLACK
6
CONTINUOUS
10
59.162
20
14.9112
11
59.3608
21
15.2004
0
LINE
8
BLACK
6
CONTINUOUS
10
59.3608
20
15.2004
11
59.5271
21
15.5094
0
LINE
8
BLACK
6
CONTINUOUS
10
59.5271
20
15.5094
11
59.6592
21
15.8346
0
LINE
8
BLACK
6
CONTINUOUS
10
59.6592
20
15.8346
11
59.7553
21
16.1721
0
LINE
8
BLACK
6
CONTINUOUS
10
59.7553
20
16.1721
11
59.8145
21
16.5181
0
LINE
8
BLACK
6
CONTINUOUS
10
59.8145
20
16.5181
11
59.8359
21
16.8683
0
LINE
8
BLACK
6
CONTINUOUS
10
59.8359
20
16.8683
11
59.836
21
16.891
0
LINE
8
BLACK
6
CONTINUOUS
10
59.836
20
16.891
11
59.817
21
17.2414
0
LINE
8
BLACK
6
CONTINUOUS
10
59.817
20
17.2414
11
59.7603
21
17.5878
0
LINE
8
BLACK
6
CONTINUOUS
10
59.7603
20
17.5878
11
59.6665
21
17.9259
0
LINE
8
BLACK
6
CONTINUOUS
10
59.6665
20
17.9259
11
59.5367
21
18.252
0
LINE
8
BLACK
6
CONTINUOUS
10
59.5367
20
18.252
11
59.3725
21
18.5622
0
LINE
8
BLACK
6
CONTINUOUS
10
59.3725
20
18.5622
11
59.1757
21
18.8528
0
LINE
8
BLACK
6
CONTINUOUS
10
59.1757
20
18.8528
11
58.9488
21
19.1204
0
LINE
8
BLACK
6
CONTINUOUS
10
58.9488
20
19.1204
11
58.6942
21
19.362
0
LINE
8
BLACK
6
CONTINUOUS
10
58.6942
20
19.362
11
58.415
21
19.5747
0
LINE
8
BLACK
6
CONTINUOUS
10
58.415
20
19.5747
11
58.1145
21
19.756
0
LINE
8
BLACK
6
CONTINUOUS
10
58.1145
20
19.756
11
57.7962
21
19.9037
0
LINE
8
BLACK
6
CONTINUOUS
10
57.7962
20
19.9037
11
57.4638
21
20.0162
0
LINE
8
BLACK
6
CONTINUOUS
10
57.4638
20
20.0162
11
57.1212
21
20.0922
0
LINE
8
BLACK
6
CONTINUOUS
10
57.1212
20
20.0922
11
56.7723
21
20.1307
0
LINE
8
BLACK
6
CONTINUOUS
10
56.7723
20
20.1307
11
56.4214
21
20.1313
0
LINE
8
BLACK
6
CONTINUOUS
10
56.4214
20
20.1313
11
56.0724
21
20.094
0
LINE
8
BLACK
6
CONTINUOUS
10
56.0724
20
20.094
11
55.7295
21
20.0193
0
LINE
8
BLACK
6
CONTINUOUS
10
55.7295
20
20.0193
11
55.3967
21
19.9079
0
LINE
8
BLACK
6
CONTINUOUS
10
55.3967
20
19.9079
11
55.0779
21
19.7613
0
LINE
8
BLACK
6
CONTINUOUS
10
55.0779
20
19.7613
11
54.7768
21
19.581
0
LINE
8
BLACK
6
CONTINUOUS
10
54.7768
20
19.581
11
54.4968
21
19.3693
0
LINE
8
BLACK
6
CONTINUOUS
10
54.4968
20
19.3693
11
54.2414
21
19.1286
0
LINE
8
BLACK
6
CONTINUOUS
10
54.2414
20
19.1286
11
54.0135
21
18.8618
0
LINE
8
BLACK
6
CONTINUOUS
10
54.0135
20
18.8618
11
53.8157
21
18.5719
0
LINE
8
BLACK
6
CONTINUOUS
10
53.8157
20
18.5719
11
53.6504
21
18.2623
0
LINE
8
BLACK
6
CONTINUOUS
10
53.6504
20
18.2623
11
53.5196
21
17.9367
0
LINE
8
BLACK
6
CONTINUOUS
10
53.5196
20
17.9367
11
53.4246
21
17.5988
0
LINE
8
BLACK
6
CONTINUOUS
10
53.4246
20
17.5988
11
53.3667
21
17.2527
0
LINE
8
BLACK
6
CONTINUOUS
10
53.3667
20
17.2527
11
53.3465
21
16.9023
0
LINE
8
BLACK
6
CONTINUOUS
10
53.3465
20
16.9023
11
53.3642
21
16.5518
0
LINE
8
BLACK
6
CONTINUOUS
10
53.3642
20
16.5518
11
53.4197
21
16.2053
0
LINE
8
BLACK
6
CONTINUOUS
10
99.9899
20
17.2655
11
100.05
21
17.624
0
LINE
8
BLACK
6
CONTINUOUS
10
100.05
20
17.624
11
100.148
21
17.9738
0
LINE
8
BLACK
6
CONTINUOUS
10
100.148
20
17.9738
11
100.284
21
18.311
0
LINE
8
BLACK
6
CONTINUOUS
10
100.284
20
18.311
11
100.455
21
18.6316
0
LINE
8
BLACK
6
CONTINUOUS
10
100.455
20
18.6316
11
100.66
21
18.9318
0
LINE
8
BLACK
6
CONTINUOUS
10
100.66
20
18.9318
11
100.896
21
19.2081
0
LINE
8
BLACK
6
CONTINUOUS
10
100.896
20
19.2081
11
101.16
21
19.4574
0
LINE
8
BLACK
6
CONTINUOUS
10
101.16
20
19.4574
11
101.45
21
19.6766
0
LINE
8
BLACK
6
CONTINUOUS
10
101.45
20
19.6766
11
101.762
21
19.8632
0
LINE
8
BLACK
6
CONTINUOUS
10
101.762
20
19.8632
11
102.092
21
20.015
0
LINE
8
BLACK
6
CONTINUOUS
10
102.092
20
20.015
11
102.437
21
20.1304
0
LINE
8
BLACK
6
CONTINUOUS
10
102.437
20
20.1304
11
102.792
21
20.2078
0
LINE
8
BLACK
6
CONTINUOUS
10
102.792
20
20.2078
11
103.153
21
20.2464
0
LINE
8
BLACK
6
CONTINUOUS
10
103.153
20
20.2464
11
103.517
21
20.2458
0
LINE
8
BLACK
6
CONTINUOUS
10
103.517
20
20.2458
11
103.878
21
20.2059
0
LINE
8
BLACK
6
CONTINUOUS
10
103.878
20
20.2059
11
104.233
21
20.1272
0
LINE
8
BLACK
6
CONTINUOUS
10
104.233
20
20.1272
11
104.577
21
20.0107
0
LINE
8
BLACK
6
CONTINUOUS
10
104.577
20
20.0107
11
104.906
21
19.8577
0
LINE
8
BLACK
6
CONTINUOUS
10
104.906
20
19.8577
11
105.218
21
19.67
0
LINE
8
BLACK
6
CONTINUOUS
10
105.218
20
19.67
11
105.507
21
19.4498
0
LINE
8
BLACK
6
CONTINUOUS
10
105.507
20
19.4498
11
105.77
21
19.1996
0
LINE
8
BLACK
6
CONTINUOUS
10
105.77
20
19.1996
11
106.005
21
18.9225
0
LINE
8
BLACK
6
CONTINUOUS
10
106.005
20
18.9225
11
106.209
21
18.6215
0
LINE
8
BLACK
6
CONTINUOUS
10
106.209
20
18.6215
11
106.379
21
18.3004
0
LINE
8
BLACK
6
CONTINUOUS
10
106.379
20
18.3004
11
106.514
21
17.9627
0
LINE
8
BLACK
6
CONTINUOUS
10
106.514
20
17.9627
11
106.611
21
17.6125
0
LINE
8
BLACK
6
CONTINUOUS
10
106.611
20
17.6125
11
106.669
21
17.2539
0
LINE
8
BLACK
6
CONTINUOUS
10
106.669
20
17.2539
11
106.689
21
16.891
0
LINE
8
BLACK
6
CONTINUOUS
10
106.689
20
16.891
11
106.689
21
16.8675
0
LINE
8
BLACK
6
CONTINUOUS
10
106.689
20
16.8675
11
106.667
21
16.5048
0
LINE
8
BLACK
6
CONTINUOUS
10
106.667
20
16.5048
11
106.606
21
16.1466
0
LINE
8
BLACK
6
CONTINUOUS
10
106.606
20
16.1466
11
106.506
21
15.7971
0
LINE
8
BLACK
6
CONTINUOUS
10
106.506
20
15.7971
11
106.369
21
15.4604
0
LINE
8
BLACK
6
CONTINUOUS
10
106.369
20
15.4604
11
106.197
21
15.1404
0
LINE
8
BLACK
6
CONTINUOUS
10
106.197
20
15.1404
11
105.991
21
14.8409
0
LINE
8
BLACK
6
CONTINUOUS
10
105.991
20
14.8409
11
105.754
21
14.5654
0
LINE
8
BLACK
6
CONTINUOUS
10
105.754
20
14.5654
11
105.489
21
14.3171
0
LINE
8
BLACK
6
CONTINUOUS
10
105.489
20
14.3171
11
105.198
21
14.0989
0
LINE
8
BLACK
6
CONTINUOUS
10
105.198
20
14.0989
11
104.886
21
13.9134
0
LINE
8
BLACK
6
CONTINUOUS
10
104.886
20
13.9134
11
104.555
21
13.7627
0
LINE
8
BLACK
6
CONTINUOUS
10
104.555
20
13.7627
11
104.21
21
13.6485
0
LINE
8
BLACK
6
CONTINUOUS
10
104.21
20
13.6485
11
103.855
21
13.5724
0
LINE
8
BLACK
6
CONTINUOUS
10
103.855
20
13.5724
11
103.493
21
13.535
0
LINE
8
BLACK
6
CONTINUOUS
10
103.493
20
13.535
11
103.13
21
13.5369
0
LINE
8
BLACK
6
CONTINUOUS
10
103.13
20
13.5369
11
102.769
21
13.5781
0
LINE
8
BLACK
6
CONTINUOUS
10
102.769
20
13.5781
11
102.414
21
13.6579
0
LINE
8
BLACK
6
CONTINUOUS
10
102.414
20
13.6579
11
102.07
21
13.7757
0
LINE
8
BLACK
6
CONTINUOUS
10
102.07
20
13.7757
11
101.741
21
13.9298
0
LINE
8
BLACK
6
CONTINUOUS
10
101.741
20
13.9298
11
101.431
21
14.1186
0
LINE
8
BLACK
6
CONTINUOUS
10
101.431
20
14.1186
11
101.142
21
14.3398
0
LINE
8
BLACK
6
CONTINUOUS
10
101.142
20
14.3398
11
100.88
21
14.5909
0
LINE
8
BLACK
6
CONTINUOUS
10
100.88
20
14.5909
11
100.646
21
14.8689
0
LINE
8
BLACK
6
CONTINUOUS
10
100.646
20
14.8689
11
100.443
21
15.1705
0
LINE
8
BLACK
6
CONTINUOUS
10
100.443
20
15.1705
11
100.274
21
15.4923
0
LINE
8
BLACK
6
CONTINUOUS
10
100.274
20
15.4923
11
100.141
21
15.8304
0
LINE
8
BLACK
6
CONTINUOUS
10
100.141
20
15.8304
11
100.045
21
16.1809
0
LINE
8
BLACK
6
CONTINUOUS
10
100.045
20
16.1809
11
99.9874
21
16.5398
0
LINE
8
BLACK
6
CONTINUOUS
10
99.9874
20
16.5398
11
99.969
21
16.9023
0
LINE
8
BLACK
6
CONTINUOUS
10
99.969
20
16.9023
11
99.969
21
16.9027
0
LINE
8
BLACK
6
CONTINUOUS
10
99.969
20
16.9027
11
99.9899
21
17.2655
0
LINE
8
BLACK
6
CONTINUOUS
10
100.158
20
16.2053
11
100.25
21
15.8668
0
LINE
8
BLACK
6
CONTINUOUS
10
100.25
20
15.8668
11
100.379
21
15.5403
0
LINE
8
BLACK
6
CONTINUOUS
10
100.379
20
15.5403
11
100.542
21
15.2295
0
LINE
8
BLACK
6
CONTINUOUS
10
100.542
20
15.2295
11
100.738
21
14.9383
0
LINE
8
BLACK
6
CONTINUOUS
10
100.738
20
14.9383
11
100.964
21
14.6698
0
LINE
8
BLACK
6
CONTINUOUS
10
100.964
20
14.6698
11
101.217
21
14.4273
0
LINE
8
BLACK
6
CONTINUOUS
10
101.217
20
14.4273
11
101.496
21
14.2137
0
LINE
8
BLACK
6
CONTINUOUS
10
101.496
20
14.2137
11
101.796
21
14.0314
0
LINE
8
BLACK
6
CONTINUOUS
10
101.796
20
14.0314
11
102.113
21
13.8825
0
LINE
8
BLACK
6
CONTINUOUS
10
102.113
20
13.8825
11
102.446
21
13.7688
0
LINE
8
BLACK
6
CONTINUOUS
10
102.446
20
13.7688
11
102.788
21
13.6917
0
LINE
8
BLACK
6
CONTINUOUS
10
102.788
20
13.6917
11
103.137
21
13.652
0
LINE
8
BLACK
6
CONTINUOUS
10
103.137
20
13.652
11
103.488
21
13.6501
0
LINE
8
BLACK
6
CONTINUOUS
10
103.488
20
13.6501
11
103.837
21
13.6862
0
LINE
8
BLACK
6
CONTINUOUS
10
103.837
20
13.6862
11
104.18
21
13.7598
0
LINE
8
BLACK
6
CONTINUOUS
10
104.18
20
13.7598
11
104.513
21
13.8699
0
LINE
8
BLACK
6
CONTINUOUS
10
104.513
20
13.8699
11
104.832
21
14.0155
0
LINE
8
BLACK
6
CONTINUOUS
10
104.832
20
14.0155
11
105.134
21
14.1947
0
LINE
8
BLACK
6
CONTINUOUS
10
105.134
20
14.1947
11
105.415
21
14.4054
0
LINE
8
BLACK
6
CONTINUOUS
10
105.415
20
14.4054
11
105.671
21
14.6452
0
LINE
8
BLACK
6
CONTINUOUS
10
105.671
20
14.6452
11
105.9
21
14.9112
0
LINE
8
BLACK
6
CONTINUOUS
10
105.9
20
14.9112
11
106.099
21
15.2004
0
LINE
8
BLACK
6
CONTINUOUS
10
106.099
20
15.2004
11
106.265
21
15.5094
0
LINE
8
BLACK
6
CONTINUOUS
10
106.265
20
15.5094
11
106.397
21
15.8346
0
LINE
8
BLACK
6
CONTINUOUS
10
106.397
20
15.8346
11
106.493
21
16.1721
0
LINE
8
BLACK
6
CONTINUOUS
10
106.493
20
16.1721
11
106.552
21
16.5181
0
LINE
8
BLACK
6
CONTINUOUS
10
106.552
20
16.5181
11
106.574
21
16.8683
0
LINE
8
BLACK
6
CONTINUOUS
10
106.574
20
16.8683
11
106.574
21
16.891
0
LINE
8
BLACK
6
CONTINUOUS
10
106.574
20
16.891
11
106.555
21
17.2414
0
LINE
8
BLACK
6
CONTINUOUS
10
106.555
20
17.2414
11
106.498
21
17.5878
0
LINE
8
BLACK
6
CONTINUOUS
10
106.498
20
17.5878
11
106.404
21
17.9259
0
LINE
8
BLACK
6
CONTINUOUS
10
106.404
20
17.9259
11
106.275
21
18.252
0
LINE
8
BLACK
6
CONTINUOUS
10
106.275
20
18.252
11
106.11
21
18.5622
0
LINE
8
BLACK
6
CONTINUOUS
10
106.11
20
18.5622
11
105.914
21
18.8528
0
LINE
8
BLACK
6
CONTINUOUS
10
105.914
20
18.8528
11
105.687
21
19.1204
0
LINE
8
BLACK
6
CONTINUOUS
10
105.687
20
19.1204
11
105.432
21
19.362
0
LINE
8
BLACK
6
CONTINUOUS
10
105.432
20
19.362
11
105.153
21
19.5747
0
LINE
8
BLACK
6
CONTINUOUS
10
105.153
20
19.5747
11
104.852
21
19.756
0
LINE
8
BLACK
6
CONTINUOUS
10
104.852
20
19.756
11
104.534
21
19.9037
0
LINE
8
BLACK
6
CONTINUOUS
10
104.534
20
19.9037
11
104.202
21
20.0162
0
LINE
8
BLACK
6
CONTINUOUS
10
104.202
20
20.0162
11
103.859
21
20.0922
0
LINE
8
BLACK
6
CONTINUOUS
10
103.859
20
20.0922
11
103.51
21
20.1307
0
LINE
8
BLACK
6
CONTINUOUS
10
103.51
20
20.1307
11
103.159
21
20.1313
0
LINE
8
BLACK
6
CONTINUOUS
10
103.159
20
20.1313
11
102.81
21
20.094
0
LINE
8
BLACK
6
CONTINUOUS
10
102.81
20
20.094
11
102.467
21
20.0193
0
LINE
8
BLACK
6
CONTINUOUS
10
102.467
20
20.0193
11
102.135
21
19.9079
0
LINE
8
BLACK
6
CONTINUOUS
10
102.135
20
19.9079
11
101.816
21
19.7613
0
LINE
8
BLACK
6
CONTINUOUS
10
101.816
20
19.7613
11
101.515
21
19.581
0
LINE
8
BLACK
6
CONTINUOUS
10
101.515
20
19.581
11
101.235
21
19.3693
0
LINE
8
BLACK
6
CONTINUOUS
10
101.235
20
19.3693
11
100.979
21
19.1286
0
LINE
8
BLACK
6
CONTINUOUS
10
100.979
20
19.1286
11
100.751
21
18.8618
0
LINE
8
BLACK
6
CONTINUOUS
10
100.751
20
18.8618
11
100.554
21
18.5719
0
LINE
8
BLACK
6
CONTINUOUS
10
100.554
20
18.5719
11
100.388
21
18.2623
0
LINE
8
BLACK
6
CONTINUOUS
10
100.388
20
18.2623
11
100.257
21
17.9367
0
LINE
8
BLACK
6
CONTINUOUS
10
100.257
20
17.9367
11
100.162
21
17.5988
0
LINE
8
BLACK
6
CONTINUOUS
10
100.162
20
17.5988
11
100.104
21
17.2527
0
LINE
8
BLACK
6
CONTINUOUS
10
100.104
20
17.2527
11
100.084
21
16.9023
0
LINE
8
BLACK
6
CONTINUOUS
10
100.084
20
16.9023
11
100.102
21
16.5518
0
LINE
8
BLACK
6
CONTINUOUS
10
100.102
20
16.5518
11
100.158
21
16.2053
0
LINE
8
BLACK
6
CONTINUOUS
10
68.8477
20
17.2655
11
68.9077
21
17.624
0
LINE
8
BLACK
6
CONTINUOUS
10
68.9077
20
17.624
11
69.0061
21
17.9738
0
LINE
8
BLACK
6
CONTINUOUS
10
69.0061
20
17.9738
11
69.1416
21
18.311
0
LINE
8
BLACK
6
CONTINUOUS
10
69.1416
20
18.311
11
69.3128
21
18.6316
0
LINE
8
BLACK
6
CONTINUOUS
10
69.3128
20
18.6316
11
69.5176
21
18.9318
0
LINE
8
BLACK
6
CONTINUOUS
10
69.5176
20
18.9318
11
69.7536
21
19.2081
0
LINE
8
BLACK
6
CONTINUOUS
10
69.7536
20
19.2081
11
70.0181
21
19.4574
0
LINE
8
BLACK
6
CONTINUOUS
10
70.0181
20
19.4574
11
70.3079
21
19.6766
0
LINE
8
BLACK
6
CONTINUOUS
10
70.3079
20
19.6766
11
70.6197
21
19.8632
0
LINE
8
BLACK
6
CONTINUOUS
10
70.6197
20
19.8632
11
70.9499
21
20.015
0
LINE
8
BLACK
6
CONTINUOUS
10
70.9499
20
20.015
11
71.2945
21
20.1304
0
LINE
8
BLACK
6
CONTINUOUS
10
71.2945
20
20.1304
11
71.6496
21
20.2078
0
LINE
8
BLACK
6
CONTINUOUS
10
71.6496
20
20.2078
11
72.011
21
20.2464
0
LINE
8
BLACK
6
CONTINUOUS
10
72.011
20
20.2464
11
72.3744
21
20.2458
0
LINE
8
BLACK
6
CONTINUOUS
10
72.3744
20
20.2458
11
72.7356
21
20.2059
0
LINE
8
BLACK
6
CONTINUOUS
10
72.7356
20
20.2059
11
73.0904
21
20.1272
0
LINE
8
BLACK
6
CONTINUOUS
10
73.0904
20
20.1272
11
73.4346
21
20.0107
0
LINE
8
BLACK
6
CONTINUOUS
10
73.4346
20
20.0107
11
73.7642
21
19.8577
0
LINE
8
BLACK
6
CONTINUOUS
10
73.7642
20
19.8577
11
74.0754
21
19.67
0
LINE
8
BLACK
6
CONTINUOUS
10
74.0754
20
19.67
11
74.3645
21
19.4498
0
LINE
8
BLACK
6
CONTINUOUS
10
74.3645
20
19.4498
11
74.6281
21
19.1996
0
LINE
8
BLACK
6
CONTINUOUS
10
74.6281
20
19.1996
11
74.8631
21
18.9225
0
LINE
8
BLACK
6
CONTINUOUS
10
74.8631
20
18.9225
11
75.0669
21
18.6215
0
LINE
8
BLACK
6
CONTINUOUS
10
75.0669
20
18.6215
11
75.2369
21
18.3004
0
LINE
8
BLACK
6
CONTINUOUS
10
75.2369
20
18.3004
11
75.3713
21
17.9627
0
LINE
8
BLACK
6
CONTINUOUS
10
75.3713
20
17.9627
11
75.4684
21
17.6125
0
LINE
8
BLACK
6
CONTINUOUS
10
75.4684
20
17.6125
11
75.5271
21
17.2539
0
LINE
8
BLACK
6
CONTINUOUS
10
75.5271
20
17.2539
11
75.5468
21
16.891
0
LINE
8
BLACK
6
CONTINUOUS
10
75.5468
20
16.891
11
75.5467
21
16.8675
0
LINE
8
BLACK
6
CONTINUOUS
10
75.5467
20
16.8675
11
75.5245
21
16.5048
0
LINE
8
BLACK
6
CONTINUOUS
10
75.5245
20
16.5048
11
75.4633
21
16.1466
0
LINE
8
BLACK
6
CONTINUOUS
10
75.4633
20
16.1466
11
75.3637
21
15.7971
0
LINE
8
BLACK
6
CONTINUOUS
10
75.3637
20
15.7971
11
75.227
21
15.4604
0
LINE
8
BLACK
6
CONTINUOUS
10
75.227
20
15.4604
11
75.0547
21
15.1404
0
LINE
8
BLACK
6
CONTINUOUS
10
75.0547
20
15.1404
11
74.8489
21
14.8409
0
LINE
8
BLACK
6
CONTINUOUS
10
74.8489
20
14.8409
11
74.6119
21
14.5654
0
LINE
8
BLACK
6
CONTINUOUS
10
74.6119
20
14.5654
11
74.3466
21
14.3171
0
LINE
8
BLACK
6
CONTINUOUS
10
74.3466
20
14.3171
11
74.056
21
14.0989
0
LINE
8
BLACK
6
CONTINUOUS
10
74.056
20
14.0989
11
73.7435
21
13.9134
0
LINE
8
BLACK
6
CONTINUOUS
10
73.7435
20
13.9134
11
73.4128
21
13.7627
0
LINE
8
BLACK
6
CONTINUOUS
10
73.4128
20
13.7627
11
73.0678
21
13.6485
0
LINE
8
BLACK
6
CONTINUOUS
10
73.0678
20
13.6485
11
72.7124
21
13.5724
0
LINE
8
BLACK
6
CONTINUOUS
10
72.7124
20
13.5724
11
72.3509
21
13.535
0
LINE
8
BLACK
6
CONTINUOUS
10
72.3509
20
13.535
11
71.9875
21
13.5369
0
LINE
8
BLACK
6
CONTINUOUS
10
71.9875
20
13.5369
11
71.6265
21
13.5781
0
LINE
8
BLACK
6
CONTINUOUS
10
71.6265
20
13.5781
11
71.2719
21
13.6579
0
LINE
8
BLACK
6
CONTINUOUS
10
71.2719
20
13.6579
11
70.9281
21
13.7757
0
LINE
8
BLACK
6
CONTINUOUS
10
70.9281
20
13.7757
11
70.599
21
13.9298
0
LINE
8
BLACK
6
CONTINUOUS
10
70.599
20
13.9298
11
70.2885
21
14.1186
0
LINE
8
BLACK
6
CONTINUOUS
10
70.2885
20
14.1186
11
70.0002
21
14.3398
0
LINE
8
BLACK
6
CONTINUOUS
10
70.0002
20
14.3398
11
69.7375
21
14.5909
0
LINE
8
BLACK
6
CONTINUOUS
10
69.7375
20
14.5909
11
69.5034
21
14.8689
0
LINE
8
BLACK
6
CONTINUOUS
10
69.5034
20
14.8689
11
69.3007
21
15.1705
0
LINE
8
BLACK
6
CONTINUOUS
10
69.3007
20
15.1705
11
69.1318
21
15.4923
0
LINE
8
BLACK
6
CONTINUOUS
10
69.1318
20
15.4923
11
68.9986
21
15.8304
0
LINE
8
BLACK
6
CONTINUOUS
10
68.9986
20
15.8304
11
68.9027
21
16.1809
0
LINE
8
BLACK
6
CONTINUOUS
10
68.9027
20
16.1809
11
68.8452
21
16.5398
0
LINE
8
BLACK
6
CONTINUOUS
10
68.8452
20
16.5398
11
68.8268
21
16.9023
0
LINE
8
BLACK
6
CONTINUOUS
10
68.8268
20
16.9023
11
68.8268
21
16.9027
0
LINE
8
BLACK
6
CONTINUOUS
10
68.8268
20
16.9027
11
68.8477
21
17.2655
0
LINE
8
BLACK
6
CONTINUOUS
10
69.0153
20
16.2053
11
69.1079
21
15.8668
0
LINE
8
BLACK
6
CONTINUOUS
10
69.1079
20
15.8668
11
69.2365
21
15.5403
0
LINE
8
BLACK
6
CONTINUOUS
10
69.2365
20
15.5403
11
69.3997
21
15.2295
0
LINE
8
BLACK
6
CONTINUOUS
10
69.3997
20
15.2295
11
69.5954
21
14.9383
0
LINE
8
BLACK
6
CONTINUOUS
10
69.5954
20
14.9383
11
69.8215
21
14.6698
0
LINE
8
BLACK
6
CONTINUOUS
10
69.8215
20
14.6698
11
70.0752
21
14.4273
0
LINE
8
BLACK
6
CONTINUOUS
10
70.0752
20
14.4273
11
70.3536
21
14.2137
0
LINE
8
BLACK
6
CONTINUOUS
10
70.3536
20
14.2137
11
70.6535
21
14.0314
0
LINE
8
BLACK
6
CONTINUOUS
10
70.6535
20
14.0314
11
70.9713
21
13.8825
0
LINE
8
BLACK
6
CONTINUOUS
10
70.9713
20
13.8825
11
71.3033
21
13.7688
0
LINE
8
BLACK
6
CONTINUOUS
10
71.3033
20
13.7688
11
71.6457
21
13.6917
0
LINE
8
BLACK
6
CONTINUOUS
10
71.6457
20
13.6917
11
71.9944
21
13.652
0
LINE
8
BLACK
6
CONTINUOUS
10
71.9944
20
13.652
11
72.3453
21
13.6501
0
LINE
8
BLACK
6
CONTINUOUS
10
72.3453
20
13.6501
11
72.6944
21
13.6862
0
LINE
8
BLACK
6
CONTINUOUS
10
72.6944
20
13.6862
11
73.0375
21
13.7598
0
LINE
8
BLACK
6
CONTINUOUS
10
73.0375
20
13.7598
11
73.3707
21
13.8699
0
LINE
8
BLACK
6
CONTINUOUS
10
73.3707
20
13.8699
11
73.6901
21
14.0155
0
LINE
8
BLACK
6
CONTINUOUS
10
73.6901
20
14.0155
11
73.9918
21
14.1947
0
LINE
8
BLACK
6
CONTINUOUS
10
73.9918
20
14.1947
11
74.2725
21
14.4054
0
LINE
8
BLACK
6
CONTINUOUS
10
74.2725
20
14.4054
11
74.5287
21
14.6452
0
LINE
8
BLACK
6
CONTINUOUS
10
74.5287
20
14.6452
11
74.7576
21
14.9112
0
LINE
8
BLACK
6
CONTINUOUS
10
74.7576
20
14.9112
11
74.9564
21
15.2004
0
LINE
8
BLACK
6
CONTINUOUS
10
74.9564
20
15.2004
11
75.1227
21
15.5094
0
LINE
8
BLACK
6
CONTINUOUS
10
75.1227
20
15.5094
11
75.2548
21
15.8346
0
LINE
8
BLACK
6
CONTINUOUS
10
75.2548
20
15.8346
11
75.3509
21
16.1721
0
LINE
8
BLACK
6
CONTINUOUS
10
75.3509
20
16.1721
11
75.4101
21
16.5181
0
LINE
8
BLACK
6
CONTINUOUS
10
75.4101
20
16.5181
11
75.4315
21
16.8683
0
LINE
8
BLACK
6
CONTINUOUS
10
75.4315
20
16.8683
11
75.4316
21
16.891
0
LINE
8
BLACK
6
CONTINUOUS
10
75.4316
20
16.891
11
75.4126
21
17.2414
0
LINE
8
BLACK
6
CONTINUOUS
10
75.4126
20
17.2414
11
75.3559
21
17.5878
0
LINE
8
BLACK
6
CONTINUOUS
10
75.3559
20
17.5878
11
75.2621
21
17.9259
0
LINE
8
BLACK
6
CONTINUOUS
10
75.2621
20
17.9259
11
75.1323
21
18.252
0
LINE
8
BLACK
6
CONTINUOUS
10
75.1323
20
18.252
11
74.9681
21
18.5622
0
LINE
8
BLACK
6
CONTINUOUS
10
74.9681
20
18.5622
11
74.7713
21
18.8528
0
LINE
8
BLACK
6
CONTINUOUS
10
74.7713
20
18.8528
11
74.5444
21
19.1204
0
LINE
8
BLACK
6
CONTINUOUS
10
74.5444
20
19.1204
11
74.2898
21
19.362
0
LINE
8
BLACK
6
CONTINUOUS
10
74.2898
20
19.362
11
74.0106
21
19.5747
0
LINE
8
BLACK
6
CONTINUOUS
10
74.0106
20
19.5747
11
73.7101
21
19.756
0
LINE
8
BLACK
6
CONTINUOUS
10
73.7101
20
19.756
11
73.3918
21
19.9037
0
LINE
8
BLACK
6
CONTINUOUS
10
73.3918
20
19.9037
11
73.0594
21
20.0162
0
LINE
8
BLACK
6
CONTINUOUS
10
73.0594
20
20.0162
11
72.7168
21
20.0922
0
LINE
8
BLACK
6
CONTINUOUS
10
72.7168
20
20.0922
11
72.3679
21
20.1307
0
LINE
8
BLACK
6
CONTINUOUS
10
72.3679
20
20.1307
11
72.017
21
20.1313
0
LINE
8
BLACK
6
CONTINUOUS
10
72.017
20
20.1313
11
71.668
21
20.094
0
LINE
8
BLACK
6
CONTINUOUS
10
71.668
20
20.094
11
71.3251
21
20.0193
0
LINE
8
BLACK
6
CONTINUOUS
10
71.3251
20
20.0193
11
70.9923
21
19.9079
0
LINE
8
BLACK
6
CONTINUOUS
10
70.9923
20
19.9079
11
70.6735
21
19.7613
0
LINE
8
BLACK
6
CONTINUOUS
10
70.6735
20
19.7613
11
70.3724
21
19.581
0
LINE
8
BLACK
6
CONTINUOUS
10
70.3724
20
19.581
11
70.0924
21
19.3693
0
LINE
8
BLACK
6
CONTINUOUS
10
70.0924
20
19.3693
11
69.837
21
19.1286
0
LINE
8
BLACK
6
CONTINUOUS
10
69.837
20
19.1286
11
69.6091
21
18.8618
0
LINE
8
BLACK
6
CONTINUOUS
10
69.6091
20
18.8618
11
69.4113
21
18.5719
0
LINE
8
BLACK
6
CONTINUOUS
10
69.4113
20
18.5719
11
69.246
21
18.2623
0
LINE
8
BLACK
6
CONTINUOUS
10
69.246
20
18.2623
11
69.1152
21
17.9367
0
LINE
8
BLACK
6
CONTINUOUS
10
69.1152
20
17.9367
11
69.0202
21
17.5988
0
LINE
8
BLACK
6
CONTINUOUS
10
69.0202
20
17.5988
11
68.9623
21
17.2527
0
LINE
8
BLACK
6
CONTINUOUS
10
68.9623
20
17.2527
11
68.9421
21
16.9023
0
LINE
8
BLACK
6
CONTINUOUS
10
68.9421
20
16.9023
11
68.9598
21
16.5518
0
LINE
8
BLACK
6
CONTINUOUS
10
68.9598
20
16.5518
11
69.0153
21
16.2053
  0
ENDSEC
  0
EOF
