  0
SECTION
  2
HEADER
  9
$ANGBASE
  50
0.0
  9
$ANGDIR
  70
1
  9
$MEASUREMENT
  70
1
  0
ENDSEC
  0
SECTION
  2
TABLES
  0
TABLE
  2
LTYPE
  70
4
  0
LTYPE
  5
40F
  2
CONTINUOUS
  70
0
  3
Solid line
  72
65
  73
0
  40
0.0
  0
LTYPE
  5
410
  2
DASHDOT
 70
0
  3
Dash Dot ____ _ ____ _
 72
65
 73
4
 40
2.0
 49
1.25
 49
-0.25
 49
0.25
 49
-0.25
  0
LTYPE
  5
411
  2
DASHED
 70
0
  3
Dashed __ __ __ __ __
 72
65
 73
2
 40
0.75
 49
0.5
 49
-0.25
  0
LTYPE
  5
43B
  2
DOTTED
 70
0
  3
Dotted .  .  .  .
 72
65
 73
2
 40
0.2
 49
0.0
 49
-0.2
  0
ENDTAB
  0
TABLE
  2
STYLE
  70
4
  0
STYLE
  2
KICAD
  70
0
  40
0
  41
1
  42
1
  50
0
  71
0
  3
isocp.shx
  0
STYLE
  2
KICADB
  70
0
  40
0
  41
1
  42
1
  50
0
  71
0
  3
isocp.shx
  0
STYLE
  2
KICADI
  70
0
  40
0
  41
1
  42
1
  50
15
  71
0
  3
isocp.shx
  0
STYLE
  2
KICADBI
  70
0
  40
0
  41
1
  42
1
  50
15
  71
0
  3
isocp.shx
  0
ENDTAB
  0
TABLE
  2
LAYER
  70
1
  0
LAYER
  2
BLACK
  70
0
  62
7
  6
CONTINUOUS
  0
ENDTAB
  0
ENDSEC
  0
SECTION
  2
ENTITIES
0
LINE
8
BLACK
6
CONTINUOUS
10
111.516
20
31.0625
11
111.519
21
31.063
0
LINE
8
BLACK
6
CONTINUOUS
10
111.519
20
31.063
11
111.522
21
31.0614
0
LINE
8
BLACK
6
CONTINUOUS
10
111.522
20
31.0614
11
111.532
21
31.0596
0
LINE
8
BLACK
6
CONTINUOUS
10
111.532
20
31.0596
11
111.547
21
31.0469
0
LINE
8
BLACK
6
CONTINUOUS
10
111.547
20
31.0469
11
111.564
21
31.037
0
LINE
8
BLACK
6
CONTINUOUS
10
111.564
20
31.037
11
111.567
21
31.0305
0
LINE
8
BLACK
6
CONTINUOUS
10
111.567
20
31.0305
11
111.572
21
31.0261
0
LINE
8
BLACK
6
CONTINUOUS
10
111.572
20
31.0261
11
111.575
21
31.0066
0
LINE
8
BLACK
6
CONTINUOUS
10
111.575
20
31.0066
11
111.582
21
30.988
0
LINE
8
BLACK
6
CONTINUOUS
10
111.582
20
30.988
11
111.582
21
-8.636
0
LINE
8
BLACK
6
CONTINUOUS
10
111.582
20
-8.636
11
111.58
21
-8.6459
0
LINE
8
BLACK
6
CONTINUOUS
10
111.58
20
-8.6459
11
111.581
21
-8.64923
0
LINE
8
BLACK
6
CONTINUOUS
10
111.581
20
-8.64923
11
111.579
21
-8.65216
0
LINE
8
BLACK
6
CONTINUOUS
10
111.579
20
-8.65216
11
111.578
21
-8.66206
0
LINE
8
BLACK
6
CONTINUOUS
10
111.578
20
-8.66206
11
111.565
21
-8.67723
0
LINE
8
BLACK
6
CONTINUOUS
10
111.565
20
-8.67723
11
111.555
21
-8.69437
0
LINE
8
BLACK
6
CONTINUOUS
10
111.555
20
-8.69437
11
111.549
21
-8.69672
0
LINE
8
BLACK
6
CONTINUOUS
10
111.549
20
-8.69672
11
111.544
21
-8.70199
0
LINE
8
BLACK
6
CONTINUOUS
10
111.544
20
-8.70199
11
111.525
21
-8.70543
0
LINE
8
BLACK
6
CONTINUOUS
10
111.525
20
-8.70543
11
111.506
21
-8.7122
0
LINE
8
BLACK
6
CONTINUOUS
10
111.506
20
-8.7122
11
-0.254
21
-8.7122
0
LINE
8
BLACK
6
CONTINUOUS
10
-0.254
20
-8.7122
11
-0.2639
21
-8.71045
0
LINE
8
BLACK
6
CONTINUOUS
10
-0.2639
20
-8.71045
11
-0.267232
21
-8.71104
0
LINE
8
BLACK
6
CONTINUOUS
10
-0.267232
20
-8.71104
11
-0.270162
21
-8.70935
0
LINE
8
BLACK
6
CONTINUOUS
10
-0.270162
20
-8.70935
11
-0.280062
21
-8.7076
0
LINE
8
BLACK
6
CONTINUOUS
10
-0.280062
20
-8.7076
11
-0.295229
21
-8.69488
0
LINE
8
BLACK
6
CONTINUOUS
10
-0.295229
20
-8.69488
11
-0.312373
21
-8.68498
0
LINE
8
BLACK
6
CONTINUOUS
10
-0.312373
20
-8.68498
11
-0.314725
21
-8.67852
0
LINE
8
BLACK
6
CONTINUOUS
10
-0.314725
20
-8.67852
11
-0.319991
21
-8.6741
0
LINE
8
BLACK
6
CONTINUOUS
10
-0.319991
20
-8.6741
11
-0.323428
21
-8.65461
0
LINE
8
BLACK
6
CONTINUOUS
10
-0.323428
20
-8.65461
11
-0.3302
21
-8.636
0
LINE
8
BLACK
6
CONTINUOUS
10
-0.3302
20
-8.636
11
-0.3302
21
30.988
0
LINE
8
BLACK
6
CONTINUOUS
10
-0.3302
20
30.988
11
-0.328455
21
30.9979
0
LINE
8
BLACK
6
CONTINUOUS
10
-0.328455
20
30.9979
11
-0.329042
21
31.0012
0
LINE
8
BLACK
6
CONTINUOUS
10
-0.329042
20
31.0012
11
-0.327351
21
31.0042
0
LINE
8
BLACK
6
CONTINUOUS
10
-0.327351
20
31.0042
11
-0.325605
21
31.0141
0
LINE
8
BLACK
6
CONTINUOUS
10
-0.325605
20
31.0141
11
-0.312878
21
31.0292
0
LINE
8
BLACK
6
CONTINUOUS
10
-0.312878
20
31.0292
11
-0.30298
21
31.0464
0
LINE
8
BLACK
6
CONTINUOUS
10
-0.30298
20
31.0464
11
-0.296519
21
31.0487
0
LINE
8
BLACK
6
CONTINUOUS
10
-0.296519
20
31.0487
11
-0.2921
21
31.054
0
LINE
8
BLACK
6
CONTINUOUS
10
-0.2921
20
31.054
11
-0.272605
21
31.0574
0
LINE
8
BLACK
6
CONTINUOUS
10
-0.272605
20
31.0574
11
-0.254
21
31.0642
0
LINE
8
BLACK
6
CONTINUOUS
10
-0.254
20
31.0642
11
111.506
21
31.0642
0
LINE
8
BLACK
6
CONTINUOUS
10
111.506
20
31.0642
11
111.516
21
31.0625
0
LINE
8
BLACK
6
CONTINUOUS
10
-0.1778
20
30.9118
11
-0.1778
21
-8.5598
0
LINE
8
BLACK
6
CONTINUOUS
10
-0.1778
20
-8.5598
11
111.43
21
-8.5598
0
LINE
8
BLACK
6
CONTINUOUS
10
111.43
20
-8.5598
11
111.43
21
30.9118
0
LINE
8
BLACK
6
CONTINUOUS
10
111.43
20
30.9118
11
-0.1778
21
30.9118
  0
ENDSEC
  0
EOF
