  0
SECTION
  2
HEADER
  9
$ACADVER
  1
AC1014
  9
$HANDSEED
  5
FFFF
  9
$MEASUREMENT
 70
     1
  0
ENDSEC
  0
SECTION
  2
TABLES
  0
TABLE
  2
VPORT
  5
8
330
0
100
AcDbSymbolTable
 70
     4
  0
VPORT
  5
2E
330
8
100
AcDbSymbolTableRecord
100
AcDbViewportTableRecord
  2
*ACTIVE
 70
     0
 10
0.0
 20
0.0
 11
1.0
 21
1.0
 12
210.0
 22
148.5
 13
0.0
 23
0.0
 14
10.0
 24
10.0
 15
10.0
 25
10.0
 16
0.0
 26
0.0
 36
1.0
 17
0.0
 27
0.0
 37
0.0
 40
341.0
 41
1.24
 42
50.0
 43
0.0
 44
0.0
 50
0.0
 51
0.0
 71
     0
 72
   100
 73
     1
 74
     3
 75
     0
 76
     0
 77
     0
 78
     0
  0
ENDTAB
  0
TABLE
  2
LTYPE
  5
5
330
0
100
AcDbSymbolTable
 70
     1
  0
LTYPE
  5
14
330
5
100
AcDbSymbolTableRecord
100
AcDbLinetypeTableRecord
  2
BYBLOCK
 70
     0
  3

 72
    65
 73
     0
 40
0.0
  0
LTYPE
  5
15
330
5
100
AcDbSymbolTableRecord
100
AcDbLinetypeTableRecord
  2
BYLAYER
 70
     0
  3

 72
    65
 73
     0
 40
0.0
  0
LTYPE
  5
16
330
5
100
AcDbSymbolTableRecord
100
AcDbLinetypeTableRecord
  2
CONTINUOUS
 70
     0
  3
Solid line
 72
    65
 73
     0
 40
0.0
  0
ENDTAB
  0
TABLE
  2
LAYER
  5
2
100
AcDbSymbolTable
 70
2
  0
LAYER
  5
50
100
AcDbSymbolTableRecord
100
AcDbLayerTableRecord
  2
0
 70
0
  6
CONTINUOUS
  0
LAYER
  5
51
100
AcDbSymbolTableRecord
100
AcDbLayerTableRecord
  2
Layer_1
 70
0
  6
CONTINUOUS
  0
ENDTAB
  0
TABLE
  2
STYLE
  5
3
330
0
100
AcDbSymbolTable
 70
     1
  0
STYLE
  5
11
330
3
100
AcDbSymbolTableRecord
100
AcDbTextStyleTableRecord
  2
STANDARD
 70
     0
 40
0.0
 41
1.0
 50
0.0
 71
     0
 42
2.5
  3
txt
  4

  0
ENDTAB
  0
TABLE
  2
VIEW
  5
6
330
0
100
AcDbSymbolTable
 70
     0
  0
ENDTAB
  0
TABLE
  2
UCS
  5
7
330
0
100
AcDbSymbolTable
 70
     0
  0
ENDTAB
  0
TABLE
  2
APPID
  5
9
330
0
100
AcDbSymbolTable
 70
     2
  0
APPID
  5
12
330
9
100
AcDbSymbolTableRecord
100
AcDbRegAppTableRecord
  2
ACAD
 70
     0
  0
ENDTAB
  0
TABLE
  2
DIMSTYLE
  5
A
330
0
100
AcDbSymbolTable
 70
     1
  0
DIMSTYLE
105
27
330
A
100
AcDbSymbolTableRecord
100
AcDbDimStyleTableRecord
  2
ISO-25
 70
     0
  3

  4

  5

  6

  7

 40
1.0
 41
2.5
 42
0.625
 43
3.75
 44
1.25
 45
0.0
 46
0.0
 47
0.0
 48
0.0
140
2.5
141
2.5
142
0.0
143
0.03937007874016
144
1.0
145
0.0
146
1.0
147
0.625
 71
     0
 72
     0
 73
     0
 74
     0
 75
     0
 76
     0
 77
     1
 78
     8
170
     0
171
     3
172
     1
173
     0
174
     0
175
     0
176
     0
177
     0
178
     0
270
     2
271
     2
272
     2
273
     2
274
     3
340
11
275
     0
280
     0
281
     0
282
     0
283
     0
284
     8
285
     0
286
     0
287
     3
288
     0
  0
ENDTAB
  0
TABLE
  2
BLOCK_RECORD
  5
1
330
0
100
AcDbSymbolTable
 70
     1
  0
BLOCK_RECORD
  5
1F
330
1
100
AcDbSymbolTableRecord
100
AcDbBlockTableRecord
  2
*MODEL_SPACE
  0
BLOCK_RECORD
  5
1B
330
1
100
AcDbSymbolTableRecord
100
AcDbBlockTableRecord
  2
*PAPER_SPACE
  0
ENDTAB
  0
ENDSEC
  0
SECTION
  2
BLOCKS
  0
BLOCK
  5
20
330
1F
100
AcDbEntity
  8
0
100
AcDbBlockBegin
  2
*MODEL_SPACE
 70
     0
 10
0.0
 20
0.0
 30
0.0
  3
*MODEL_SPACE
  1

  0
ENDBLK
  5
21
330
1F
100
AcDbEntity
  8
0
100
AcDbBlockEnd
  0
BLOCK
  5
1C
330
1B
100
AcDbEntity
 67
     1
  8
0
100
AcDbBlockBegin
  2
*PAPER_SPACE
  1

  0
ENDBLK
  5
1D
330
1B
100
AcDbEntity
 67
     1
  8
0
100
AcDbBlockEnd
  0
ENDSEC
  0
SECTION
  2
ENTITIES
  0
LINE
  5
100
100
AcDbEntity
  8
Layer_1
 62
7
100
AcDbLine
 10
0.049930
 20
39.421100
 30
0.0
 11
111.835330
 21
39.421100
 31
0.0
  0
LINE
  5
101
100
AcDbEntity
  8
Layer_1
 62
7
100
AcDbLine
 10
111.835330
 20
39.421100
 30
0.0
 11
111.835330
 21
0.051100
 31
0.0
  0
LINE
  5
102
100
AcDbEntity
  8
Layer_1
 62
7
100
AcDbLine
 10
111.835330
 20
0.051100
 30
0.0
 11
0.049930
 21
0.051100
 31
0.0
  0
LINE
  5
103
100
AcDbEntity
  8
Layer_1
 62
7
100
AcDbLine
 10
0.049930
 20
0.051100
 30
0.0
 11
0.049930
 21
39.421100
 31
0.0
  0
LINE
  5
104
100
AcDbEntity
  8
Layer_1
 62
7
100
AcDbLine
 10
12.965330
 20
19.735820
 30
0.0
 11
12.888470
 21
18.955460
 31
0.0
  0
LINE
  5
105
100
AcDbEntity
  8
Layer_1
 62
7
100
AcDbLine
 10
12.888470
 20
18.955460
 30
0.0
 11
12.660850
 21
18.205090
 31
0.0
  0
LINE
  5
106
100
AcDbEntity
  8
Layer_1
 62
7
100
AcDbLine
 10
12.660850
 20
18.205090
 30
0.0
 11
12.291210
 21
17.513540
 31
0.0
  0
LINE
  5
107
100
AcDbEntity
  8
Layer_1
 62
7
100
AcDbLine
 10
12.291210
 20
17.513540
 30
0.0
 11
11.793760
 21
16.907390
 31
0.0
  0
LINE
  5
108
100
AcDbEntity
  8
Layer_1
 62
7
100
AcDbLine
 10
11.793760
 20
16.907390
 30
0.0
 11
11.187610
 21
16.409940
 31
0.0
  0
LINE
  5
109
100
AcDbEntity
  8
Layer_1
 62
7
100
AcDbLine
 10
11.187610
 20
16.409940
 30
0.0
 11
10.496060
 21
16.040300
 31
0.0
  0
LINE
  5
10a
100
AcDbEntity
  8
Layer_1
 62
7
100
AcDbLine
 10
10.496060
 20
16.040300
 30
0.0
 11
9.745690
 21
15.812680
 31
0.0
  0
LINE
  5
10b
100
AcDbEntity
  8
Layer_1
 62
7
100
AcDbLine
 10
9.745690
 20
15.812680
 30
0.0
 11
8.965330
 21
15.735820
 31
0.0
  0
LINE
  5
10c
100
AcDbEntity
  8
Layer_1
 62
7
100
AcDbLine
 10
8.965330
 20
15.735820
 30
0.0
 11
8.184970
 21
15.812680
 31
0.0
  0
LINE
  5
10d
100
AcDbEntity
  8
Layer_1
 62
7
100
AcDbLine
 10
8.184970
 20
15.812680
 30
0.0
 11
7.434600
 21
16.040300
 31
0.0
  0
LINE
  5
10e
100
AcDbEntity
  8
Layer_1
 62
7
100
AcDbLine
 10
7.434600
 20
16.040300
 30
0.0
 11
6.743050
 21
16.409940
 31
0.0
  0
LINE
  5
10f
100
AcDbEntity
  8
Layer_1
 62
7
100
AcDbLine
 10
6.743050
 20
16.409940
 30
0.0
 11
6.136900
 21
16.907390
 31
0.0
  0
LINE
  5
110
100
AcDbEntity
  8
Layer_1
 62
7
100
AcDbLine
 10
6.136900
 20
16.907390
 30
0.0
 11
5.639450
 21
17.513540
 31
0.0
  0
LINE
  5
111
100
AcDbEntity
  8
Layer_1
 62
7
100
AcDbLine
 10
5.639450
 20
17.513540
 30
0.0
 11
5.269810
 21
18.205090
 31
0.0
  0
LINE
  5
112
100
AcDbEntity
  8
Layer_1
 62
7
100
AcDbLine
 10
5.269810
 20
18.205090
 30
0.0
 11
5.042190
 21
18.955460
 31
0.0
  0
LINE
  5
113
100
AcDbEntity
  8
Layer_1
 62
7
100
AcDbLine
 10
5.042190
 20
18.955460
 30
0.0
 11
4.965330
 21
19.735820
 31
0.0
  0
LINE
  5
114
100
AcDbEntity
  8
Layer_1
 62
7
100
AcDbLine
 10
4.965330
 20
19.735820
 30
0.0
 11
5.042190
 21
20.516180
 31
0.0
  0
LINE
  5
115
100
AcDbEntity
  8
Layer_1
 62
7
100
AcDbLine
 10
5.042190
 20
20.516180
 30
0.0
 11
5.269810
 21
21.266550
 31
0.0
  0
LINE
  5
116
100
AcDbEntity
  8
Layer_1
 62
7
100
AcDbLine
 10
5.269810
 20
21.266550
 30
0.0
 11
5.639450
 21
21.958100
 31
0.0
  0
LINE
  5
117
100
AcDbEntity
  8
Layer_1
 62
7
100
AcDbLine
 10
5.639450
 20
21.958100
 30
0.0
 11
6.136900
 21
22.564250
 31
0.0
  0
LINE
  5
118
100
AcDbEntity
  8
Layer_1
 62
7
100
AcDbLine
 10
6.136900
 20
22.564250
 30
0.0
 11
6.743050
 21
23.061700
 31
0.0
  0
LINE
  5
119
100
AcDbEntity
  8
Layer_1
 62
7
100
AcDbLine
 10
6.743050
 20
23.061700
 30
0.0
 11
7.434600
 21
23.431340
 31
0.0
  0
LINE
  5
11a
100
AcDbEntity
  8
Layer_1
 62
7
100
AcDbLine
 10
7.434600
 20
23.431340
 30
0.0
 11
8.184970
 21
23.658960
 31
0.0
  0
LINE
  5
11b
100
AcDbEntity
  8
Layer_1
 62
7
100
AcDbLine
 10
8.184970
 20
23.658960
 30
0.0
 11
8.965330
 21
23.735820
 31
0.0
  0
LINE
  5
11c
100
AcDbEntity
  8
Layer_1
 62
7
100
AcDbLine
 10
8.965330
 20
23.735820
 30
0.0
 11
9.745690
 21
23.658960
 31
0.0
  0
LINE
  5
11d
100
AcDbEntity
  8
Layer_1
 62
7
100
AcDbLine
 10
9.745690
 20
23.658960
 30
0.0
 11
10.496060
 21
23.431340
 31
0.0
  0
LINE
  5
11e
100
AcDbEntity
  8
Layer_1
 62
7
100
AcDbLine
 10
10.496060
 20
23.431340
 30
0.0
 11
11.187610
 21
23.061700
 31
0.0
  0
LINE
  5
11f
100
AcDbEntity
  8
Layer_1
 62
7
100
AcDbLine
 10
11.187610
 20
23.061700
 30
0.0
 11
11.793760
 21
22.564250
 31
0.0
  0
LINE
  5
120
100
AcDbEntity
  8
Layer_1
 62
7
100
AcDbLine
 10
11.793760
 20
22.564250
 30
0.0
 11
12.291210
 21
21.958100
 31
0.0
  0
LINE
  5
121
100
AcDbEntity
  8
Layer_1
 62
7
100
AcDbLine
 10
12.291210
 20
21.958100
 30
0.0
 11
12.660850
 21
21.266550
 31
0.0
  0
LINE
  5
122
100
AcDbEntity
  8
Layer_1
 62
7
100
AcDbLine
 10
12.660850
 20
21.266550
 30
0.0
 11
12.888470
 21
20.516180
 31
0.0
  0
LINE
  5
123
100
AcDbEntity
  8
Layer_1
 62
7
100
AcDbLine
 10
12.888470
 20
20.516180
 30
0.0
 11
12.965330
 21
19.735820
 31
0.0
  0
LINE
  5
124
100
AcDbEntity
  8
Layer_1
 62
7
100
AcDbLine
 10
91.411720
 20
25.450830
 30
0.0
 11
91.348310
 21
24.807030
 31
0.0
  0
LINE
  5
125
100
AcDbEntity
  8
Layer_1
 62
7
100
AcDbLine
 10
91.348310
 20
24.807030
 30
0.0
 11
91.160520
 21
24.187970
 31
0.0
  0
LINE
  5
126
100
AcDbEntity
  8
Layer_1
 62
7
100
AcDbLine
 10
91.160520
 20
24.187970
 30
0.0
 11
90.855570
 21
23.617450
 31
0.0
  0
LINE
  5
127
100
AcDbEntity
  8
Layer_1
 62
7
100
AcDbLine
 10
90.855570
 20
23.617450
 30
0.0
 11
90.445170
 21
23.117380
 31
0.0
  0
LINE
  5
128
100
AcDbEntity
  8
Layer_1
 62
7
100
AcDbLine
 10
90.445170
 20
23.117380
 30
0.0
 11
89.945100
 21
22.706980
 31
0.0
  0
LINE
  5
129
100
AcDbEntity
  8
Layer_1
 62
7
100
AcDbLine
 10
89.945100
 20
22.706980
 30
0.0
 11
89.374580
 21
22.402030
 31
0.0
  0
LINE
  5
12a
100
AcDbEntity
  8
Layer_1
 62
7
100
AcDbLine
 10
89.374580
 20
22.402030
 30
0.0
 11
88.755520
 21
22.214240
 31
0.0
  0
LINE
  5
12b
100
AcDbEntity
  8
Layer_1
 62
7
100
AcDbLine
 10
88.755520
 20
22.214240
 30
0.0
 11
88.111720
 21
22.150830
 31
0.0
  0
LINE
  5
12c
100
AcDbEntity
  8
Layer_1
 62
7
100
AcDbLine
 10
88.111720
 20
22.150830
 30
0.0
 11
87.467920
 21
22.214240
 31
0.0
  0
LINE
  5
12d
100
AcDbEntity
  8
Layer_1
 62
7
100
AcDbLine
 10
87.467920
 20
22.214240
 30
0.0
 11
86.848870
 21
22.402030
 31
0.0
  0
LINE
  5
12e
100
AcDbEntity
  8
Layer_1
 62
7
100
AcDbLine
 10
86.848870
 20
22.402030
 30
0.0
 11
86.278340
 21
22.706980
 31
0.0
  0
LINE
  5
12f
100
AcDbEntity
  8
Layer_1
 62
7
100
AcDbLine
 10
86.278340
 20
22.706980
 30
0.0
 11
85.778270
 21
23.117380
 31
0.0
  0
LINE
  5
130
100
AcDbEntity
  8
Layer_1
 62
7
100
AcDbLine
 10
85.778270
 20
23.117380
 30
0.0
 11
85.367870
 21
23.617450
 31
0.0
  0
LINE
  5
131
100
AcDbEntity
  8
Layer_1
 62
7
100
AcDbLine
 10
85.367870
 20
23.617450
 30
0.0
 11
85.062920
 21
24.187970
 31
0.0
  0
LINE
  5
132
100
AcDbEntity
  8
Layer_1
 62
7
100
AcDbLine
 10
85.062920
 20
24.187970
 30
0.0
 11
84.875130
 21
24.807030
 31
0.0
  0
LINE
  5
133
100
AcDbEntity
  8
Layer_1
 62
7
100
AcDbLine
 10
84.875130
 20
24.807030
 30
0.0
 11
84.811720
 21
25.450830
 31
0.0
  0
LINE
  5
134
100
AcDbEntity
  8
Layer_1
 62
7
100
AcDbLine
 10
84.811720
 20
25.450830
 30
0.0
 11
84.875130
 21
26.094630
 31
0.0
  0
LINE
  5
135
100
AcDbEntity
  8
Layer_1
 62
7
100
AcDbLine
 10
84.875130
 20
26.094630
 30
0.0
 11
85.062920
 21
26.713680
 31
0.0
  0
LINE
  5
136
100
AcDbEntity
  8
Layer_1
 62
7
100
AcDbLine
 10
85.062920
 20
26.713680
 30
0.0
 11
85.367870
 21
27.284210
 31
0.0
  0
LINE
  5
137
100
AcDbEntity
  8
Layer_1
 62
7
100
AcDbLine
 10
85.367870
 20
27.284210
 30
0.0
 11
85.778270
 21
27.784280
 31
0.0
  0
LINE
  5
138
100
AcDbEntity
  8
Layer_1
 62
7
100
AcDbLine
 10
85.778270
 20
27.784280
 30
0.0
 11
86.278340
 21
28.194680
 31
0.0
  0
LINE
  5
139
100
AcDbEntity
  8
Layer_1
 62
7
100
AcDbLine
 10
86.278340
 20
28.194680
 30
0.0
 11
86.848870
 21
28.499630
 31
0.0
  0
LINE
  5
13a
100
AcDbEntity
  8
Layer_1
 62
7
100
AcDbLine
 10
86.848870
 20
28.499630
 30
0.0
 11
87.467920
 21
28.687420
 31
0.0
  0
LINE
  5
13b
100
AcDbEntity
  8
Layer_1
 62
7
100
AcDbLine
 10
87.467920
 20
28.687420
 30
0.0
 11
88.111720
 21
28.750830
 31
0.0
  0
LINE
  5
13c
100
AcDbEntity
  8
Layer_1
 62
7
100
AcDbLine
 10
88.111720
 20
28.750830
 30
0.0
 11
88.755520
 21
28.687420
 31
0.0
  0
LINE
  5
13d
100
AcDbEntity
  8
Layer_1
 62
7
100
AcDbLine
 10
88.755520
 20
28.687420
 30
0.0
 11
89.374580
 21
28.499630
 31
0.0
  0
LINE
  5
13e
100
AcDbEntity
  8
Layer_1
 62
7
100
AcDbLine
 10
89.374580
 20
28.499630
 30
0.0
 11
89.945100
 21
28.194680
 31
0.0
  0
LINE
  5
13f
100
AcDbEntity
  8
Layer_1
 62
7
100
AcDbLine
 10
89.945100
 20
28.194680
 30
0.0
 11
90.445170
 21
27.784280
 31
0.0
  0
LINE
  5
140
100
AcDbEntity
  8
Layer_1
 62
7
100
AcDbLine
 10
90.445170
 20
27.784280
 30
0.0
 11
90.855570
 21
27.284210
 31
0.0
  0
LINE
  5
141
100
AcDbEntity
  8
Layer_1
 62
7
100
AcDbLine
 10
90.855570
 20
27.284210
 30
0.0
 11
91.160520
 21
26.713680
 31
0.0
  0
LINE
  5
142
100
AcDbEntity
  8
Layer_1
 62
7
100
AcDbLine
 10
91.160520
 20
26.713680
 30
0.0
 11
91.348310
 21
26.094630
 31
0.0
  0
LINE
  5
143
100
AcDbEntity
  8
Layer_1
 62
7
100
AcDbLine
 10
91.348310
 20
26.094630
 30
0.0
 11
91.411720
 21
25.450830
 31
0.0
  0
LINE
  5
144
100
AcDbEntity
  8
Layer_1
 62
7
100
AcDbLine
 10
91.411720
 20
14.020810
 30
0.0
 11
91.348310
 21
13.377010
 31
0.0
  0
LINE
  5
145
100
AcDbEntity
  8
Layer_1
 62
7
100
AcDbLine
 10
91.348310
 20
13.377010
 30
0.0
 11
91.160520
 21
12.757950
 31
0.0
  0
LINE
  5
146
100
AcDbEntity
  8
Layer_1
 62
7
100
AcDbLine
 10
91.160520
 20
12.757950
 30
0.0
 11
90.855570
 21
12.187430
 31
0.0
  0
LINE
  5
147
100
AcDbEntity
  8
Layer_1
 62
7
100
AcDbLine
 10
90.855570
 20
12.187430
 30
0.0
 11
90.445170
 21
11.687360
 31
0.0
  0
LINE
  5
148
100
AcDbEntity
  8
Layer_1
 62
7
100
AcDbLine
 10
90.445170
 20
11.687360
 30
0.0
 11
89.945100
 21
11.276960
 31
0.0
  0
LINE
  5
149
100
AcDbEntity
  8
Layer_1
 62
7
100
AcDbLine
 10
89.945100
 20
11.276960
 30
0.0
 11
89.374580
 21
10.972010
 31
0.0
  0
LINE
  5
14a
100
AcDbEntity
  8
Layer_1
 62
7
100
AcDbLine
 10
89.374580
 20
10.972010
 30
0.0
 11
88.755520
 21
10.784220
 31
0.0
  0
LINE
  5
14b
100
AcDbEntity
  8
Layer_1
 62
7
100
AcDbLine
 10
88.755520
 20
10.784220
 30
0.0
 11
88.111720
 21
10.720810
 31
0.0
  0
LINE
  5
14c
100
AcDbEntity
  8
Layer_1
 62
7
100
AcDbLine
 10
88.111720
 20
10.720810
 30
0.0
 11
87.467920
 21
10.784220
 31
0.0
  0
LINE
  5
14d
100
AcDbEntity
  8
Layer_1
 62
7
100
AcDbLine
 10
87.467920
 20
10.784220
 30
0.0
 11
86.848870
 21
10.972010
 31
0.0
  0
LINE
  5
14e
100
AcDbEntity
  8
Layer_1
 62
7
100
AcDbLine
 10
86.848870
 20
10.972010
 30
0.0
 11
86.278340
 21
11.276960
 31
0.0
  0
LINE
  5
14f
100
AcDbEntity
  8
Layer_1
 62
7
100
AcDbLine
 10
86.278340
 20
11.276960
 30
0.0
 11
85.778270
 21
11.687360
 31
0.0
  0
LINE
  5
150
100
AcDbEntity
  8
Layer_1
 62
7
100
AcDbLine
 10
85.778270
 20
11.687360
 30
0.0
 11
85.367870
 21
12.187430
 31
0.0
  0
LINE
  5
151
100
AcDbEntity
  8
Layer_1
 62
7
100
AcDbLine
 10
85.367870
 20
12.187430
 30
0.0
 11
85.062920
 21
12.757950
 31
0.0
  0
LINE
  5
152
100
AcDbEntity
  8
Layer_1
 62
7
100
AcDbLine
 10
85.062920
 20
12.757950
 30
0.0
 11
84.875130
 21
13.377010
 31
0.0
  0
LINE
  5
153
100
AcDbEntity
  8
Layer_1
 62
7
100
AcDbLine
 10
84.875130
 20
13.377010
 30
0.0
 11
84.811720
 21
14.020810
 31
0.0
  0
LINE
  5
154
100
AcDbEntity
  8
Layer_1
 62
7
100
AcDbLine
 10
84.811720
 20
14.020810
 30
0.0
 11
84.875130
 21
14.664610
 31
0.0
  0
LINE
  5
155
100
AcDbEntity
  8
Layer_1
 62
7
100
AcDbLine
 10
84.875130
 20
14.664610
 30
0.0
 11
85.062920
 21
15.283660
 31
0.0
  0
LINE
  5
156
100
AcDbEntity
  8
Layer_1
 62
7
100
AcDbLine
 10
85.062920
 20
15.283660
 30
0.0
 11
85.367870
 21
15.854190
 31
0.0
  0
LINE
  5
157
100
AcDbEntity
  8
Layer_1
 62
7
100
AcDbLine
 10
85.367870
 20
15.854190
 30
0.0
 11
85.778270
 21
16.354260
 31
0.0
  0
LINE
  5
158
100
AcDbEntity
  8
Layer_1
 62
7
100
AcDbLine
 10
85.778270
 20
16.354260
 30
0.0
 11
86.278340
 21
16.764660
 31
0.0
  0
LINE
  5
159
100
AcDbEntity
  8
Layer_1
 62
7
100
AcDbLine
 10
86.278340
 20
16.764660
 30
0.0
 11
86.848870
 21
17.069610
 31
0.0
  0
LINE
  5
15a
100
AcDbEntity
  8
Layer_1
 62
7
100
AcDbLine
 10
86.848870
 20
17.069610
 30
0.0
 11
87.467920
 21
17.257400
 31
0.0
  0
LINE
  5
15b
100
AcDbEntity
  8
Layer_1
 62
7
100
AcDbLine
 10
87.467920
 20
17.257400
 30
0.0
 11
88.111720
 21
17.320810
 31
0.0
  0
LINE
  5
15c
100
AcDbEntity
  8
Layer_1
 62
7
100
AcDbLine
 10
88.111720
 20
17.320810
 30
0.0
 11
88.755520
 21
17.257400
 31
0.0
  0
LINE
  5
15d
100
AcDbEntity
  8
Layer_1
 62
7
100
AcDbLine
 10
88.755520
 20
17.257400
 30
0.0
 11
89.374580
 21
17.069610
 31
0.0
  0
LINE
  5
15e
100
AcDbEntity
  8
Layer_1
 62
7
100
AcDbLine
 10
89.374580
 20
17.069610
 30
0.0
 11
89.945100
 21
16.764660
 31
0.0
  0
LINE
  5
15f
100
AcDbEntity
  8
Layer_1
 62
7
100
AcDbLine
 10
89.945100
 20
16.764660
 30
0.0
 11
90.445170
 21
16.354260
 31
0.0
  0
LINE
  5
160
100
AcDbEntity
  8
Layer_1
 62
7
100
AcDbLine
 10
90.445170
 20
16.354260
 30
0.0
 11
90.855570
 21
15.854190
 31
0.0
  0
LINE
  5
161
100
AcDbEntity
  8
Layer_1
 62
7
100
AcDbLine
 10
90.855570
 20
15.854190
 30
0.0
 11
91.160520
 21
15.283660
 31
0.0
  0
LINE
  5
162
100
AcDbEntity
  8
Layer_1
 62
7
100
AcDbLine
 10
91.160520
 20
15.283660
 30
0.0
 11
91.348310
 21
14.664610
 31
0.0
  0
LINE
  5
163
100
AcDbEntity
  8
Layer_1
 62
7
100
AcDbLine
 10
91.348310
 20
14.664610
 30
0.0
 11
91.411720
 21
14.020810
 31
0.0
  0
LINE
  5
164
100
AcDbEntity
  8
Layer_1
 62
7
100
AcDbLine
 10
60.220520
 20
14.020810
 30
0.0
 11
60.157110
 21
13.377010
 31
0.0
  0
LINE
  5
165
100
AcDbEntity
  8
Layer_1
 62
7
100
AcDbLine
 10
60.157110
 20
13.377010
 30
0.0
 11
59.969320
 21
12.757950
 31
0.0
  0
LINE
  5
166
100
AcDbEntity
  8
Layer_1
 62
7
100
AcDbLine
 10
59.969320
 20
12.757950
 30
0.0
 11
59.664370
 21
12.187430
 31
0.0
  0
LINE
  5
167
100
AcDbEntity
  8
Layer_1
 62
7
100
AcDbLine
 10
59.664370
 20
12.187430
 30
0.0
 11
59.253970
 21
11.687360
 31
0.0
  0
LINE
  5
168
100
AcDbEntity
  8
Layer_1
 62
7
100
AcDbLine
 10
59.253970
 20
11.687360
 30
0.0
 11
58.753900
 21
11.276960
 31
0.0
  0
LINE
  5
169
100
AcDbEntity
  8
Layer_1
 62
7
100
AcDbLine
 10
58.753900
 20
11.276960
 30
0.0
 11
58.183380
 21
10.972010
 31
0.0
  0
LINE
  5
16a
100
AcDbEntity
  8
Layer_1
 62
7
100
AcDbLine
 10
58.183380
 20
10.972010
 30
0.0
 11
57.564320
 21
10.784220
 31
0.0
  0
LINE
  5
16b
100
AcDbEntity
  8
Layer_1
 62
7
100
AcDbLine
 10
57.564320
 20
10.784220
 30
0.0
 11
56.920520
 21
10.720810
 31
0.0
  0
LINE
  5
16c
100
AcDbEntity
  8
Layer_1
 62
7
100
AcDbLine
 10
56.920520
 20
10.720810
 30
0.0
 11
56.276720
 21
10.784220
 31
0.0
  0
LINE
  5
16d
100
AcDbEntity
  8
Layer_1
 62
7
100
AcDbLine
 10
56.276720
 20
10.784220
 30
0.0
 11
55.657670
 21
10.972010
 31
0.0
  0
LINE
  5
16e
100
AcDbEntity
  8
Layer_1
 62
7
100
AcDbLine
 10
55.657670
 20
10.972010
 30
0.0
 11
55.087140
 21
11.276960
 31
0.0
  0
LINE
  5
16f
100
AcDbEntity
  8
Layer_1
 62
7
100
AcDbLine
 10
55.087140
 20
11.276960
 30
0.0
 11
54.587070
 21
11.687360
 31
0.0
  0
LINE
  5
170
100
AcDbEntity
  8
Layer_1
 62
7
100
AcDbLine
 10
54.587070
 20
11.687360
 30
0.0
 11
54.176670
 21
12.187430
 31
0.0
  0
LINE
  5
171
100
AcDbEntity
  8
Layer_1
 62
7
100
AcDbLine
 10
54.176670
 20
12.187430
 30
0.0
 11
53.871720
 21
12.757950
 31
0.0
  0
LINE
  5
172
100
AcDbEntity
  8
Layer_1
 62
7
100
AcDbLine
 10
53.871720
 20
12.757950
 30
0.0
 11
53.683930
 21
13.377010
 31
0.0
  0
LINE
  5
173
100
AcDbEntity
  8
Layer_1
 62
7
100
AcDbLine
 10
53.683930
 20
13.377010
 30
0.0
 11
53.620520
 21
14.020810
 31
0.0
  0
LINE
  5
174
100
AcDbEntity
  8
Layer_1
 62
7
100
AcDbLine
 10
53.620520
 20
14.020810
 30
0.0
 11
53.683930
 21
14.664610
 31
0.0
  0
LINE
  5
175
100
AcDbEntity
  8
Layer_1
 62
7
100
AcDbLine
 10
53.683930
 20
14.664610
 30
0.0
 11
53.871720
 21
15.283660
 31
0.0
  0
LINE
  5
176
100
AcDbEntity
  8
Layer_1
 62
7
100
AcDbLine
 10
53.871720
 20
15.283660
 30
0.0
 11
54.176670
 21
15.854190
 31
0.0
  0
LINE
  5
177
100
AcDbEntity
  8
Layer_1
 62
7
100
AcDbLine
 10
54.176670
 20
15.854190
 30
0.0
 11
54.587070
 21
16.354260
 31
0.0
  0
LINE
  5
178
100
AcDbEntity
  8
Layer_1
 62
7
100
AcDbLine
 10
54.587070
 20
16.354260
 30
0.0
 11
55.087140
 21
16.764660
 31
0.0
  0
LINE
  5
179
100
AcDbEntity
  8
Layer_1
 62
7
100
AcDbLine
 10
55.087140
 20
16.764660
 30
0.0
 11
55.657670
 21
17.069610
 31
0.0
  0
LINE
  5
17a
100
AcDbEntity
  8
Layer_1
 62
7
100
AcDbLine
 10
55.657670
 20
17.069610
 30
0.0
 11
56.276720
 21
17.257400
 31
0.0
  0
LINE
  5
17b
100
AcDbEntity
  8
Layer_1
 62
7
100
AcDbLine
 10
56.276720
 20
17.257400
 30
0.0
 11
56.920520
 21
17.320810
 31
0.0
  0
LINE
  5
17c
100
AcDbEntity
  8
Layer_1
 62
7
100
AcDbLine
 10
56.920520
 20
17.320810
 30
0.0
 11
57.564320
 21
17.257400
 31
0.0
  0
LINE
  5
17d
100
AcDbEntity
  8
Layer_1
 62
7
100
AcDbLine
 10
57.564320
 20
17.257400
 30
0.0
 11
58.183380
 21
17.069610
 31
0.0
  0
LINE
  5
17e
100
AcDbEntity
  8
Layer_1
 62
7
100
AcDbLine
 10
58.183380
 20
17.069610
 30
0.0
 11
58.753900
 21
16.764660
 31
0.0
  0
LINE
  5
17f
100
AcDbEntity
  8
Layer_1
 62
7
100
AcDbLine
 10
58.753900
 20
16.764660
 30
0.0
 11
59.253970
 21
16.354260
 31
0.0
  0
LINE
  5
180
100
AcDbEntity
  8
Layer_1
 62
7
100
AcDbLine
 10
59.253970
 20
16.354260
 30
0.0
 11
59.664370
 21
15.854190
 31
0.0
  0
LINE
  5
181
100
AcDbEntity
  8
Layer_1
 62
7
100
AcDbLine
 10
59.664370
 20
15.854190
 30
0.0
 11
59.969320
 21
15.283660
 31
0.0
  0
LINE
  5
182
100
AcDbEntity
  8
Layer_1
 62
7
100
AcDbLine
 10
59.969320
 20
15.283660
 30
0.0
 11
60.157110
 21
14.664610
 31
0.0
  0
LINE
  5
183
100
AcDbEntity
  8
Layer_1
 62
7
100
AcDbLine
 10
60.157110
 20
14.664610
 30
0.0
 11
60.220520
 21
14.020810
 31
0.0
  0
LINE
  5
184
100
AcDbEntity
  8
Layer_1
 62
7
100
AcDbLine
 10
60.220520
 20
25.450830
 30
0.0
 11
60.157110
 21
24.807030
 31
0.0
  0
LINE
  5
185
100
AcDbEntity
  8
Layer_1
 62
7
100
AcDbLine
 10
60.157110
 20
24.807030
 30
0.0
 11
59.969320
 21
24.187970
 31
0.0
  0
LINE
  5
186
100
AcDbEntity
  8
Layer_1
 62
7
100
AcDbLine
 10
59.969320
 20
24.187970
 30
0.0
 11
59.664370
 21
23.617450
 31
0.0
  0
LINE
  5
187
100
AcDbEntity
  8
Layer_1
 62
7
100
AcDbLine
 10
59.664370
 20
23.617450
 30
0.0
 11
59.253970
 21
23.117380
 31
0.0
  0
LINE
  5
188
100
AcDbEntity
  8
Layer_1
 62
7
100
AcDbLine
 10
59.253970
 20
23.117380
 30
0.0
 11
58.753900
 21
22.706980
 31
0.0
  0
LINE
  5
189
100
AcDbEntity
  8
Layer_1
 62
7
100
AcDbLine
 10
58.753900
 20
22.706980
 30
0.0
 11
58.183380
 21
22.402030
 31
0.0
  0
LINE
  5
18a
100
AcDbEntity
  8
Layer_1
 62
7
100
AcDbLine
 10
58.183380
 20
22.402030
 30
0.0
 11
57.564320
 21
22.214240
 31
0.0
  0
LINE
  5
18b
100
AcDbEntity
  8
Layer_1
 62
7
100
AcDbLine
 10
57.564320
 20
22.214240
 30
0.0
 11
56.920520
 21
22.150830
 31
0.0
  0
LINE
  5
18c
100
AcDbEntity
  8
Layer_1
 62
7
100
AcDbLine
 10
56.920520
 20
22.150830
 30
0.0
 11
56.276720
 21
22.214240
 31
0.0
  0
LINE
  5
18d
100
AcDbEntity
  8
Layer_1
 62
7
100
AcDbLine
 10
56.276720
 20
22.214240
 30
0.0
 11
55.657670
 21
22.402030
 31
0.0
  0
LINE
  5
18e
100
AcDbEntity
  8
Layer_1
 62
7
100
AcDbLine
 10
55.657670
 20
22.402030
 30
0.0
 11
55.087140
 21
22.706980
 31
0.0
  0
LINE
  5
18f
100
AcDbEntity
  8
Layer_1
 62
7
100
AcDbLine
 10
55.087140
 20
22.706980
 30
0.0
 11
54.587070
 21
23.117380
 31
0.0
  0
LINE
  5
190
100
AcDbEntity
  8
Layer_1
 62
7
100
AcDbLine
 10
54.587070
 20
23.117380
 30
0.0
 11
54.176670
 21
23.617450
 31
0.0
  0
LINE
  5
191
100
AcDbEntity
  8
Layer_1
 62
7
100
AcDbLine
 10
54.176670
 20
23.617450
 30
0.0
 11
53.871720
 21
24.187970
 31
0.0
  0
LINE
  5
192
100
AcDbEntity
  8
Layer_1
 62
7
100
AcDbLine
 10
53.871720
 20
24.187970
 30
0.0
 11
53.683930
 21
24.807030
 31
0.0
  0
LINE
  5
193
100
AcDbEntity
  8
Layer_1
 62
7
100
AcDbLine
 10
53.683930
 20
24.807030
 30
0.0
 11
53.620520
 21
25.450830
 31
0.0
  0
LINE
  5
194
100
AcDbEntity
  8
Layer_1
 62
7
100
AcDbLine
 10
53.620520
 20
25.450830
 30
0.0
 11
53.683930
 21
26.094630
 31
0.0
  0
LINE
  5
195
100
AcDbEntity
  8
Layer_1
 62
7
100
AcDbLine
 10
53.683930
 20
26.094630
 30
0.0
 11
53.871720
 21
26.713680
 31
0.0
  0
LINE
  5
196
100
AcDbEntity
  8
Layer_1
 62
7
100
AcDbLine
 10
53.871720
 20
26.713680
 30
0.0
 11
54.176670
 21
27.284210
 31
0.0
  0
LINE
  5
197
100
AcDbEntity
  8
Layer_1
 62
7
100
AcDbLine
 10
54.176670
 20
27.284210
 30
0.0
 11
54.587070
 21
27.784280
 31
0.0
  0
LINE
  5
198
100
AcDbEntity
  8
Layer_1
 62
7
100
AcDbLine
 10
54.587070
 20
27.784280
 30
0.0
 11
55.087140
 21
28.194680
 31
0.0
  0
LINE
  5
199
100
AcDbEntity
  8
Layer_1
 62
7
100
AcDbLine
 10
55.087140
 20
28.194680
 30
0.0
 11
55.657670
 21
28.499630
 31
0.0
  0
LINE
  5
19a
100
AcDbEntity
  8
Layer_1
 62
7
100
AcDbLine
 10
55.657670
 20
28.499630
 30
0.0
 11
56.276720
 21
28.687420
 31
0.0
  0
LINE
  5
19b
100
AcDbEntity
  8
Layer_1
 62
7
100
AcDbLine
 10
56.276720
 20
28.687420
 30
0.0
 11
56.920520
 21
28.750830
 31
0.0
  0
LINE
  5
19c
100
AcDbEntity
  8
Layer_1
 62
7
100
AcDbLine
 10
56.920520
 20
28.750830
 30
0.0
 11
57.564320
 21
28.687420
 31
0.0
  0
LINE
  5
19d
100
AcDbEntity
  8
Layer_1
 62
7
100
AcDbLine
 10
57.564320
 20
28.687420
 30
0.0
 11
58.183380
 21
28.499630
 31
0.0
  0
LINE
  5
19e
100
AcDbEntity
  8
Layer_1
 62
7
100
AcDbLine
 10
58.183380
 20
28.499630
 30
0.0
 11
58.753900
 21
28.194680
 31
0.0
  0
LINE
  5
19f
100
AcDbEntity
  8
Layer_1
 62
7
100
AcDbLine
 10
58.753900
 20
28.194680
 30
0.0
 11
59.253970
 21
27.784280
 31
0.0
  0
LINE
  5
1a0
100
AcDbEntity
  8
Layer_1
 62
7
100
AcDbLine
 10
59.253970
 20
27.784280
 30
0.0
 11
59.664370
 21
27.284210
 31
0.0
  0
LINE
  5
1a1
100
AcDbEntity
  8
Layer_1
 62
7
100
AcDbLine
 10
59.664370
 20
27.284210
 30
0.0
 11
59.969320
 21
26.713680
 31
0.0
  0
LINE
  5
1a2
100
AcDbEntity
  8
Layer_1
 62
7
100
AcDbLine
 10
59.969320
 20
26.713680
 30
0.0
 11
60.157110
 21
26.094630
 31
0.0
  0
LINE
  5
1a3
100
AcDbEntity
  8
Layer_1
 62
7
100
AcDbLine
 10
60.157110
 20
26.094630
 30
0.0
 11
60.220520
 21
25.450830
 31
0.0
  0
LINE
  5
1a4
100
AcDbEntity
  8
Layer_1
 62
7
100
AcDbLine
 10
106.958320
 20
25.450830
 30
0.0
 11
106.894910
 21
24.807030
 31
0.0
  0
LINE
  5
1a5
100
AcDbEntity
  8
Layer_1
 62
7
100
AcDbLine
 10
106.894910
 20
24.807030
 30
0.0
 11
106.707120
 21
24.187970
 31
0.0
  0
LINE
  5
1a6
100
AcDbEntity
  8
Layer_1
 62
7
100
AcDbLine
 10
106.707120
 20
24.187970
 30
0.0
 11
106.402170
 21
23.617450
 31
0.0
  0
LINE
  5
1a7
100
AcDbEntity
  8
Layer_1
 62
7
100
AcDbLine
 10
106.402170
 20
23.617450
 30
0.0
 11
105.991770
 21
23.117380
 31
0.0
  0
LINE
  5
1a8
100
AcDbEntity
  8
Layer_1
 62
7
100
AcDbLine
 10
105.991770
 20
23.117380
 30
0.0
 11
105.491700
 21
22.706980
 31
0.0
  0
LINE
  5
1a9
100
AcDbEntity
  8
Layer_1
 62
7
100
AcDbLine
 10
105.491700
 20
22.706980
 30
0.0
 11
104.921180
 21
22.402030
 31
0.0
  0
LINE
  5
1aa
100
AcDbEntity
  8
Layer_1
 62
7
100
AcDbLine
 10
104.921180
 20
22.402030
 30
0.0
 11
104.302120
 21
22.214240
 31
0.0
  0
LINE
  5
1ab
100
AcDbEntity
  8
Layer_1
 62
7
100
AcDbLine
 10
104.302120
 20
22.214240
 30
0.0
 11
103.658320
 21
22.150830
 31
0.0
  0
LINE
  5
1ac
100
AcDbEntity
  8
Layer_1
 62
7
100
AcDbLine
 10
103.658320
 20
22.150830
 30
0.0
 11
103.014520
 21
22.214240
 31
0.0
  0
LINE
  5
1ad
100
AcDbEntity
  8
Layer_1
 62
7
100
AcDbLine
 10
103.014520
 20
22.214240
 30
0.0
 11
102.395470
 21
22.402030
 31
0.0
  0
LINE
  5
1ae
100
AcDbEntity
  8
Layer_1
 62
7
100
AcDbLine
 10
102.395470
 20
22.402030
 30
0.0
 11
101.824940
 21
22.706980
 31
0.0
  0
LINE
  5
1af
100
AcDbEntity
  8
Layer_1
 62
7
100
AcDbLine
 10
101.824940
 20
22.706980
 30
0.0
 11
101.324870
 21
23.117380
 31
0.0
  0
LINE
  5
1b0
100
AcDbEntity
  8
Layer_1
 62
7
100
AcDbLine
 10
101.324870
 20
23.117380
 30
0.0
 11
100.914470
 21
23.617450
 31
0.0
  0
LINE
  5
1b1
100
AcDbEntity
  8
Layer_1
 62
7
100
AcDbLine
 10
100.914470
 20
23.617450
 30
0.0
 11
100.609520
 21
24.187970
 31
0.0
  0
LINE
  5
1b2
100
AcDbEntity
  8
Layer_1
 62
7
100
AcDbLine
 10
100.609520
 20
24.187970
 30
0.0
 11
100.421730
 21
24.807030
 31
0.0
  0
LINE
  5
1b3
100
AcDbEntity
  8
Layer_1
 62
7
100
AcDbLine
 10
100.421730
 20
24.807030
 30
0.0
 11
100.358320
 21
25.450830
 31
0.0
  0
LINE
  5
1b4
100
AcDbEntity
  8
Layer_1
 62
7
100
AcDbLine
 10
100.358320
 20
25.450830
 30
0.0
 11
100.421730
 21
26.094630
 31
0.0
  0
LINE
  5
1b5
100
AcDbEntity
  8
Layer_1
 62
7
100
AcDbLine
 10
100.421730
 20
26.094630
 30
0.0
 11
100.609520
 21
26.713680
 31
0.0
  0
LINE
  5
1b6
100
AcDbEntity
  8
Layer_1
 62
7
100
AcDbLine
 10
100.609520
 20
26.713680
 30
0.0
 11
100.914470
 21
27.284210
 31
0.0
  0
LINE
  5
1b7
100
AcDbEntity
  8
Layer_1
 62
7
100
AcDbLine
 10
100.914470
 20
27.284210
 30
0.0
 11
101.324870
 21
27.784280
 31
0.0
  0
LINE
  5
1b8
100
AcDbEntity
  8
Layer_1
 62
7
100
AcDbLine
 10
101.324870
 20
27.784280
 30
0.0
 11
101.824940
 21
28.194680
 31
0.0
  0
LINE
  5
1b9
100
AcDbEntity
  8
Layer_1
 62
7
100
AcDbLine
 10
101.824940
 20
28.194680
 30
0.0
 11
102.395470
 21
28.499630
 31
0.0
  0
LINE
  5
1ba
100
AcDbEntity
  8
Layer_1
 62
7
100
AcDbLine
 10
102.395470
 20
28.499630
 30
0.0
 11
103.014520
 21
28.687420
 31
0.0
  0
LINE
  5
1bb
100
AcDbEntity
  8
Layer_1
 62
7
100
AcDbLine
 10
103.014520
 20
28.687420
 30
0.0
 11
103.658320
 21
28.750830
 31
0.0
  0
LINE
  5
1bc
100
AcDbEntity
  8
Layer_1
 62
7
100
AcDbLine
 10
103.658320
 20
28.750830
 30
0.0
 11
104.302120
 21
28.687420
 31
0.0
  0
LINE
  5
1bd
100
AcDbEntity
  8
Layer_1
 62
7
100
AcDbLine
 10
104.302120
 20
28.687420
 30
0.0
 11
104.921180
 21
28.499630
 31
0.0
  0
LINE
  5
1be
100
AcDbEntity
  8
Layer_1
 62
7
100
AcDbLine
 10
104.921180
 20
28.499630
 30
0.0
 11
105.491700
 21
28.194680
 31
0.0
  0
LINE
  5
1bf
100
AcDbEntity
  8
Layer_1
 62
7
100
AcDbLine
 10
105.491700
 20
28.194680
 30
0.0
 11
105.991770
 21
27.784280
 31
0.0
  0
LINE
  5
1c0
100
AcDbEntity
  8
Layer_1
 62
7
100
AcDbLine
 10
105.991770
 20
27.784280
 30
0.0
 11
106.402170
 21
27.284210
 31
0.0
  0
LINE
  5
1c1
100
AcDbEntity
  8
Layer_1
 62
7
100
AcDbLine
 10
106.402170
 20
27.284210
 30
0.0
 11
106.707120
 21
26.713680
 31
0.0
  0
LINE
  5
1c2
100
AcDbEntity
  8
Layer_1
 62
7
100
AcDbLine
 10
106.707120
 20
26.713680
 30
0.0
 11
106.894910
 21
26.094630
 31
0.0
  0
LINE
  5
1c3
100
AcDbEntity
  8
Layer_1
 62
7
100
AcDbLine
 10
106.894910
 20
26.094630
 30
0.0
 11
106.958320
 21
25.450830
 31
0.0
  0
LINE
  5
1c4
100
AcDbEntity
  8
Layer_1
 62
7
100
AcDbLine
 10
107.007320
 20
14.020810
 30
0.0
 11
106.943910
 21
13.377010
 31
0.0
  0
LINE
  5
1c5
100
AcDbEntity
  8
Layer_1
 62
7
100
AcDbLine
 10
106.943910
 20
13.377010
 30
0.0
 11
106.756120
 21
12.757950
 31
0.0
  0
LINE
  5
1c6
100
AcDbEntity
  8
Layer_1
 62
7
100
AcDbLine
 10
106.756120
 20
12.757950
 30
0.0
 11
106.451170
 21
12.187430
 31
0.0
  0
LINE
  5
1c7
100
AcDbEntity
  8
Layer_1
 62
7
100
AcDbLine
 10
106.451170
 20
12.187430
 30
0.0
 11
106.040770
 21
11.687360
 31
0.0
  0
LINE
  5
1c8
100
AcDbEntity
  8
Layer_1
 62
7
100
AcDbLine
 10
106.040770
 20
11.687360
 30
0.0
 11
105.540700
 21
11.276960
 31
0.0
  0
LINE
  5
1c9
100
AcDbEntity
  8
Layer_1
 62
7
100
AcDbLine
 10
105.540700
 20
11.276960
 30
0.0
 11
104.970180
 21
10.972010
 31
0.0
  0
LINE
  5
1ca
100
AcDbEntity
  8
Layer_1
 62
7
100
AcDbLine
 10
104.970180
 20
10.972010
 30
0.0
 11
104.351120
 21
10.784220
 31
0.0
  0
LINE
  5
1cb
100
AcDbEntity
  8
Layer_1
 62
7
100
AcDbLine
 10
104.351120
 20
10.784220
 30
0.0
 11
103.707320
 21
10.720810
 31
0.0
  0
LINE
  5
1cc
100
AcDbEntity
  8
Layer_1
 62
7
100
AcDbLine
 10
103.707320
 20
10.720810
 30
0.0
 11
103.063520
 21
10.784220
 31
0.0
  0
LINE
  5
1cd
100
AcDbEntity
  8
Layer_1
 62
7
100
AcDbLine
 10
103.063520
 20
10.784220
 30
0.0
 11
102.444470
 21
10.972010
 31
0.0
  0
LINE
  5
1ce
100
AcDbEntity
  8
Layer_1
 62
7
100
AcDbLine
 10
102.444470
 20
10.972010
 30
0.0
 11
101.873940
 21
11.276960
 31
0.0
  0
LINE
  5
1cf
100
AcDbEntity
  8
Layer_1
 62
7
100
AcDbLine
 10
101.873940
 20
11.276960
 30
0.0
 11
101.373870
 21
11.687360
 31
0.0
  0
LINE
  5
1d0
100
AcDbEntity
  8
Layer_1
 62
7
100
AcDbLine
 10
101.373870
 20
11.687360
 30
0.0
 11
100.963470
 21
12.187430
 31
0.0
  0
LINE
  5
1d1
100
AcDbEntity
  8
Layer_1
 62
7
100
AcDbLine
 10
100.963470
 20
12.187430
 30
0.0
 11
100.658520
 21
12.757950
 31
0.0
  0
LINE
  5
1d2
100
AcDbEntity
  8
Layer_1
 62
7
100
AcDbLine
 10
100.658520
 20
12.757950
 30
0.0
 11
100.470730
 21
13.377010
 31
0.0
  0
LINE
  5
1d3
100
AcDbEntity
  8
Layer_1
 62
7
100
AcDbLine
 10
100.470730
 20
13.377010
 30
0.0
 11
100.407320
 21
14.020810
 31
0.0
  0
LINE
  5
1d4
100
AcDbEntity
  8
Layer_1
 62
7
100
AcDbLine
 10
100.407320
 20
14.020810
 30
0.0
 11
100.470730
 21
14.664610
 31
0.0
  0
LINE
  5
1d5
100
AcDbEntity
  8
Layer_1
 62
7
100
AcDbLine
 10
100.470730
 20
14.664610
 30
0.0
 11
100.658520
 21
15.283660
 31
0.0
  0
LINE
  5
1d6
100
AcDbEntity
  8
Layer_1
 62
7
100
AcDbLine
 10
100.658520
 20
15.283660
 30
0.0
 11
100.963470
 21
15.854190
 31
0.0
  0
LINE
  5
1d7
100
AcDbEntity
  8
Layer_1
 62
7
100
AcDbLine
 10
100.963470
 20
15.854190
 30
0.0
 11
101.373870
 21
16.354260
 31
0.0
  0
LINE
  5
1d8
100
AcDbEntity
  8
Layer_1
 62
7
100
AcDbLine
 10
101.373870
 20
16.354260
 30
0.0
 11
101.873940
 21
16.764660
 31
0.0
  0
LINE
  5
1d9
100
AcDbEntity
  8
Layer_1
 62
7
100
AcDbLine
 10
101.873940
 20
16.764660
 30
0.0
 11
102.444470
 21
17.069610
 31
0.0
  0
LINE
  5
1da
100
AcDbEntity
  8
Layer_1
 62
7
100
AcDbLine
 10
102.444470
 20
17.069610
 30
0.0
 11
103.063520
 21
17.257400
 31
0.0
  0
LINE
  5
1db
100
AcDbEntity
  8
Layer_1
 62
7
100
AcDbLine
 10
103.063520
 20
17.257400
 30
0.0
 11
103.707320
 21
17.320810
 31
0.0
  0
LINE
  5
1dc
100
AcDbEntity
  8
Layer_1
 62
7
100
AcDbLine
 10
103.707320
 20
17.320810
 30
0.0
 11
104.351120
 21
17.257400
 31
0.0
  0
LINE
  5
1dd
100
AcDbEntity
  8
Layer_1
 62
7
100
AcDbLine
 10
104.351120
 20
17.257400
 30
0.0
 11
104.970180
 21
17.069610
 31
0.0
  0
LINE
  5
1de
100
AcDbEntity
  8
Layer_1
 62
7
100
AcDbLine
 10
104.970180
 20
17.069610
 30
0.0
 11
105.540700
 21
16.764660
 31
0.0
  0
LINE
  5
1df
100
AcDbEntity
  8
Layer_1
 62
7
100
AcDbLine
 10
105.540700
 20
16.764660
 30
0.0
 11
106.040770
 21
16.354260
 31
0.0
  0
LINE
  5
1e0
100
AcDbEntity
  8
Layer_1
 62
7
100
AcDbLine
 10
106.040770
 20
16.354260
 30
0.0
 11
106.451170
 21
15.854190
 31
0.0
  0
LINE
  5
1e1
100
AcDbEntity
  8
Layer_1
 62
7
100
AcDbLine
 10
106.451170
 20
15.854190
 30
0.0
 11
106.756120
 21
15.283660
 31
0.0
  0
LINE
  5
1e2
100
AcDbEntity
  8
Layer_1
 62
7
100
AcDbLine
 10
106.756120
 20
15.283660
 30
0.0
 11
106.943910
 21
14.664610
 31
0.0
  0
LINE
  5
1e3
100
AcDbEntity
  8
Layer_1
 62
7
100
AcDbLine
 10
106.943910
 20
14.664610
 30
0.0
 11
107.007320
 21
14.020810
 31
0.0
  0
LINE
  5
1e4
100
AcDbEntity
  8
Layer_1
 62
7
100
AcDbLine
 10
75.816120
 20
25.450830
 30
0.0
 11
75.752710
 21
24.807030
 31
0.0
  0
LINE
  5
1e5
100
AcDbEntity
  8
Layer_1
 62
7
100
AcDbLine
 10
75.752710
 20
24.807030
 30
0.0
 11
75.564920
 21
24.187970
 31
0.0
  0
LINE
  5
1e6
100
AcDbEntity
  8
Layer_1
 62
7
100
AcDbLine
 10
75.564920
 20
24.187970
 30
0.0
 11
75.259970
 21
23.617450
 31
0.0
  0
LINE
  5
1e7
100
AcDbEntity
  8
Layer_1
 62
7
100
AcDbLine
 10
75.259970
 20
23.617450
 30
0.0
 11
74.849570
 21
23.117380
 31
0.0
  0
LINE
  5
1e8
100
AcDbEntity
  8
Layer_1
 62
7
100
AcDbLine
 10
74.849570
 20
23.117380
 30
0.0
 11
74.349500
 21
22.706980
 31
0.0
  0
LINE
  5
1e9
100
AcDbEntity
  8
Layer_1
 62
7
100
AcDbLine
 10
74.349500
 20
22.706980
 30
0.0
 11
73.778980
 21
22.402030
 31
0.0
  0
LINE
  5
1ea
100
AcDbEntity
  8
Layer_1
 62
7
100
AcDbLine
 10
73.778980
 20
22.402030
 30
0.0
 11
73.159920
 21
22.214240
 31
0.0
  0
LINE
  5
1eb
100
AcDbEntity
  8
Layer_1
 62
7
100
AcDbLine
 10
73.159920
 20
22.214240
 30
0.0
 11
72.516120
 21
22.150830
 31
0.0
  0
LINE
  5
1ec
100
AcDbEntity
  8
Layer_1
 62
7
100
AcDbLine
 10
72.516120
 20
22.150830
 30
0.0
 11
71.872320
 21
22.214240
 31
0.0
  0
LINE
  5
1ed
100
AcDbEntity
  8
Layer_1
 62
7
100
AcDbLine
 10
71.872320
 20
22.214240
 30
0.0
 11
71.253270
 21
22.402030
 31
0.0
  0
LINE
  5
1ee
100
AcDbEntity
  8
Layer_1
 62
7
100
AcDbLine
 10
71.253270
 20
22.402030
 30
0.0
 11
70.682740
 21
22.706980
 31
0.0
  0
LINE
  5
1ef
100
AcDbEntity
  8
Layer_1
 62
7
100
AcDbLine
 10
70.682740
 20
22.706980
 30
0.0
 11
70.182670
 21
23.117380
 31
0.0
  0
LINE
  5
1f0
100
AcDbEntity
  8
Layer_1
 62
7
100
AcDbLine
 10
70.182670
 20
23.117380
 30
0.0
 11
69.772270
 21
23.617450
 31
0.0
  0
LINE
  5
1f1
100
AcDbEntity
  8
Layer_1
 62
7
100
AcDbLine
 10
69.772270
 20
23.617450
 30
0.0
 11
69.467320
 21
24.187970
 31
0.0
  0
LINE
  5
1f2
100
AcDbEntity
  8
Layer_1
 62
7
100
AcDbLine
 10
69.467320
 20
24.187970
 30
0.0
 11
69.279530
 21
24.807030
 31
0.0
  0
LINE
  5
1f3
100
AcDbEntity
  8
Layer_1
 62
7
100
AcDbLine
 10
69.279530
 20
24.807030
 30
0.0
 11
69.216120
 21
25.450830
 31
0.0
  0
LINE
  5
1f4
100
AcDbEntity
  8
Layer_1
 62
7
100
AcDbLine
 10
69.216120
 20
25.450830
 30
0.0
 11
69.279530
 21
26.094630
 31
0.0
  0
LINE
  5
1f5
100
AcDbEntity
  8
Layer_1
 62
7
100
AcDbLine
 10
69.279530
 20
26.094630
 30
0.0
 11
69.467320
 21
26.713680
 31
0.0
  0
LINE
  5
1f6
100
AcDbEntity
  8
Layer_1
 62
7
100
AcDbLine
 10
69.467320
 20
26.713680
 30
0.0
 11
69.772270
 21
27.284210
 31
0.0
  0
LINE
  5
1f7
100
AcDbEntity
  8
Layer_1
 62
7
100
AcDbLine
 10
69.772270
 20
27.284210
 30
0.0
 11
70.182670
 21
27.784280
 31
0.0
  0
LINE
  5
1f8
100
AcDbEntity
  8
Layer_1
 62
7
100
AcDbLine
 10
70.182670
 20
27.784280
 30
0.0
 11
70.682740
 21
28.194680
 31
0.0
  0
LINE
  5
1f9
100
AcDbEntity
  8
Layer_1
 62
7
100
AcDbLine
 10
70.682740
 20
28.194680
 30
0.0
 11
71.253270
 21
28.499630
 31
0.0
  0
LINE
  5
1fa
100
AcDbEntity
  8
Layer_1
 62
7
100
AcDbLine
 10
71.253270
 20
28.499630
 30
0.0
 11
71.872320
 21
28.687420
 31
0.0
  0
LINE
  5
1fb
100
AcDbEntity
  8
Layer_1
 62
7
100
AcDbLine
 10
71.872320
 20
28.687420
 30
0.0
 11
72.516120
 21
28.750830
 31
0.0
  0
LINE
  5
1fc
100
AcDbEntity
  8
Layer_1
 62
7
100
AcDbLine
 10
72.516120
 20
28.750830
 30
0.0
 11
73.159920
 21
28.687420
 31
0.0
  0
LINE
  5
1fd
100
AcDbEntity
  8
Layer_1
 62
7
100
AcDbLine
 10
73.159920
 20
28.687420
 30
0.0
 11
73.778980
 21
28.499630
 31
0.0
  0
LINE
  5
1fe
100
AcDbEntity
  8
Layer_1
 62
7
100
AcDbLine
 10
73.778980
 20
28.499630
 30
0.0
 11
74.349500
 21
28.194680
 31
0.0
  0
LINE
  5
1ff
100
AcDbEntity
  8
Layer_1
 62
7
100
AcDbLine
 10
74.349500
 20
28.194680
 30
0.0
 11
74.849570
 21
27.784280
 31
0.0
  0
LINE
  5
200
100
AcDbEntity
  8
Layer_1
 62
7
100
AcDbLine
 10
74.849570
 20
27.784280
 30
0.0
 11
75.259970
 21
27.284210
 31
0.0
  0
LINE
  5
201
100
AcDbEntity
  8
Layer_1
 62
7
100
AcDbLine
 10
75.259970
 20
27.284210
 30
0.0
 11
75.564920
 21
26.713680
 31
0.0
  0
LINE
  5
202
100
AcDbEntity
  8
Layer_1
 62
7
100
AcDbLine
 10
75.564920
 20
26.713680
 30
0.0
 11
75.752710
 21
26.094630
 31
0.0
  0
LINE
  5
203
100
AcDbEntity
  8
Layer_1
 62
7
100
AcDbLine
 10
75.752710
 20
26.094630
 30
0.0
 11
75.816120
 21
25.450830
 31
0.0
  0
LINE
  5
204
100
AcDbEntity
  8
Layer_1
 62
7
100
AcDbLine
 10
75.816120
 20
14.020810
 30
0.0
 11
75.752710
 21
13.377010
 31
0.0
  0
LINE
  5
205
100
AcDbEntity
  8
Layer_1
 62
7
100
AcDbLine
 10
75.752710
 20
13.377010
 30
0.0
 11
75.564920
 21
12.757950
 31
0.0
  0
LINE
  5
206
100
AcDbEntity
  8
Layer_1
 62
7
100
AcDbLine
 10
75.564920
 20
12.757950
 30
0.0
 11
75.259970
 21
12.187430
 31
0.0
  0
LINE
  5
207
100
AcDbEntity
  8
Layer_1
 62
7
100
AcDbLine
 10
75.259970
 20
12.187430
 30
0.0
 11
74.849570
 21
11.687360
 31
0.0
  0
LINE
  5
208
100
AcDbEntity
  8
Layer_1
 62
7
100
AcDbLine
 10
74.849570
 20
11.687360
 30
0.0
 11
74.349500
 21
11.276960
 31
0.0
  0
LINE
  5
209
100
AcDbEntity
  8
Layer_1
 62
7
100
AcDbLine
 10
74.349500
 20
11.276960
 30
0.0
 11
73.778980
 21
10.972010
 31
0.0
  0
LINE
  5
20a
100
AcDbEntity
  8
Layer_1
 62
7
100
AcDbLine
 10
73.778980
 20
10.972010
 30
0.0
 11
73.159920
 21
10.784220
 31
0.0
  0
LINE
  5
20b
100
AcDbEntity
  8
Layer_1
 62
7
100
AcDbLine
 10
73.159920
 20
10.784220
 30
0.0
 11
72.516120
 21
10.720810
 31
0.0
  0
LINE
  5
20c
100
AcDbEntity
  8
Layer_1
 62
7
100
AcDbLine
 10
72.516120
 20
10.720810
 30
0.0
 11
71.872320
 21
10.784220
 31
0.0
  0
LINE
  5
20d
100
AcDbEntity
  8
Layer_1
 62
7
100
AcDbLine
 10
71.872320
 20
10.784220
 30
0.0
 11
71.253270
 21
10.972010
 31
0.0
  0
LINE
  5
20e
100
AcDbEntity
  8
Layer_1
 62
7
100
AcDbLine
 10
71.253270
 20
10.972010
 30
0.0
 11
70.682740
 21
11.276960
 31
0.0
  0
LINE
  5
20f
100
AcDbEntity
  8
Layer_1
 62
7
100
AcDbLine
 10
70.682740
 20
11.276960
 30
0.0
 11
70.182670
 21
11.687360
 31
0.0
  0
LINE
  5
210
100
AcDbEntity
  8
Layer_1
 62
7
100
AcDbLine
 10
70.182670
 20
11.687360
 30
0.0
 11
69.772270
 21
12.187430
 31
0.0
  0
LINE
  5
211
100
AcDbEntity
  8
Layer_1
 62
7
100
AcDbLine
 10
69.772270
 20
12.187430
 30
0.0
 11
69.467320
 21
12.757950
 31
0.0
  0
LINE
  5
212
100
AcDbEntity
  8
Layer_1
 62
7
100
AcDbLine
 10
69.467320
 20
12.757950
 30
0.0
 11
69.279530
 21
13.377010
 31
0.0
  0
LINE
  5
213
100
AcDbEntity
  8
Layer_1
 62
7
100
AcDbLine
 10
69.279530
 20
13.377010
 30
0.0
 11
69.216120
 21
14.020810
 31
0.0
  0
LINE
  5
214
100
AcDbEntity
  8
Layer_1
 62
7
100
AcDbLine
 10
69.216120
 20
14.020810
 30
0.0
 11
69.279530
 21
14.664610
 31
0.0
  0
LINE
  5
215
100
AcDbEntity
  8
Layer_1
 62
7
100
AcDbLine
 10
69.279530
 20
14.664610
 30
0.0
 11
69.467320
 21
15.283660
 31
0.0
  0
LINE
  5
216
100
AcDbEntity
  8
Layer_1
 62
7
100
AcDbLine
 10
69.467320
 20
15.283660
 30
0.0
 11
69.772270
 21
15.854190
 31
0.0
  0
LINE
  5
217
100
AcDbEntity
  8
Layer_1
 62
7
100
AcDbLine
 10
69.772270
 20
15.854190
 30
0.0
 11
70.182670
 21
16.354260
 31
0.0
  0
LINE
  5
218
100
AcDbEntity
  8
Layer_1
 62
7
100
AcDbLine
 10
70.182670
 20
16.354260
 30
0.0
 11
70.682740
 21
16.764660
 31
0.0
  0
LINE
  5
219
100
AcDbEntity
  8
Layer_1
 62
7
100
AcDbLine
 10
70.682740
 20
16.764660
 30
0.0
 11
71.253270
 21
17.069610
 31
0.0
  0
LINE
  5
21a
100
AcDbEntity
  8
Layer_1
 62
7
100
AcDbLine
 10
71.253270
 20
17.069610
 30
0.0
 11
71.872320
 21
17.257400
 31
0.0
  0
LINE
  5
21b
100
AcDbEntity
  8
Layer_1
 62
7
100
AcDbLine
 10
71.872320
 20
17.257400
 30
0.0
 11
72.516120
 21
17.320810
 31
0.0
  0
LINE
  5
21c
100
AcDbEntity
  8
Layer_1
 62
7
100
AcDbLine
 10
72.516120
 20
17.320810
 30
0.0
 11
73.159920
 21
17.257400
 31
0.0
  0
LINE
  5
21d
100
AcDbEntity
  8
Layer_1
 62
7
100
AcDbLine
 10
73.159920
 20
17.257400
 30
0.0
 11
73.778980
 21
17.069610
 31
0.0
  0
LINE
  5
21e
100
AcDbEntity
  8
Layer_1
 62
7
100
AcDbLine
 10
73.778980
 20
17.069610
 30
0.0
 11
74.349500
 21
16.764660
 31
0.0
  0
LINE
  5
21f
100
AcDbEntity
  8
Layer_1
 62
7
100
AcDbLine
 10
74.349500
 20
16.764660
 30
0.0
 11
74.849570
 21
16.354260
 31
0.0
  0
LINE
  5
220
100
AcDbEntity
  8
Layer_1
 62
7
100
AcDbLine
 10
74.849570
 20
16.354260
 30
0.0
 11
75.259970
 21
15.854190
 31
0.0
  0
LINE
  5
221
100
AcDbEntity
  8
Layer_1
 62
7
100
AcDbLine
 10
75.259970
 20
15.854190
 30
0.0
 11
75.564920
 21
15.283660
 31
0.0
  0
LINE
  5
222
100
AcDbEntity
  8
Layer_1
 62
7
100
AcDbLine
 10
75.564920
 20
15.283660
 30
0.0
 11
75.752710
 21
14.664610
 31
0.0
  0
LINE
  5
223
100
AcDbEntity
  8
Layer_1
 62
7
100
AcDbLine
 10
75.752710
 20
14.664610
 30
0.0
 11
75.816120
 21
14.020810
 31
0.0
  0
LINE
  5
224
100
AcDbEntity
  8
Layer_1
 62
7
100
AcDbLine
 10
48.699330
 20
8.362820
 30
0.0
 11
20.349330
 21
8.362820
 31
0.0
  0
LINE
  5
225
100
AcDbEntity
  8
Layer_1
 62
7
100
AcDbLine
 10
20.349330
 20
8.362820
 30
0.0
 11
20.349330
 21
26.062820
 31
0.0
  0
LINE
  5
226
100
AcDbEntity
  8
Layer_1
 62
7
100
AcDbLine
 10
20.349330
 20
26.062820
 30
0.0
 11
48.699330
 21
26.062820
 31
0.0
  0
LINE
  5
227
100
AcDbEntity
  8
Layer_1
 62
7
100
AcDbLine
 10
48.699330
 20
26.062820
 30
0.0
 11
48.699330
 21
8.362820
 31
0.0
  0
ENDSEC
  0
SECTION
  2
OBJECTS
  0
DICTIONARY
  5
C
330
0
100
AcDbDictionary
  3
ACAD_GROUP
350
D
  3
ACAD_MLINESTYLE
350
17
  0
DICTIONARY
  5
D
330
C
100
AcDbDictionary
  0
DICTIONARY
  5
1A
330
C
100
AcDbDictionary
  0
DICTIONARY
  5
17
330
C
100
AcDbDictionary
  3
STANDARD
350
18
  0
DICTIONARY
  5
19
330
C
100
AcDbDictionary
  0
ENDSEC
  0
EOF
